<svg id="Capa_1" enable-background="new 0 0 512 512" height="512" viewBox="0 0 512 512" width="512"
     xmlns="http://www.w3.org/2000/svg">
    <g>
        <path d="m33.682 71.637v160.396c0 9.643 7.817 17.46 17.46 17.46h285.943c9.643 0 17.46-7.817 17.46-17.46v-160.396c0-35.422-28.715-64.137-64.137-64.137-10.901 0-21.47 3.749-29.934 10.617l-3.518 2.855c-1.068.866-2.58.922-3.709.137l-7.338-5.103c-7.962-5.538-17.428-8.506-27.126-8.506h-120.964c-35.422 0-64.137 28.715-64.137 64.137z"
              fill="#365e7d"/>
        <g>
            <path d="m290.408 7.5c-5.418 0-10.754.928-15.79 2.703 26.433 7.922 45.701 32.423 45.701 61.434v160.396c0 9.643-7.817 17.46-17.46 17.46h34.227c9.643 0 17.46-7.817 17.46-17.46v-160.396c0-35.422-28.716-64.137-64.138-64.137z"
                  fill="#2b4d66"/>
        </g>
        <path d="m239.884 345.03h-18.801-53.939-18.801c-37.413 0-67.742 30.329-67.742 67.742v83.1c0 4.765 3.863 8.627 8.628 8.627h209.77c4.765 0 8.628-3.863 8.628-8.627v-83.1c-.001-37.413-30.33-67.742-67.743-67.742z"
              fill="#80b4fb"/>
        <path d="m239.884 345.03h-33.008c37.413 0 67.742 30.329 67.742 67.742v83.1c0 4.765-3.863 8.628-8.628 8.628h33.008c4.765 0 8.627-3.863 8.627-8.628v-83.1c.001-37.413-30.328-67.742-67.741-67.742z"
              fill="#61a2f9"/>
        <g>
            <path d="m212.994 295.08-36.221-2.131c-9.248 0-9.654 43.328-9.654 43.328v26.524c0 14.895 12.075 26.97 26.97 26.97 14.895 0 26.97-12.075 26.97-26.97v-26.524s1.183-41.197-8.065-41.197z"
                  fill="#eaac9d"/>
        </g>
        <path d="m194.114 345.03c-71.877 0-130.145-58.268-130.145-130.144v-78.716c0-1.89 1.537-3.415 3.427-3.419 60.234-.111 113.469-8.738 160.955-39.423 1.419-.917 3.315-.624 4.331.725 21.444 28.468 50.691 36.346 88.165 38.514 1.911.111 3.411 1.68 3.411 3.595v78.724c0 71.877-58.267 130.144-130.144 130.144z"
              fill="#ffcbbe"/>
        <path d="m320.847 132.568c-11.027-.638-21.336-1.778-30.949-3.783v86.102c0 66.052-49.209 120.606-112.965 129.014 5.622.742 11.355 1.13 17.18 1.13 71.877 0 130.144-58.268 130.144-130.144v-78.724c.001-1.915-1.499-3.485-3.41-3.595z"
              fill="#eaac9d"/>
        <g>
            <path d="m392.972 26.866s14.338-19.366 42.673-19.366c25.262 0 42.673 19.882 42.673 43.036 0 26.801-23.733 58.511-85.346 86.072-61.613-27.561-85.346-59.271-85.346-86.072 0-23.154 17.411-43.036 42.673-43.036 28.335 0 42.673 19.366 42.673 19.366z"
                  fill="#dd636e"/>
            <g>
                <path d="m435.645 7.5c-3.765 0-7.275.349-10.545.943 6.562 7.68 10.326 17.731 10.326 28.492 0 25.448-21.424 55.321-76.333 81.866 9.72 6.062 20.956 12.026 33.878 17.807 61.613-27.561 85.346-59.271 85.346-86.072.001-23.155-17.41-43.036-42.672-43.036z"
                      fill="#da4a54"/>
            </g>
        </g>
        <g>
            <path d="m141.317 271.182c-1.62 3.812.157 8.216 3.97 9.835 3.812 1.623 8.216-.157 9.835-3.97 6.66-15.674 21.966-25.802 38.992-25.802s32.332 10.128 38.992 25.802c1.213 2.855 3.987 4.569 6.905 4.569.979 0 1.973-.192 2.93-.6 3.812-1.619 5.59-6.023 3.97-9.835-9.018-21.224-29.741-34.937-52.797-34.937s-43.78 13.714-52.797 34.938z"/>
            <path d="m155.429 182.403c-4.018-1.017-8.095 1.415-9.111 5.43-.864 3.414-3.934 5.799-7.464 5.799-3.529 0-6.599-2.385-7.463-5.799-1.017-4.015-5.095-6.447-9.111-5.43s-6.446 5.096-5.43 9.111c2.551 10.078 11.6 17.117 22.004 17.117 10.405 0 19.454-7.039 22.005-17.117 1.016-4.015-1.414-8.094-5.43-9.111z"/>
            <path d="m249.374 208.632c10.404 0 19.453-7.039 22.004-17.117 1.017-4.016-1.414-8.095-5.43-9.111-4.017-1.017-8.095 1.415-9.111 5.43-.864 3.414-3.934 5.799-7.463 5.799-3.53 0-6.6-2.385-7.464-5.799-1.017-4.015-5.095-6.447-9.111-5.43s-6.446 5.096-5.43 9.111c2.55 10.078 11.599 17.117 22.005 17.117z"/>
            <path d="m435.645 0c-21.018 0-35.254 9.417-42.673 16.049-7.419-6.632-21.656-16.049-42.673-16.049-10.115 0-19.433 2.881-27.232 7.873-10.061-5.156-21.267-7.873-32.658-7.873-12.581 0-24.891 4.365-34.661 12.293l-.942.765-4.613-3.209c-9.264-6.444-20.124-9.849-31.41-9.849h-120.964c-39.501 0-71.637 32.136-71.637 71.637v160.396c0 13.763 11.197 24.96 24.96 24.96h11.923c11.595 36.002 37.635 65.581 71.27 81.865-34.814 6.585-61.233 37.214-61.233 73.914v83.1c0 8.893 7.234 16.128 16.127 16.128h139.646c4.143 0 7.5-3.357 7.5-7.5s-3.357-7.5-7.5-7.5h-139.646c-.621 0-1.127-.506-1.127-1.128v-83.1c0-33.218 27.024-60.242 60.241-60.242h11.276v10.271c0 19.007 15.463 34.47 34.47 34.47s34.47-15.463 34.47-34.47v-10.271h11.325c33.218 0 60.242 27.024 60.242 60.242v83.1c0 .622-.506 1.128-1.128 1.128h-40.137c-4.143 0-7.5 3.357-7.5 7.5s3.357 7.5 7.5 7.5h40.137c8.893 0 16.128-7.235 16.128-16.128v-83.1c0-36.7-26.419-67.329-61.234-73.914 33.634-16.284 59.675-45.863 71.27-81.865h11.923c13.763 0 24.96-11.197 24.96-24.96v-21.637c0-4.143-3.357-7.5-7.5-7.5s-7.5 3.357-7.5 7.5v21.637c0 5.492-4.468 9.96-9.96 9.96h-8.014c1.758-8.767 2.687-17.831 2.687-27.107v-78.724c0-5.872-4.602-10.74-10.478-11.082-35.043-2.027-62.501-8.847-82.607-35.539-3.356-4.455-9.679-5.56-14.393-2.512-40.716 26.31-89.104 38.098-156.9 38.222-6.017.013-10.911 4.911-10.911 10.919v41.631c0 4.143 3.357 7.5 7.5 7.5s7.5-3.357 7.5-7.5v-37.571c66.976-.58 115.948-12.538 157.68-38.526 23.845 29.284 55.957 35.972 87.609 38.122v75.061c0 67.626-55.019 122.645-122.645 122.645s-122.644-55.02-122.644-122.646v-7.098c0-4.143-3.357-7.5-7.5-7.5s-7.5 3.357-7.5 7.5v7.098c0 9.277.928 18.34 2.687 27.107h-8.014c-5.492 0-9.96-4.468-9.96-9.96v-160.396c0-31.23 25.407-56.637 56.637-56.637h120.964c8.208 0 16.107 2.477 22.844 7.163l7.338 5.104c3.845 2.675 9.074 2.483 12.718-.472l3.518-2.854c7.105-5.766 16.059-8.94 25.209-8.94 7.062 0 14.031 1.32 20.543 3.85-6.796 8.611-10.825 19.584-10.825 31.685 0 16.068 7.457 32.613 21.565 47.848 6.898 7.449 15.379 14.624 25.354 21.493v60.533c0 4.143 3.357 7.5 7.5 7.5s7.5-3.357 7.5-7.5v-51.094c8.48 4.899 17.762 9.62 27.864 14.139.975.436 2.019.653 3.062.653s2.088-.218 3.062-.653c29.995-13.418 52.946-28.582 68.218-45.071 14.108-15.234 21.565-31.779 21.565-47.848 0-28.339-22.038-50.536-50.173-50.536zm-222.086 351.15v11.65c0 10.735-8.734 19.47-19.47 19.47s-19.47-8.734-19.47-19.47v-11.657c6.371.907 12.877 1.387 19.494 1.387 6.601 0 13.091-.477 19.446-1.38zm179.413-222.778c-49.525-22.767-77.846-51.035-77.846-77.837 0-20.259 15.121-35.535 35.173-35.535 17.587 0 28.83 8.449 33.773 13.213l-7.99 17.163c-1.553 3.334-.458 7.303 2.585 9.369l16.584 11.265-9.278 24.094c-1.488 3.865.438 8.206 4.304 9.694 3.858 1.483 8.202-.427 9.694-4.304l11.418-29.648c1.253-3.253.099-6.94-2.785-8.899l-16.23-11.024 7.019-15.077c2.361-2.829 14.426-15.846 36.252-15.846 20.052 0 35.173 15.276 35.173 35.535 0 26.801-28.32 55.069-77.846 77.837z"/>
        </g>
    </g>
</svg>