<svg id="Capa_1" enable-background="new 0 0 512 512" height="512" viewBox="0 0 512 512" width="512" xmlns="http://www.w3.org/2000/svg"><g><path d="m409.857 348.729h-14.414-42.624-4.106-14.414-268.244v44.9h201.61c5.992 0 10.731 4.909 10.719 10.901v.113 74.24c0 3.933 3.188 7.121 7.121 7.121h173.146c3.933 0 7.121-3.188 7.121-7.121v-74.24c0-30.88-25.034-55.914-55.915-55.914z" fill="#80b4fb"/><path d="m409.857 348.729h-27.245c30.881 0 55.915 25.034 55.915 55.915v74.24c0 3.933-3.188 7.121-7.121 7.121h27.245c3.933 0 7.121-3.188 7.121-7.121v-74.24c0-30.881-25.034-55.915-55.915-55.915z" fill="#61a2f9"/><path d="m239.656 123.068v124.138c0 7.959 6.452 14.412 14.412 14.412h236.02c7.959 0 14.412-6.452 14.412-14.412v-124.138c0-29.238-23.702-52.939-52.939-52.939-8.998 0-17.721 3.094-24.708 8.763l-2.904 2.357c-.881.715-2.129.761-3.061.113l-6.057-4.212c-6.572-4.571-14.385-7.021-22.39-7.021h-99.844c-29.239-.001-52.941 23.701-52.941 52.939z" fill="#365e7d"/><g><path d="m451.56 70.128c-4.472 0-8.876.766-13.033 2.231 21.818 6.539 37.722 26.762 37.722 50.708v124.138c0 7.959-6.452 14.412-14.412 14.412h28.251c7.959 0 14.412-6.452 14.412-14.412v-124.137c0-29.238-23.702-52.94-52.94-52.94z" fill="#2b4d66"/></g><g><path d="m387.662 307.499-29.897-1.759c-7.633 0-7.968 35.763-7.968 35.763v21.893c0 12.294 9.967 22.261 22.261 22.261 12.294 0 22.261-9.967 22.261-22.261v-21.893c0 .001.976-34.004-6.657-34.004z" fill="#eaac9d"/></g><path d="m372.078 348.729c-59.328 0-107.423-48.095-107.423-107.422v-64.973c0-1.56 1.268-2.819 2.829-2.822 49.718-.091 93.659-7.213 132.854-32.54 1.171-.757 2.736-.515 3.575.599 17.7 23.498 41.84 30 72.772 31.79 1.577.091 2.815 1.387 2.815 2.967v64.979c.001 59.328-48.094 107.422-107.422 107.422z" fill="#ffcbbe"/><path d="m476.685 173.361c-9.102-.527-17.611-1.467-25.545-3.123v71.069c0 54.52-40.617 99.549-93.242 106.49 4.64.612 9.373.933 14.18.933 59.328 0 107.422-48.095 107.422-107.422v-64.979c.001-1.581-1.238-2.877-2.815-2.968z" fill="#eaac9d"/><path d="m260.628 284.524h-241.413c-6.47 0-11.715-5.245-11.715-11.715v-116.859c0-60.227 48.823-109.05 109.05-109.05h46.744c60.227 0 109.05 48.823 109.05 109.05v116.858c-.001 6.47-5.246 11.716-11.716 11.716z" fill="#e49542"/><path d="m163.294 46.9h-31.715c60.227 0 109.05 48.823 109.05 109.05v116.859c0 6.47-5.245 11.715-11.715 11.715h31.715c6.47 0 11.715-5.245 11.715-11.715v-116.859c0-60.227-48.824-109.05-109.05-109.05z" fill="#e27d47"/><path d="m177.701 348.729h-15.518-44.522-15.518c-30.881 0-55.915 25.034-55.915 55.915v74.24c0 3.933 3.188 7.121 7.121 7.121h173.146c3.933 0 7.121-3.188 7.121-7.121v-74.24c0-30.881-25.034-55.915-55.915-55.915z" fill="#78d0b1"/><path d="m177.701 348.729h-27.245c30.881 0 55.915 25.034 55.915 55.915v74.24c0 3.933-3.188 7.121-7.121 7.121h27.245c3.933 0 7.121-3.188 7.121-7.121v-74.24c0-30.881-25.034-55.915-55.915-55.915z" fill="#66b49d"/><g><path d="m155.506 307.499-29.897-1.759c-7.633 0-7.968 35.763-7.968 35.763v21.893c0 12.294 9.967 22.261 22.261 22.261 12.294 0 22.261-9.967 22.261-22.261v-21.893c-.001.001.976-34.004-6.657-34.004z" fill="#eaac9d"/></g><path d="m139.922 348.729c-59.328 0-107.423-48.095-107.423-107.422v-64.973c0-1.56 1.268-2.819 2.829-2.822 49.718-.091 93.659-7.213 132.854-32.54 1.171-.757 2.736-.515 3.575.599 17.7 23.498 41.84 30 72.772 31.79 1.577.091 2.815 1.387 2.815 2.967v64.979c0 59.328-48.094 107.422-107.422 107.422z" fill="#ffcbbe"/><path d="m244.529 173.361c-9.102-.527-17.611-1.467-25.545-3.123v71.069c0 54.52-40.617 99.549-93.242 106.49 4.64.612 9.373.933 14.18.933 59.328 0 107.422-48.095 107.422-107.422v-64.979c0-1.581-1.238-2.877-2.815-2.968z" fill="#eaac9d"/><g><path d="m77.001 394.473h-24.515c-5.354 0-9.694-4.34-9.694-9.694v-43.587c0-5.354 4.34-9.694 9.694-9.694h24.516c5.354 0 9.694 4.34 9.694 9.694v43.587c-.001 5.354-4.341 9.694-9.695 9.694z" fill="#ffcbbe"/></g><g><path d="m316.749 234.896v6.255c0 4.143 3.357 7.5 7.5 7.5s7.5-3.357 7.5-7.5v-6.255c0-4.143-3.357-7.5-7.5-7.5s-7.5 3.358-7.5 7.5z"/><path d="m412.408 234.896v6.255c0 4.143 3.357 7.5 7.5 7.5s7.5-3.357 7.5-7.5v-6.255c0-4.143-3.357-7.5-7.5-7.5s-7.5 3.358-7.5 7.5z"/><path d="m400.154 279.094c-18.894 10.485-37.26 10.484-56.151 0-3.623-2.009-8.187-.704-10.197 2.918s-.704 8.188 2.918 10.197c11.73 6.51 23.543 9.765 35.355 9.765s23.624-3.255 35.354-9.765c3.621-2.01 4.928-6.575 2.918-10.197-2.011-3.622-6.574-4.926-10.197-2.918z"/><path d="m451.56 62.629c-10.684 0-21.137 3.707-29.435 10.439l-.013.011-3-2.087c-7.868-5.472-17.091-8.363-26.673-8.363h-99.845c-15.725 0-30.451 5.982-41.611 16.635-21.378-24.417-52.762-39.864-87.689-39.864h-30.51l7.274-8.545c2.685-3.154 2.305-7.888-.849-10.572s-7.887-2.306-10.573.85l-11.868 13.941-6.85-8.675c-2.567-3.252-7.283-3.805-10.534-1.238s-3.805 7.283-1.238 10.533l3.667 4.644c-23.435 2.976-45.473 12.999-63.216 28.973-3.079 2.771-3.327 7.514-.556 10.593 2.771 3.077 7.514 3.326 10.592.556 18.665-16.805 42.785-26.06 67.917-26.06h46.744c55.995 0 101.549 45.555 101.549 101.55v116.858c0 2.324-1.891 4.215-4.215 4.215h-11.473c3.687-11.248 5.689-23.251 5.689-35.716v-64.979c0-5.543-4.342-10.135-9.882-10.454-28.562-1.653-50.922-7.186-67.213-28.813-3.18-4.224-9.17-5.276-13.638-2.387-33.382 21.57-73.105 31.236-128.797 31.339-5.688.011-10.314 4.642-10.314 10.322v64.973c0 12.464 2.002 24.468 5.689 35.716h-11.474c-2.324 0-4.215-1.891-4.215-4.215v-116.859c0-19.192 5.384-37.883 15.57-54.05 2.208-3.505 1.157-8.136-2.348-10.344-3.505-2.209-8.136-1.155-10.344 2.348-11.696 18.564-17.878 40.02-17.878 62.046v116.858c0 10.595 8.62 19.215 19.215 19.215h17.6c5.918 11.982 13.861 22.791 23.384 31.975h-7.714c-9.48 0-17.193 7.713-17.193 17.194v43.587c0 4.21 1.526 8.066 4.046 11.058-.404 2.909-.611 5.86-.611 8.807v74.24c0 8.062 6.559 14.621 14.621 14.621h173.146c8.062 0 14.621-6.559 14.621-14.621-.039-78.135.091-74.235-.102-77.755h26.651c1.078 0 1.805.502 2.225.923.644.645.997 1.52.995 2.479v13.378c0 4.143 3.357 7.5 7.5 7.5s7.5-3.357 7.5-7.5v-13.363c.01-4.956-1.9-9.604-5.378-13.09-3.428-3.435-7.989-5.326-12.842-5.326h-29.313c-3.606-11.79-10.566-22.124-19.758-29.9h123.703v7.168c0 16.41 13.351 29.761 29.762 29.761 16.41 0 29.761-13.351 29.761-29.761v-7.168h8.038c26.696 0 48.415 21.719 48.415 48.415v73.861h-172.388v-30.61c0-4.143-3.357-7.5-7.5-7.5s-7.5 3.357-7.5 7.5v30.988c0 8.062 6.559 14.622 14.621 14.622h173.146c8.062 0 14.621-6.559 14.621-14.621v-74.24c0-29.635-20.437-54.58-47.955-61.5 12.501-6.537 23.834-15.389 33.331-26.258 2.725-3.119 2.405-7.857-.714-10.583-3.117-2.724-7.855-2.405-10.583.714-18.996 21.743-46.433 34.213-75.273 34.213-40.437 0-77.742-24.935-93.295-62.181.676-1.96 1.061-4.054 1.061-6.24v-91.98c50.474-1.393 88.192-11.138 120.87-31.229 19.597 23.433 45.572 29.107 71.287 30.972v60.733c0 14.795-3.162 29.044-9.399 42.352-1.758 3.75-.143 8.216 3.608 9.974 3.734 1.75 8.208.16 9.974-3.608 3.174-6.771 5.653-13.753 7.434-20.905h6.471c12.082 0 21.911-9.83 21.911-21.912v-124.139c0-33.326-27.114-60.439-60.44-60.439zm-411.561 178.678v-60.325c54.359-.619 94.382-10.383 128.558-31.382 19.596 23.433 45.572 29.108 71.287 30.973v60.734c0 55.097-44.825 99.922-99.922 99.922-55.098 0-99.923-44.825-99.923-99.922zm85.142 113.974c4.84.624 9.774.948 14.781.948 4.994 0 9.913-.322 14.741-.942v8.11c0 8.139-6.622 14.761-14.761 14.761s-14.761-6.622-14.761-14.761zm-74.849-14.089c0-1.21.984-2.194 2.193-2.194h24.516c1.209 0 2.194.984 2.194 2.194v43.587c0 1.21-.984 2.194-2.194 2.194h-24.516c-1.209 0-2.193-.984-2.193-2.194zm175.824 63.452v73.861h-172.388c.034-78.727-.074-73.698.081-76.532h23.193c9.481 0 17.194-7.713 17.194-17.194v-27.874c6.193-1.021 9.423-.556 15.945-.676v7.168c0 16.41 13.351 29.761 29.761 29.761s29.761-13.351 29.761-29.761v-7.168h8.039c26.695 0 48.414 21.719 48.414 48.415zm145.963-48.415c4.959 0 9.88-.327 14.74-.956v8.124c0 8.139-6.622 14.761-14.761 14.761-8.14 0-14.762-6.622-14.762-14.761v-8.157c4.87.641 9.804.989 14.783.989zm-56.671-15h-118.771c19.954-11.37 36.186-28.543 46.391-49.206h17.6c2.456 0 4.797-.48 6.957-1.324 10.465 21.524 27.405 39.039 47.823 50.53zm181.592-94.023c0 3.812-3.101 6.912-6.911 6.912h-3.79c.466-4.226.702-8.498.702-12.812v-64.979c0-5.543-4.342-10.135-9.882-10.454-28.562-1.653-50.923-7.186-67.214-28.813-3.181-4.225-9.173-5.271-13.638-2.387-31.01 20.038-67.147 29.739-116.424 31.151v-9.874c0-23.925-7.25-46.187-19.663-64.711 8.514-8.706 20.061-13.61 32.415-13.61h99.845c6.505 0 12.767 1.964 18.108 5.678l6.059 4.215c3.652 2.536 8.614 2.353 12.067-.449l2.903-2.356c5.633-4.57 12.729-7.087 19.982-7.087 25.056 0 45.439 20.384 45.439 45.439v124.137z"/><path d="m92.092 248.651c4.142 0 7.5-3.357 7.5-7.5v-6.255c0-4.143-3.358-7.5-7.5-7.5s-7.5 3.357-7.5 7.5v6.255c0 4.143 3.358 7.5 7.5 7.5z"/><path d="m187.751 248.651c4.142 0 7.5-3.357 7.5-7.5v-6.255c0-4.143-3.358-7.5-7.5-7.5s-7.5 3.357-7.5 7.5v6.255c0 4.143 3.358 7.5 7.5 7.5z"/><path d="m104.567 292.21c11.73 6.51 23.542 9.765 35.355 9.765 11.812 0 23.625-3.255 35.354-9.765 3.622-2.01 4.928-6.575 2.918-10.197-2.011-3.622-6.576-4.928-10.197-2.918-18.892 10.484-37.26 10.484-56.151 0-3.622-2.009-8.187-.704-10.197 2.918s-.704 8.187 2.918 10.197z"/></g></g></svg>