<svg id="Capa_1" enable-background="new 0 0 512 512" height="512" viewBox="0 0 512 512" width="512" xmlns="http://www.w3.org/2000/svg"><g><g><path d="m390.324 459.549h-268.647c-14.419 0-26.108-11.689-26.108-26.108v-281.542c0-79.749 64.649-144.399 144.399-144.399h32.066c79.749 0 144.399 64.65 144.399 144.399v281.542c-.001 14.419-11.69 26.108-26.109 26.108z" fill="#365e7d"/><path d="m272.033 7.5h-30.287c79.749 0 144.399 64.65 144.399 144.399v281.542c0 14.419-11.689 26.108-26.108 26.108h30.287c14.419 0 26.108-11.689 26.108-26.108v-281.542c0-79.749-64.649-144.399-144.399-144.399z" fill="#2b4d66"/></g><path d="m301.771 345.031h-18.801-53.939-18.801c-37.413 0-67.742 30.329-67.742 67.742v83.1c0 4.765 3.863 8.628 8.628 8.628h209.77c4.765 0 8.628-3.863 8.628-8.628v-83.1c-.001-37.413-30.33-67.742-67.743-67.742z" fill="#ffe07d"/><path d="m301.771 345.031h-33.008c37.413 0 67.742 30.329 67.742 67.742v83.1c0 4.765-3.863 8.628-8.628 8.628h33.008c4.765 0 8.627-3.863 8.627-8.628v-83.1c.001-37.413-30.328-67.742-67.741-67.742z" fill="#ffd064"/><g><path d="m274.881 295.08-36.221-2.131c-9.248 0-9.654 43.328-9.654 43.328v26.524c0 14.895 12.075 26.97 26.97 26.97 14.895 0 26.97-12.075 26.97-26.97v-26.524s1.183-41.197-8.065-41.197z" fill="#eaac9d"/></g><path d="m256.001 345.031c-71.877 0-130.145-58.268-130.145-130.144v-78.716c0-1.89 1.537-3.415 3.427-3.419 60.234-.111 113.469-8.738 160.955-39.423 1.419-.917 3.315-.624 4.332.725 21.444 28.468 50.691 36.346 88.165 38.514 1.911.111 3.411 1.68 3.411 3.595v78.724c-.001 71.876-58.268 130.144-130.145 130.144z" fill="#ffcbbe"/><path d="m382.734 132.568c-11.027-.638-21.336-1.778-30.949-3.783v86.102c0 66.052-49.209 120.606-112.965 129.014 5.622.742 11.355 1.13 17.18 1.13 71.877 0 130.144-58.268 130.144-130.144v-78.724c.001-1.914-1.499-3.484-3.41-3.595z" fill="#eaac9d"/><g fill="#efa5c3"><circle cx="182.596" cy="246.557" r="16.649"/><circle cx="329.406" cy="246.557" r="16.649"/></g><g><path d="m400.354 70.591c-2.22-3.497-6.856-4.53-10.352-2.312-3.497 2.22-4.532 6.854-2.312 10.352 13.896 21.888 21.242 47.224 21.242 73.268v281.542c0 10.261-8.348 18.608-18.607 18.608h-13.312v-39.276c0-36.7-26.419-67.329-61.234-73.914 46.039-22.29 77.866-69.483 77.866-123.972v-78.724c0-5.875-4.603-10.742-10.477-11.082-35.044-2.028-62.503-8.848-82.608-35.54-3.355-4.456-9.679-5.559-14.393-2.512-40.715 26.31-89.104 38.098-156.897 38.223-6.018.011-10.914 4.909-10.914 10.919v41.63c0 4.142 3.357 7.5 7.5 7.5s7.5-3.358 7.5-7.5v-37.571c66.976-.581 115.949-12.539 157.68-38.526 23.844 29.284 55.953 35.971 87.609 38.122v75.06c0 67.626-55.019 122.645-122.645 122.645s-122.645-55.019-122.645-122.645v-7.098c0-4.142-3.357-7.5-7.5-7.5s-7.5 3.358-7.5 7.5v7.098c0 54.489 31.827 101.683 77.866 123.972-34.814 6.585-61.234 37.214-61.234 73.914v39.276h-13.312c-10.261 0-18.608-8.348-18.608-18.608v-281.541c.002-75.486 61.415-136.899 136.901-136.899h32.065c37.136 0 71.895 14.631 97.875 41.197 2.896 2.96 7.645 3.016 10.606.119 2.961-2.896 3.014-7.645.118-10.606-28.825-29.477-67.393-45.71-108.599-45.71h-32.065c-83.758 0-151.899 68.142-151.899 151.899v281.542c0 18.532 15.077 33.608 33.608 33.608h13.312v28.823c0 8.893 7.234 16.128 16.127 16.128h139.646c4.143 0 7.5-3.357 7.5-7.5s-3.357-7.5-7.5-7.5h-139.647c-.621 0-1.127-.506-1.127-1.128v-83.1c0-33.218 27.024-60.242 60.242-60.242h11.275v10.271c0 19.007 15.463 34.47 34.47 34.47s34.47-15.463 34.47-34.47v-10.271h11.325c33.218 0 60.242 27.024 60.242 60.242v83.1c0 .622-.506 1.128-1.128 1.128h-40.137c-4.143 0-7.5 3.357-7.5 7.5s3.357 7.5 7.5 7.5h40.137c8.893 0 16.128-7.235 16.128-16.128v-28.823h13.312c18.531 0 33.607-15.077 33.607-33.608v-281.542c.001-28.896-8.152-57.012-23.577-81.308zm-144.378 311.68c-10.735 0-19.47-8.734-19.47-19.47v-11.657c6.371.907 12.878 1.387 19.495 1.387 6.6 0 13.09-.477 19.444-1.38v11.65c.001 10.736-8.734 19.47-19.469 19.47z"/><path d="m206.246 168.124c-13.604 0-24.671 11.067-24.671 24.671 0 4.142 3.357 7.5 7.5 7.5s7.5-3.358 7.5-7.5c0-5.333 4.338-9.671 9.671-9.671s9.671 4.338 9.671 9.671c0 4.142 3.357 7.5 7.5 7.5s7.5-3.358 7.5-7.5c0-13.604-11.067-24.671-24.671-24.671z"/><path d="m296.083 192.795c0-5.333 4.338-9.671 9.671-9.671s9.672 4.338 9.672 9.671c0 4.142 3.357 7.5 7.5 7.5s7.5-3.358 7.5-7.5c0-13.604-11.067-24.671-24.672-24.671-13.604 0-24.671 11.067-24.671 24.671 0 4.142 3.357 7.5 7.5 7.5s7.5-3.358 7.5-7.5z"/><path d="m217.009 260.813c-1.619-3.812-6.023-5.588-9.835-3.97-3.812 1.62-5.59 6.023-3.97 9.835 9.017 21.224 29.74 34.937 52.796 34.937s43.779-13.713 52.797-34.937c1.62-3.812-.157-8.216-3.97-9.835-3.811-1.618-8.215.158-9.835 3.97-6.66 15.674-21.966 25.802-38.992 25.802s-32.331-10.128-38.991-25.802z"/></g></g></svg>