<svg id="Capa_1" enable-background="new 0 0 512 512" height="512" viewBox="0 0 512 512" width="512"
     xmlns="http://www.w3.org/2000/svg">
    <g>
        <g>
            <path d="m390.324 459.549h-268.647c-14.419 0-26.108-11.689-26.108-26.108v-281.542c0-79.75 64.649-144.399 144.398-144.399h32.066c79.749 0 144.399 64.65 144.399 144.399v281.542c0 14.419-11.689 26.108-26.108 26.108z"
                  fill="#e49542"/>
            <path d="m272.033 7.5h-30.287c79.749 0 144.399 64.65 144.399 144.399v281.542c0 14.419-11.689 26.108-26.108 26.108h30.287c14.419 0 26.108-11.689 26.108-26.108v-281.542c0-79.75-64.649-144.399-144.399-144.399z"
                  fill="#e27d47"/>
        </g>
        <path d="m301.771 345.03h-18.801-53.939-18.801c-37.413 0-67.742 30.329-67.742 67.742v83.1c0 4.765 3.863 8.628 8.628 8.628h209.77c4.765 0 8.628-3.863 8.628-8.628v-83.1c-.001-37.413-30.33-67.742-67.743-67.742z"
              fill="#80b4fb"/>
        <path d="m301.771 345.03h-33.008c37.413 0 67.742 30.329 67.742 67.742v83.1c0 4.765-3.863 8.628-8.628 8.628h33.008c4.765 0 8.627-3.863 8.627-8.628v-83.1c.001-37.413-30.328-67.742-67.741-67.742z"
              fill="#61a2f9"/>
        <g>
            <path d="m274.881 295.08-36.221-2.131c-9.248 0-9.654 43.328-9.654 43.328v26.524c0 14.895 12.075 26.97 26.97 26.97 14.895 0 26.97-12.075 26.97-26.97v-26.524c-.001 0 1.183-41.197-8.065-41.197z"
                  fill="#eaac9d"/>
        </g>
        <path d="m256.001 345.03c-71.877 0-130.145-58.268-130.145-130.144v-78.716c0-1.89 1.537-3.415 3.427-3.419 60.234-.111 113.469-8.738 160.955-39.423 1.419-.917 3.315-.624 4.332.725 21.444 28.468 50.691 36.346 88.165 38.514 1.911.111 3.411 1.68 3.411 3.595v78.724c-.001 71.877-58.269 130.144-130.145 130.144z"
              fill="#ffcbbe"/>
        <path d="m382.734 132.568c-11.027-.638-21.336-1.778-30.949-3.783v86.102c0 66.052-49.209 120.606-112.965 129.014 5.622.741 11.355 1.13 17.18 1.13 71.877 0 130.144-58.268 130.144-130.144v-78.724c.001-1.915-1.499-3.485-3.41-3.595z"
              fill="#eaac9d"/>
        <g>
            <g>
                <path d="m219.386 227.81h-27.289c-4.143 0-7.5-3.357-7.5-7.5s3.357-7.5 7.5-7.5h27.289c4.143 0 7.5 3.357 7.5 7.5s-3.358 7.5-7.5 7.5z"
                      fill="#eaac9d"/>
            </g>
            <g>
                <path d="m319.904 227.81h-27.289c-4.143 0-7.5-3.357-7.5-7.5s3.357-7.5 7.5-7.5h27.289c4.143 0 7.5 3.357 7.5 7.5s-3.357 7.5-7.5 7.5z"
                      fill="#eaac9d"/>
            </g>
        </g>
        <g>
            <path d="m266.828 306.843c26.447-6.36 42.731-32.955 36.371-59.402l-95.772 23.031c6.359 26.447 32.954 42.731 59.401 36.371z"
                  fill="#f6f9f9"/>
        </g>
        <g>
            <path d="m400.354 70.591c-2.22-3.498-6.856-4.53-10.352-2.312-3.497 2.221-4.532 6.855-2.312 10.352 13.896 21.889 21.242 47.224 21.242 73.269v281.54c0 10.261-8.348 18.608-18.607 18.608h-13.312v-39.276c0-36.7-26.419-67.329-61.234-73.914 46.039-22.29 77.865-69.483 77.865-123.973v-78.724c0-5.872-4.601-10.739-10.477-11.082-35.044-2.027-62.502-8.847-82.608-35.539-3.355-4.455-9.679-5.56-14.393-2.512-40.714 26.309-89.103 38.098-156.896 38.223-6.02.01-10.916 4.907-10.916 10.918v41.631c0 4.143 3.357 7.5 7.5 7.5s7.5-3.357 7.5-7.5v-37.57c66.977-.582 115.95-12.54 157.68-38.527 23.845 29.284 55.957 35.972 87.609 38.122v75.061c0 67.626-55.019 122.645-122.645 122.645s-122.645-55.019-122.645-122.645v-7.098c0-4.143-3.357-7.5-7.5-7.5s-7.5 3.357-7.5 7.5v7.098c0 54.489 31.827 101.683 77.866 123.973-34.814 6.585-61.234 37.214-61.234 73.914v39.276h-13.312c-10.261 0-18.608-8.348-18.608-18.608v-281.543c.003-75.486 61.416-136.898 136.903-136.898h32.065c37.136 0 71.896 14.631 97.875 41.197 2.896 2.96 7.644 3.015 10.606.118 2.961-2.896 3.014-7.645.118-10.606-28.824-29.476-67.393-45.709-108.599-45.709h-32.065c-83.758 0-151.9 68.142-151.9 151.898v281.542c0 18.532 15.077 33.608 33.608 33.608h13.312v28.823c0 8.893 7.234 16.128 16.127 16.128h139.646c4.143 0 7.5-3.357 7.5-7.5s-3.357-7.5-7.5-7.5h-139.646c-.621 0-1.127-.506-1.127-1.128v-83.1c0-33.218 27.024-60.242 60.242-60.242h11.275v10.271c0 19.007 15.463 34.47 34.47 34.47s34.47-15.463 34.47-34.47v-10.27h11.325c33.218 0 60.242 27.024 60.242 60.242v83.1c0 .622-.506 1.128-1.128 1.128h-40.137c-4.143 0-7.5 3.357-7.5 7.5s3.357 7.5 7.5 7.5h40.137c8.893 0 16.128-7.235 16.128-16.128v-28.823h13.312c18.531 0 33.607-15.077 33.607-33.608v-281.543c.001-28.896-8.153-57.012-23.577-81.307zm-144.378 311.68c-10.735 0-19.47-8.734-19.47-19.47v-11.657c6.371.907 12.878 1.387 19.495 1.387 6.6 0 13.09-.478 19.444-1.38v11.65c0 10.735-8.734 19.47-19.469 19.47z"/>
            <path d="m213.241 203.316v-5.247c0-4.143-3.357-7.5-7.5-7.5s-7.5 3.357-7.5 7.5v5.247c0 4.143 3.357 7.5 7.5 7.5s7.5-3.357 7.5-7.5z"/>
            <path d="m313.76 198.069c0-4.143-3.357-7.5-7.5-7.5s-7.5 3.357-7.5 7.5v5.247c0 4.143 3.357 7.5 7.5 7.5s7.5-3.357 7.5-7.5z"/>
            <path d="m334.873 167.1c-.379-4.125-4.024-7.176-8.154-6.783-28.461 2.611-49.594-1.524-66.504-13.012-2.446-1.66-5.637-1.73-8.152-.18-21.686 13.375-43.289 17.722-66.033 13.298-4.071-.784-8.003 1.865-8.795 5.93-.791 4.065 1.864 8.003 5.93 8.795 6.559 1.276 13.089 1.913 19.584 1.913 18.068 0 35.85-4.931 53.099-14.744 19.162 11.57 42.273 15.684 72.243 12.938 4.123-.38 7.16-4.03 6.782-8.155z"/>
            <path d="m268.581 314.136c30.426-7.317 49.227-38.022 41.909-68.448-.969-4.026-5.012-6.507-9.046-5.538-18.497 4.448-77.09 18.538-95.772 23.031-1.934.465-3.604 1.68-4.643 3.376-1.038 1.696-1.36 3.735-.896 5.67 7.299 30.348 37.946 49.241 68.448 41.909zm-3.508-14.584c-2.944.709-5.89 1.077-8.802 1.145l-7.788-32.383 17.163-4.127 7.787 32.381c-2.623 1.263-5.415 2.276-8.36 2.984zm21.416-12.853-6.257-26.021 16.773-4.034c.625 11.204-3.338 21.964-10.516 30.055zm-52.589-14.879 6.258 26.022c-10.071-3.943-18.494-11.726-23.03-21.989z"/>
        </g>
    </g>
</svg>