<svg id="Capa_1" enable-background="new 0 0 512 512" height="512" viewBox="0 0 512 512" width="512"
     xmlns="http://www.w3.org/2000/svg">
    <g>
        <path d="m397.054 279.493h-281.446c-10.885 0-19.709-8.824-19.709-19.709v-112.12c0-66.365 53.8-120.165 120.165-120.165h80.534c66.365 0 120.165 53.8 120.165 120.165v112.12c0 10.885-8.824 19.709-19.709 19.709z"
              fill="#e49542"/>
        <path d="m296.598 27.5h-34.664c66.365 0 120.165 53.8 120.165 120.165v112.12c0 10.885-8.824 19.709-19.709 19.709h34.664c10.885 0 19.709-8.824 19.709-19.709v-112.12c0-66.366-53.8-120.165-120.165-120.165z"
              fill="#e27d47"/>
        <path d="m302.101 365.03h-18.801-53.939-18.801c-37.413 0-67.742 30.329-67.742 67.742v63.1c0 4.765 3.863 8.628 8.628 8.628h209.77c4.765 0 8.628-3.863 8.628-8.628v-63.1c-.001-37.413-30.33-67.742-67.743-67.742z"
              fill="#dd636e"/>
        <path d="m302.101 365.03h-33.008c37.413 0 67.742 30.329 67.742 67.742v63.1c0 4.765-3.863 8.628-8.628 8.628h33.008c4.765 0 8.627-3.863 8.627-8.628v-63.1c.001-37.413-30.328-67.742-67.741-67.742z"
              fill="#da4a54"/>
        <g>
            <path d="m275.211 315.08-36.221-2.131c-9.248 0-9.654 43.328-9.654 43.328v26.524c0 14.895 12.075 26.97 26.97 26.97 14.895 0 26.97-12.075 26.97-26.97v-26.524s1.183-41.197-8.065-41.197z"
                  fill="#eaac9d"/>
        </g>
        <path d="m256.331 365.03c-71.877 0-130.145-58.268-130.145-130.144v-68.716c0-1.89 1.537-3.415 3.427-3.419 60.234-.111 113.469-8.738 160.955-39.423 1.419-.917 3.315-.624 4.331.725 21.444 28.468 50.691 36.346 88.165 38.514 1.911.111 3.411 1.68 3.411 3.595v68.724c0 71.877-58.267 130.144-130.144 130.144z"
              fill="#ffcbbe"/>
        <path d="m383.065 162.568c-11.027-.638-21.336-1.778-30.949-3.783v76.102c0 66.052-49.209 120.606-112.965 129.014 5.622.742 11.355 1.13 17.18 1.13 71.877 0 130.144-58.268 130.144-130.144v-68.724c0-1.915-1.5-3.485-3.41-3.595z"
              fill="#eaac9d"/>
        <ellipse cx="201.071" cy="232.31" fill="#f6f9f9" rx="21.604" ry="23.604"/>
        <ellipse cx="311.59" cy="232.31" fill="#f6f9f9" rx="21.604" ry="23.604"/>
        <path d="m275.359 328.066h-38.056c-16.367 0-29.636-13.268-29.636-29.636 0-16.367 13.268-29.636 29.636-29.636h38.056c16.367 0 29.636 13.268 29.636 29.636 0 16.368-13.269 29.636-29.636 29.636z"
              fill="#dd636e"/>
        <path d="m237.303 268.795c-3.682 0-7.204.677-10.456 1.903v12.99c0 8.142 6.6 14.742 14.742 14.742 8.142 0 14.742-6.6 14.742-14.742v-14.894h-19.028z"
              fill="#f6f9f9"/>
        <path d="m275.359 268.795h-19.028v14.894c0 8.142 6.6 14.742 14.742 14.742s14.742-6.6 14.742-14.742v-12.99c-3.252-1.228-6.774-1.904-10.456-1.904z"
              fill="#f6f9f9"/>
        <g>
            <path d="m335.109 190.842c1.939-3.66.545-8.199-3.115-10.139-.701-.37-17.391-8.969-35.114 3.228-3.412 2.349-4.274 7.019-1.927 10.431 2.35 3.412 7.018 4.275 10.431 1.927 9.994-6.878 19.138-2.55 19.656-2.295 3.649 1.886 8.143.485 10.069-3.152z"/>
            <path d="m207.278 196.288c3.413 2.348 8.081 1.485 10.431-1.927 2.348-3.412 1.485-8.082-1.927-10.431-17.724-12.194-34.412-3.6-35.114-3.228-3.66 1.939-5.095 6.5-3.155 10.16 1.939 3.659 6.438 5.072 10.099 3.136.388-.192 9.596-4.642 19.666 2.29z"/>
            <path d="m196.071 239.454c4.143 0 7.5-3.357 7.5-7.5v-5.289c0-4.143-3.357-7.5-7.5-7.5s-7.5 3.357-7.5 7.5v5.289c0 4.143 3.358 7.5 7.5 7.5z"/>
            <path d="m322.091 235.954v-5.289c0-4.143-3.357-7.5-7.5-7.5s-7.5 3.357-7.5 7.5v5.289c0 4.143 3.357 7.5 7.5 7.5s7.5-3.357 7.5-7.5z"/>
            <path d="m237.303 335.566h38.057c20.477 0 37.135-16.659 37.135-37.136 0-20.486-16.678-37.136-37.135-37.136h-38.057c-20.451 0-37.136 16.655-37.136 37.136 0 20.477 16.659 37.136 37.136 37.136zm41.011-59.068v7.19c0 3.993-3.248 7.242-7.241 7.242s-7.242-3.249-7.242-7.242v-7.394c9.902.095 11.674-.177 14.483.204zm-29.483-.203v7.394c0 3.993-3.249 7.242-7.242 7.242s-7.242-3.249-7.242-7.242v-7.19c2.251-.302 2.759-.188 14.484-.204zm-29.411 9.111c.881 11.464 10.483 20.524 22.169 20.524 5.652 0 10.814-2.122 14.742-5.607 3.928 3.485 9.091 5.607 14.742 5.607 11.685 0 21.288-9.06 22.168-20.524 2.671 3.658 4.253 8.159 4.253 13.024 0 12.206-9.93 22.136-22.135 22.136h-38.057c-12.206 0-22.136-9.93-22.136-22.136.001-4.865 1.582-9.366 4.254-13.024z"/>
            <path d="m434.725 186.534-10.462-4.127v-34.743c0-27.688-8.865-53.343-23.899-74.284l4.894-19.478c1.01-4.018-1.429-8.093-5.445-9.102-4.019-1.008-8.093 1.429-9.102 5.445l-2.231 8.88c-23.14-24.005-55.567-38.996-91.434-39.12 1.326-3.73-.474-7.885-4.171-9.427-3.819-1.594-8.214.211-9.81 4.034l-2.248 5.388h-51.09c1.125-3.174.005-6.822-2.932-8.76-3.458-2.283-8.11-1.327-10.391 2.129l-1.622 2.458-14.192-13.72c-2.979-2.879-7.726-2.798-10.605.18s-2.799 7.726.18 10.605l8.563 8.278c-13.589 1.835-26.649 5.808-38.762 11.732l-4.679-3.594c-3.286-2.525-7.995-1.904-10.517 1.378-2.449 3.188-1.932 7.71 1.101 10.281-11.355 7.495-21.592 16.864-30.274 27.922-2.558 3.259-1.99 7.973 1.268 10.531 3.258 2.556 7.973 1.989 10.531-1.268 21.448-27.321 53.773-43.152 88.668-43.152 1.954 0 79.134.003 80.533 0 62.124 0 112.665 50.541 112.665 112.664v112.12c0 6.732-5.477 12.209-12.209 12.209h-8.165c3.31-11.81 5.086-24.255 5.086-37.107v-5.293c0-4.143-3.357-7.5-7.5-7.5s-7.5 3.357-7.5 7.5v5.293c0 67.626-55.019 122.645-122.645 122.645s-122.645-55.019-122.645-122.645v-64.656c66.978-.582 115.949-12.539 157.68-38.526 23.845 29.283 55.957 35.971 87.609 38.121v29.781c0 4.143 3.357 7.5 7.5 7.5s7.5-3.357 7.5-7.5v-33.444c0-5.872-4.602-10.74-10.478-11.082-35.043-2.027-62.501-8.847-82.605-35.536-3.355-4.458-9.68-5.563-14.395-2.515-40.714 26.309-89.103 38.098-156.896 38.223-6.019.01-10.915 4.907-10.915 10.918v68.716c0 12.853 1.776 25.297 5.086 37.107h-8.165c-6.732 0-12.209-5.477-12.209-12.209v-112.12c0-15.785 3.206-31.06 9.528-45.4 1.671-3.79-.047-8.217-3.837-9.888-3.789-1.672-8.216.046-9.888 3.837-7.169 16.259-10.804 33.569-10.804 51.451v38.498h-8.374c-4.143 0-7.5 3.357-7.5 7.5s3.357 7.5 7.5 7.5h8.374v58.622c0 15.003 12.206 27.209 27.209 27.209h13.331c12.915 31.458 37.148 57.115 67.613 71.865-34.815 6.585-61.234 37.214-61.234 73.914v63.1c0 8.893 7.235 16.128 16.128 16.128h139.645c4.143 0 7.5-3.357 7.5-7.5s-3.357-7.5-7.5-7.5h-139.641c-.622 0-1.128-.506-1.128-1.128v-63.1c0-33.218 27.024-60.242 60.242-60.242h11.276v10.271c0 19.007 15.463 34.47 34.47 34.47s34.47-15.463 34.47-34.47v-10.271h11.325c33.217 0 60.241 27.024 60.241 60.242v63.1c0 .622-.506 1.128-1.127 1.128h-40.138c-4.143 0-7.5 3.357-7.5 7.5s3.357 7.5 7.5 7.5h40.138c8.893 0 16.127-7.235 16.127-16.128v-63.1c0-36.7-26.419-67.329-61.233-73.914 30.465-14.75 54.698-40.407 67.613-71.865h13.331c15.003 0 27.209-12.206 27.209-27.209v-61.253l4.958 1.956c.903.356 1.834.525 2.75.525 2.989 0 5.815-1.8 6.979-4.75 1.521-3.852-.371-8.208-4.224-9.728zm-178.418 215.737c-10.735 0-19.47-8.734-19.47-19.47v-11.657c6.371.907 12.877 1.387 19.494 1.387 6.6 0 13.09-.477 19.445-1.38v11.65c0 10.735-8.734 19.47-19.469 19.47z"/>
        </g>
    </g>
</svg>