<svg id="Capa_1" enable-background="new 0 0 512.001 512.001" height="512" viewBox="0 0 512.001 512.001" width="512"
     xmlns="http://www.w3.org/2000/svg">
    <g>
        <path d="m387.245 279.495h-281.446c-10.885 0-19.709-8.824-19.709-19.709v-112.12c0-66.365 53.8-120.165 120.165-120.165h80.534c66.365 0 120.165 53.8 120.165 120.165v112.12c0 10.885-8.824 19.709-19.709 19.709z"
              fill="#365e7d"/>
        <path d="m286.789 27.501h-34.664c66.365 0 120.165 53.8 120.165 120.165v112.12c0 10.885-8.824 19.709-19.709 19.709h34.664c10.885 0 19.709-8.824 19.709-19.709v-112.12c0-66.365-53.8-120.165-120.165-120.165z"
              fill="#2b4d66"/>
        <path d="m292.293 365.032h-18.801-53.939-18.801c-37.413 0-67.742 30.329-67.742 67.742v63.1c0 4.765 3.863 8.628 8.627 8.628h209.77c4.765 0 8.628-3.863 8.628-8.628v-63.1c-.001-37.413-30.33-67.742-67.742-67.742z"
              fill="#80b4fb"/>
        <path d="m292.293 365.032h-33.008c37.413 0 67.742 30.329 67.742 67.742v63.1c0 4.765-3.863 8.628-8.628 8.628h33.008c4.765 0 8.627-3.863 8.627-8.628v-63.1c0-37.413-30.329-67.742-67.741-67.742z"
              fill="#61a2f9"/>
        <g>
            <path d="m265.403 315.081-36.221-2.131c-9.248 0-9.654 43.328-9.654 43.328v26.524c0 14.895 12.075 26.97 26.97 26.97 14.895 0 26.97-12.075 26.97-26.97v-26.524c-.001 0 1.182-41.197-8.065-41.197z"
                  fill="#eaac9d"/>
        </g>
        <path d="m246.522 365.032c-71.877 0-130.145-58.268-130.145-130.144v-68.716c0-1.89 1.537-3.415 3.427-3.419 60.234-.111 113.469-8.738 160.955-39.423 1.419-.917 3.315-.624 4.332.725 21.444 28.468 50.691 36.346 88.165 38.514 1.911.111 3.411 1.68 3.411 3.595v68.724c0 71.876-58.268 130.144-130.145 130.144z"
              fill="#ffcbbe"/>
        <path d="m373.256 162.569c-11.027-.638-21.336-1.778-30.949-3.783v76.102c0 66.052-49.209 120.606-112.965 129.014 5.622.742 11.355 1.13 17.18 1.13 71.877 0 130.144-58.268 130.144-130.144v-68.724c.001-1.914-1.499-3.484-3.41-3.595z"
              fill="#eaac9d"/>
        <g>
            <path d="m425.911 82.682-2.992 3.733c-15.169 18.927-16.332 45.499-2.874 65.678l2.655 3.981-4.729-.725c-23.976-3.674-47.569 8.605-58.316 30.35l-2.12 4.289-1.737-4.458c-8.806-22.601-31.237-36.893-55.442-35.328l-4.775.309 2.992-3.733c15.169-18.927 16.332-45.499 2.874-65.678l-2.655-3.981 4.729.725c23.976 3.674 47.569-8.605 58.316-30.35l2.12-4.289 1.737 4.458c8.806 22.601 31.237 36.893 55.442 35.328z"
                  fill="#f6f9f9"/>
            <path d="m425.911 82.682-4.775.309c-24.205 1.566-46.636-12.727-55.442-35.328l-1.737-4.458-2.12 4.29c-2.886 5.839-6.705 10.988-11.202 15.336 9.15 14.592 15.319 33.68 16.69 54.844 1.595 24.615-3.618 47.269-13.277 63.846.631 1.306 1.216 2.643 1.749 4.011l1.737 4.458 2.12-4.29c10.747-21.745 34.34-34.024 58.316-30.35l4.729.724-2.655-3.98c-13.458-20.18-12.296-46.752 2.874-65.679z"
                  fill="#d8e2f1"/>
        </g>
        <g>
            <path d="m185.339 207.04c-3.064-2.787-7.809-2.561-10.594.506-2.786 3.065-2.56 7.809.506 10.594l10.581 9.617-10.581 9.615c-3.065 2.786-3.292 7.529-.507 10.595 2.789 3.068 7.533 3.29 10.595.507l16.688-15.166c1.564-1.422 2.456-3.438 2.456-5.551s-.892-4.129-2.456-5.55z"/>
            <path d="m307.212 227.756 10.581-9.617c3.065-2.785 3.292-7.528.506-10.594-2.784-3.065-7.528-3.293-10.594-.506l-16.688 15.167c-1.564 1.421-2.456 3.437-2.456 5.55s.892 4.129 2.456 5.551l16.688 15.166c3.056 2.778 7.801 2.567 10.595-.507 2.785-3.065 2.559-7.809-.507-10.595z"/>
            <path d="m263.491 270.28c-15.677-4.393-34.437 2.047-55.757 19.144-3.231 2.591-3.75 7.312-1.158 10.543 2.592 3.232 7.312 3.753 10.543 1.158 17.003-13.635 31.591-19.319 42.176-16.441 10.155 2.761 14.084 12.661 14.289 13.195 1.432 3.872 5.721 5.851 9.593 4.445 3.894-1.414 5.904-5.716 4.49-9.609-.259-.713-6.533-17.49-24.176-22.435z"/>
            <path d="m431.764 87.373c1.858-2.319 2.173-5.517.801-8.152-1.371-2.637-4.18-4.221-7.137-4.022l-4.776.309c-21.033 1.349-40.315-10.924-47.969-30.567l-1.737-4.458c-1.079-2.769-3.691-4.64-6.66-4.77-2.991-.133-5.734 1.506-7.052 4.17l-.492.995c-20.781-13.671-44.781-20.875-69.952-20.875h-66.6l5.522-8.369c2.281-3.457 1.328-8.109-2.129-10.391-3.459-2.283-8.11-1.328-10.391 2.129l-8.221 12.458-14.19-13.72c-2.979-2.881-7.727-2.802-10.604.179-2.88 2.978-2.8 7.726.179 10.604l8.563 8.279c-32.711 4.416-62.356 21.257-83.132 47.718-2.558 3.259-1.99 7.973 1.268 10.531 1.374 1.078 3.006 1.601 4.627 1.601 2.223 0 4.425-.984 5.904-2.868 21.53-27.424 53.849-43.152 88.669-43.152h80.534c22.382 0 43.71 6.453 62.139 18.692-10.619 12.782-27.258 19.34-44.272 16.737l-4.729-.725c-2.93-.449-5.863.876-7.461 3.383-1.597 2.506-1.563 5.719.085 8.191l2.655 3.98c8.958 13.432 10.461 29.968 4.756 44.366-3.133-3.028-6.079-6.363-8.882-10.084-3.355-4.455-9.679-5.56-14.393-2.512-40.714 26.309-89.103 38.098-156.896 38.223-6.019.01-10.915 4.907-10.915 10.918v68.716c0 12.853 1.776 25.297 5.086 37.107h-8.165c-6.732 0-12.209-5.477-12.209-12.209v-112.12c0-15.783 3.206-31.059 9.529-45.4 1.671-3.79-.047-8.217-3.837-9.888-3.789-1.675-8.216.047-9.888 3.837-7.17 16.26-10.805 33.57-10.805 51.451v112.12c0 15.003 12.206 27.209 27.209 27.209h13.332c12.914 31.458 37.148 57.115 67.613 71.865-34.815 6.585-61.234 37.214-61.234 73.914v63.1c0 8.893 7.235 16.128 16.128 16.128h139.645c4.143 0 7.5-3.357 7.5-7.5s-3.357-7.5-7.5-7.5h-139.642c-.622 0-1.128-.506-1.128-1.128v-63.1c0-33.218 27.024-60.242 60.242-60.242h11.275v10.271c0 19.007 15.463 34.47 34.47 34.47s34.47-15.463 34.47-34.47v-10.271h11.325c33.218 0 60.242 27.024 60.242 60.242v63.1c0 .622-.506 1.128-1.127 1.128h-40.137c-4.143 0-7.5 3.357-7.5 7.5s3.357 7.5 7.5 7.5h40.138c8.893 0 16.127-7.235 16.127-16.128v-63.1c0-36.7-26.419-67.329-61.233-73.914 30.465-14.75 54.698-40.408 67.613-71.865h13.331c15.003 0 27.209-12.206 27.209-27.209v-97.322c.792.082 1.585.177 2.38.298l4.729.725c2.93.449 5.863-.876 7.461-3.383 1.597-2.506 1.563-5.719-.085-8.191l-2.655-3.98c-11.697-17.539-10.698-40.376 2.487-56.826zm-119.043-1.377c20.094-.204 38.819-9.949 50.514-26.29 10.224 17.304 28.022 28.646 48.025 30.602-9.873 17.505-10.795 38.592-2.489 56.891-20.095.205-38.82 9.949-50.514 26.29-10.224-17.303-28.022-28.646-48.025-30.601 9.873-17.505 10.794-38.593 2.489-56.892zm-66.224 316.276c-10.735 0-19.47-8.734-19.47-19.47v-11.657c6.371.907 12.878 1.387 19.495 1.387 6.6 0 13.09-.478 19.444-1.38v11.65c.001 10.736-8.733 19.47-19.469 19.47zm140.748-130.277h-8.164c3.31-11.81 5.086-24.255 5.086-37.107v-5.293c0-4.143-3.357-7.5-7.5-7.5s-7.5 3.357-7.5 7.5v5.293c0 67.626-55.019 122.645-122.646 122.645-67.626 0-122.644-55.019-122.644-122.645v-64.655c66.977-.582 115.949-12.54 157.679-38.527 3.296 4.047 6.835 7.758 10.577 11.116l-2.406 3.001c-1.858 2.319-2.173 5.517-.801 8.152 1.372 2.637 4.17 4.224 7.137 4.022l4.775-.309c21.02-1.354 40.315 10.922 47.97 30.565l1.737 4.459c1.079 2.77 3.691 4.641 6.66 4.771.11.005.22.007.33.007 2.843 0 5.454-1.611 6.722-4.177l2.12-4.29c.842-1.704 1.776-3.338 2.789-4.903v15.488c0 4.143 3.357 7.5 7.5 7.5s7.5-3.357 7.5-7.5v-30.215c4.682-2.904 9.851-4.989 15.287-6.144v96.537c.001 6.732-5.475 12.209-12.208 12.209z"/>
        </g>
    </g>
</svg>