<svg id="Capa_1" enable-background="new 0 0 512 512" height="512" viewBox="0 0 512 512" width="512" xmlns="http://www.w3.org/2000/svg"><g><path d="m95.568 71.637v160.396c0 9.643 7.817 17.46 17.46 17.46h285.943c9.643 0 17.46-7.817 17.46-17.46v-160.396c0-35.422-28.715-64.137-64.137-64.137-10.901 0-21.47 3.749-29.934 10.617l-3.518 2.855c-1.068.866-2.58.922-3.709.137l-7.338-5.103c-7.962-5.538-17.428-8.506-27.126-8.506h-120.964c-35.421 0-64.137 28.715-64.137 64.137z" fill="#365e7d"/><g><path d="m352.295 7.5c-5.418 0-10.754.928-15.79 2.703 26.433 7.922 45.701 32.423 45.701 61.434v160.396c0 9.643-7.817 17.46-17.46 17.46h34.227c9.643 0 17.46-7.817 17.46-17.46v-160.396c-.001-35.422-28.716-64.137-64.138-64.137z" fill="#2b4d66"/></g><path d="m301.771 345.031h-18.801-53.94-18.8c-37.413 0-67.742 30.329-67.742 67.742v83.1c0 4.765 3.863 8.628 8.628 8.628h209.77c4.765 0 8.628-3.863 8.628-8.628v-83.1c-.002-37.413-30.331-67.742-67.743-67.742z" fill="#80b4fb"/><path d="m301.771 345.031h-33.008c37.413 0 67.742 30.329 67.742 67.742v83.1c0 4.765-3.863 8.628-8.628 8.628h33.008c4.765 0 8.627-3.863 8.627-8.628v-83.1c0-37.413-30.329-67.742-67.741-67.742z" fill="#61a2f9"/><g><path d="m274.881 295.08-36.221-2.131c-9.248 0-9.654 43.328-9.654 43.328v26.524c0 14.895 12.075 26.97 26.97 26.97 14.895 0 26.97-12.075 26.97-26.97v-26.524c-.001 0 1.182-41.197-8.065-41.197z" fill="#eaac9d"/></g><path d="m256 345.031c-71.877 0-130.145-58.268-130.145-130.144v-78.716c0-1.89 1.537-3.415 3.427-3.419 60.234-.111 113.469-8.738 160.955-39.423 1.419-.917 3.315-.624 4.332.725 21.444 28.468 50.691 36.346 88.165 38.514 1.911.111 3.411 1.68 3.411 3.595v78.724c0 71.876-58.268 130.144-130.145 130.144z" fill="#ffcbbe"/><path d="m382.734 132.568c-11.027-.638-21.336-1.778-30.949-3.783v86.102c0 66.052-49.209 120.606-112.965 129.014 5.622.742 11.355 1.13 17.18 1.13 71.877 0 130.144-58.268 130.144-130.144v-78.724c.001-1.914-1.499-3.484-3.41-3.595z" fill="#eaac9d"/><ellipse cx="200.741" cy="202.31" fill="#f6f9f9" rx="21.604" ry="23.604"/><ellipse cx="311.26" cy="202.31" fill="#f6f9f9" rx="21.604" ry="23.604"/><g><path d="m416.432 85.305c4.143 0 7.5-3.358 7.5-7.5v-6.168c0-39.501-32.136-71.637-71.637-71.637-12.581 0-24.89 4.366-34.66 12.293l-.942.764-4.614-3.209c-9.265-6.442-20.126-9.848-31.41-9.848h-120.963c-39.501 0-71.638 32.136-71.638 71.637v160.396c0 13.763 11.197 24.96 24.961 24.96h11.922c11.595 36.002 37.636 65.581 71.271 81.865-34.814 6.585-61.234 37.214-61.234 73.914v83.1c0 8.893 7.234 16.128 16.127 16.128h139.645c4.143 0 7.5-3.357 7.5-7.5s-3.357-7.5-7.5-7.5h-139.645c-.621 0-1.127-.506-1.127-1.128v-83.1c0-33.218 27.024-60.242 60.242-60.242h11.275v10.271c0 19.007 15.463 34.47 34.47 34.47s34.47-15.463 34.47-34.47v-10.271h11.325c33.218 0 60.242 27.024 60.242 60.242v83.1c0 .622-.506 1.128-1.128 1.128h-40.137c-4.143 0-7.5 3.357-7.5 7.5s3.357 7.5 7.5 7.5h40.137c8.893 0 16.128-7.235 16.128-16.128v-83.1c0-36.7-26.419-67.329-61.234-73.914 33.634-16.284 59.674-45.863 71.27-81.865h11.923c13.764 0 24.961-11.197 24.961-24.96v-124.241c0-4.142-3.357-7.5-7.5-7.5s-7.5 3.358-7.5 7.5v124.241c0 5.492-4.469 9.96-9.961 9.96h-8.014c1.758-8.767 2.687-17.831 2.687-27.107v-78.724c0-5.875-4.603-10.742-10.477-11.082-35.044-2.028-62.503-8.848-82.608-35.54-3.355-4.456-9.679-5.559-14.393-2.512-40.715 26.31-89.104 38.098-156.897 38.223-6.018.011-10.914 4.909-10.914 10.919v41.63c0 4.142 3.357 7.5 7.5 7.5s7.5-3.358 7.5-7.5v-37.57c66.976-.581 115.949-12.539 157.68-38.526 23.844 29.284 55.953 35.971 87.609 38.122v75.06c0 67.626-55.019 122.645-122.645 122.645s-122.645-55.019-122.645-122.645v-7.098c0-4.142-3.357-7.5-7.5-7.5s-7.5 3.358-7.5 7.5v7.098c0 9.277.928 18.34 2.687 27.107h-8.013c-5.492 0-9.961-4.468-9.961-9.96v-160.396c0-31.23 25.407-56.637 56.638-56.637h120.963c8.207 0 16.106 2.477 22.845 7.163l7.338 5.104c3.849 2.677 9.079 2.482 12.716-.471l3.519-2.854c7.106-5.767 16.058-8.942 25.209-8.942 31.23 0 56.638 25.407 56.638 56.637v6.168c-.001 4.142 3.357 7.5 7.499 7.5zm-160.431 267.226c6.6 0 13.09-.477 19.444-1.38v11.65c0 10.735-8.734 19.47-19.47 19.47s-19.47-8.734-19.47-19.47v-11.657c6.371.907 12.878 1.387 19.496 1.387z"/><path d="m200.741 192.166c-4.143 0-7.5 3.358-7.5 7.5v5.289c0 4.142 3.357 7.5 7.5 7.5s7.5-3.358 7.5-7.5v-5.289c0-4.142-3.357-7.5-7.5-7.5z"/><path d="m318.76 204.955v-5.289c0-4.142-3.357-7.5-7.5-7.5s-7.5 3.358-7.5 7.5v5.289c0 4.142 3.357 7.5 7.5 7.5s7.5-3.358 7.5-7.5z"/><path d="m256 236.246c-23.056 0-43.779 13.713-52.796 34.936-1.62 3.812.157 8.216 3.97 9.835 3.787 1.611 8.206-.134 9.835-3.97 6.66-15.674 21.965-25.801 38.991-25.801s32.332 10.127 38.992 25.802c1.62 3.812 6.027 5.592 9.836 3.969 3.812-1.619 5.589-6.023 3.969-9.836-9.018-21.222-29.743-34.935-52.797-34.935z"/></g></g></svg>