<svg id="Capa_1" enable-background="new 0 0 512 512" height="512" viewBox="0 0 512 512" width="512" xmlns="http://www.w3.org/2000/svg"><g><g><path d="m390.324 459.549h-268.647c-14.419 0-26.108-11.689-26.108-26.108v-281.542c0-79.749 64.649-144.399 144.398-144.399h32.066c79.749 0 144.399 64.65 144.399 144.399v281.542c0 14.42-11.689 26.108-26.108 26.108z" fill="#e49542"/><path d="m272.033 7.5h-30.287c79.749 0 144.399 64.65 144.399 144.399v281.542c0 14.419-11.689 26.108-26.108 26.108h30.287c14.419 0 26.108-11.689 26.108-26.108v-281.542c0-79.749-64.649-144.399-144.399-144.399z" fill="#e27d47"/></g><path d="m301.771 345.031h-18.801-53.939-18.801c-37.413 0-67.742 30.329-67.742 67.742v83.1c0 4.765 3.863 8.628 8.628 8.628h209.77c4.765 0 8.628-3.863 8.628-8.628v-83.1c-.001-37.413-30.33-67.742-67.743-67.742z" fill="#80b4fb"/><path d="m301.771 345.031h-33.008c37.413 0 67.742 30.329 67.742 67.742v83.1c0 4.765-3.863 8.628-8.628 8.628h33.008c4.765 0 8.627-3.863 8.627-8.628v-83.1c.001-37.413-30.328-67.742-67.741-67.742z" fill="#61a2f9"/><g><path d="m274.881 295.08-36.221-2.131c-9.248 0-9.654 43.328-9.654 43.328v26.524c0 14.895 12.075 26.97 26.97 26.97 14.895 0 26.97-12.075 26.97-26.97v-26.524c-.001 0 1.183-41.197-8.065-41.197z" fill="#eaac9d"/></g><path d="m256.001 345.031c-71.877 0-130.145-58.268-130.145-130.144v-78.716c0-1.89 1.537-3.415 3.427-3.419 60.234-.111 113.469-8.738 160.955-39.423 1.419-.917 3.315-.624 4.332.725 21.444 28.468 50.691 36.346 88.165 38.514 1.911.111 3.411 1.68 3.411 3.595v78.724c-.001 71.876-58.269 130.144-130.145 130.144z" fill="#ffcbbe"/><path d="m382.734 132.568c-11.027-.638-21.336-1.778-30.949-3.783v86.102c0 66.052-49.209 120.606-112.965 129.014 5.622.741 11.355 1.13 17.18 1.13 71.877 0 130.144-58.268 130.144-130.144v-78.724c.001-1.914-1.499-3.484-3.41-3.595z" fill="#eaac9d"/><path d="m312.268 248.063c5.214-4.954 5.425-13.196.471-18.41-4.954-5.214-13.196-5.425-18.41-.471l-13.826 13.136-.152 13.682 2.643 4.604h16.073z" fill="#f6f9f9"/><g><path d="m258.457 272.656c6.414 2.491 11.706 6.619 15.594 11.716l25.017-23.768-18.564-18.287-29.782 28.295c2.594.39 5.187 1.054 7.735 2.044z" fill="#dd636e"/></g><g><path d="m400.354 70.592c-2.22-3.497-6.856-4.529-10.352-2.312-3.497 2.221-4.532 6.855-2.312 10.352 13.896 21.889 21.242 47.224 21.242 73.269v281.542c0 10.261-8.348 18.608-18.607 18.608h-13.312v-39.277c0-36.7-26.419-67.328-61.234-73.913 46.039-22.29 77.866-69.483 77.866-123.973v-78.724c0-5.875-4.603-10.743-10.477-11.082-35.044-2.027-62.502-8.847-82.608-35.539-3.355-4.455-9.679-5.56-14.393-2.512-40.716 26.31-89.104 38.098-156.899 38.222-6.017.013-10.912 4.911-10.912 10.919v41.631c0 4.143 3.357 7.5 7.5 7.5s7.5-3.357 7.5-7.5v-37.573c66.975-.58 115.948-12.538 157.68-38.526 23.845 29.284 55.953 35.971 87.609 38.122v75.061c0 67.626-55.019 122.645-122.645 122.645s-122.645-55.019-122.645-122.645v-7.098c0-4.143-3.357-7.5-7.5-7.5s-7.5 3.357-7.5 7.5v7.098c0 54.489 31.827 101.683 77.866 123.973-34.814 6.585-61.234 37.213-61.234 73.913v39.277h-13.312c-10.261 0-18.608-8.348-18.608-18.608v-281.543c.001-75.486 61.414-136.899 136.901-136.899h32.065c37.135 0 71.895 14.631 97.875 41.197 2.896 2.959 7.645 3.016 10.606.118 2.961-2.896 3.014-7.645.118-10.606-28.825-29.476-67.394-45.709-108.599-45.709h-32.065c-83.758 0-151.9 68.142-151.9 151.899v281.542c0 18.531 15.077 33.608 33.608 33.608h13.312v28.823c0 8.893 7.234 16.127 16.127 16.127h139.646c4.143 0 7.5-3.357 7.5-7.5s-3.357-7.5-7.5-7.5h-139.646c-.621 0-1.127-.506-1.127-1.127v-83.101c0-33.217 27.024-60.241 60.242-60.241h11.275v10.271c0 19.007 15.463 34.47 34.47 34.47s34.47-15.463 34.47-34.47v-10.271h11.325c33.218 0 60.242 27.024 60.242 60.241v83.101c0 .621-.506 1.127-1.128 1.127h-40.137c-4.143 0-7.5 3.357-7.5 7.5s3.357 7.5 7.5 7.5h40.137c8.893 0 16.128-7.234 16.128-16.127v-28.822h13.312c18.531 0 33.607-15.077 33.607-33.608v-281.543c.001-28.896-8.153-57.012-23.577-81.307zm-144.378 311.679c-10.735 0-19.47-8.734-19.47-19.47v-11.657c6.371.907 12.878 1.387 19.495 1.387 6.6 0 13.09-.478 19.444-1.38v11.65c0 10.736-8.734 19.47-19.469 19.47z"/><path d="m215.604 184.147c-10.271-6.998-21.126-6.997-31.397 0-3.423 2.333-4.307 6.998-1.975 10.422 2.334 3.422 6.997 4.306 10.422 1.975 5.081-3.464 9.42-3.466 14.503 0 1.293.881 2.763 1.303 4.217 1.303 2.397 0 4.753-1.147 6.205-3.277 2.332-3.424 1.448-8.09-1.975-10.423z"/><path d="m304.844 196.544c5.081-3.464 9.42-3.466 14.503 0 1.293.881 2.763 1.303 4.217 1.303 2.397 0 4.753-1.147 6.205-3.277 2.332-3.424 1.448-8.089-1.975-10.422-10.271-6.998-21.126-6.997-31.397 0-3.423 2.333-4.307 6.998-1.975 10.422 2.334 3.421 6.997 4.305 10.422 1.974z"/><path d="m275.337 236.88-27.293 25.931c-9.259-.555-18.599 1.835-26.538 7.034-3.465 2.27-4.435 6.919-2.165 10.384s6.918 4.432 10.384 2.165c16.552-10.839 38.572-1.899 43.36 16.842.866 3.391 3.916 5.646 7.261 5.646.615 0 1.239-.076 1.862-.235 4.013-1.025 6.436-5.109 5.41-9.123-.896-3.509-2.226-6.851-3.918-9.972l20.534-19.508 13.2-12.542c8.203-7.793 8.537-20.809.743-29.013-7.796-8.204-20.811-8.538-29.014-.743zm5.071 15.872c2.003 1.973 5.919 5.83 7.873 7.755l-13.917 13.223c-2.8-2.492-6.326-4.832-9.347-6.354zm26.894-17.933c2.097 2.207 2.008 5.709-.2 7.806l-7.94 7.544-7.872-7.754 8.206-7.796c2.207-2.098 5.709-2.005 7.806.2z"/></g></g></svg>