<svg id="Capa_1" enable-background="new 0 0 512 512" height="512" viewBox="0 0 512 512" width="512" xmlns="http://www.w3.org/2000/svg"><g><g><path d="m390.324 459.549h-268.647c-14.419 0-26.108-11.689-26.108-26.108v-281.542c0-79.75 64.649-144.399 144.398-144.399h32.066c79.749 0 144.399 64.65 144.399 144.399v281.542c0 14.419-11.689 26.108-26.108 26.108z" fill="#e49542"/><path d="m272.033 7.5h-30.287c79.749 0 144.399 64.65 144.399 144.399v281.542c0 14.419-11.689 26.108-26.108 26.108h30.287c14.419 0 26.108-11.689 26.108-26.108v-281.542c0-79.75-64.649-144.399-144.399-144.399z" fill="#e27d47"/></g><path d="m301.771 345.03h-18.801-53.939-18.801c-37.413 0-67.742 30.329-67.742 67.742v83.1c0 4.765 3.863 8.628 8.628 8.628h209.77c4.765 0 8.628-3.863 8.628-8.628v-83.1c-.001-37.413-30.33-67.742-67.743-67.742z" fill="#80b4fb"/><path d="m301.771 345.03h-33.008c37.413 0 67.742 30.329 67.742 67.742v83.1c0 4.765-3.863 8.628-8.628 8.628h33.008c4.765 0 8.627-3.863 8.627-8.628v-83.1c.001-37.413-30.328-67.742-67.741-67.742z" fill="#61a2f9"/><g><path d="m274.881 295.08-36.221-2.131c-9.248 0-9.654 43.328-9.654 43.328v26.524c0 14.895 12.075 26.97 26.97 26.97 14.895 0 26.97-12.075 26.97-26.97v-26.524c-.001 0 1.183-41.197-8.065-41.197z" fill="#eaac9d"/></g><path d="m256.001 345.03c-71.877 0-130.145-58.268-130.145-130.144v-78.716c0-1.89 1.537-3.415 3.427-3.419 60.234-.111 113.469-8.738 160.955-39.423 1.419-.917 3.315-.624 4.332.725 21.444 28.468 50.691 36.346 88.165 38.514 1.911.111 3.411 1.68 3.411 3.595v78.724c-.001 71.877-58.269 130.144-130.145 130.144z" fill="#ffcbbe"/><path d="m382.734 132.568c-11.027-.638-21.336-1.778-30.949-3.783v86.102c0 66.052-49.209 120.606-112.965 129.014 5.622.741 11.355 1.13 17.18 1.13 71.877 0 130.144-58.268 130.144-130.144v-78.724c.001-1.915-1.499-3.485-3.41-3.595z" fill="#eaac9d"/><path d="m364.85 117.917c0 15.842-12.842 28.684-28.684 28.684s-28.684-12.842-28.684-28.684 12.842-41.684 28.684-41.684 28.684 25.843 28.684 41.684z" fill="#80b4fb"/><path d="m336.167 76.233c-3.867 0-7.553 1.548-10.92 4.106 10.424 7.923 17.764 25.603 17.764 37.577s-7.34 22.23-17.764 26.526c3.367 1.387 7.053 2.157 10.92 2.157 15.842 0 28.684-12.842 28.684-28.684s-12.843-41.682-28.684-41.682z" fill="#61a2f9"/><g><path d="m400.354 70.591c-2.22-3.498-6.856-4.53-10.352-2.312-3.497 2.221-4.532 6.855-2.312 10.352 13.896 21.889 21.242 47.224 21.242 73.269v281.54c0 10.261-8.348 18.608-18.607 18.608h-13.312v-39.276c0-36.7-26.419-67.329-61.234-73.914 46.039-22.29 77.866-69.483 77.866-123.972v-78.724c0-5.872-4.601-10.739-10.477-11.082-4.042-.234-7.807-.528-11.374-.882.359-2.042.557-4.138.557-6.281 0-9.402-3.646-21.17-9.513-30.711-7.326-11.912-16.798-18.473-26.671-18.473-9.874 0-19.346 6.561-26.672 18.473-1.576 2.563-2.986 5.29-4.214 8.085-1.631-1.826-3.209-3.742-4.722-5.75-3.355-4.454-9.679-5.56-14.393-2.512-40.714 26.309-89.103 38.098-156.896 38.223-6.02.01-10.916 4.907-10.916 10.918v41.631c0 4.143 3.357 7.5 7.5 7.5s7.5-3.357 7.5-7.5v-37.57c66.977-.582 115.95-12.54 157.68-38.527 2.958 3.634 6.113 6.994 9.419 10.061-.304 2.125-.471 4.192-.471 6.153 0 19.952 16.232 36.184 36.185 36.184 12.251 0 23.091-6.125 29.64-15.468 4.031.48 8.276.876 12.837 1.19v75.062c0 67.626-55.019 122.645-122.645 122.645s-122.645-55.019-122.645-122.645v-7.098c0-4.143-3.357-7.5-7.5-7.5s-7.5 3.357-7.5 7.5v7.098c0 54.489 31.827 101.683 77.866 123.972-34.814 6.585-61.234 37.214-61.234 73.914v39.276h-13.312c-10.261 0-18.608-8.348-18.608-18.608v-281.542c.002-75.486 61.415-136.898 136.902-136.898h32.065c37.136 0 71.896 14.631 97.875 41.197 2.896 2.959 7.645 3.016 10.606.118 2.961-2.896 3.014-7.645.118-10.606-28.824-29.476-67.393-45.709-108.599-45.709h-32.065c-83.758 0-151.9 68.142-151.9 151.898v281.542c0 18.532 15.077 33.608 33.608 33.608h13.312v28.823c0 8.893 7.234 16.128 16.127 16.128h139.646c4.143 0 7.5-3.357 7.5-7.5s-3.357-7.5-7.5-7.5h-139.646c-.621 0-1.127-.506-1.127-1.128v-83.1c0-33.218 27.024-60.242 60.242-60.242h11.275v10.271c0 19.007 15.463 34.47 34.47 34.47s34.47-15.463 34.47-34.47v-10.27h11.325c33.218 0 60.242 27.024 60.242 60.242v83.1c0 .622-.506 1.128-1.128 1.128h-40.137c-4.143 0-7.5 3.357-7.5 7.5s3.357 7.5 7.5 7.5h40.137c8.893 0 16.128-7.235 16.128-16.128v-28.823h13.312c18.531 0 33.607-15.077 33.607-33.608v-281.543c.001-28.896-8.153-57.012-23.577-81.307zm-64.187 68.51c-11.682 0-21.185-9.503-21.185-21.184 0-13.497 11.362-34.184 21.185-34.184 9.821 0 21.184 20.687 21.184 34.184 0 11.681-9.503 21.184-21.184 21.184zm-80.191 243.17c-10.735 0-19.47-8.734-19.47-19.47v-11.657c6.371.907 12.878 1.387 19.495 1.387 6.6 0 13.09-.477 19.444-1.38v11.65c0 10.735-8.734 19.47-19.469 19.47z"/><path d="m184.223 207.965c2.789 3.068 7.533 3.29 10.595.507l16.688-15.166c1.564-1.422 2.456-3.438 2.456-5.551s-.892-4.129-2.456-5.55l-16.688-15.167c-3.063-2.787-7.809-2.561-10.594.506-2.786 3.065-2.56 7.809.506 10.594l10.581 9.617-10.581 9.615c-3.066 2.786-3.292 7.529-.507 10.595z"/><path d="m327.777 167.544c-2.784-3.065-7.528-3.293-10.594-.506l-16.688 15.167c-1.564 1.421-2.456 3.437-2.456 5.55s.892 4.129 2.456 5.551l16.688 15.166c3.056 2.778 7.801 2.567 10.595-.507 2.785-3.065 2.559-7.809-.507-10.595l-10.581-9.615 10.581-9.617c3.066-2.785 3.292-7.529.506-10.594z"/><path d="m173.785 259.819c0 4.143 3.357 7.5 7.5 7.5 8.833 0 10.472 8 24.903 8 14.177 0 16.271-8 24.903-8 8.833 0 10.472 8 24.903 8 14.177 0 16.272-8 24.904-8 8.835 0 10.474 8 24.908 8 14.178 0 16.274-8 24.907-8 4.143 0 7.5-3.357 7.5-7.5s-3.357-7.5-7.5-7.5c-14.177 0-16.275 8-24.907 8-8.835 0-10.474-8-24.908-8-14.177 0-16.272 8-24.904 8-8.834 0-10.471-8-24.903-8-14.175 0-16.272 8-24.903 8-8.834 0-10.471-8-24.903-8-4.142 0-7.5 3.358-7.5 7.5z"/></g></g></svg>