<svg id="Capa_1" enable-background="new 0 0 512 512" height="512" viewBox="0 0 512 512" width="512" xmlns="http://www.w3.org/2000/svg"><g><path d="m64.28 71.637v160.396c0 9.643 7.817 17.46 17.46 17.46h285.943c9.643 0 17.46-7.817 17.46-17.46v-160.396c0-35.422-28.715-64.137-64.137-64.137-10.901 0-21.47 3.749-29.934 10.617l-3.518 2.855c-1.068.866-2.58.922-3.709.137l-7.338-5.103c-7.962-5.538-17.428-8.506-27.126-8.506h-120.964c-35.422 0-64.137 28.715-64.137 64.137z" fill="#e49542"/><g><path d="m321.007 7.5c-5.418 0-10.754.928-15.79 2.703 26.433 7.922 45.701 32.423 45.701 61.434v160.396c0 9.643-7.817 17.46-17.46 17.46h34.227c9.643 0 17.46-7.817 17.46-17.46v-160.396c-.001-35.422-28.716-64.137-64.138-64.137z" fill="#e27d47"/></g><path d="m270.483 345.03h-18.801-53.939-18.801c-37.413 0-67.742 30.329-67.742 67.742v83.1c0 4.765 3.863 8.628 8.628 8.628h209.77c4.765 0 8.628-3.863 8.628-8.628v-83.1c-.002-37.413-30.331-67.742-67.743-67.742z" fill="#ffe07d"/><path d="m270.483 345.03h-33.008c37.413 0 67.742 30.329 67.742 67.742v83.1c0 4.765-3.863 8.628-8.628 8.628h33.008c4.765 0 8.627-3.863 8.627-8.628v-83.1c0-37.413-30.329-67.742-67.741-67.742z" fill="#ffd064"/><g><path d="m243.593 295.08-36.221-2.131c-9.248 0-9.654 43.328-9.654 43.328v26.524c0 14.895 12.075 26.97 26.97 26.97 14.895 0 26.97-12.075 26.97-26.97v-26.524c-.001 0 1.182-41.197-8.065-41.197z" fill="#eaac9d"/></g><path d="m224.712 345.03c-71.877 0-130.145-58.268-130.145-130.144v-78.716c0-1.89 1.537-3.415 3.427-3.419 60.234-.111 113.469-8.738 160.955-39.423 1.419-.917 3.315-.624 4.331.725 21.444 28.468 50.691 36.346 88.165 38.514 1.911.111 3.411 1.68 3.411 3.595v78.724c.001 71.877-58.267 130.144-130.144 130.144z" fill="#ffcbbe"/><path d="m351.446 132.568c-11.027-.638-21.336-1.778-30.949-3.783v86.102c0 66.052-49.209 120.606-112.965 129.014 5.622.742 11.355 1.13 17.18 1.13 71.877 0 130.144-58.268 130.144-130.144v-78.724c.001-1.915-1.499-3.485-3.41-3.595z" fill="#eaac9d"/><path d="m287.559 486.573c-23.903-23.903-23.903-62.657 0-86.559l56.29-56.29c23.903-23.903 62.656-23.903 86.559 0 23.903 23.903 23.903 62.656 0 86.559l-56.29 56.29c-23.902 23.902-62.656 23.902-86.559 0z" fill="#80b4fb"/><path d="m430.409 343.723c-2.506-2.506-5.176-4.745-7.974-6.725 16.911 23.892 14.672 57.188-6.725 78.585l-56.29 56.29c-21.397 21.397-54.693 23.636-78.585 6.725 1.98 2.798 4.22 5.468 6.725 7.974 23.903 23.903 62.656 23.903 86.559 0l56.29-56.29c23.903-23.902 23.903-62.656 0-86.559z" fill="#61a2f9"/><circle cx="384.184" cy="389.948" fill="#ffcbbe" r="40.42"/><path d="m412.765 361.367c-2.01-2.01-4.18-3.76-6.467-5.258 10.267 15.677 8.517 36.92-5.258 50.695s-35.018 15.526-50.695 5.258c1.498 2.287 3.249 4.457 5.258 6.467 15.785 15.785 41.377 15.785 57.162 0s15.785-41.377 0-57.162z" fill="#eaac9d"/><g><path d="m263.704 260.812c-6.66 15.674-21.966 25.802-38.992 25.802s-32.332-10.128-38.992-25.802c-1.619-3.812-6.023-5.59-9.835-3.97-3.812 1.619-5.59 6.023-3.97 9.835 9.018 21.224 29.741 34.937 52.797 34.937s43.779-13.713 52.797-34.937c1.62-3.812-.157-8.216-3.97-9.835-3.809-1.619-8.215.158-9.835 3.97z"/><path d="m169.452 192.165c-4.143 0-7.5 3.357-7.5 7.5v5.289c0 4.143 3.357 7.5 7.5 7.5s7.5-3.357 7.5-7.5v-5.289c0-4.143-3.357-7.5-7.5-7.5z"/><path d="m279.972 212.454c4.143 0 7.5-3.357 7.5-7.5v-5.289c0-4.143-3.357-7.5-7.5-7.5s-7.5 3.357-7.5 7.5v5.289c0 4.143 3.357 7.5 7.5 7.5z"/><path d="m418.069 356.064c-18.724-18.726-49.038-18.732-67.768-.001-18.726 18.724-18.732 49.038-.001 67.768 18.724 18.726 49.038 18.732 67.768.001 18.726-18.724 18.732-49.038.001-67.768zm-10.607 57.161c-.001 0-.001 0 0 0-12.862 12.864-33.689 12.869-46.556 0-12.863-12.861-12.868-33.688.001-46.555 12.861-12.863 33.688-12.868 46.555.001 12.864 12.862 12.867 33.689 0 46.554z"/><path d="m372.544 373.764-1.618 1.617c-2.93 2.928-2.932 7.677-.003 10.606 1.465 1.466 3.385 2.198 5.305 2.198 1.919 0 3.838-.731 5.302-2.195l1.618-1.617c2.93-2.928 2.932-7.677.003-10.606-2.929-2.931-7.678-2.932-10.607-.003z"/><path d="m389.759 390.984-1.617 1.618c-2.929 2.93-2.927 7.679.003 10.606 1.465 1.464 3.383 2.195 5.302 2.195 1.92 0 3.841-.732 5.305-2.198l1.617-1.618c2.929-2.93 2.927-7.679-.003-10.606-2.932-2.929-7.681-2.928-10.607.003z"/><path d="m448.777 388.254c-4.103-.596-7.899 2.267-8.482 6.367-1.647 11.572-6.9 22.069-15.189 30.357l-22.278 22.278c-6.635 1.256-30.399 4.517-59.601-5.896-26.577-30.301-22.388-58.583-20.785-65.622l26.713-26.713c20.989-20.989 54.961-20.992 75.951.001 5.506 5.505 9.667 11.989 12.367 19.272 1.439 3.884 5.755 5.861 9.64 4.425 3.884-1.44 5.865-5.756 4.425-9.64-3.457-9.322-8.781-17.621-15.824-24.664-26.852-26.852-70.31-26.855-97.166-.001l-18.113 18.112c-10.187-9.029-22.669-15.123-35.976-17.657 33.651-16.281 59.704-45.868 71.303-81.882h11.923c13.763 0 24.96-11.197 24.96-24.96v-124.239c0-4.143-3.357-7.5-7.5-7.5s-7.5 3.357-7.5 7.5v124.241c0 5.492-4.468 9.96-9.96 9.96h-8.014c1.758-8.767 2.687-17.831 2.687-27.107v-78.724c0-5.872-4.602-10.74-10.478-11.082-35.043-2.027-62.501-8.847-82.605-35.536-3.355-4.458-9.681-5.563-14.395-2.515-40.716 26.31-89.104 38.098-156.9 38.222-6.017.013-10.911 4.911-10.911 10.919v41.631c0 4.143 3.357 7.5 7.5 7.5s7.5-3.357 7.5-7.5v-37.571c66.976-.58 115.947-12.538 157.68-38.525 23.845 29.283 55.957 35.971 87.609 38.121v75.061c0 67.626-55.019 122.645-122.645 122.645s-122.645-55.019-122.645-122.645v-7.098c0-4.143-3.357-7.5-7.5-7.5s-7.5 3.357-7.5 7.5v7.098c0 9.277.928 18.34 2.687 27.107h-8.015c-5.492 0-9.96-4.468-9.96-9.96v-160.397c0-31.23 25.408-56.637 56.637-56.637h120.964c8.207 0 16.106 2.477 22.844 7.163l7.338 5.104c3.846 2.676 9.074 2.482 12.717-.471l3.519-2.855c7.105-5.765 16.058-8.94 25.209-8.94 31.229 0 56.637 25.407 56.637 56.637v6.168c0 4.143 3.357 7.5 7.5 7.5s7.5-3.357 7.5-7.5v-6.168c-.001-39.502-32.137-71.638-71.638-71.638-12.582 0-24.892 4.366-34.66 12.293l-.942.766-4.615-3.21c-9.263-6.444-20.125-9.849-31.409-9.849h-120.964c-39.501 0-71.637 32.136-71.637 71.637v160.396c0 13.763 11.197 24.96 24.96 24.96h11.923c11.595 36.002 37.635 65.581 71.27 81.865-34.814 6.585-61.234 37.214-61.234 73.914v83.1c0 8.893 7.235 16.128 16.128 16.128h211.012c18.353 0 35.605-7.146 48.583-20.123l56.289-56.291c10.604-10.603 17.324-24.037 19.433-38.85.584-4.101-2.267-7.898-6.367-8.482zm-132.658 39.818c-8.441-5.351-17.022-12.028-25.52-20.334.73-.824 1.478-1.636 2.263-2.421l13.471-13.471c.484 9.979 2.889 22.569 9.786 36.226zm-71.962-76.922v11.65c0 10.735-8.734 19.47-19.47 19.47s-19.47-8.734-19.47-19.47v-11.657c6.371.907 12.877 1.387 19.494 1.387 6.601 0 13.091-.477 19.446-1.38zm-124.33 145.85c-.622 0-1.128-.506-1.128-1.128v-83.1c0-33.218 27.024-60.242 60.242-60.242h11.276v10.271c0 19.007 15.463 34.47 34.47 34.47s34.47-15.463 34.47-34.47v-10.271h11.325c14.677 0 28.425 5.148 39.341 14.611l-27.569 27.568c-12.635 12.636-20.123 29.861-20.123 48.583 0 18.353 7.147 35.606 20.124 48.584 1.829 1.829 3.752 3.529 5.743 5.123h-168.171zm248.988-15.73c-10.144 10.145-23.63 15.73-37.976 15.73s-27.833-5.587-37.977-15.731c-10.145-10.144-15.73-23.63-15.73-37.976 0-8.024 1.75-15.778 5.065-22.829 25.159 23.827 53.972 37.51 82.754 41.8 7.119 1.062 14.197 1.563 21.378 1.491z"/></g></g></svg>