<svg id="Capa_1" enable-background="new 0 0 512.001 512.001" height="512" viewBox="0 0 512.001 512.001" width="512" xmlns="http://www.w3.org/2000/svg"><g><path d="m342.689 279.494h-281.445c-10.885 0-19.709-8.824-19.709-19.709v-112.12c0-66.365 53.8-120.165 120.165-120.165h80.534c66.365 0 120.165 53.8 120.165 120.165v112.12c-.001 10.885-8.825 19.709-19.71 19.709z" fill="#365e7d"/><path d="m242.233 27.501h-34.664c66.365 0 120.165 53.8 120.165 120.165v112.12c0 10.885-8.824 19.709-19.709 19.709h34.664c10.885 0 19.709-8.824 19.709-19.709v-112.12c0-66.366-53.799-120.165-120.165-120.165z" fill="#2b4d66"/><path d="m247.737 365.031h-18.801-53.939-18.801c-37.413 0-67.742 30.329-67.742 67.742v63.1c0 4.765 3.863 8.628 8.628 8.628h209.77c4.765 0 8.628-3.863 8.628-8.628v-63.1c-.001-37.413-30.33-67.742-67.743-67.742z" fill="#bc95e2"/><path d="m247.737 365.031h-33.008c37.413 0 67.742 30.329 67.742 67.742v63.1c0 4.765-3.863 8.628-8.628 8.628h33.008c4.765 0 8.627-3.863 8.627-8.628v-63.1c.001-37.413-30.328-67.742-67.741-67.742z" fill="#ac80dd"/><g><path d="m220.847 315.081-36.221-2.131c-9.248 0-9.654 43.328-9.654 43.328v26.524c0 14.895 12.075 26.97 26.97 26.97 14.895 0 26.97-12.075 26.97-26.97v-26.524s1.183-41.197-8.065-41.197z" fill="#eaac9d"/></g><path d="m201.967 365.031c-71.877 0-130.145-58.268-130.145-130.144v-68.716c0-1.89 1.537-3.415 3.427-3.419 60.234-.111 113.469-8.738 160.955-39.423 1.419-.917 3.315-.624 4.331.725 21.444 28.468 50.691 36.346 88.165 38.514 1.911.111 3.411 1.68 3.411 3.595v68.724c0 71.877-58.268 130.144-130.144 130.144z" fill="#ffcbbe"/><path d="m328.7 162.569c-11.027-.638-21.336-1.778-30.949-3.783v76.102c0 66.052-49.209 120.606-112.965 129.014 5.622.742 11.355 1.13 17.18 1.13 71.877 0 130.144-58.268 130.144-130.144v-68.724c.001-1.915-1.499-3.485-3.41-3.595z" fill="#eaac9d"/><g><path d="m377.99 138.282h-11.649c-44.64 0-80.828-36.188-80.828-80.828v-11.648h11.649c44.64 0 80.828 36.188 80.828 80.828z" fill="#ac80dd"/><path d="m377.99 138.282v-11.649c0-44.64 36.188-80.828 80.828-80.828h11.649v11.649c0 44.64-36.188 80.828-80.828 80.828z" fill="#ac80dd"/><path d="m377.99 138.282-8.237-8.237c-31.565-31.565-31.565-82.742 0-114.308l8.237-8.237 8.237 8.237c31.565 31.565 31.565 82.742 0 114.308z" fill="#bc95e2"/></g><g><path d="m470.466 38.306h-11.648c-15.803 0-30.945 4.093-44.357 11.919-3.933-14.915-11.734-28.594-22.93-39.791l-8.236-8.236c-2.929-2.927-7.678-2.929-10.606 0l-8.238 8.236c-11.197 11.198-18.998 24.879-22.931 39.794-9.864-5.756-20.665-9.479-31.978-11.053-20.175-12.541-43.434-19.174-67.307-19.174h-66.6l5.522-8.369c2.282-3.457 1.328-8.109-2.129-10.391-3.456-2.28-8.108-1.328-10.391 2.129l-8.221 12.458-14.19-13.719c-2.978-2.881-7.727-2.801-10.605.179-2.879 2.978-2.799 7.726.179 10.604l8.563 8.279c-32.711 4.416-62.357 21.257-83.132 47.718-2.558 3.259-1.991 7.973 1.268 10.531 1.374 1.078 3.005 1.601 4.626 1.601 2.223 0 4.425-.984 5.904-2.868 21.531-27.424 53.85-43.152 88.67-43.152h80.534c12.788 0 25.37 2.168 37.269 6.333-.931 1.249-1.488 2.793-1.488 4.471v11.648c0 44.81 33.54 81.93 76.834 87.581.108 4.695.018-7.984.051 114.75 0 6.732-5.477 12.209-12.209 12.209h-8.165c3.31-11.81 5.086-24.255 5.086-37.107v-5.293c0-4.143-3.357-7.5-7.5-7.5s-7.5 3.357-7.5 7.5v5.293c0 67.626-55.018 122.645-122.644 122.645s-122.645-55.018-122.645-122.644v-64.655c66.977-.582 115.948-12.539 157.68-38.526 23.844 29.283 55.957 35.971 87.609 38.121v29.781c0 4.143 3.357 7.5 7.5 7.5s7.5-3.357 7.5-7.5v-33.444c0-5.872-4.601-10.739-10.477-11.082-35.044-2.027-62.502-8.847-82.608-35.539-3.357-4.455-9.679-5.56-14.393-2.512-40.713 26.309-89.103 38.098-156.896 38.223-6.019.01-10.915 4.907-10.915 10.918v68.716c0 12.853 1.776 25.297 5.086 37.107h-8.165c-6.732 0-12.208-5.477-12.208-12.209v-112.12c0-15.784 3.206-31.059 9.529-45.4 1.671-3.79-.047-8.217-3.837-9.888-3.789-1.672-8.217.046-9.888 3.837-7.168 16.26-10.803 33.57-10.803 51.451v112.12c0 15.003 12.206 27.209 27.208 27.209h13.332c12.914 31.458 37.148 57.115 67.613 71.865-34.815 6.585-61.234 37.214-61.234 73.914v63.1c0 8.893 7.235 16.128 16.127 16.128h139.645c4.142 0 7.5-3.357 7.5-7.5s-3.358-7.5-7.5-7.5h-139.645c-.622 0-1.127-.506-1.127-1.128v-63.1c0-33.218 27.024-60.242 60.242-60.242h11.276v10.271c0 19.007 15.463 34.47 34.47 34.47 19.006 0 34.469-15.463 34.469-34.47v-10.271h11.326c33.217 0 60.242 27.024 60.242 60.242v63.1c0 .622-.506 1.128-1.128 1.128h-40.137c-4.143 0-7.5 3.357-7.5 7.5s3.357 7.5 7.5 7.5h40.137c8.893 0 16.128-7.235 16.128-16.128v-63.1c0-36.7-26.419-67.329-61.234-73.914 30.465-14.75 54.698-40.407 67.612-71.865h13.332c15.003 0 27.209-12.206 27.209-27.209-.007-28.59.028-109.564-.036-114.003h19.777c48.704 0 88.327-39.624 88.327-88.328v-11.649c-.001-4.143-3.358-7.5-7.501-7.5zm-268.524 363.965c-10.736 0-19.47-8.734-19.47-19.47v-11.657c6.371.907 12.877 1.387 19.494 1.387 6.6 0 13.09-.477 19.445-1.38v11.65c0 10.736-8.734 19.47-19.469 19.47zm173.114-381.23 2.935-2.934 2.933 2.934c13.851 13.85 21.478 32.264 21.478 51.851s-7.627 38.001-21.478 51.851l-2.933 2.934-2.935-2.935c-13.85-13.849-21.477-32.263-21.477-51.85s7.627-38.001 21.477-51.851zm-82.042 36.413v-4.148h4.148c15.077 0 29.413 4.487 41.684 12.999-.16 2.183-.267 4.376-.267 6.587 0 21.375 7.564 41.578 21.389 57.596-37.457-3.242-66.954-34.749-66.954-73.034zm169.952 0c0 38.285-29.497 69.792-66.955 73.034 13.825-16.018 21.389-36.221 21.389-57.596 0-2.212-.107-4.407-.267-6.591 12.272-8.51 26.613-12.995 41.684-12.995h4.148v4.148z"/><path d="m276.392 208.625c0-4.143-3.357-7.5-7.5-7.5s-7.5 3.357-7.5 7.5c0 5.333-4.338 9.671-9.671 9.671s-9.671-4.338-9.671-9.671c0-4.143-3.358-7.5-7.5-7.5s-7.5 3.357-7.5 7.5c0 13.604 11.067 24.671 24.671 24.671 13.603 0 24.671-11.068 24.671-24.671z"/><path d="m176.884 208.625c0-4.143-3.358-7.5-7.5-7.5s-7.5 3.357-7.5 7.5c0 5.333-4.338 9.671-9.671 9.671s-9.671-4.338-9.671-9.671c0-4.143-3.358-7.5-7.5-7.5s-7.5 3.357-7.5 7.5c0 13.604 11.067 24.671 24.671 24.671s24.671-11.068 24.671-24.671z"/><path d="m201.967 324.615c23.056 0 43.779-13.713 52.797-34.937 1.62-3.812-.158-8.216-3.97-9.835-3.811-1.62-8.216.157-9.836 3.97-6.66 15.674-21.965 25.802-38.991 25.802s-32.332-10.128-38.992-25.802c-1.62-3.812-6.023-5.594-9.836-3.97-3.812 1.619-5.589 6.023-3.97 9.835 9.018 21.224 29.742 34.937 52.798 34.937z"/></g></g></svg>