<svg id="Capa_1" enable-background="new 0 0 512 512" height="512" viewBox="0 0 512 512" width="512" xmlns="http://www.w3.org/2000/svg"><g><path d="m95.568 71.637v160.396c0 9.643 7.817 17.46 17.46 17.46h285.943c9.643 0 17.46-7.817 17.46-17.46v-160.396c0-35.422-28.715-64.137-64.137-64.137-10.901 0-21.47 3.749-29.934 10.617l-3.518 2.855c-1.068.866-2.58.922-3.709.137l-7.338-5.103c-7.962-5.538-17.428-8.506-27.126-8.506h-120.964c-35.422 0-64.137 28.715-64.137 64.137z" fill="#e49542"/><g><path d="m352.295 7.5c-5.418 0-10.754.928-15.79 2.703 26.433 7.922 45.701 32.423 45.701 61.434v160.396c0 9.643-7.817 17.46-17.46 17.46h34.227c9.643 0 17.46-7.817 17.46-17.46v-160.396c-.001-35.422-28.716-64.137-64.138-64.137z" fill="#e27d47"/></g><path d="m301.77 345.031h-18.8-53.94-18.8c-37.413 0-67.742 30.329-67.742 67.742v83.1c0 4.765 3.863 8.627 8.627 8.627h209.77c4.765 0 8.628-3.863 8.628-8.627v-83.1c-.001-37.413-30.33-67.742-67.743-67.742z" fill="#80b4fb"/><path d="m301.77 345.031h-33.008c37.413 0 67.742 30.329 67.742 67.742v83.1c0 4.765-3.863 8.628-8.628 8.628h33.008c4.765 0 8.627-3.863 8.627-8.628v-83.1c.001-37.413-30.328-67.742-67.741-67.742z" fill="#61a2f9"/><g><path d="m274.881 295.08-36.221-2.131c-9.248 0-9.654 43.328-9.654 43.328v26.524c0 14.895 12.075 26.97 26.97 26.97 14.895 0 26.97-12.075 26.97-26.97v-26.524c-.001 0 1.182-41.197-8.065-41.197z" fill="#eaac9d"/></g><path d="m256 345.031c-71.877 0-130.145-58.268-130.145-130.144v-78.716c0-1.89 1.537-3.415 3.427-3.419 60.234-.111 113.469-8.738 160.955-39.423 1.419-.917 3.315-.624 4.331.725 21.444 28.468 50.691 36.346 88.165 38.514 1.911.111 3.411 1.68 3.411 3.595v78.724c.001 71.876-58.267 130.144-130.144 130.144z" fill="#ffcbbe"/><path d="m382.734 132.568c-11.027-.638-21.336-1.778-30.949-3.783v86.102c0 66.052-49.209 120.606-112.965 129.014 5.622.742 11.355 1.13 17.18 1.13 71.877 0 130.144-58.268 130.144-130.144v-78.724c.001-1.914-1.499-3.484-3.41-3.595z" fill="#eaac9d"/><path d="m256 233.066c-27.001 0-49.131 20.851-51.169 47.329-.142 1.841 1.684 3.208 3.399 2.524 31.847-12.708 63.694-12.708 95.54 0 1.715.684 3.541-.683 3.399-2.524-2.038-26.478-24.168-47.329-51.169-47.329z" fill="#da4a54"/><g><path d="m416.432 205.306c4.143 0 7.5-3.357 7.5-7.5v-126.169c0-39.501-32.136-71.637-71.637-71.637-12.581 0-24.89 4.366-34.66 12.293l-.942.766-4.615-3.21c-9.266-6.444-20.126-9.849-31.409-9.849h-120.963c-39.501 0-71.637 32.136-71.637 71.637v160.396c0 13.763 11.197 24.96 24.96 24.96h11.923c11.595 36.002 37.636 65.581 71.27 81.865-34.815 6.585-61.234 37.214-61.234 73.914v83.1c0 8.893 7.235 16.128 16.127 16.128h139.646c4.143 0 7.5-3.357 7.5-7.5s-3.357-7.5-7.5-7.5h-139.646c-.622 0-1.127-.506-1.127-1.128v-83.1c0-33.218 27.024-60.242 60.242-60.242h11.276v10.271c0 19.007 15.463 34.47 34.47 34.47s34.47-15.463 34.47-34.47v-10.271h11.325c33.218 0 60.242 27.024 60.242 60.242v83.1c0 .622-.506 1.128-1.128 1.128h-40.138c-4.143 0-7.5 3.357-7.5 7.5s3.357 7.5 7.5 7.5h40.138c8.893 0 16.128-7.235 16.128-16.128v-83.1c0-36.7-26.419-67.329-61.234-73.914 33.634-16.284 59.675-45.863 71.27-81.865h11.923c13.763 0 24.96-11.197 24.96-24.96v-4.241c0-4.143-3.357-7.5-7.5-7.5s-7.5 3.357-7.5 7.5v4.241c0 5.492-4.468 9.96-9.96 9.96h-8.014c1.758-8.767 2.687-17.831 2.687-27.107v-78.723c0-5.875-4.603-10.743-10.478-11.082-35.044-2.028-62.503-8.849-82.607-35.539-3.354-4.454-9.674-5.561-14.393-2.513-40.715 26.31-89.104 38.099-156.896 38.223-6.019.01-10.915 4.907-10.915 10.919v41.63c0 4.143 3.358 7.5 7.5 7.5s7.5-3.357 7.5-7.5v-37.57c66.976-.58 115.951-12.54 157.68-38.526 23.844 29.283 55.953 35.971 87.609 38.122v75.06c0 67.626-55.019 122.645-122.645 122.645s-122.645-55.019-122.645-122.645v-7.098c0-4.143-3.358-7.5-7.5-7.5s-7.5 3.357-7.5 7.5v7.098c0 9.277.928 18.34 2.687 27.107h-8.013c-5.492 0-9.96-4.468-9.96-9.96v-160.397c0-31.229 25.407-56.637 56.637-56.637h120.963c8.206 0 16.105 2.477 22.844 7.163l7.338 5.104c3.847 2.677 9.076 2.482 12.717-.471l3.519-2.854c7.105-5.766 16.058-8.942 25.208-8.942 31.229 0 56.637 25.407 56.637 56.637v126.169c0 4.142 3.357 7.5 7.5 7.5zm-140.987 145.844v11.65c0 10.735-8.734 19.47-19.47 19.47s-19.47-8.734-19.47-19.47v-11.657c6.371.907 12.877 1.387 19.494 1.387 6.601 0 13.091-.477 19.446-1.38z"/><path d="m204.247 211.584 10-5.288c3.662-1.937 5.061-6.475 3.124-10.136-1.936-3.662-6.474-5.06-10.136-3.124l-10 5.288c-3.662 1.937-5.061 6.475-3.124 10.136 1.345 2.544 3.946 3.996 6.636 3.996 1.182 0 2.382-.281 3.5-.872z"/><path d="m304.766 193.036c-3.664-1.938-8.2-.537-10.136 3.124-1.937 3.661-.538 8.199 3.124 10.136l10 5.288c1.118.592 2.317.872 3.499.872 2.69 0 5.292-1.452 6.637-3.996 1.937-3.661.538-8.199-3.124-10.136z"/><path d="m217.471 158.118c-3.53-2.169-8.148-1.062-10.316 2.468-.08.13-8.207 13.033-23.438 9.475-4.035-.948-8.068 1.562-9.011 5.595s1.562 8.067 5.595 9.011c3.007.703 5.881 1.018 8.613 1.018 15.914 0 26.981-10.667 31.023-17.25 2.168-3.531 1.063-8.15-2.466-10.317z"/><path d="m330.879 184.666c4.033-.943 6.538-4.978 5.595-9.011s-4.979-6.544-9.011-5.595c-14.931 3.49-23.066-8.896-23.464-9.517-2.178-3.498-6.773-4.581-10.289-2.426-3.53 2.168-4.635 6.786-2.468 10.316 4.042 6.583 15.107 17.249 31.023 17.249 2.732.002 5.608-.313 8.614-1.016z"/><path d="m197.353 279.819c-.267 3.471 1.247 6.773 4.05 8.835 2.794 2.056 6.384 2.516 9.607 1.23 29.854-11.913 60.129-11.912 89.983.001 3.215 1.282 6.804.828 9.604-1.231 2.803-2.061 4.317-5.363 4.05-8.835-2.342-30.423-28.103-54.253-58.647-54.253s-56.306 23.83-58.647 54.253zm100.951-6.883c-14.058-4.682-28.178-7.021-42.304-7.021-14.122 0-28.25 2.342-42.303 7.021 5.083-18.681 22.318-32.369 42.303-32.369s37.222 13.688 42.304 32.369z"/></g></g></svg>