<svg id="Capa_1" enable-background="new 0 0 512.001 512.001" height="512" viewBox="0 0 512.001 512.001" width="512" xmlns="http://www.w3.org/2000/svg"><g><path d="m396.723 279.495h-281.445c-10.885 0-19.709-8.824-19.709-19.709v-112.12c0-66.365 53.8-120.165 120.165-120.165h80.534c66.365 0 120.165 53.8 120.165 120.165v112.12c-.001 10.885-8.825 19.709-19.71 19.709z" fill="#365e7d"/><path d="m296.268 27.501h-34.664c66.365 0 120.165 53.8 120.165 120.165v112.12c0 10.885-8.824 19.709-19.709 19.709h34.664c10.885 0 19.709-8.824 19.709-19.709v-112.12c-.001-66.365-53.8-120.165-120.165-120.165z" fill="#2b4d66"/><path d="m301.771 365.032h-18.801-53.939-18.801c-37.413 0-67.742 30.329-67.742 67.742v63.1c0 4.765 3.863 8.628 8.628 8.628h209.77c4.765 0 8.628-3.863 8.628-8.628v-63.1c-.001-37.413-30.33-67.742-67.743-67.742z" fill="#ffe07d"/><path d="m301.771 365.032h-33.008c37.413 0 67.742 30.329 67.742 67.742v63.1c0 4.765-3.863 8.628-8.628 8.628h33.008c4.765 0 8.627-3.863 8.627-8.628v-63.1c.001-37.413-30.328-67.742-67.741-67.742z" fill="#ffd064"/><g><path d="m274.881 315.081-36.221-2.131c-9.248 0-9.654 43.328-9.654 43.328v26.524c0 14.895 12.075 26.97 26.97 26.97 14.895 0 26.97-12.075 26.97-26.97v-26.524s1.183-41.197-8.065-41.197z" fill="#eaac9d"/></g><path d="m256.001 365.032c-71.877 0-130.145-58.268-130.145-130.144v-68.716c0-1.89 1.537-3.415 3.427-3.419 60.234-.111 113.469-8.738 160.955-39.423 1.419-.917 3.315-.624 4.332.725 21.444 28.468 50.691 36.346 88.165 38.514 1.911.111 3.411 1.68 3.411 3.595v68.724c-.001 71.876-58.268 130.144-130.145 130.144z" fill="#ffcbbe"/><path d="m382.734 162.569c-11.027-.638-21.336-1.778-30.949-3.783v76.102c0 66.052-49.209 120.606-112.965 129.014 5.622.742 11.355 1.13 17.18 1.13 71.877 0 130.144-58.268 130.144-130.144v-68.724c.001-1.914-1.499-3.484-3.41-3.595z" fill="#eaac9d"/><g><path d="m368.537 92.8h-259.737c-8.456 16.448-13.231 35.099-13.231 54.866v40.769h286.199l30-40.769c0-19.767-25.623-42.918-43.231-54.866z" fill="#f6f9f9"/></g><path d="m404.706 95.835c-.488-1.02-.989-2.031-1.505-3.034h-34.664c8.456 16.448 13.231 35.099 13.231 54.866v40.769h34.664c-1.574-29.389 5.243-57.205-11.726-92.601z" fill="#d8e2f1"/><g><path d="m296.268 20.001h-66.6l5.522-8.369c2.281-3.457 1.328-8.109-2.129-10.391-3.459-2.283-8.11-1.328-10.391 2.129l-8.221 12.458-14.189-13.718c-2.979-2.881-7.728-2.801-10.604.179-2.88 2.978-2.8 7.726.179 10.604l8.573 8.289c-62.774 8.556-110.339 62.479-110.339 126.484v112.12c0 15.003 12.206 27.209 27.209 27.209h13.308c3.61 8.816 8.133 17.288 13.574 25.277 1.452 2.132 3.808 3.279 6.206 3.279 1.453 0 2.923-.422 4.215-1.302 3.424-2.332 4.309-6.997 1.978-10.421-13.87-20.368-21.202-44.208-21.202-68.941v-38.952h245.289v38.952c0 67.626-55.019 122.645-122.645 122.645-30.787 0-60.229-11.46-82.9-32.269-3.053-2.802-7.797-2.599-10.597.454-2.801 3.052-2.598 7.796.454 10.597 10.018 9.195 21.218 16.756 33.22 22.554-34.792 6.603-61.189 37.222-61.189 73.906v63.1c0 8.893 7.234 16.128 16.127 16.128h139.645c4.143 0 7.5-3.357 7.5-7.5s-3.357-7.5-7.5-7.5h-139.646c-.621 0-1.127-.506-1.127-1.128v-63.1c0-33.218 27.024-60.242 60.242-60.242h11.275v10.271c0 19.007 15.463 34.47 34.47 34.47s34.47-15.463 34.47-34.47v-10.271h11.325c33.218 0 60.242 27.024 60.242 60.242v63.1c0 .622-.506 1.128-1.128 1.128h-40.137c-4.143 0-7.5 3.357-7.5 7.5s3.357 7.5 7.5 7.5h40.137c8.893 0 16.128-7.235 16.128-16.128v-63.1c0-36.7-26.419-67.329-61.234-73.914 30.465-14.75 54.698-40.408 67.612-71.865h13.332c15.003 0 27.209-12.206 27.209-27.209v-112.12c.002-70.372-57.271-127.665-127.663-127.665zm-40.292 382.271c-10.735 0-19.47-8.734-19.47-19.47v-11.65c6.416.913 12.928 1.38 19.495 1.38 6.6 0 13.09-.478 19.444-1.38v11.65c.001 10.736-8.734 19.47-19.469 19.47zm30.592-221.337 78.731-80.635h33.179c6.704 14.408 10.455 30.456 10.455 47.365v33.27zm-70.834-145.934h80.534c39.077 0 73.566 20.001 93.781 50.299h-77.067c-4.143 0-7.5 3.357-7.5 7.5s3.357 7.5 7.5 7.5h31.354l-78.731 80.635h-76.369l75.615-80.635h18.143c4.143 0 7.5-3.357 7.5-7.5s-3.357-7.5-7.5-7.5h-161.042c20.216-30.298 54.705-50.299 93.782-50.299zm-112.665 145.934v-22.596l62.711 22.596zm10.455-80.635h17.648l78.778 36.617-30.833 32.88-75.923-27.356c.688-14.991 4.321-29.225 10.33-42.141zm107.229 25.098-53.996-25.098h77.531zm-97.317 146.597h-8.159c-6.732 0-12.209-5.477-12.209-12.209v-63.851h15.287v38.952c.001 12.671 1.735 25.128 5.081 37.108zm273.288 0h-8.165c3.31-11.81 5.086-24.255 5.086-37.107v-38.952h15.288v63.851c0 6.731-5.477 12.208-12.209 12.208z"/><path d="m310.238 243.579v5.289c0 4.143 3.357 7.5 7.5 7.5s7.5-3.357 7.5-7.5v-5.289c0-4.143-3.357-7.5-7.5-7.5s-7.5 3.357-7.5 7.5z"/><path d="m330.755 225.426c2.386 0 4.731-1.137 6.187-3.251 2.347-3.412 1.483-8.082-1.93-10.43-10.5-7.223-21.604-7.223-32.104 0-3.413 2.348-4.276 7.018-1.93 10.43 2.348 3.413 7.018 4.274 10.43 1.93 5.293-3.641 9.811-3.641 15.104 0 1.298.893 2.778 1.321 4.243 1.321z"/><path d="m184.318 243.579v5.289c0 4.143 3.357 7.5 7.5 7.5s7.5-3.357 7.5-7.5v-5.289c0-4.143-3.357-7.5-7.5-7.5s-7.5 3.357-7.5 7.5z"/><path d="m209.093 211.746c-10.501-7.223-21.605-7.222-32.104 0-3.413 2.348-4.276 7.018-1.93 10.43 2.349 3.413 7.018 4.274 10.43 1.93 5.294-3.643 9.809-3.643 15.104 0 1.298.893 2.778 1.321 4.243 1.321 2.386 0 4.731-1.137 6.187-3.251 2.346-3.413 1.483-8.083-1.93-10.43z"/><path d="m256.817 275.901c-17.572.296-34.027 9.121-44.019 23.608-2.352 3.41-1.494 8.08 1.916 10.432 3.424 2.361 8.089 1.481 10.432-1.916 7.248-10.51 19.182-16.912 31.923-17.126 12.721-.198 24.884 5.783 32.479 16.044 2.465 3.329 7.162 4.028 10.491 1.565 3.329-2.465 4.029-7.162 1.565-10.491-10.471-14.143-27.205-22.392-44.787-22.116z"/></g></g></svg>