<svg id="Capa_1" enable-background="new 0 0 512 512" height="512" viewBox="0 0 512 512" width="512" xmlns="http://www.w3.org/2000/svg"><g><g><path d="m390.324 459.549h-268.647c-14.419 0-26.108-11.689-26.108-26.108v-281.542c0-79.75 64.649-144.399 144.398-144.399h32.066c79.749 0 144.399 64.65 144.399 144.399v281.542c0 14.419-11.689 26.108-26.108 26.108z" fill="#365e7d"/><path d="m272.033 7.5h-30.287c79.749 0 144.399 64.65 144.399 144.399v281.542c0 14.419-11.689 26.108-26.108 26.108h30.287c14.419 0 26.108-11.689 26.108-26.108v-281.542c0-79.75-64.649-144.399-144.399-144.399z" fill="#2b4d66"/></g><path d="m301.771 345.03h-18.801-53.939-18.801c-37.413 0-67.742 30.329-67.742 67.742v83.1c0 4.765 3.863 8.627 8.628 8.627h209.77c4.765 0 8.628-3.863 8.628-8.627v-83.1c-.001-37.413-30.33-67.742-67.743-67.742z" fill="#dd636e"/><path d="m301.771 345.03h-33.008c37.413 0 67.742 30.329 67.742 67.742v83.1c0 4.765-3.863 8.628-8.628 8.628h33.008c4.765 0 8.627-3.863 8.627-8.628v-83.1c.001-37.413-30.328-67.742-67.741-67.742z" fill="#da4a54"/><g><path d="m274.881 295.08-36.221-2.131c-9.248 0-9.654 43.328-9.654 43.328v26.524c0 14.895 12.075 26.97 26.97 26.97 14.895 0 26.97-12.075 26.97-26.97v-26.524c-.001 0 1.183-41.197-8.065-41.197z" fill="#eaac9d"/></g><path d="m256.001 345.03c-71.877 0-130.145-58.268-130.145-130.144v-78.716c0-1.89 1.537-3.415 3.427-3.419 60.234-.111 113.469-8.738 160.955-39.423 1.419-.917 3.315-.624 4.332.725 21.444 28.468 50.691 36.346 88.165 38.514 1.911.111 3.411 1.68 3.411 3.595v78.724c-.001 71.877-58.269 130.144-130.145 130.144z" fill="#ffcbbe"/><path d="m382.734 132.568c-11.027-.638-21.336-1.778-30.949-3.783v86.102c0 66.052-49.209 120.606-112.965 129.014 5.622.742 11.355 1.13 17.18 1.13 71.877 0 130.144-58.268 130.144-130.144v-78.724c.001-1.915-1.499-3.485-3.41-3.595z" fill="#eaac9d"/><g><g><path d="m203.246 171.074s5.832-7.877 17.357-7.877c10.276 0 17.357 8.087 17.357 17.505 0 10.901-9.653 23.8-34.715 35.01-25.061-11.21-34.715-24.109-34.715-35.01 0-9.418 7.082-17.505 17.357-17.505 11.527 0 17.359 7.877 17.359 7.877z" fill="#dd636e"/></g><g><path d="m308.754 171.074s5.832-7.877 17.357-7.877c10.276 0 17.357 8.087 17.357 17.505 0 10.901-9.653 23.8-34.715 35.01-25.061-11.21-34.715-24.109-34.715-35.01 0-9.418 7.082-17.505 17.357-17.505 11.527 0 17.359 7.877 17.359 7.877z" fill="#dd636e"/></g></g><g><path d="m400.354 70.591c-2.22-3.498-6.855-4.53-10.352-2.312-3.497 2.221-4.532 6.855-2.312 10.352 13.896 21.889 21.242 47.224 21.242 73.269v281.54c0 10.261-8.348 18.608-18.607 18.608h-13.312v-39.276c0-36.7-26.419-67.329-61.234-73.914 46.039-22.29 77.865-69.483 77.865-123.972v-78.724c0-5.872-4.601-10.739-10.477-11.082-35.044-2.027-62.502-8.847-82.608-35.539-3.355-4.455-9.679-5.56-14.393-2.512-40.716 26.31-89.104 38.098-156.899 38.222-6.017.013-10.912 4.911-10.912 10.919v41.631c0 4.143 3.357 7.5 7.5 7.5s7.5-3.357 7.5-7.5v-37.571c66.975-.58 115.948-12.538 157.68-38.526 23.845 29.284 55.957 35.972 87.609 38.122v75.061c0 67.626-55.019 122.645-122.645 122.645s-122.645-55.019-122.645-122.645v-7.098c0-4.143-3.357-7.5-7.5-7.5s-7.5 3.357-7.5 7.5v7.098c0 54.489 31.827 101.683 77.866 123.972-34.814 6.585-61.234 37.214-61.234 73.914v39.276h-13.312c-10.261 0-18.608-8.348-18.608-18.608v-281.543c.002-75.486 61.415-136.898 136.902-136.898h32.065c37.136 0 71.896 14.631 97.875 41.197 2.896 2.959 7.644 3.015 10.606.118 2.961-2.896 3.014-7.645.118-10.606-28.824-29.476-67.393-45.709-108.599-45.709h-32.065c-83.758 0-151.9 68.142-151.9 151.898v281.542c0 18.532 15.077 33.608 33.608 33.608h13.312v28.823c0 8.893 7.234 16.128 16.127 16.128h139.646c4.143 0 7.5-3.357 7.5-7.5s-3.357-7.5-7.5-7.5h-139.646c-.621 0-1.127-.506-1.127-1.128v-83.1c0-33.218 27.024-60.242 60.242-60.242h11.275v10.271c0 19.007 15.463 34.47 34.47 34.47s34.47-15.463 34.47-34.47v-10.27h11.325c33.218 0 60.242 27.024 60.242 60.242v83.1c0 .622-.506 1.128-1.128 1.128h-40.137c-4.143 0-7.5 3.357-7.5 7.5s3.357 7.5 7.5 7.5h40.137c8.893 0 16.128-7.235 16.128-16.128v-28.823h13.312c18.531 0 33.607-15.076 33.607-33.608v-281.543c.001-28.896-8.153-57.012-23.577-81.307zm-144.378 311.68c-10.735 0-19.47-8.734-19.47-19.47v-11.657c6.371.907 12.878 1.387 19.495 1.387 6.6 0 13.09-.477 19.444-1.38v11.65c0 10.735-8.734 19.47-19.469 19.47z"/><path d="m217.009 260.812c-1.619-3.812-6.023-5.588-9.835-3.971-3.812 1.62-5.59 6.023-3.97 9.836 9.017 21.224 29.74 34.937 52.796 34.937s43.779-13.713 52.797-34.937c1.62-3.812-.157-8.216-3.97-9.835-3.81-1.62-8.215.157-9.835 3.97-6.66 15.674-21.966 25.802-38.992 25.802s-32.331-10.128-38.991-25.802z"/><path d="m220.604 155.696c-7.261 0-13.157 2.479-17.357 5.336-4.2-2.857-10.097-5.336-17.357-5.336-13.938 0-24.857 10.984-24.857 25.006 0 21.18 24.53 35.315 39.152 41.856 1.949.871 4.176.871 6.125 0 14.622-6.541 39.152-20.677 39.152-41.856-.001-14.021-10.92-25.006-24.858-25.006zm-17.358 51.75c-17.109-8.218-27.215-18.094-27.215-26.744 0-4.973 3.386-10.006 9.857-10.006 7.08 0 10.908 4.34 11.361 4.887 1.377 1.963 3.542 3.052 5.944 3.091.038.001.076.001.114.001 2.376 0 4.548-1.224 5.966-3.138.035-.049 3.916-4.841 11.329-4.841 6.472 0 9.857 5.033 9.857 10.006.002 8.651-10.104 18.527-27.213 26.744z"/><path d="m311.816 222.559c14.622-6.541 39.152-20.677 39.152-41.856 0-14.021-10.919-25.006-24.857-25.006-7.261 0-13.156 2.479-17.357 5.336-4.2-2.857-10.097-5.336-17.357-5.336-13.938 0-24.857 10.984-24.857 25.006 0 21.179 24.53 35.314 39.152 41.855 1.946.872 4.174.872 6.124.001zm-30.277-41.857c0-4.973 3.386-10.006 9.857-10.006 7.079 0 10.907 4.339 11.361 4.887 1.401 2 3.55 3.193 5.996 3.193s4.595-1.192 5.995-3.193c.454-.546 4.282-4.887 11.362-4.887 6.472 0 9.857 5.033 9.857 10.006 0 8.65-10.105 18.526-27.215 26.744-17.107-8.217-27.213-18.094-27.213-26.744z"/></g></g></svg>