<svg id="Capa_1" enable-background="new 0 0 512 512" height="512" viewBox="0 0 512 512" width="512" xmlns="http://www.w3.org/2000/svg"><g><g><path d="m390.324 459.549h-268.647c-14.419 0-26.108-11.689-26.108-26.108v-281.542c0-79.749 64.649-144.399 144.398-144.399h32.066c79.749 0 144.399 64.65 144.399 144.399v281.542c0 14.419-11.689 26.108-26.108 26.108z" fill="#365e7d"/><path d="m272.033 7.5h-30.287c79.749 0 144.399 64.65 144.399 144.399v281.542c0 14.419-11.689 26.108-26.108 26.108h30.287c14.419 0 26.108-11.689 26.108-26.108v-281.542c0-79.749-64.649-144.399-144.399-144.399z" fill="#2b4d66"/></g><path d="m301.771 345.031h-18.801-53.939-18.801c-37.413 0-67.742 30.329-67.742 67.742v83.1c0 4.765 3.863 8.628 8.628 8.628h209.77c4.765 0 8.628-3.863 8.628-8.628v-83.1c-.001-37.413-30.33-67.742-67.743-67.742z" fill="#bc95e2"/><path d="m301.771 345.031h-33.008c37.413 0 67.742 30.329 67.742 67.742v83.1c0 4.765-3.863 8.628-8.628 8.628h33.008c4.765 0 8.627-3.863 8.627-8.628v-83.1c.001-37.413-30.328-67.742-67.741-67.742z" fill="#ac80dd"/><g><path d="m274.881 295.08-36.221-2.131c-9.248 0-9.654 43.328-9.654 43.328v26.524c0 14.895 12.075 26.97 26.97 26.97 14.895 0 26.97-12.075 26.97-26.97v-26.524c-.001 0 1.183-41.197-8.065-41.197z" fill="#eaac9d"/></g><path d="m256.001 345.031c-71.877 0-130.145-58.268-130.145-130.144v-78.716c0-1.89 1.537-3.415 3.427-3.419 60.234-.111 113.469-8.738 160.955-39.423 1.419-.917 3.315-.624 4.332.725 21.444 28.468 50.691 36.346 88.165 38.514 1.911.111 3.411 1.68 3.411 3.595v78.724c-.001 71.876-58.269 130.144-130.145 130.144z" fill="#ffcbbe"/><path d="m382.734 132.568c-11.027-.638-21.336-1.778-30.949-3.783v86.102c0 66.052-49.209 120.606-112.965 129.014 5.622.742 11.355 1.13 17.18 1.13 71.877 0 130.144-58.268 130.144-130.144v-78.724c.001-1.914-1.499-3.484-3.41-3.595z" fill="#eaac9d"/><g><g><path d="m179.586 235.486c-2.787 0-5.464-1.561-6.758-4.237-1.804-3.729-.242-8.214 3.487-10.017 16.666-8.06 33.567-8.06 50.233 0 3.729 1.803 5.291 6.288 3.487 10.017-1.803 3.729-6.288 5.29-10.017 3.487-12.507-6.047-24.666-6.047-37.175 0-1.05.509-2.162.75-3.257.75z" fill="#eaac9d"/></g><g><path d="m288.722 235.486c-2.787 0-5.464-1.561-6.758-4.237-1.804-3.729-.242-8.214 3.487-10.017 16.666-8.06 33.567-8.06 50.233 0 3.729 1.803 5.291 6.288 3.487 10.017-1.803 3.729-6.288 5.29-10.017 3.487-12.507-6.047-24.666-6.047-37.175 0-1.05.509-2.162.75-3.257.75z" fill="#eaac9d"/></g></g><g><path d="m400.354 70.591c-2.22-3.498-6.856-4.529-10.352-2.312-3.497 2.221-4.532 6.854-2.312 10.352 13.896 21.889 21.242 47.225 21.242 73.269v281.543c0 10.26-8.348 18.607-18.607 18.607h-13.312v-39.276c0-36.7-26.419-67.329-61.234-73.914 46.039-22.29 77.865-69.483 77.865-123.972v-78.723c0-5.875-4.603-10.743-10.477-11.082-35.044-2.028-62.503-8.849-82.609-35.542-3.355-4.45-9.675-5.556-14.392-2.51-40.715 26.31-89.104 38.099-156.896 38.223-6.02.01-10.916 4.907-10.916 10.919v41.63c0 4.143 3.357 7.5 7.5 7.5s7.5-3.357 7.5-7.5v-37.57c66.976-.58 115.951-12.54 157.68-38.527 23.844 29.284 55.952 35.971 87.609 38.123v75.06c0 67.626-55.019 122.645-122.645 122.645s-122.645-55.019-122.645-122.645v-7.098c0-4.143-3.357-7.5-7.5-7.5s-7.5 3.357-7.5 7.5v7.098c0 54.489 31.827 101.683 77.866 123.972-34.814 6.585-61.234 37.214-61.234 73.914v39.276h-13.312c-10.261 0-18.608-8.348-18.608-18.607v-281.546c.003-75.486 61.416-136.898 136.903-136.898h32.065c37.136 0 71.896 14.631 97.875 41.197 2.896 2.96 7.645 3.016 10.606.118 2.961-2.896 3.014-7.645.118-10.606-28.824-29.476-67.393-45.709-108.599-45.709h-32.065c-83.758 0-151.9 68.142-151.9 151.898v281.543c0 18.531 15.077 33.607 33.608 33.607h13.312v28.823c0 8.893 7.234 16.128 16.127 16.128h139.646c4.143 0 7.5-3.357 7.5-7.5s-3.357-7.5-7.5-7.5h-139.646c-.621 0-1.127-.506-1.127-1.128v-83.1c0-33.218 27.024-60.242 60.242-60.242h11.275v10.271c0 19.007 15.463 34.47 34.47 34.47s34.47-15.463 34.47-34.47v-10.27h11.325c33.218 0 60.242 27.024 60.242 60.242v83.1c0 .622-.506 1.128-1.128 1.128h-40.137c-4.143 0-7.5 3.357-7.5 7.5s3.357 7.5 7.5 7.5h40.137c8.893 0 16.128-7.235 16.128-16.128v-28.823h13.312c18.531 0 33.607-15.076 33.607-33.607v-281.544c.001-28.895-8.153-57.011-23.577-81.307zm-144.378 311.68c-10.735 0-19.47-8.734-19.47-19.47v-11.657c6.371.907 12.877 1.387 19.495 1.387 6.6 0 13.09-.477 19.444-1.38v11.65c0 10.735-8.734 19.47-19.469 19.47z"/><path d="m193.241 199.666v5.288c0 4.143 3.357 7.5 7.5 7.5s7.5-3.357 7.5-7.5v-5.288c0-4.143-3.357-7.5-7.5-7.5s-7.5 3.357-7.5 7.5z"/><path d="m303.76 199.666v5.288c0 4.143 3.357 7.5 7.5 7.5s7.5-3.357 7.5-7.5v-5.288c0-4.143-3.357-7.5-7.5-7.5s-7.5 3.357-7.5 7.5z"/><path d="m223.447 174.294-21.839-15.181c-3.403-2.364-8.075-1.522-10.439 1.877-2.364 3.401-1.523 8.075 1.877 10.439l21.839 15.181c3.42 2.377 8.087 1.506 10.439-1.877 2.364-3.401 1.524-8.075-1.877-10.439z"/><path d="m328.837 175.953c1.616-3.813-.164-8.216-3.978-9.833-21.153-8.971-36.655 4.221-41.896 12.45-2.225 3.494-1.213 8.155 2.28 10.381 3.508 2.234 8.122 1.209 10.339-2.271.882-1.334 9.026-12.855 23.422-6.749 3.811 1.617 8.216-.163 9.833-3.978z"/><path d="m260.421 250.795c-16.295.902-31.415 8.39-40.446 20.028-2.539 3.272-1.944 7.983 1.328 10.523 3.265 2.533 7.978 1.951 10.523-1.328 6.405-8.255 17.405-13.581 29.425-14.247 12.01-.66 23.54 3.413 30.817 10.909 2.886 2.973 7.634 3.042 10.605.158 2.973-2.886 3.043-7.634.158-10.605-10.26-10.57-26.115-16.337-42.41-15.438z"/></g></g></svg>