<svg id="Capa_1" enable-background="new 0 0 512 512" height="512" viewBox="0 0 512 512" width="512"
     xmlns="http://www.w3.org/2000/svg">
    <g>
        <path d="m95.568 71.637v160.396c0 9.643 7.817 17.46 17.46 17.46h285.943c9.643 0 17.46-7.817 17.46-17.46v-160.396c0-35.422-28.715-64.137-64.137-64.137-10.901 0-21.47 3.749-29.934 10.617l-3.518 2.855c-1.068.866-2.58.922-3.709.137l-7.338-5.103c-7.962-5.538-17.428-8.506-27.126-8.506h-120.964c-35.422 0-64.137 28.715-64.137 64.137z"
              fill="#365e7d"/>
        <g>
            <path d="m352.294 7.5c-5.418 0-10.754.928-15.79 2.703 26.433 7.922 45.701 32.423 45.701 61.434v160.396c0 9.643-7.817 17.46-17.46 17.46h34.227c9.643 0 17.46-7.817 17.46-17.46v-160.396c0-35.422-28.716-64.137-64.138-64.137z"
                  fill="#2b4d66"/>
        </g>
        <path d="m301.77 345.03h-18.8-53.94-18.8c-37.413 0-67.742 30.329-67.742 67.742v83.1c0 4.765 3.863 8.628 8.628 8.628h209.77c4.765 0 8.628-3.863 8.628-8.628v-83.1c-.002-37.413-30.331-67.742-67.744-67.742z"
              fill="#80b4fb"/>
        <path d="m301.77 345.03h-33.008c37.413 0 67.742 30.329 67.742 67.742v83.1c0 4.765-3.863 8.628-8.628 8.628h33.008c4.765 0 8.627-3.863 8.627-8.628v-83.1c.001-37.413-30.328-67.742-67.741-67.742z"
              fill="#61a2f9"/>
        <g>
            <path d="m274.88 295.08-36.221-2.131c-9.248 0-9.654 43.328-9.654 43.328v26.524c0 14.895 12.075 26.97 26.97 26.97 14.895 0 26.97-12.075 26.97-26.97v-26.524s1.183-41.197-8.065-41.197z"
                  fill="#eaac9d"/>
        </g>
        <path d="m256 345.03c-71.877 0-130.145-58.268-130.145-130.144v-78.716c0-1.89 1.537-3.415 3.427-3.419 60.234-.111 113.469-8.738 160.955-39.423 1.419-.917 3.315-.624 4.332.725 21.444 28.468 50.691 36.346 88.165 38.514 1.911.111 3.411 1.68 3.411 3.595v78.724c-.001 71.877-58.268 130.144-130.145 130.144z"
              fill="#ffcbbe"/>
        <path d="m382.733 132.568c-11.027-.638-21.336-1.778-30.949-3.783v86.102c0 66.052-49.209 120.606-112.965 129.014 5.622.741 11.355 1.13 17.18 1.13 71.877 0 130.144-58.268 130.144-130.144v-78.724c.001-1.915-1.499-3.485-3.41-3.595z"
              fill="#eaac9d"/>
        <path d="m316.07 262.004h-120.141c-6.407 0-11.601-5.194-11.601-11.601 0-6.407 5.194-11.601 11.601-11.601h120.141c6.407 0 11.601 5.194 11.601 11.601 0 6.408-5.194 11.601-11.601 11.601z"
              fill="#efa5c3"/>
        <g>
            <g>
                <path d="m203.246 172.074s5.832-7.877 17.357-7.877c10.276 0 17.357 8.087 17.357 17.505 0 10.901-9.653 23.8-34.715 35.01-25.061-11.21-34.715-24.109-34.715-35.01 0-9.418 7.082-17.505 17.357-17.505 11.527 0 17.359 7.877 17.359 7.877z"
                      fill="#dd636e"/>
            </g>
            <g>
                <path d="m308.754 172.074s5.832-7.877 17.357-7.877c10.276 0 17.357 8.087 17.357 17.505 0 10.901-9.653 23.8-34.715 35.01-25.061-11.21-34.715-24.109-34.715-35.01 0-9.418 7.082-17.505 17.357-17.505 11.527 0 17.359 7.877 17.359 7.877z"
                      fill="#dd636e"/>
            </g>
        </g>
        <g>
            <path d="m416.432 85.305c4.143 0 7.5-3.357 7.5-7.5v-6.168c0-39.501-32.137-71.637-71.638-71.637-12.582 0-24.892 4.366-34.66 12.293l-.942.765-4.614-3.209c-9.263-6.444-20.124-9.849-31.41-9.849h-120.962c-39.501 0-71.638 32.136-71.638 71.637v160.396c0 13.763 11.197 24.96 24.961 24.96h11.922c11.595 36.002 37.636 65.581 71.271 81.865-34.814 6.585-61.234 37.214-61.234 73.914v83.1c0 8.893 7.234 16.128 16.127 16.128h139.645c4.143 0 7.5-3.357 7.5-7.5s-3.357-7.5-7.5-7.5h-139.645c-.621 0-1.127-.506-1.127-1.128v-83.1c0-33.218 27.024-60.242 60.242-60.242h11.275v10.271c0 19.007 15.463 34.47 34.47 34.47s34.47-15.463 34.47-34.47v-10.271h11.325c33.218 0 60.242 27.024 60.242 60.242v83.1c0 .622-.506 1.128-1.128 1.128h-40.137c-4.143 0-7.5 3.357-7.5 7.5s3.357 7.5 7.5 7.5h40.137c8.893 0 16.128-7.235 16.128-16.128v-83.1c0-36.7-26.419-67.329-61.234-73.914 33.634-16.284 59.674-45.863 71.27-81.865h11.923c13.764 0 24.961-11.197 24.961-24.96v-124.241c0-4.143-3.357-7.5-7.5-7.5s-7.5 3.357-7.5 7.5v124.241c0 5.492-4.469 9.96-9.961 9.96h-8.014c1.758-8.767 2.687-17.831 2.687-27.107v-78.724c0-5.872-4.601-10.739-10.477-11.082-35.044-2.027-62.502-8.847-82.608-35.539-3.356-4.454-9.679-5.56-14.393-2.512-40.714 26.309-89.103 38.098-156.896 38.223-6.02.01-10.916 4.907-10.916 10.918v41.631c0 4.143 3.357 7.5 7.5 7.5s7.5-3.357 7.5-7.5v-37.57c66.977-.582 115.95-12.54 157.68-38.527 23.845 29.284 55.957 35.972 87.609 38.122v75.061c0 67.626-55.019 122.645-122.645 122.645s-122.645-55.019-122.645-122.645v-7.098c0-4.143-3.357-7.5-7.5-7.5s-7.5 3.357-7.5 7.5v7.098c0 9.277.928 18.34 2.687 27.107h-8.013c-5.492 0-9.961-4.468-9.961-9.96v-160.397c0-31.229 25.407-56.637 56.638-56.637h120.963c8.208 0 16.107 2.477 22.845 7.163l7.338 5.104c3.848 2.675 9.076 2.481 12.716-.471l3.519-2.855c7.105-5.766 16.058-8.94 25.209-8.94 31.23 0 56.638 25.407 56.638 56.637v6.168c0 4.141 3.358 7.499 7.5 7.499zm-160.432 267.225c6.6 0 13.09-.477 19.444-1.38v11.65c0 10.735-8.734 19.47-19.47 19.47s-19.47-8.734-19.47-19.47v-11.657c6.372.908 12.879 1.387 19.496 1.387z"/>
            <path d="m247.592 254.216-7.981 5.568c-3.397 2.37-4.23 7.046-1.86 10.442 2.371 3.397 7.045 4.229 10.442 1.86l7.98-5.568c1.053-.733 2.093-.367 2.49-.177 2.386 1.143.882 5.305-2.294 5.305-4.143 0-7.5 3.357-7.5 7.5s3.357 7.5 7.5 7.5c3.092 0 4.721 4.143 2.294 5.305-.397.19-1.437.557-2.489-.178l-7.981-5.567c-3.4-2.372-8.073-1.537-10.442 1.86-2.37 3.397-1.537 8.072 1.86 10.442l7.981 5.567c2.967 2.069 6.458 3.124 9.974 3.124 2.581 0 5.176-.569 7.583-1.724 5.616-2.692 9.217-7.972 9.633-14.125.295-4.471-1.005-8.74-3.569-12.205 2.559-3.458 3.863-7.716 3.569-12.21-.416-6.148-4.017-11.427-9.632-14.12-5.686-2.724-12.413-2.188-17.558 1.401z"/>
            <path d="m220.603 156.696c-7.261 0-13.157 2.479-17.357 5.336-4.2-2.857-10.097-5.336-17.357-5.336-13.938 0-24.857 10.984-24.857 25.006 0 21.18 24.53 35.315 39.152 41.856.975.436 2.019.653 3.062.653s2.088-.218 3.062-.653c14.622-6.541 39.152-20.677 39.152-41.856 0-14.021-10.918-25.006-24.857-25.006zm-17.357 51.75c-17.109-8.218-27.215-18.094-27.215-26.744 0-4.973 3.386-10.006 9.857-10.006 7.08 0 10.908 4.34 11.361 4.887 1.377 1.963 3.542 3.052 5.944 3.091 2.416.09 4.64-1.192 6.08-3.137.035-.049 3.916-4.841 11.329-4.841 6.472 0 9.857 5.033 9.857 10.006.001 8.651-10.104 18.527-27.213 26.744z"/>
            <path d="m305.691 223.558c.975.437 2.019.654 3.062.654s2.088-.218 3.062-.653c14.622-6.541 39.152-20.677 39.152-41.856 0-14.021-10.919-25.006-24.857-25.006-7.261 0-13.156 2.479-17.357 5.336-4.2-2.857-10.097-5.336-17.357-5.336-13.938 0-24.857 10.984-24.857 25.006 0 21.178 24.53 35.314 39.152 41.855zm-14.295-51.862c7.079 0 10.907 4.339 11.361 4.887 1.401 2 3.55 3.193 5.996 3.193s4.595-1.192 5.995-3.193c.454-.546 4.282-4.887 11.362-4.887 6.472 0 9.857 5.033 9.857 10.006 0 8.65-10.105 18.526-27.215 26.744-17.109-8.218-27.215-18.095-27.215-26.744.002-4.973 3.387-10.006 9.859-10.006z"/>
        </g>
    </g>
</svg>