<svg id="Capa_1" enable-background="new 0 0 512.001 512.001" height="512" viewBox="0 0 512.001 512.001" width="512" xmlns="http://www.w3.org/2000/svg"><g><path d="m396.723 279.495h-281.445c-10.885 0-19.709-8.824-19.709-19.709v-112.12c0-66.365 53.8-120.165 120.165-120.165h80.534c66.365 0 120.165 53.8 120.165 120.165v112.12c-.001 10.885-8.825 19.709-19.71 19.709z" fill="#e49542"/><path d="m296.268 27.501h-34.664c66.365 0 120.165 53.8 120.165 120.165v112.12c0 10.885-8.824 19.709-19.709 19.709h34.664c10.885 0 19.709-8.824 19.709-19.709v-112.12c-.001-66.365-53.8-120.165-120.165-120.165z" fill="#e27d47"/><path d="m301.771 365.032h-18.801-53.939-18.801c-37.413 0-67.742 30.329-67.742 67.742v63.1c0 4.765 3.863 8.627 8.628 8.627h209.77c4.765 0 8.628-3.863 8.628-8.627v-63.1c-.001-37.413-30.33-67.742-67.743-67.742z" fill="#78d0b1"/><path d="m301.771 365.032h-33.008c37.413 0 67.742 30.329 67.742 67.742v63.1c0 4.765-3.863 8.628-8.628 8.628h33.008c4.765 0 8.627-3.863 8.627-8.628v-63.1c.001-37.413-30.328-67.742-67.741-67.742z" fill="#66b49d"/><g><path d="m274.881 315.081-36.221-2.131c-9.248 0-9.654 43.328-9.654 43.328v26.524c0 14.895 12.075 26.97 26.97 26.97 14.895 0 26.97-12.075 26.97-26.97v-26.524s1.183-41.197-8.065-41.197z" fill="#eaac9d"/></g><path d="m256.001 365.032c-71.877 0-130.145-58.268-130.145-130.144v-68.716c0-1.89 1.537-3.415 3.427-3.419 60.234-.111 113.469-8.738 160.955-39.423 1.419-.917 3.315-.624 4.331.725 21.444 28.468 50.691 36.346 88.165 38.514 1.911.111 3.411 1.68 3.411 3.595v68.724c0 71.876-58.267 130.144-130.144 130.144z" fill="#ffcbbe"/><path d="m382.734 162.569c-11.027-.638-21.336-1.778-30.949-3.783v76.102c0 66.052-49.209 120.606-112.965 129.014 5.622.741 11.355 1.13 17.18 1.13 71.877 0 130.144-58.268 130.144-130.144v-68.724c.001-1.914-1.499-3.484-3.41-3.595z" fill="#eaac9d"/><ellipse cx="200.741" cy="222.311" fill="#f6f9f9" rx="21.604" ry="23.604"/><ellipse cx="311.26" cy="222.311" fill="#f6f9f9" rx="21.604" ry="23.604"/><path d="m332.864 290.19s7.222-9.755 21.494-9.755c12.724 0 21.494 10.014 21.494 21.677 0 13.499-11.954 29.471-42.988 43.354-31.034-13.882-42.988-29.854-42.988-43.354 0-11.663 8.77-21.677 21.494-21.677 14.272 0 21.494 9.755 21.494 9.755z" fill="#dd636e"/><g><path d="m354.358 280.435c-1.896 0-3.664.176-5.311.475 3.305 3.868 5.201 8.931 5.201 14.351 0 12.818-10.791 27.865-38.448 41.235 4.896 3.053 10.555 6.058 17.064 8.969 31.034-13.882 42.988-29.854 42.988-43.354 0-11.662-8.77-21.676-21.494-21.676z" fill="#da4a54"/></g><g><path d="m296.268 20.001h-66.6l5.522-8.369c2.281-3.457 1.328-8.109-2.129-10.391-3.459-2.283-8.11-1.328-10.391 2.129l-8.221 12.458-14.189-13.718c-2.979-2.881-7.728-2.801-10.604.179-2.88 2.978-2.8 7.726.179 10.604l8.563 8.279c-32.711 4.416-62.357 21.257-83.133 47.718-2.558 3.259-1.99 7.973 1.268 10.531 3.258 2.557 7.973 1.99 10.531-1.268 21.53-27.424 53.85-43.152 88.67-43.152h80.534c62.124 0 112.665 50.541 112.665 112.664v112.12c0 6.732-5.477 12.209-12.209 12.209h-8.131c3.353-11.983 5.052-24.394 5.052-37.107v-5.293c0-4.143-3.357-7.5-7.5-7.5s-7.5 3.357-7.5 7.5v5.293c0 14.924-2.615 29.377-7.78 43.099-4.656-3.195-10.326-5.051-16.507-5.051-9.724 0-16.906 3.643-21.493 7.043-4.587-3.4-11.771-7.043-21.494-7.043-16.259 0-28.994 12.816-28.994 29.177 0 18.143 15.377 32.061 30.602 41.394-17.496 9.197-36.964 14.026-56.978 14.026-67.626 0-122.645-55.019-122.645-122.645v-64.656c66.975-.58 115.948-12.538 157.68-38.526 23.845 29.284 55.957 35.972 87.609 38.122v29.781c0 4.143 3.357 7.5 7.5 7.5s7.5-3.357 7.5-7.5v-33.444c0-5.872-4.602-10.74-10.478-11.082-35.043-2.027-62.501-8.847-82.607-35.539-3.355-4.455-9.679-5.56-14.393-2.512-40.716 26.31-89.104 38.098-156.899 38.222-6.017.013-10.912 4.911-10.912 10.919v68.716c0 12.853 1.776 25.297 5.086 37.107h-8.164c-6.732 0-12.209-5.477-12.209-12.209v-112.12c0-15.783 3.206-31.059 9.529-45.4 1.671-3.79-.047-8.217-3.837-9.888-3.791-1.674-8.217.046-9.888 3.837-7.17 16.26-10.805 33.57-10.805 51.451v112.12c0 15.003 12.206 27.209 27.209 27.209h13.331c12.915 31.458 37.148 57.115 67.613 71.865-34.814 6.585-61.234 37.214-61.234 73.914v63.1c0 8.893 7.234 16.128 16.127 16.128h139.645c4.143 0 7.5-3.357 7.5-7.5s-3.357-7.5-7.5-7.5h-139.644c-.621 0-1.127-.506-1.127-1.128v-63.1c0-33.218 27.024-60.242 60.242-60.242h11.275v10.271c0 19.007 15.463 34.47 34.47 34.47s34.47-15.463 34.47-34.47v-10.271h11.325c33.218 0 60.242 27.024 60.242 60.242v63.1c0 .622-.506 1.128-1.128 1.128h-40.137c-4.143 0-7.5 3.357-7.5 7.5s3.357 7.5 7.5 7.5h40.137c8.893 0 16.128-7.235 16.128-16.128v-63.1c0-36.687-26.4-67.307-61.196-73.907 4.388-2.121 8.674-4.478 12.841-7.074.384.175.77.352 1.143.519 1.949.871 4.176.871 6.125 0 17.712-7.923 47.425-24.98 47.425-50.2 0-3.739-.672-7.29-1.893-10.548.686-1.515 1.353-3.036 1.982-4.569h13.283c15.003 0 27.209-12.206 27.209-27.209v-112.12c.002-70.395-57.269-127.665-127.663-127.665zm-40.292 382.271c-10.735 0-19.47-8.734-19.47-19.47v-11.657c6.371.907 12.878 1.387 19.495 1.387 6.547 0 13.04-.47 19.444-1.376v11.647c.001 10.735-8.734 19.469-19.469 19.469zm76.889-65.061c-22.605-10.679-35.488-23.377-35.488-35.1 0-6.872 4.904-14.177 13.994-14.177 9.796 0 14.995 6.138 15.491 6.753 1.386 1.952 3.566 3.049 5.963 3.08 2.451.04 4.633-1.178 6.068-3.115.05-.067 5.258-6.718 15.465-6.718 9.09 0 13.994 7.305 13.994 14.177 0 11.724-12.883 24.422-35.487 35.1z"/><path d="m274.782 281.938c-.416-6.148-4.017-11.427-9.632-14.12-5.686-2.726-12.413-2.189-17.558 1.399l-7.981 5.568c-3.397 2.37-4.23 7.046-1.86 10.442 2.371 3.397 7.046 4.23 10.442 1.86l7.98-5.568c1.052-.733 2.094-.367 2.49-.177.716.343 1.103.884 1.151 1.602.143 2.007-1.452 3.703-3.445 3.703-4.143 0-7.5 3.357-7.5 7.5s3.357 7.5 7.5 7.5c2.005 0 3.596 1.717 3.445 3.698-.049.723-.436 1.264-1.151 1.606-.396.19-1.437.558-2.489-.178l-7.981-5.567c-3.399-2.371-8.072-1.537-10.442 1.86s-1.537 8.072 1.86 10.442l7.981 5.567c5.154 3.595 11.88 4.122 17.557 1.4 5.877-2.817 9.675-8.538 9.675-15.376 0-4.098-1.343-7.889-3.611-10.954 2.56-3.455 3.863-7.713 3.569-12.207z"/><path d="m193.241 219.667v5.289c0 4.143 3.357 7.5 7.5 7.5s7.5-3.357 7.5-7.5v-5.289c0-4.143-3.357-7.5-7.5-7.5s-7.5 3.357-7.5 7.5z"/><path d="m303.76 219.667v5.289c0 4.143 3.357 7.5 7.5 7.5s7.5-3.357 7.5-7.5v-5.289c0-4.143-3.357-7.5-7.5-7.5s-7.5 3.357-7.5 7.5z"/></g></g></svg>