<svg id="Capa_1" enable-background="new 0 0 512 512" height="512" viewBox="0 0 512 512" width="512" xmlns="http://www.w3.org/2000/svg"><g><path d="m95.568 71.637v160.396c0 9.643 7.817 17.46 17.46 17.46h285.943c9.643 0 17.46-7.817 17.46-17.46v-160.396c0-35.422-28.715-64.137-64.137-64.137-10.901 0-21.47 3.749-29.934 10.617l-3.518 2.855c-1.068.866-2.58.922-3.709.137l-7.338-5.103c-7.962-5.538-17.428-8.506-27.126-8.506h-120.964c-35.422 0-64.137 28.715-64.137 64.137z" fill="#e49542"/><g><path d="m352.295 7.5c-5.418 0-10.754.928-15.79 2.703 26.433 7.922 45.701 32.423 45.701 61.434v160.396c0 9.643-7.817 17.46-17.46 17.46h34.227c9.643 0 17.46-7.817 17.46-17.46v-160.396c-.001-35.422-28.716-64.137-64.138-64.137z" fill="#e27d47"/></g><path d="m301.77 345.03h-18.8-53.94-18.8c-37.413 0-67.742 30.329-67.742 67.742v83.1c0 4.765 3.863 8.628 8.627 8.628h209.77c4.765 0 8.628-3.863 8.628-8.628v-83.1c-.001-37.413-30.33-67.742-67.743-67.742z" fill="#78d0b1"/><path d="m301.77 345.03h-33.008c37.413 0 67.742 30.329 67.742 67.742v83.1c0 4.765-3.863 8.628-8.628 8.628h33.008c4.765 0 8.627-3.863 8.627-8.628v-83.1c.001-37.413-30.328-67.742-67.741-67.742z" fill="#66b49d"/><g><path d="m274.881 295.08-36.221-2.131c-9.248 0-9.654 43.328-9.654 43.328v26.524c0 14.895 12.075 26.97 26.97 26.97 14.895 0 26.97-12.075 26.97-26.97v-26.524c-.001 0 1.182-41.197-8.065-41.197z" fill="#eaac9d"/></g><path d="m256 345.03c-71.877 0-130.145-58.268-130.145-130.144v-78.716c0-1.89 1.537-3.415 3.427-3.419 60.234-.111 113.469-8.738 160.955-39.423 1.419-.917 3.315-.624 4.331.725 21.444 28.468 50.691 36.346 88.165 38.514 1.911.111 3.411 1.68 3.411 3.595v78.724c.001 71.877-58.267 130.144-130.144 130.144z" fill="#ffcbbe"/><path d="m382.734 132.568c-11.027-.638-21.336-1.778-30.949-3.783v86.102c0 66.052-49.209 120.606-112.965 129.014 5.622.741 11.355 1.13 17.18 1.13 71.877 0 130.144-58.268 130.144-130.144v-78.724c.001-1.915-1.499-3.485-3.41-3.595z" fill="#eaac9d"/><g><g><circle cx="199.116" cy="206.075" fill="#f6f9f9" r="29.154"/><path d="m170.259 210.23 52.445-21.29c-7.69-10.603-21.873-15.026-34.554-9.878-12.68 5.148-19.767 18.205-17.891 31.168z" fill="#365e7d"/></g><g><circle cx="312.064" cy="206.075" fill="#f6f9f9" r="29.154"/><path d="m340.921 210.23-52.445-21.29c7.69-10.603 21.873-15.026 34.554-9.878 12.68 5.148 19.768 18.205 17.891 31.168z" fill="#365e7d"/></g></g><g><path d="m416.432 205.305c4.143 0 7.5-3.357 7.5-7.5v-126.168c0-39.501-32.136-71.637-71.637-71.637-12.582 0-24.892 4.366-34.66 12.293l-.943.765-4.614-3.209c-9.264-6.444-20.125-9.849-31.409-9.849h-120.964c-39.501 0-71.637 32.136-71.637 71.637v160.396c0 13.763 11.197 24.96 24.96 24.96h11.923c11.595 36.002 37.635 65.581 71.27 81.865-34.815 6.585-61.234 37.214-61.234 73.914v83.1c0 8.893 7.235 16.128 16.128 16.128h139.646c4.143 0 7.5-3.357 7.5-7.5s-3.357-7.5-7.5-7.5h-139.646c-.622 0-1.128-.506-1.128-1.128v-83.1c0-33.218 27.024-60.242 60.242-60.242h11.276v10.271c0 19.007 15.463 34.47 34.47 34.47s34.47-15.463 34.47-34.47v-10.271h11.325c33.218 0 60.242 27.024 60.242 60.242v83.1c0 .622-.506 1.128-1.128 1.128h-40.138c-4.143 0-7.5 3.357-7.5 7.5s3.357 7.5 7.5 7.5h40.138c8.893 0 16.128-7.235 16.128-16.128v-83.1c0-36.7-26.419-67.329-61.234-73.914 33.634-16.284 59.675-45.863 71.27-81.865h11.923c13.763 0 24.96-11.197 24.96-24.96v-4.241c0-4.143-3.357-7.5-7.5-7.5s-7.5 3.357-7.5 7.5v4.241c0 5.492-4.468 9.96-9.96 9.96h-8.014c1.758-8.767 2.687-17.831 2.687-27.107v-78.724c0-5.872-4.602-10.74-10.478-11.082-35.043-2.027-62.501-8.847-82.605-35.536-3.355-4.458-9.68-5.563-14.395-2.515-40.714 26.309-89.103 38.098-156.896 38.223-6.019.01-10.915 4.907-10.915 10.918v41.631c0 4.143 3.357 7.5 7.5 7.5s7.5-3.357 7.5-7.5v-37.57c66.978-.582 115.949-12.539 157.68-38.526 23.845 29.283 55.957 35.971 87.609 38.121v75.061c0 67.626-55.019 122.645-122.645 122.645s-122.645-55.019-122.645-122.645v-7.098c0-4.143-3.357-7.5-7.5-7.5s-7.5 3.357-7.5 7.5v7.098c0 9.277.928 18.34 2.687 27.107h-8.014c-5.492 0-9.96-4.468-9.96-9.96v-160.397c0-31.229 25.407-56.637 56.637-56.637h120.964c8.207 0 16.106 2.477 22.844 7.163l7.338 5.104c3.847 2.675 9.074 2.481 12.717-.471l3.519-2.855c7.105-5.766 16.058-8.94 25.209-8.94 31.229 0 56.637 25.407 56.637 56.637v126.168c0 4.141 3.357 7.499 7.5 7.499zm-140.987 145.845v11.65c0 10.735-8.734 19.47-19.47 19.47s-19.47-8.734-19.47-19.47v-11.657c6.371.907 12.877 1.387 19.494 1.387 6.601 0 13.091-.477 19.446-1.38z"/><path d="m233.078 192.289c-7.618-18.766-28.973-27.798-47.749-20.176-18.835 7.646-27.721 29.158-20.175 47.749 7.584 18.68 28.975 27.794 47.749 20.175 18.769-7.619 27.796-28.975 20.175-47.748zm-42.106-6.277c5.526-2.243 11.747-2.208 17.555.59l-29.749 12.077c2.024-5.558 6.296-10.273 12.194-12.667zm16.29 40.127c-10.911 4.43-23.36-.714-28.011-11.464l40.093-16.276c4.19 11.027-1.178 23.312-12.082 27.74z"/><path d="m202.031 208.052c-4.143 0-7.5 3.357-7.5 7.5v.427c0 4.143 3.357 7.5 7.5 7.5s7.5-3.357 7.5-7.5v-.427c0-4.143-3.357-7.5-7.5-7.5z"/><path d="m297.798 172.312c-30.232 12.774-29.461 55.572.48 67.726 21.673 8.8 46.383-4.807 50.008-28.396.013-.066.021-.132.031-.198 2.418-16.333-6.505-32.851-22.467-39.33-9.07-3.682-19.032-3.613-28.052.198zm6.122 53.827c-10.887-4.42-16.281-16.692-12.083-27.739l40.093 16.275c-4.652 10.751-17.102 15.893-28.01 11.464zm28.465-27.468-29.731-12.069c5.9-2.841 12.125-2.794 17.555-.59 5.424 2.202 9.927 6.508 12.176 12.659z"/><path d="m309.149 208.052c-4.143 0-7.5 3.357-7.5 7.5v.427c0 4.143 3.357 7.5 7.5 7.5s7.5-3.357 7.5-7.5v-.427c0-4.143-3.357-7.5-7.5-7.5z"/><path d="m166.204 152.49-9.991 8.78c-3.111 2.734-3.417 7.474-.683 10.585 1.482 1.687 3.555 2.549 5.637 2.549 1.758 0 3.523-.614 4.948-1.866l9.991-8.78c3.111-2.734 3.417-7.474.683-10.585s-7.473-3.418-10.585-.683z"/><path d="m345.064 172.538c1.425 1.252 3.189 1.866 4.948 1.866 2.082 0 4.154-.862 5.637-2.549 2.734-3.111 2.429-7.851-.683-10.585l-9.99-8.78c-3.11-2.733-7.85-2.428-10.585.683-2.734 3.111-2.429 7.851.683 10.585z"/><path d="m256.004 274.845c-6.541 0-8.544-10-22.342-10-13.789 0-15.81 10-22.342 10-4.143 0-7.5 3.357-7.5 7.5s3.357 7.5 7.5 7.5c13.789 0 15.81-10 22.342-10 6.541 0 8.544 10 22.342 10 13.833 0 15.79-10 22.338-10 6.61 0 8.423 10 22.338 10 4.143 0 7.5-3.357 7.5-7.5s-3.357-7.5-7.5-7.5c-6.61 0-8.423-10-22.338-10-13.833 0-15.79 10-22.338 10z"/></g></g></svg>