<svg id="Capa_1" enable-background="new 0 0 512 512" height="512" viewBox="0 0 512 512" width="512"
     xmlns="http://www.w3.org/2000/svg">
    <g>
        <g>
            <path d="m390.324 459.549h-268.648c-14.419 0-26.108-11.689-26.108-26.108v-281.542c0-79.75 64.65-144.399 144.399-144.399h32.066c79.749 0 144.399 64.65 144.399 144.399v281.542c0 14.419-11.689 26.108-26.108 26.108z"
                  fill="#e49542"/>
            <path d="m272.033 7.5h-30.287c79.749 0 144.399 64.65 144.399 144.399v281.542c0 14.419-11.689 26.108-26.108 26.108h30.287c14.419 0 26.108-11.689 26.108-26.108v-281.542c0-79.75-64.65-144.399-144.399-144.399z"
                  fill="#e27d47"/>
        </g>
        <path d="m301.77 345.03h-18.801-53.939-18.801c-37.413 0-67.742 30.329-67.742 67.742v83.1c0 4.765 3.863 8.628 8.627 8.628h209.77c4.765 0 8.628-3.863 8.628-8.628v-83.1c0-37.413-30.329-67.742-67.742-67.742z"
              fill="#ffe07d"/>
        <path d="m301.77 345.03h-33.008c37.413 0 67.742 30.329 67.742 67.742v83.1c0 4.765-3.863 8.628-8.628 8.628h33.008c4.765 0 8.627-3.863 8.627-8.628v-83.1c.001-37.413-30.328-67.742-67.741-67.742z"
              fill="#ffd064"/>
        <g>
            <path d="m274.88 295.08-36.221-2.131c-9.248 0-9.654 43.328-9.654 43.328v26.524c0 14.895 12.075 26.97 26.97 26.97 14.895 0 26.97-12.075 26.97-26.97v-26.524s1.183-41.197-8.065-41.197z"
                  fill="#eaac9d"/>
        </g>
        <path d="m256 345.03c-71.877 0-130.145-58.268-130.145-130.144v-78.716c0-1.89 1.537-3.415 3.427-3.419 60.234-.111 113.469-8.738 160.955-39.423 1.419-.917 3.315-.624 4.332.725 21.444 28.468 50.691 36.346 88.165 38.514 1.911.111 3.411 1.68 3.411 3.595v78.724c-.001 71.877-58.268 130.144-130.145 130.144z"
              fill="#ffcbbe"/>
        <path d="m382.733 132.568c-11.027-.638-21.336-1.778-30.949-3.783v86.102c0 66.052-49.209 120.606-112.965 129.014 5.622.741 11.355 1.13 17.18 1.13 71.877 0 130.144-58.268 130.144-130.144v-78.724c.001-1.915-1.499-3.485-3.41-3.595z"
              fill="#eaac9d"/>
        <g>
            <path d="m400.353 70.591c-2.22-3.497-6.855-4.529-10.352-2.312-3.497 2.221-4.532 6.855-2.312 10.352 13.897 21.89 21.243 47.225 21.243 73.269v281.54c0 10.261-8.348 18.608-18.608 18.608h-13.312v-39.276c0-36.7-26.419-67.329-61.233-73.914 46.039-22.29 77.866-69.483 77.866-123.973v-78.724c0-5.872-4.602-10.739-10.478-11.082-35.044-2.027-62.502-8.847-82.608-35.539-3.354-4.455-9.679-5.56-14.393-2.512-40.713 26.309-89.102 38.098-156.896 38.223-6.019.01-10.915 4.907-10.915 10.918v41.631c0 4.143 3.358 7.5 7.5 7.5s7.5-3.357 7.5-7.5v-37.57c66.978-.582 115.95-12.54 157.679-38.527 23.845 29.284 55.958 35.972 87.61 38.122v75.061c0 67.626-55.019 122.645-122.645 122.645s-122.645-55.019-122.645-122.645v-7.098c0-4.143-3.358-7.5-7.5-7.5s-7.5 3.357-7.5 7.5v7.098c0 54.489 31.827 101.683 77.866 123.973-34.815 6.585-61.234 37.214-61.234 73.914v39.276h-13.312c-10.26 0-18.608-8.348-18.608-18.608v-281.543c.002-75.486 61.415-136.898 136.901-136.898h32.065c37.136 0 71.896 14.631 97.876 41.197 2.896 2.959 7.644 3.016 10.606.118 2.961-2.896 3.014-7.645.118-10.606-28.825-29.476-67.394-45.709-108.6-45.709h-32.065c-83.757 0-151.899 68.142-151.899 151.898v281.542c0 18.532 15.077 33.608 33.608 33.608h13.312v28.823c0 8.893 7.235 16.128 16.127 16.128h139.645c4.143 0 7.5-3.357 7.5-7.5s-3.357-7.5-7.5-7.5h-139.645c-.622 0-1.127-.506-1.127-1.128v-83.1c0-33.218 27.024-60.242 60.242-60.242h11.276v10.271c0 19.007 15.463 34.47 34.47 34.47 19.006 0 34.469-15.463 34.469-34.47v-10.27h11.325c33.218 0 60.242 27.024 60.242 60.242v83.1c0 .622-.506 1.128-1.127 1.128h-40.138c-4.143 0-7.5 3.357-7.5 7.5s3.357 7.5 7.5 7.5h40.138c8.893 0 16.127-7.235 16.127-16.128v-28.823h13.312c18.531 0 33.608-15.077 33.608-33.608v-281.543c0-28.895-8.153-57.011-23.579-81.307zm-144.378 311.68c-10.736 0-19.47-8.734-19.47-19.47v-11.657c6.371.907 12.877 1.387 19.494 1.387 6.6 0 13.09-.478 19.445-1.38v11.65c.001 10.735-8.733 19.47-19.469 19.47z"/>
            <path d="m307.005 223.295c10.036 0 18.201-8.165 18.201-18.201 0-4.143-3.357-7.5-7.5-7.5s-7.5 3.357-7.5 7.5c0 1.765-1.437 3.201-3.201 3.201s-3.2-1.437-3.2-3.201c0-4.143-3.357-7.5-7.5-7.5s-7.5 3.357-7.5 7.5c0 10.036 8.165 18.201 18.2 18.201z"/>
            <path d="m215.695 197.594c-4.142 0-7.5 3.357-7.5 7.5 0 1.765-1.436 3.201-3.201 3.201s-3.2-1.437-3.2-3.201c0-4.143-3.358-7.5-7.5-7.5s-7.5 3.357-7.5 7.5c0 10.036 8.165 18.201 18.2 18.201s18.201-8.165 18.201-18.201c0-4.143-3.358-7.5-7.5-7.5z"/>
            <path d="m230.656 279.492c12.191-8.921 34.261-20.235 42.922-16.201 2.741 1.278 4.326 4.86 4.712 10.647.276 4.133 3.854 7.254 7.982 6.984 4.133-.275 7.26-3.85 6.984-7.982-.968-14.522-7.789-20.656-13.34-23.244-9.098-4.242-21.889-2.351-38.02 5.625-10.996 5.436-19.732 11.797-20.098 12.065-3.343 2.446-4.07 7.139-1.624 10.481 2.435 3.329 7.122 4.083 10.482 1.625z"/>
            <path d="m326.311 160.387c-1.211-3.962-5.403-6.188-9.363-4.984-40.441 12.344-81.454 12.344-121.896 0-3.959-1.204-8.153 1.022-9.362 4.984s1.022 8.153 4.984 9.363c21.674 6.614 43.5 9.921 65.327 9.921 21.826 0 43.653-3.307 65.327-9.921 3.96-1.21 6.192-5.401 4.983-9.363z"/>
        </g>
    </g>
</svg>