<svg id="Capa_1" enable-background="new 0 0 512 512" height="512" viewBox="0 0 512 512" width="512"
     xmlns="http://www.w3.org/2000/svg">
    <g>
        <path d="m95.568 71.637v160.396c0 9.643 7.817 17.46 17.46 17.46h285.943c9.643 0 17.46-7.817 17.46-17.46v-160.396c0-35.422-28.715-64.137-64.137-64.137-10.901 0-21.47 3.749-29.934 10.617l-3.518 2.855c-1.068.866-2.58.922-3.709.137l-7.338-5.103c-7.962-5.538-17.428-8.506-27.126-8.506h-120.964c-35.422 0-64.137 28.715-64.137 64.137z"
              fill="#e49542"/>
        <g>
            <path d="m352.295 7.5c-5.418 0-10.754.928-15.79 2.703 26.433 7.922 45.701 32.423 45.701 61.434v160.396c0 9.643-7.817 17.46-17.46 17.46h34.227c9.643 0 17.46-7.817 17.46-17.46v-160.396c-.001-35.422-28.716-64.137-64.138-64.137z"
                  fill="#e27d47"/>
        </g>
        <path d="m301.77 345.03h-18.8-53.94-18.8c-37.413 0-67.742 30.329-67.742 67.742v83.1c0 4.765 3.863 8.628 8.627 8.628h209.77c4.765 0 8.628-3.863 8.628-8.628v-83.1c-.001-37.413-30.33-67.742-67.743-67.742z"
              fill="#365e7d"/>
        <path d="m301.77 345.03h-33.008c37.413 0 67.742 30.329 67.742 67.742v83.1c0 4.765-3.863 8.628-8.628 8.628h33.008c4.765 0 8.627-3.863 8.627-8.628v-83.1c.001-37.413-30.328-67.742-67.741-67.742z"
              fill="#2b4d66"/>
        <g>
            <path d="m274.881 295.08-36.221-2.131c-9.248 0-9.654 43.328-9.654 43.328v26.524c0 14.895 12.075 26.97 26.97 26.97 14.895 0 26.97-12.075 26.97-26.97v-26.524c-.001 0 1.182-41.197-8.065-41.197z"
                  fill="#eaac9d"/>
        </g>
        <path d="m256 345.03c-71.877 0-130.145-58.268-130.145-130.144v-78.716c0-1.89 1.537-3.415 3.427-3.419 60.234-.111 113.469-8.738 160.955-39.423 1.419-.917 3.315-.624 4.331.725 21.444 28.468 50.691 36.346 88.165 38.514 1.911.111 3.411 1.68 3.411 3.595v78.724c.001 71.877-58.267 130.144-130.144 130.144z"
              fill="#ffcbbe"/>
        <path d="m382.734 132.568c-11.027-.638-21.336-1.778-30.949-3.783v86.102c0 66.052-49.209 120.606-112.965 129.014 5.622.741 11.355 1.13 17.18 1.13 71.877 0 130.144-58.268 130.144-130.144v-78.724c.001-1.915-1.5-3.485-3.41-3.595z"
              fill="#eaac9d"/>
        <path d="m226.49 243.914h-62.178c-5.965 0-10.801-4.836-10.801-10.801v-42.458c0-5.965 4.836-10.801 10.801-10.801h62.178c5.965 0 10.801 4.836 10.801 10.801v42.458c-.001 5.966-4.836 10.801-10.801 10.801z"
              fill="#80b4fb"/>
        <path d="m226.49 179.855h-18.307c5.965 0 10.801 4.836 10.801 10.801v42.458c0 5.965-4.836 10.801-10.801 10.801h18.307c5.965 0 10.801-4.836 10.801-10.801v-42.458c-.001-5.965-4.836-10.801-10.801-10.801z"
              fill="#61a2f9"/>
        <g>
            <path d="m347.689 243.914h-62.179c-5.965 0-10.801-4.836-10.801-10.801v-42.458c0-5.965 4.836-10.801 10.801-10.801h62.178c5.965 0 10.801 4.836 10.801 10.801v42.458c.001 5.966-4.835 10.801-10.8 10.801z"
                  fill="#80b4fb"/>
            <path d="m347.689 179.855h-18.307c5.965 0 10.801 4.836 10.801 10.801v42.458c0 5.965-4.836 10.801-10.801 10.801h18.307c5.965 0 10.801-4.836 10.801-10.801v-42.458c0-5.965-4.836-10.801-10.801-10.801z"
                  fill="#61a2f9"/>
        </g>
        <path d="m416.432 205.305c4.143 0 7.5-3.357 7.5-7.5v-126.168c0-39.501-32.137-71.637-71.638-71.637-12.582 0-24.892 4.366-34.66 12.293l-.942.765-4.614-3.209c-9.263-6.444-20.124-9.849-31.41-9.849h-120.962c-39.501 0-71.638 32.136-71.638 71.637v160.396c0 13.763 11.197 24.96 24.961 24.96h11.923c11.595 36.002 37.635 65.581 71.27 81.865-34.815 6.585-61.234 37.214-61.234 73.914v83.1c0 8.893 7.235 16.128 16.128 16.128h139.644c4.143 0 7.5-3.357 7.5-7.5s-3.357-7.5-7.5-7.5h-139.644c-.622 0-1.128-.506-1.128-1.128v-83.1c0-33.218 27.024-60.242 60.242-60.242h11.275v10.271c0 19.007 15.463 34.47 34.47 34.47s34.47-15.463 34.47-34.47v-10.271h11.325c33.218 0 60.242 27.024 60.242 60.242v83.1c0 .622-.506 1.128-1.127 1.128h-40.138c-4.143 0-7.5 3.357-7.5 7.5s3.357 7.5 7.5 7.5h40.138c8.893 0 16.127-7.235 16.127-16.128v-83.1c0-36.7-26.419-67.329-61.233-73.914 33.634-16.284 59.675-45.863 71.27-81.865h11.922c13.764 0 24.961-11.197 24.961-24.96v-4.241c0-4.143-3.357-7.5-7.5-7.5s-7.5 3.357-7.5 7.5v4.241c0 5.492-4.469 9.96-9.961 9.96h-8.013c1.758-8.767 2.687-17.831 2.687-27.107v-78.724c0-5.875-4.603-10.743-10.479-11.082h.001c-35.044-2.027-62.502-8.847-82.608-35.539-3.355-4.455-9.679-5.56-14.393-2.512-40.716 26.31-89.104 38.098-156.899 38.222-6.017.013-10.911 4.911-10.911 10.919v78.716c0 9.277.928 18.34 2.687 27.107h-8.014c-5.492 0-9.961-4.468-9.961-9.96v-160.396c0-31.229 25.407-56.637 56.638-56.637h120.963c8.208 0 16.107 2.477 22.845 7.163l7.338 5.104c3.848 2.676 9.076 2.482 12.716-.471l3.519-2.855c7.105-5.766 16.058-8.94 25.209-8.94 31.23 0 56.638 25.407 56.638 56.637v126.168c-.002 4.141 3.356 7.499 7.498 7.499zm-160.457 176.966c-10.735 0-19.47-8.734-19.47-19.47v-11.657c6.371.907 12.878 1.387 19.495 1.387 6.6 0 13.09-.478 19.444-1.38v11.65c.001 10.735-8.734 19.47-19.469 19.47zm.025-44.741c-66.119 0-120.176-52.596-122.552-118.146h12.563v13.729c0 10.091 8.21 18.301 18.301 18.301h62.179c10.091 0 18.301-8.21 18.301-18.301v-16.669c7.508-3.387 14.29-3.338 22.419.147v16.521c0 10.091 8.21 18.301 18.301 18.301h62.179c10.091 0 18.301-8.21 18.301-18.301v-13.729h12.564c-2.379 65.551-56.436 118.147-122.556 118.147zm94.99-104.417c0 1.82-1.48 3.301-3.301 3.301h-62.179c-1.82 0-3.301-1.48-3.301-3.301v-21.259c0-.017 0-.033 0-.049v-21.148c0-1.82 1.48-3.301 3.301-3.301h62.179c1.82 0 3.301 1.48 3.301 3.301zm-59.955-131.41c23.845 29.284 55.955 35.972 87.61 38.122v64.56h-12.655v-13.729c0-10.091-8.21-18.301-18.301-18.301h-62.179c-10.091 0-18.301 8.21-18.301 18.301v10.019c-7.699-2.274-15.028-2.346-22.419-.196v-9.823c0-10.091-8.21-18.301-18.301-18.301h-20.815c-4.143 0-7.5 3.357-7.5 7.5s3.357 7.5 7.5 7.5h20.815c1.82 0 3.301 1.48 3.301 3.301v42.457c0 1.82-1.48 3.301-3.301 3.301h-62.179c-1.82 0-3.301-1.48-3.301-3.301v-42.457c0-1.82 1.48-3.301 3.301-3.301h11.376c4.143 0 7.5-3.357 7.5-7.5s-3.357-7.5-7.5-7.5h-11.376c-10.091 0-18.301 8.21-18.301 18.301v13.729h-12.654v-64.155c66.976-.581 115.948-12.539 157.68-38.527z"/>
    </g>
</svg>