<svg id="Capa_1" enable-background="new 0 0 512 512" height="512" viewBox="0 0 512 512" width="512"
     xmlns="http://www.w3.org/2000/svg">
    <g>
        <path d="m95.568 71.638v160.396c0 9.643 7.817 17.46 17.46 17.46h285.943c9.643 0 17.46-7.817 17.46-17.46v-160.396c0-35.422-28.715-64.137-64.137-64.137-10.901 0-21.47 3.749-29.934 10.617l-3.518 2.855c-1.068.866-2.58.922-3.709.137l-7.338-5.103c-7.962-5.538-17.428-8.506-27.126-8.506h-120.964c-35.422-.001-64.137 28.715-64.137 64.137z"
              fill="#e49542"/>
        <g>
            <path d="m352.295 7.5c-5.418 0-10.754.928-15.79 2.703 26.433 7.922 45.701 32.423 45.701 61.434v160.396c0 9.643-7.817 17.46-17.46 17.46h34.227c9.643 0 17.46-7.817 17.46-17.46v-160.395c-.001-35.422-28.716-64.138-64.138-64.138z"
                  fill="#e27d47"/>
        </g>
        <path d="m301.77 345.031h-18.8-53.94-18.8c-37.413 0-67.742 30.329-67.742 67.742v83.1c0 4.765 3.863 8.628 8.627 8.628h209.77c4.765 0 8.628-3.863 8.628-8.628v-83.1c-.001-37.413-30.33-67.742-67.743-67.742z"
              fill="#78d0b1"/>
        <path d="m301.77 345.031h-33.008c37.413 0 67.742 30.329 67.742 67.742v83.1c0 4.765-3.863 8.628-8.628 8.628h33.008c4.765 0 8.627-3.863 8.627-8.628v-83.1c.001-37.413-30.328-67.742-67.741-67.742z"
              fill="#66b49d"/>
        <g>
            <path d="m274.881 295.08-36.221-2.131c-9.248 0-9.654 43.328-9.654 43.328v26.524c0 14.895 12.075 26.97 26.97 26.97 14.895 0 26.97-12.075 26.97-26.97v-26.524c-.001 0 1.182-41.197-8.065-41.197z"
                  fill="#eaac9d"/>
        </g>
        <path d="m256 345.031c-71.877 0-130.145-58.268-130.145-130.144v-78.716c0-1.89 1.537-3.415 3.427-3.419 60.234-.111 113.469-8.738 160.955-39.423 1.419-.917 3.315-.624 4.331.725 21.444 28.468 50.691 36.346 88.165 38.514 1.911.111 3.411 1.68 3.411 3.595v78.724c.001 71.876-58.267 130.144-130.144 130.144z"
              fill="#ffcbbe"/>
        <path d="m382.734 132.568c-11.027-.638-21.336-1.778-30.949-3.783v86.102c0 66.052-49.209 120.606-112.965 129.014 5.622.741 11.355 1.13 17.18 1.13 71.877 0 130.144-58.268 130.144-130.144v-78.724c.001-1.914-1.499-3.484-3.41-3.595z"
              fill="#eaac9d"/>
        <path d="m211.105 281.419v-9.438c0-11.516 9.335-20.851 20.851-20.851h48.089c11.516 0 20.851 9.335 20.851 20.851v9.438c0 11.516-9.335 20.851-20.851 20.851h-48.089c-11.516 0-20.851-9.335-20.851-20.851z"
              fill="#f6f9f9"/>
        <g>
            <path d="m368.44 129.918c0 15.842-12.842 28.684-28.684 28.684s-28.684-12.842-28.684-28.684 12.842-41.684 28.684-41.684 28.684 25.842 28.684 41.684z"
                  fill="#80b4fb"/>
            <path d="m339.757 88.234c-3.867 0-7.553 1.548-10.92 4.106 10.424 7.923 17.764 25.603 17.764 37.577s-7.34 22.23-17.764 26.526c3.367 1.387 7.053 2.157 10.92 2.157 15.842 0 28.684-12.842 28.684-28.684s-12.843-41.682-28.684-41.682z"
                  fill="#61a2f9"/>
        </g>
        <g>
            <path d="m416.432 205.306c4.143 0 7.5-3.357 7.5-7.5v-126.168c0-39.501-32.136-71.638-71.637-71.638-12.581 0-24.89 4.366-34.661 12.294l-.941.765-4.615-3.21c-9.266-6.444-20.126-9.849-31.409-9.849h-120.964c-39.501 0-71.637 32.137-71.637 71.638v160.396c0 13.763 11.197 24.96 24.96 24.96h11.923c11.595 36.002 37.635 65.581 71.27 81.865-34.814 6.585-61.234 37.213-61.234 73.913v83.101c0 8.893 7.235 16.127 16.128 16.127h139.646c4.143 0 7.5-3.357 7.5-7.5s-3.357-7.5-7.5-7.5h-139.646c-.622 0-1.128-.506-1.128-1.127v-83.101c0-33.217 27.024-60.241 60.242-60.241h11.276v10.271c0 19.007 15.463 34.47 34.47 34.47s34.47-15.463 34.47-34.47v-10.271h11.325c33.218 0 60.242 27.024 60.242 60.241v83.101c0 .621-.506 1.127-1.128 1.127h-40.138c-4.143 0-7.5 3.357-7.5 7.5s3.357 7.5 7.5 7.5h40.138c8.893 0 16.128-7.234 16.128-16.127v-83.101c0-36.7-26.419-67.328-61.234-73.913 33.634-16.284 59.675-45.863 71.27-81.865h11.923c13.763 0 24.96-11.197 24.96-24.96v-4.241c0-4.143-3.357-7.5-7.5-7.5s-7.5 3.357-7.5 7.5v4.241c0 5.492-4.468 9.96-9.96 9.96h-8.014c1.758-8.767 2.687-17.831 2.687-27.107v-78.724c0-5.875-4.603-10.743-10.479-11.082-2.66-.154-5.164-.334-7.586-.537-1.051-8.263-4.359-17.542-9.152-25.337-7.326-11.912-16.798-18.473-26.671-18.473-9.874 0-19.346 6.561-26.672 18.473-.497.808-.972 1.637-1.436 2.475-3.97-3.551-7.64-7.56-11.087-12.137-3.355-4.458-9.681-5.563-14.395-2.515-40.716 26.31-89.104 38.098-156.9 38.222-6.017.013-10.911 4.911-10.911 10.919v41.631c0 4.143 3.357 7.5 7.5 7.5s7.5-3.357 7.5-7.5v-37.572c66.976-.58 115.945-12.537 157.677-38.524 4.486 5.523 9.321 10.316 14.621 14.532-1.341 4.76-2.081 9.458-2.081 13.68 0 19.952 16.232 36.184 36.185 36.184 16.628 0 30.662-11.277 34.88-26.582 1.31.108 2.64.211 4.007.305v75.062c0 67.626-55.019 122.645-122.645 122.645s-122.645-55.019-122.645-122.645v-7.098c0-4.143-3.357-7.5-7.5-7.5s-7.5 3.357-7.5 7.5v7.098c0 9.277.928 18.34 2.687 27.107h-8.014c-5.492 0-9.96-4.468-9.96-9.96v-160.396c0-31.23 25.407-56.638 56.637-56.638h120.964c8.206 0 16.105 2.477 22.844 7.163l7.338 5.104c3.845 2.675 9.074 2.483 12.718-.471l3.518-2.854c7.106-5.766 16.059-8.942 25.209-8.942 31.229 0 56.637 25.407 56.637 56.638v126.168c0 4.142 3.357 7.5 7.5 7.5zm-76.675-54.204c-11.682 0-21.185-9.503-21.185-21.184 0-13.497 11.362-34.184 21.185-34.184 9.821 0 21.184 20.687 21.184 34.184-.001 11.681-9.503 21.184-21.184 21.184zm-64.312 200.049v11.65c0 10.735-8.734 19.47-19.47 19.47s-19.47-8.734-19.47-19.47v-11.657c6.371.907 12.877 1.387 19.494 1.387 6.601 0 13.091-.477 19.446-1.38z"/>
            <path d="m231.956 243.63c-15.633 0-28.352 12.719-28.352 28.352v9.438c0 15.633 12.719 28.351 28.352 28.351h48.089c15.633 0 28.351-12.718 28.351-28.351v-9.438c0-15.633-12.718-28.352-28.351-28.352zm13.949 15h19.37v36.141h-19.37zm-27.301 22.79v-9.438c0-7.008 5.429-12.759 12.301-13.298v36.034c-6.871-.54-12.301-6.291-12.301-13.298zm74.792-9.439v9.438c0 7.284-5.866 13.214-13.12 13.339v-36.117c7.254.125 13.12 6.056 13.12 13.34z"/>
            <path d="m199.585 187.595c-10.036 0-18.201 8.165-18.201 18.2 0 4.143 3.357 7.5 7.5 7.5s7.5-3.357 7.5-7.5c0-1.765 1.437-3.2 3.201-3.2s3.2 1.436 3.2 3.2c0 4.143 3.357 7.5 7.5 7.5s7.5-3.357 7.5-7.5c0-10.035-8.165-18.2-18.2-18.2z"/>
            <path d="m308.396 205.795c0-1.765 1.436-3.2 3.2-3.2s3.201 1.436 3.201 3.2c0 4.143 3.357 7.5 7.5 7.5s7.5-3.357 7.5-7.5c0-10.035-8.165-18.2-18.201-18.2-10.035 0-18.2 8.165-18.2 18.2 0 4.143 3.357 7.5 7.5 7.5s7.5-3.357 7.5-7.5z"/>
        </g>
    </g>
</svg>