<svg id="Capa_1" enable-background="new 0 0 512 512" height="512" viewBox="0 0 512 512" width="512" xmlns="http://www.w3.org/2000/svg"><g><g><path d="m390.324 459.549h-268.647c-14.419 0-26.108-11.689-26.108-26.108v-281.542c0-79.75 64.649-144.399 144.398-144.399h32.066c79.749 0 144.399 64.65 144.399 144.399v281.542c0 14.419-11.689 26.108-26.108 26.108z" fill="#e49542"/><path d="m272.033 7.5h-30.287c79.749 0 144.399 64.65 144.399 144.399v281.542c0 14.419-11.689 26.108-26.108 26.108h30.287c14.419 0 26.108-11.689 26.108-26.108v-281.542c0-79.75-64.649-144.399-144.399-144.399z" fill="#e27d47"/></g><path d="m301.771 345.03h-18.801-53.939-18.801c-37.413 0-67.742 30.329-67.742 67.742v83.1c0 4.765 3.863 8.628 8.628 8.628h209.77c4.765 0 8.628-3.863 8.628-8.628v-83.1c-.001-37.413-30.33-67.742-67.743-67.742z" fill="#80b4fb"/><path d="m301.771 345.03h-33.008c37.413 0 67.742 30.329 67.742 67.742v83.1c0 4.765-3.863 8.628-8.628 8.628h33.008c4.765 0 8.627-3.863 8.627-8.628v-83.1c.001-37.413-30.328-67.742-67.741-67.742z" fill="#61a2f9"/><g><path d="m274.881 295.08-36.221-2.131c-9.248 0-9.654 43.328-9.654 43.328v26.524c0 14.895 12.075 26.97 26.97 26.97 14.895 0 26.97-12.075 26.97-26.97v-26.524c-.001 0 1.183-41.197-8.065-41.197z" fill="#eaac9d"/></g><path d="m256.001 345.03c-71.877 0-130.145-58.268-130.145-130.144v-78.716c0-1.89 1.537-3.415 3.427-3.419 60.234-.111 113.469-8.738 160.955-39.423 1.419-.917 3.315-.624 4.332.725 21.444 28.468 50.691 36.346 88.165 38.514 1.911.111 3.411 1.68 3.411 3.595v78.724c-.001 71.877-58.269 130.144-130.145 130.144z" fill="#ffcbbe"/><path d="m382.734 132.568c-11.027-.638-21.336-1.778-30.949-3.783v86.102c0 66.052-49.209 120.606-112.965 129.014 5.622.742 11.355 1.13 17.18 1.13 71.877 0 130.144-58.268 130.144-130.144v-78.724c.001-1.915-1.499-3.485-3.41-3.595z" fill="#eaac9d"/><g><path d="m400.354 70.591c-2.22-3.498-6.856-4.53-10.352-2.312-3.497 2.221-4.532 6.855-2.312 10.352 13.896 21.889 21.242 47.224 21.242 73.269v281.54c0 10.261-8.348 18.608-18.607 18.608h-13.312v-39.276c0-36.7-26.419-67.329-61.234-73.914 46.039-22.29 77.866-69.483 77.866-123.972v-78.724c0-5.872-4.601-10.739-10.477-11.082-35.044-2.027-62.502-8.847-82.608-35.539-3.355-4.454-9.679-5.56-14.393-2.512-40.714 26.309-89.103 38.098-156.896 38.223-6.02.01-10.916 4.907-10.916 10.918v41.631c0 4.143 3.357 7.5 7.5 7.5s7.5-3.357 7.5-7.5v-37.57c66.977-.582 115.95-12.54 157.68-38.527 23.845 29.284 55.957 35.972 87.609 38.122v75.061c0 67.626-55.019 122.645-122.645 122.645s-122.645-55.019-122.645-122.645v-7.098c0-4.143-3.357-7.5-7.5-7.5s-7.5 3.357-7.5 7.5v7.098c0 54.489 31.827 101.683 77.866 123.972-34.814 6.585-61.234 37.214-61.234 73.914v39.276h-13.312c-10.261 0-18.608-8.348-18.608-18.608v-281.543c.002-75.486 61.415-136.898 136.902-136.898h32.065c37.136 0 71.896 14.631 97.875 41.197 2.896 2.96 7.645 3.016 10.606.118 2.961-2.896 3.014-7.645.118-10.606-28.824-29.476-67.393-45.709-108.599-45.709h-32.065c-83.758 0-151.9 68.142-151.9 151.898v281.542c0 18.532 15.077 33.608 33.608 33.608h13.312v28.823c0 8.893 7.234 16.128 16.127 16.128h139.646c4.143 0 7.5-3.357 7.5-7.5s-3.357-7.5-7.5-7.5h-139.646c-.621 0-1.127-.506-1.127-1.128v-83.1c0-33.218 27.024-60.242 60.242-60.242h11.275v10.271c0 19.007 15.463 34.47 34.47 34.47s34.47-15.463 34.47-34.47v-10.27h11.325c33.218 0 60.242 27.024 60.242 60.242v83.1c0 .622-.506 1.128-1.128 1.128h-40.137c-4.143 0-7.5 3.357-7.5 7.5s3.357 7.5 7.5 7.5h40.137c8.893 0 16.128-7.235 16.128-16.128v-28.823h13.312c18.531 0 33.607-15.076 33.607-33.608v-281.543c.001-28.896-8.153-57.012-23.577-81.307zm-124.909 292.21c0 10.735-8.734 19.47-19.47 19.47s-19.47-8.734-19.47-19.47v-10.271h38.939v10.271z"/><path d="m221.303 281.347c3.265 2.533 7.978 1.951 10.523-1.328 6.405-8.256 17.406-13.582 29.425-14.248 12.028-.658 23.54 3.413 30.817 10.91 2.885 2.973 7.633 3.043 10.605.158 2.973-2.886 3.043-7.634.158-10.605-10.261-10.571-26.11-16.339-42.411-15.439-16.294.902-31.414 8.391-40.446 20.029-2.538 3.272-1.944 7.983 1.329 10.523z"/><path d="m341.412 177.21c2.387-3.386 1.577-8.065-1.809-10.451l-12.67-8.931c-13.146-9.264-29.839-11.069-44.655-4.823-27.215 11.468-49.617-.427-51.733-.84-15.04-5.615-32.222-2.938-44.84 6.995l-13.626 10.728c-3.254 2.562-3.815 7.277-1.253 10.532 1.479 1.88 3.678 2.86 5.897 2.86 1.624 0 3.26-.524 4.635-1.607l13.626-10.728c8.527-6.714 20.146-8.524 30.312-4.729 2.25.428 29.367 14.703 62.807.61 10.02-4.221 21.304-3.002 30.188 3.261l12.67 8.931c3.387 2.388 8.066 1.578 10.451-1.808z"/><path d="m219.13 184.383c-4.066-1.291-8.411.956-9.703 5.023-.409 1.286-2.19 5.383-7.937 4.131-4.166-.899-8.284 1.74-9.191 5.909-.906 4.169 1.739 8.285 5.909 9.191 1.893.411 3.689.6 5.388.6 11.437 0 18.457-8.541 20.556-15.151 1.294-4.066-.956-8.411-5.022-9.703z"/><path d="m314.823 208.638c4.17-.906 6.816-5.022 5.909-9.191-.907-4.171-5.024-6.817-9.191-5.909-5.869 1.275-8.451-3.929-9.112-5.578-1.51-3.953-5.93-5.963-9.905-4.487-4.001 1.484-6.041 5.929-4.556 9.931 2.2 5.932 9.299 15.826 21.539 15.826 1.675-.001 3.448-.187 5.316-.592z"/></g></g></svg>