<svg id="Capa_1" enable-background="new 0 0 512 512" height="512" viewBox="0 0 512 512" width="512" xmlns="http://www.w3.org/2000/svg"><g><g><path d="m390.324 459.549h-268.647c-14.419 0-26.108-11.689-26.108-26.108v-281.542c0-79.75 64.649-144.399 144.398-144.399h32.066c79.749 0 144.399 64.65 144.399 144.399v281.542c0 14.419-11.689 26.108-26.108 26.108z" fill="#365e7d"/><path d="m272.033 7.5h-30.287c79.749 0 144.399 64.65 144.399 144.399v281.542c0 14.419-11.689 26.108-26.108 26.108h30.287c14.419 0 26.108-11.689 26.108-26.108v-281.542c0-79.75-64.649-144.399-144.399-144.399z" fill="#2b4d66"/></g><path d="m301.771 345.03h-18.801-53.939-18.801c-37.413 0-67.742 30.329-67.742 67.742v83.1c0 4.765 3.863 8.628 8.628 8.628h209.77c4.765 0 8.628-3.863 8.628-8.628v-83.1c-.001-37.413-30.33-67.742-67.743-67.742z" fill="#dd636e"/><path d="m301.771 345.03h-33.008c37.413 0 67.742 30.329 67.742 67.742v83.1c0 4.765-3.863 8.628-8.628 8.628h33.008c4.765 0 8.627-3.863 8.627-8.628v-83.1c.001-37.413-30.328-67.742-67.741-67.742z" fill="#da4a54"/><g><path d="m274.881 295.08-36.221-2.131c-9.248 0-9.654 43.328-9.654 43.328v26.524c0 14.895 12.075 26.97 26.97 26.97 14.895 0 26.97-12.075 26.97-26.97v-26.524c-.001 0 1.183-41.197-8.065-41.197z" fill="#eaac9d"/></g><path d="m256.001 345.03c-71.877 0-130.145-58.268-130.145-130.144v-78.716c0-1.89 1.537-3.415 3.427-3.419 60.234-.111 113.469-8.738 160.955-39.423 1.419-.917 3.315-.624 4.332.725 21.444 28.468 50.691 36.346 88.165 38.514 1.911.111 3.411 1.68 3.411 3.595v78.724c-.001 71.877-58.269 130.144-130.145 130.144z" fill="#ffcbbe"/><path d="m382.734 132.568c-11.027-.638-21.336-1.778-30.949-3.783v86.102c0 66.052-49.209 120.606-112.965 129.014 5.622.741 11.355 1.13 17.18 1.13 71.877 0 130.144-58.268 130.144-130.144v-78.724c.001-1.915-1.499-3.485-3.41-3.595z" fill="#eaac9d"/><g><path d="m400.354 70.591c-2.22-3.498-6.856-4.53-10.352-2.312-3.497 2.221-4.532 6.855-2.312 10.352 13.896 21.889 21.242 47.224 21.242 73.269v281.54c0 10.261-8.348 18.608-18.607 18.608h-13.312v-39.276c0-36.7-26.419-67.329-61.234-73.914 46.039-22.29 77.865-69.483 77.865-123.973v-78.724c0-5.872-4.601-10.739-10.477-11.082-35.044-2.027-62.502-8.847-82.608-35.539-3.356-4.455-9.679-5.56-14.393-2.512-40.714 26.309-89.103 38.098-156.896 38.223-6.02.01-10.916 4.907-10.916 10.918v41.631c0 4.143 3.357 7.5 7.5 7.5s7.5-3.357 7.5-7.5v-37.57c66.977-.582 115.95-12.54 157.68-38.527 23.845 29.284 55.957 35.972 87.609 38.122v75.061c0 67.626-55.019 122.645-122.645 122.645s-122.645-55.019-122.645-122.645v-7.098c0-4.143-3.357-7.5-7.5-7.5s-7.5 3.357-7.5 7.5v7.098c0 54.489 31.827 101.683 77.866 123.973-34.814 6.585-61.234 37.214-61.234 73.914v39.276h-13.312c-10.261 0-18.608-8.348-18.608-18.608v-281.543c.003-75.486 61.416-136.898 136.903-136.898h32.065c37.136 0 71.896 14.631 97.875 41.197 2.896 2.96 7.645 3.015 10.606.118 2.961-2.896 3.014-7.645.118-10.606-28.824-29.476-67.393-45.709-108.599-45.709h-32.065c-83.758 0-151.9 68.142-151.9 151.898v281.542c0 18.532 15.077 33.608 33.608 33.608h13.312v28.823c0 8.893 7.234 16.128 16.127 16.128h139.646c4.143 0 7.5-3.357 7.5-7.5s-3.357-7.5-7.5-7.5h-139.646c-.621 0-1.127-.506-1.127-1.128v-83.1c0-33.218 27.024-60.242 60.242-60.242h11.275v10.271c0 19.007 15.463 34.47 34.47 34.47s34.47-15.463 34.47-34.47v-10.27h11.325c33.218 0 60.242 27.024 60.242 60.242v83.1c0 .622-.506 1.128-1.128 1.128h-40.137c-4.143 0-7.5 3.357-7.5 7.5s3.357 7.5 7.5 7.5h40.137c8.893 0 16.128-7.235 16.128-16.128v-28.823h13.312c18.531 0 33.607-15.077 33.607-33.608v-281.543c.001-28.896-8.153-57.012-23.577-81.307zm-144.378 311.68c-10.735 0-19.47-8.734-19.47-19.47v-11.657c6.371.907 12.877 1.387 19.495 1.387 6.6 0 13.09-.478 19.444-1.38v11.65c0 10.735-8.734 19.47-19.469 19.47z"/><path d="m211.152 262.816c-3.235 2.587-3.761 7.307-1.175 10.542 2.587 3.235 7.307 3.761 10.542 1.175 18.768-15.006 42.378-14.746 72.177.792 1.107.577 2.293.852 3.462.852 2.705-.001 5.318-1.469 6.656-4.034 1.915-3.673.49-8.203-3.183-10.118-35.134-18.32-64.903-18.054-88.479.791z"/><path d="m213.241 211.316v-5.247c0-4.143-3.357-7.5-7.5-7.5s-7.5 3.357-7.5 7.5v5.247c0 4.143 3.357 7.5 7.5 7.5s7.5-3.357 7.5-7.5z"/><path d="m298.76 206.069v5.247c0 4.143 3.357 7.5 7.5 7.5s7.5-3.357 7.5-7.5v-5.247c0-4.143-3.357-7.5-7.5-7.5s-7.5 3.358-7.5 7.5z"/><path d="m210.318 171.438c-1.374.474-1.552.474-4.585-1.019-3.074-1.512-7.284-3.583-13.887-4.054-15.074-1.089-25.352 11.7-25.781 12.244-2.566 3.251-2.012 7.968 1.239 10.534 1.377 1.087 3.016 1.613 4.643 1.613 2.217 0 4.411-.978 5.892-2.853.056-.07 5.93-7.055 12.939-6.578 3.68.264 5.837 1.324 8.335 2.553 3.675 1.808 8.708 4.28 16.088 1.742 3.917-1.349 5.999-5.617 4.65-9.533-1.348-3.916-5.614-6-9.533-4.649z"/><path d="m323.591 174.988c.242.09.612.246 1.14.511 3.813 1.921 8.456.384 10.375-3.428 1.919-3.811.385-8.457-3.427-10.375-9.628-4.847-14.991-.911-20.177 2.892-2.116 1.551-4.75 3.483-8.502 5.667-4.413 2.566-6.756 1.829-7.522 1.59-3.361-1.059-5.832-5.026-6.508-6.479-1.739-3.869-6.28-5.611-10.166-3.897-3.903 1.725-5.671 6.286-3.948 10.189.514 1.164 5.323 11.467 15.798 14.867 1.796.583 4.03 1.039 6.627 1.039 3.8 0 8.377-.976 13.493-3.954 4.459-2.596 7.583-4.888 9.866-6.561 1.021-.748 2.249-1.65 2.951-2.061z"/></g></g></svg>