<svg id="Capa_1" enable-background="new 0 0 512 512" height="512" viewBox="0 0 512 512" width="512"
     xmlns="http://www.w3.org/2000/svg">
    <g>
        <g>
            <path d="m354.518 459.549h-268.648c-14.419 0-26.108-11.689-26.108-26.108v-281.542c0-79.75 64.65-144.399 144.399-144.399h32.066c79.749 0 144.399 64.65 144.399 144.399v281.542c0 14.419-11.689 26.108-26.108 26.108z"
                  fill="#365e7d"/>
            <path d="m236.227 7.5h-30.287c79.749 0 144.399 64.65 144.399 144.399v281.542c0 14.419-11.689 26.108-26.108 26.108h30.287c14.419 0 26.108-11.689 26.108-26.108v-281.542c0-79.75-64.65-144.399-144.399-144.399z"
                  fill="#2b4d66"/>
        </g>
        <path d="m265.964 345.03h-18.801-53.939-18.801c-37.413 0-67.742 30.329-67.742 67.742v83.1c0 4.765 3.863 8.628 8.627 8.628h209.77c4.765 0 8.628-3.863 8.628-8.628v-83.1c0-37.413-30.329-67.742-67.742-67.742z"
              fill="#ffe07d"/>
        <path d="m265.964 345.03h-33.008c37.413 0 67.742 30.329 67.742 67.742v83.1c0 4.765-3.863 8.628-8.628 8.628h33.008c4.765 0 8.627-3.863 8.627-8.628v-83.1c.001-37.413-30.328-67.742-67.741-67.742z"
              fill="#ffd064"/>
        <g>
            <path d="m239.075 295.08-36.221-2.131c-9.248 0-9.654 43.328-9.654 43.328v26.524c0 14.895 12.075 26.97 26.97 26.97 14.895 0 26.97-12.075 26.97-26.97v-26.524c-.001 0 1.182-41.197-8.065-41.197z"
                  fill="#eaac9d"/>
        </g>
        <path d="m220.194 345.03c-71.877 0-130.145-58.268-130.145-130.144v-78.716c0-1.89 1.537-3.415 3.427-3.419 60.234-.111 113.469-8.738 160.955-39.423 1.419-.917 3.315-.624 4.331.725 21.444 28.468 50.691 36.346 88.165 38.514 1.911.111 3.411 1.68 3.411 3.595v78.724c.001 71.877-58.267 130.144-130.144 130.144z"
              fill="#ffcbbe"/>
        <path d="m346.928 132.568c-11.027-.638-21.336-1.778-30.949-3.783v86.102c0 66.052-49.209 120.606-112.965 129.014 5.622.742 11.355 1.13 17.18 1.13 71.877 0 130.144-58.268 130.144-130.144v-78.724c.001-1.915-1.5-3.485-3.41-3.595z"
              fill="#eaac9d"/>
        <g>
            <path d="m291.445 486.573c-23.903-23.903-23.903-62.657 0-86.559l56.29-56.29c23.903-23.903 62.656-23.903 86.559 0 23.903 23.903 23.903 62.656 0 86.559l-56.29 56.29c-23.902 23.902-62.656 23.902-86.559 0z"
                  fill="#80b4fb"/>
            <path d="m434.295 343.723c-2.506-2.506-5.176-4.745-7.974-6.725 16.911 23.892 14.672 57.188-6.725 78.585l-56.29 56.29c-21.397 21.397-54.693 23.636-78.585 6.725 1.98 2.798 4.219 5.468 6.725 7.974 23.903 23.903 62.656 23.903 86.559 0l56.29-56.29c23.903-23.902 23.902-62.656 0-86.559z"
                  fill="#61a2f9"/>
            <circle cx="388.07" cy="389.948" fill="#ffcbbe" r="40.42"/>
            <path d="m416.651 361.367c-2.01-2.01-4.18-3.76-6.467-5.258 10.267 15.677 8.517 36.92-5.258 50.695s-35.018 15.526-50.695 5.258c1.498 2.287 3.249 4.457 5.258 6.467 15.785 15.785 41.377 15.785 57.162 0s15.785-41.377 0-57.162z"
                  fill="#eaac9d"/>
        </g>
        <g>
            <path d="m259.186 260.812c-6.66 15.674-21.966 25.802-38.992 25.802s-32.332-10.128-38.992-25.802c-1.621-3.812-6.024-5.594-9.836-3.97-3.812 1.619-5.589 6.023-3.97 9.835 9.018 21.224 29.742 34.937 52.797 34.937s43.779-13.713 52.796-34.937c1.62-3.812-.157-8.216-3.97-9.835-3.808-1.62-8.213.158-9.833 3.97z"/>
            <path d="m164.934 192.165c-4.142 0-7.5 3.357-7.5 7.5v5.289c0 4.143 3.358 7.5 7.5 7.5s7.5-3.357 7.5-7.5v-5.289c0-4.143-3.358-7.5-7.5-7.5z"/>
            <path d="m275.453 212.454c4.143 0 7.5-3.357 7.5-7.5v-5.289c0-4.143-3.357-7.5-7.5-7.5s-7.5 3.357-7.5 7.5v5.289c0 4.143 3.358 7.5 7.5 7.5z"/>
            <path d="m439.598 338.421c-13.487-13.487-31.792-20.865-51.473-20.055v-166.468c0-28.896-8.153-57.013-23.578-81.308-2.22-3.498-6.855-4.53-10.352-2.312-3.497 2.221-4.532 6.855-2.312 10.352 13.896 21.889 21.242 47.224 21.242 73.269v168.756c-11.501 3.081-22.048 9.121-30.693 17.765l-22.211 22.211c-10.888-11.376-24.867-18.924-40.203-21.796 46.014-22.299 77.82-69.479 77.82-123.95v-78.724c0-5.872-4.601-10.739-10.477-11.082-35.044-2.027-62.502-8.847-82.608-35.539-3.355-4.454-9.678-5.56-14.393-2.512-40.713 26.309-89.103 38.098-156.896 38.223-6.019.01-10.915 4.907-10.915 10.918v41.631c0 4.143 3.358 7.5 7.5 7.5s7.5-3.357 7.5-7.5v-37.57c66.977-.582 115.95-12.54 157.679-38.527 23.845 29.284 55.957 35.972 87.609 38.122v75.061c0 67.626-55.018 122.645-122.644 122.645s-122.643-55.019-122.643-122.645v-7.098c0-4.143-3.358-7.5-7.5-7.5s-7.5 3.357-7.5 7.5v7.098c0 54.489 31.827 101.683 77.866 123.972-34.815 6.585-61.234 37.214-61.234 73.914v39.276h-13.312c-10.26 0-18.608-8.348-18.608-18.608v-281.542c0-75.486 61.413-136.898 136.899-136.898h32.066c37.136 0 71.895 14.631 97.875 41.197 2.896 2.96 7.644 3.016 10.606.118 2.961-2.896 3.014-7.645.118-10.606-28.825-29.476-67.393-45.709-108.599-45.709h-32.066c-83.757 0-151.899 68.142-151.899 151.898v281.542c0 18.532 15.077 33.608 33.608 33.608h13.312v28.823c0 8.893 7.235 16.128 16.127 16.128h69.645c4.142 0 7.5-3.357 7.5-7.5s-3.358-7.5-7.5-7.5h-69.645c-.622 0-1.127-.506-1.127-1.128v-83.1c0-33.218 27.024-60.242 60.242-60.242h11.276v10.271c0 19.007 15.463 34.47 34.47 34.47 19.006 0 34.469-15.463 34.469-34.47v-10.27h11.325c16.726 0 32.298 6.756 43.639 18.719l-23.461 23.461c-12.535 12.535-20.125 29.722-20.125 48.583 0 18.353 7.147 35.606 20.124 48.584 1.829 1.829 3.752 3.529 5.743 5.123h-76.943c-4.142 0-7.5 3.357-7.5 7.5s3.358 7.5 7.5 7.5h119.783c18.353 0 35.605-7.146 48.583-20.123l56.291-56.291c26.85-26.851 26.855-70.312 0-97.165zm-219.429 43.85c-10.735 0-19.469-8.734-19.469-19.47v-11.657c6.371.907 12.877 1.387 19.494 1.387 6.6 0 13.09-.477 19.445-1.38v11.65c0 10.735-8.734 19.47-19.47 19.47zm90.05 9.576c.483 9.979 2.889 22.568 9.786 36.225-8.441-5.351-17.022-12.028-25.519-20.333 2.206-2.49 2.246-2.347 15.733-15.892zm62.481 89.423c-10.144 10.145-23.63 15.73-37.976 15.73s-27.832-5.586-37.976-15.73l-.001-.001c-10.144-10.144-15.73-23.63-15.73-37.976 0-8.024 1.751-15.777 5.066-22.829 25.178 23.845 53.995 37.512 82.753 41.799 7.097 1.059 14.2 1.565 21.378 1.491zm56.291-56.291-22.278 22.278c-6.633 1.256-30.398 4.518-59.602-5.896-26.576-30.3-22.388-58.582-20.785-65.621l26.713-26.713c20.989-20.989 54.961-20.992 75.952.001 20.988 20.985 20.993 54.96 0 75.951z"/>
            <path d="m421.954 356.064c-18.724-18.726-49.038-18.732-67.768-.001-18.728 18.726-18.73 49.038-.001 67.77 9.342 9.342 21.613 14.013 33.884 14.013s24.543-4.671 33.885-14.013c18.725-18.727 18.732-49.039 0-67.769zm-10.607 57.162c-12.835 12.837-33.721 12.835-46.554 0-12.865-12.865-12.868-33.689 0-46.556 12.861-12.863 33.688-12.868 46.555.001 12.865 12.863 12.866 33.688-.001 46.555z"/>
            <path d="m376.43 373.764-1.618 1.617c-2.93 2.928-2.932 7.677-.003 10.606 2.926 2.928 7.676 2.933 10.606.003l1.618-1.617c2.93-2.928 2.932-7.677.003-10.606-2.928-2.931-7.677-2.932-10.606-.003z"/>
            <path d="m393.645 390.984-1.617 1.618c-2.929 2.93-2.927 7.679.003 10.606 2.928 2.926 7.679 2.929 10.606-.003l1.617-1.618c2.929-2.93 2.927-7.679-.003-10.606-2.931-2.928-7.68-2.927-10.606.003z"/>
        </g>
    </g>
</svg>