<svg id="Capa_1" enable-background="new 0 0 512 512" height="512" viewBox="0 0 512 512" width="512"
     xmlns="http://www.w3.org/2000/svg">
    <g>
        <path d="m95.568 71.637v160.396c0 9.643 7.817 17.46 17.46 17.46h285.943c9.643 0 17.46-7.817 17.46-17.46v-160.396c0-35.422-28.715-64.137-64.137-64.137-10.901 0-21.47 3.749-29.934 10.617l-3.518 2.855c-1.068.866-2.58.922-3.709.137l-7.338-5.103c-7.962-5.538-17.428-8.506-27.126-8.506h-120.964c-35.422 0-64.137 28.715-64.137 64.137z"
              fill="#e49542"/>
        <g>
            <path d="m352.295 7.5c-5.418 0-10.754.928-15.79 2.703 26.433 7.922 45.701 32.423 45.701 61.434v160.396c0 9.643-7.817 17.46-17.46 17.46h34.227c9.643 0 17.46-7.817 17.46-17.46v-160.396c-.001-35.422-28.716-64.137-64.138-64.137z"
                  fill="#e27d47"/>
        </g>
        <path d="m301.77 345.031h-18.8-53.94-18.8c-37.413 0-67.742 30.329-67.742 67.742v83.1c0 4.765 3.863 8.627 8.627 8.627h209.77c4.765 0 8.628-3.863 8.628-8.627v-83.1c-.001-37.413-30.33-67.742-67.743-67.742z"
              fill="#ffe07d"/>
        <path d="m301.77 345.031h-33.008c37.413 0 67.742 30.329 67.742 67.742v83.1c0 4.765-3.863 8.628-8.628 8.628h33.008c4.765 0 8.627-3.863 8.627-8.628v-83.1c.001-37.413-30.328-67.742-67.741-67.742z"
              fill="#ffd064"/>
        <g>
            <path d="m274.881 295.08-36.221-2.131c-9.248 0-9.654 43.328-9.654 43.328v26.524c0 14.895 12.075 26.97 26.97 26.97 14.895 0 26.97-12.075 26.97-26.97v-26.524c-.001 0 1.182-41.197-8.065-41.197z"
                  fill="#eaac9d"/>
        </g>
        <path d="m256 345.031c-71.877 0-130.145-58.268-130.145-130.144v-78.716c0-1.89 1.537-3.415 3.427-3.419 60.234-.111 113.469-8.738 160.955-39.423 1.419-.917 3.315-.624 4.331.725 21.444 28.468 50.691 36.346 88.165 38.514 1.911.111 3.411 1.68 3.411 3.595v78.724c.001 71.876-58.267 130.144-130.144 130.144z"
              fill="#ffcbbe"/>
        <path d="m382.734 132.568c-11.027-.638-21.336-1.778-30.949-3.783v86.102c0 66.052-49.209 120.606-112.965 129.014 5.622.742 11.355 1.13 17.18 1.13 71.877 0 130.144-58.268 130.144-130.144v-78.724c.001-1.914-1.499-3.484-3.41-3.595z"
              fill="#eaac9d"/>
        <circle cx="311.259" cy="202.31" fill="#80b4fb" r="37.861"/>
        <path d="m311.26 164.449c-3.491 0-6.868.482-10.078 1.367 16.016 4.414 27.783 19.075 27.783 36.494s-11.767 32.081-27.783 36.494c3.21.885 6.587 1.367 10.078 1.367 20.91 0 37.861-16.951 37.861-37.861s-16.951-37.861-37.861-37.861z"
              fill="#61a2f9"/>
        <g>
            <path d="m416.432 205.306c4.143 0 7.5-3.357 7.5-7.5v-126.169c0-39.501-32.136-71.637-71.637-71.637-12.581 0-24.89 4.366-34.66 12.293l-.942.766-4.615-3.21c-9.266-6.444-20.126-9.849-31.409-9.849h-120.964c-39.501 0-71.637 32.136-71.637 71.637v160.396c0 13.763 11.197 24.96 24.96 24.96h11.923c11.595 36.002 37.635 65.581 71.27 81.865-34.814 6.585-61.234 37.214-61.234 73.914v83.1c0 8.893 7.235 16.128 16.128 16.128h139.646c4.143 0 7.5-3.357 7.5-7.5s-3.357-7.5-7.5-7.5h-139.646c-.622 0-1.128-.506-1.128-1.128v-83.1c0-33.218 27.024-60.242 60.242-60.242h11.276v10.271c0 19.007 15.463 34.47 34.47 34.47s34.47-15.463 34.47-34.47v-10.271h11.325c33.218 0 60.242 27.024 60.242 60.242v83.1c0 .622-.506 1.128-1.128 1.128h-40.138c-4.143 0-7.5 3.357-7.5 7.5s3.357 7.5 7.5 7.5h40.138c8.893 0 16.128-7.235 16.128-16.128v-83.1c0-36.7-26.419-67.329-61.234-73.914 32.862-15.91 59.414-45.053 71.27-81.865h11.923c13.763 0 24.96-11.197 24.96-24.96v-4.241c0-4.143-3.357-7.5-7.5-7.5s-7.5 3.357-7.5 7.5v4.241c0 5.492-4.468 9.96-9.96 9.96h-8.014c1.758-8.767 2.687-17.831 2.687-27.107v-78.723c0-5.875-4.603-10.743-10.478-11.082-35.044-2.028-62.503-8.849-82.607-35.539-3.354-4.454-9.675-5.561-14.393-2.513-40.715 26.31-89.104 38.099-156.896 38.223-6.019.01-10.915 4.907-10.915 10.919v41.63c0 4.143 3.357 7.5 7.5 7.5s7.5-3.357 7.5-7.5v-37.57c66.976-.58 115.95-12.54 157.68-38.526 23.844 29.283 55.953 35.971 87.609 38.122v75.06c0 20.571-5.098 39.97-14.086 57.014-4.537-4.19-11.207-9.084-20.351-12.838-8.106-3.327-9.829-12.344-10.123-17.575 13.465-7.876 22.536-22.482 22.536-39.176 0-25.013-20.349-45.361-45.361-45.361s-45.361 20.349-45.361 45.361 20.349 45.361 45.361 45.361c2.861 0 5.656-.278 8.372-.787 1.365 8.803 5.721 20.651 18.879 26.054 9.025 3.705 14.857 8.75 18.026 12.104-22.193 31.707-58.981 52.486-100.536 52.486-67.626 0-122.645-55.019-122.645-122.645v-7.098c0-4.143-3.357-7.5-7.5-7.5s-7.5 3.357-7.5 7.5v7.098c0 9.277.928 18.34 2.687 27.107h-8.014c-5.492 0-9.96-4.468-9.96-9.96v-160.395c0-31.229 25.407-56.637 56.637-56.637h120.964c8.206 0 16.105 2.477 22.844 7.163l7.338 5.104c3.847 2.677 9.076 2.482 12.717-.471l3.519-2.854c7.105-5.766 16.058-8.942 25.208-8.942 31.229 0 56.637 25.407 56.637 56.637v126.169c0 4.142 3.357 7.5 7.5 7.5zm-135.534-2.995c0-16.741 13.62-30.361 30.361-30.361s30.361 13.62 30.361 30.361-13.62 30.361-30.361 30.361-30.361-13.62-30.361-30.361zm-5.453 148.839v11.65c0 10.735-8.734 19.47-19.47 19.47s-19.47-8.734-19.47-19.47v-11.657c6.371.907 12.877 1.387 19.494 1.387 6.601 0 13.091-.477 19.446-1.38z"/>
            <path d="m208.24 204.954v-5.288c0-4.143-3.357-7.5-7.5-7.5s-7.5 3.357-7.5 7.5v5.288c0 4.143 3.357 7.5 7.5 7.5s7.5-3.357 7.5-7.5z"/>
            <path d="m291.103 273.5c4.143 0 7.5-3.357 7.5-7.5s-3.357-7.5-7.5-7.5h-71.024c-4.143 0-7.5 3.357-7.5 7.5s3.357 7.5 7.5 7.5z"/>
            <path d="m311.26 192.166c-4.143 0-7.5 3.357-7.5 7.5v5.288c0 4.143 3.357 7.5 7.5 7.5s7.5-3.357 7.5-7.5v-5.288c0-4.143-3.358-7.5-7.5-7.5z"/>
        </g>
    </g>
</svg>