<svg id="Capa_1" enable-background="new 0 0 512.001 512.001" height="512" viewBox="0 0 512.001 512.001" width="512" xmlns="http://www.w3.org/2000/svg"><g><path d="m396.723 279.495h-281.446c-10.885 0-19.709-8.824-19.709-19.709v-112.12c0-66.365 53.8-120.165 120.165-120.165h80.534c66.365 0 120.165 53.8 120.165 120.165v112.12c0 10.885-8.824 19.709-19.709 19.709z" fill="#365e7d"/><path d="m296.267 27.502h-34.664c66.365 0 120.165 53.8 120.165 120.165v112.12c0 10.885-8.824 19.709-19.709 19.709h34.664c10.885 0 19.709-8.824 19.709-19.709v-112.12c0-66.366-53.8-120.165-120.165-120.165z" fill="#2b4d66"/><path d="m301.771 365.032h-18.801-53.939-18.801c-37.413 0-67.742 30.329-67.742 67.742v63.1c0 4.765 3.863 8.628 8.628 8.628h209.77c4.765 0 8.628-3.863 8.628-8.628v-63.1c-.001-37.413-30.33-67.742-67.743-67.742z" fill="#ffe07d"/><path d="m301.771 365.032h-33.008c37.413 0 67.742 30.329 67.742 67.742v63.1c0 4.765-3.863 8.628-8.628 8.628h33.008c4.765 0 8.627-3.863 8.627-8.628v-63.1c.001-37.413-30.328-67.742-67.741-67.742z" fill="#ffd064"/><g><path d="m274.881 315.082-36.221-2.131c-9.248 0-9.654 43.328-9.654 43.328v26.524c0 14.895 12.075 26.97 26.97 26.97 14.895 0 26.97-12.075 26.97-26.97v-26.524c-.001 0 1.182-41.197-8.065-41.197z" fill="#eaac9d"/></g><path d="m256 365.032c-71.877 0-130.145-58.268-130.145-130.144v-68.716c0-1.89 1.537-3.415 3.427-3.419 60.234-.111 113.469-8.738 160.955-39.423 1.419-.917 3.315-.624 4.332.725 21.444 28.468 50.691 36.346 88.165 38.514 1.911.111 3.411 1.68 3.411 3.595v68.724c0 71.877-58.268 130.144-130.145 130.144z" fill="#ffcbbe"/><path d="m382.734 162.57c-11.027-.638-21.336-1.778-30.949-3.783v76.102c0 66.052-49.209 120.606-112.965 129.014 5.622.742 11.355 1.13 17.18 1.13 71.877 0 130.144-58.268 130.144-130.144v-68.724c.001-1.915-1.499-3.485-3.41-3.595z" fill="#eaac9d"/><g><g><path d="m204.685 187.715 6.804 9.631c.612.866 1.492 1.506 2.505 1.82l11.262 3.495c3.175.985 4.419 4.815 2.43 7.478l-7.057 9.447c-.634.849-.971 1.884-.957 2.944l.156 11.791c.044 3.324-3.214 5.69-6.361 4.622l-11.166-3.792c-1.004-.341-2.092-.341-3.096 0l-11.166 3.792c-3.147 1.069-6.405-1.298-6.361-4.622l.156-11.791c.014-1.06-.322-2.095-.957-2.944l-7.057-9.447c-1.989-2.663-.745-6.493 2.43-7.478l11.262-3.495c1.013-.314 1.893-.954 2.505-1.82l6.804-9.631c1.919-2.715 5.946-2.715 7.864 0z" fill="#e49542"/></g><g><path d="m315.179 187.715 6.804 9.631c.612.866 1.492 1.506 2.505 1.82l11.262 3.495c3.174.985 4.419 4.815 2.43 7.478l-7.057 9.447c-.634.849-.971 1.884-.957 2.944l.156 11.791c.044 3.324-3.214 5.69-6.361 4.622l-11.166-3.792c-1.004-.341-2.092-.341-3.096 0l-11.166 3.792c-3.147 1.069-6.405-1.298-6.361-4.622l.156-11.791c.014-1.06-.322-2.095-.957-2.944l-7.057-9.447c-1.989-2.663-.745-6.493 2.43-7.478l11.262-3.495c1.013-.314 1.893-.954 2.505-1.82l6.804-9.631c1.919-2.715 5.946-2.715 7.864 0z" fill="#e49542"/></g></g><g><path d="m296.267 20.002h-66.6l5.523-8.37c2.282-3.457 1.328-8.109-2.129-10.391-3.458-2.28-8.109-1.328-10.391 2.129l-8.221 12.458-14.189-13.718c-2.979-2.881-7.728-2.802-10.605.179-2.879 2.978-2.799 7.726.179 10.604l8.564 8.28c-32.712 4.416-62.358 21.257-83.133 47.718-2.558 3.259-1.991 7.973 1.268 10.531 3.259 2.559 7.973 1.99 10.53-1.268 21.531-27.424 53.85-43.152 88.67-43.152h80.534c62.124 0 112.665 50.541 112.665 112.664v112.12c0 6.732-5.477 12.209-12.209 12.209h-8.165c3.31-11.81 5.086-24.255 5.086-37.107v-5.293c0-4.143-3.357-7.5-7.5-7.5s-7.5 3.357-7.5 7.5v5.293c0 67.626-55.018 122.645-122.644 122.645s-122.645-55.019-122.645-122.645v-64.656c66.975-.58 115.948-12.538 157.679-38.526 23.845 29.284 55.954 35.971 87.609 38.122v29.78c0 4.143 3.357 7.5 7.5 7.5s7.5-3.357 7.5-7.5v-33.443c0-5.875-4.603-10.743-10.478-11.082-35.043-2.027-62.501-8.847-82.607-35.539-3.355-4.455-9.678-5.56-14.393-2.512-40.715 26.31-89.104 38.098-156.9 38.222-6.016.013-10.911 4.911-10.911 10.919v68.716c0 12.853 1.776 25.297 5.086 37.107h-8.165c-6.732 0-12.208-5.477-12.208-12.209v-112.12c0-15.785 3.206-31.06 9.529-45.4 1.671-3.79-.047-8.217-3.837-9.888-3.789-1.671-8.217.047-9.889 3.837-7.168 16.259-10.803 33.569-10.803 51.451v112.12c0 15.003 12.206 27.209 27.208 27.209h13.332c12.914 31.458 37.148 57.115 67.613 71.865-34.815 6.585-61.234 37.213-61.234 73.913v63.101c0 8.893 7.235 16.127 16.127 16.127h139.645c4.143 0 7.5-3.357 7.5-7.5s-3.357-7.5-7.5-7.5h-139.642c-.622 0-1.127-.506-1.127-1.127v-63.101c0-33.217 27.024-60.241 60.242-60.241h11.276v10.271c0 19.007 15.463 34.47 34.47 34.47 19.006 0 34.469-15.463 34.469-34.47v-10.271h11.325c33.218 0 60.242 27.024 60.242 60.241v63.101c0 .621-.506 1.127-1.128 1.127h-40.137c-4.143 0-7.5 3.357-7.5 7.5s3.357 7.5 7.5 7.5h40.137c8.893 0 16.128-7.234 16.128-16.127v-63.101c0-36.7-26.419-67.328-61.234-73.913 30.465-14.75 54.698-40.408 67.613-71.865h13.332c15.003 0 27.209-12.206 27.209-27.209v-112.12c0-70.395-57.271-127.665-127.666-127.665zm-40.291 382.271c-10.735 0-19.469-8.734-19.469-19.47v-11.657c6.371.907 12.877 1.387 19.494 1.387 6.6 0 13.09-.478 19.445-1.38v11.65c-.001 10.735-8.735 19.47-19.47 19.47z"/><path d="m256 321.616c23.054 0 43.779-13.713 52.796-34.935 1.62-3.812-.157-8.216-3.969-9.836-3.814-1.621-8.216.157-9.836 3.969-6.66 15.674-21.966 25.802-38.992 25.802s-32.332-10.128-38.992-25.802c-1.621-3.812-6.024-5.593-9.836-3.969-3.812 1.62-5.589 6.023-3.97 9.836 9.02 21.222 29.744 34.935 52.799 34.935z"/><path d="m179.253 244.347c3.244 2.356 7.43 2.977 11.198 1.697l10.302-3.498 10.301 3.498c3.782 1.283 7.967.649 11.198-1.696 3.231-2.348 5.128-6.133 5.076-10.126l-.145-10.88 6.511-8.716c2.39-3.199 3.08-7.376 1.846-11.174s-4.247-6.771-8.061-7.955l-10.392-3.225-6.277-8.886c-2.304-3.262-6.063-5.209-10.057-5.209s-7.753 1.947-10.057 5.209l-6.277 8.886-10.392 3.225c-3.813 1.184-6.826 4.157-8.06 7.955-1.234 3.797-.544 7.974 1.845 11.174l6.512 8.717-.145 10.878c-.053 3.993 1.844 7.778 5.074 10.126zm10.485-38.02c2.575-.8 4.85-2.452 6.405-4.654l4.61-6.525 4.612 6.528c1.556 2.2 3.831 3.853 6.405 4.652l7.63 2.368-4.782 6.402c-1.613 2.16-2.482 4.836-2.446 7.531l.106 7.988-7.566-2.569c-2.553-.867-5.365-.867-7.918 0l-7.565 2.569.106-7.987c.036-2.698-.833-5.374-2.448-7.534l-4.781-6.4z"/><path d="m346.034 203.452c-1.233-3.798-4.247-6.771-8.062-7.955l-10.391-3.225-6.277-8.886c-2.305-3.262-6.064-5.209-10.057-5.209s-7.753 1.947-10.058 5.209l-6.277 8.886-10.391 3.225c-3.814 1.184-6.828 4.157-8.062 7.955s-.544 7.975 1.846 11.174l6.511 8.717-.144 10.879c-.053 3.993 1.845 7.779 5.075 10.126 3.207 2.329 7.382 2.991 11.196 1.696l10.302-3.498 10.301 3.498c3.784 1.284 7.969.649 11.198-1.697 3.231-2.347 5.128-6.132 5.075-10.125l-.144-10.879 6.511-8.717c2.392-3.199 3.082-7.376 1.848-11.174zm-20.919 11.644c-1.616 2.163-2.485 4.84-2.448 7.534l.105 7.988-7.564-2.569c-1.276-.434-2.618-.65-3.96-.65s-2.684.217-3.961.65l-7.564 2.569.105-7.991c.035-2.697-.834-5.371-2.447-7.53l-4.781-6.4 7.631-2.368c2.576-.8 4.852-2.453 6.407-4.655l4.609-6.525 4.611 6.526c1.555 2.2 3.829 3.854 6.406 4.654l7.631 2.368z"/></g></g></svg>