<?xml version="1.0" encoding="utf-8"?>
<!-- Generator: Adobe Illustrator 19.0.0, SVG Export Plug-In . SVG Version: 6.00 Build 0)  -->
<svg version="1.1" id="Layer_1" xmlns="http://www.w3.org/2000/svg" xmlns:xlink="http://www.w3.org/1999/xlink" x="0px" y="0px"
	 viewBox="0 0 612 792" style="enable-background:new 0 0 612 792;" xml:space="preserve">
<style type="text/css">
	.st0{fill:#F5F7F7;}
	.st1{fill:#E2E2E2;}
	.st2{fill:#C4E0EC;}
	.st3{fill:#EDF0F2;}
	.st4{fill:#C28AB6;}
	.st5{fill:#D6A6CC;}
	.st6{fill:#E7C4DE;}
	.st7{fill:#AE7AA4;}
	.st8{fill:#94668E;}
	.st9{fill:#12426D;}
	.st10{fill:#80B6E0;}
	.st11{fill:#91C67D;}
	.st12{fill:#ADD9F4;}
	.st13{fill:#FEC661;}
	.st14{fill:#FFD89F;}
	.st15{fill:#67A2C6;}
	.st16{fill:#8BAE6D;}
	.st17{fill:#B0D795;}
	.st18{fill:#8BBCE5;}
	.st19{fill:#6AA5D1;}
	.st20{fill:#C6E4F6;}
	.st21{fill:#E7F6FD;}
	.st22{fill:#FDD9AF;}
	.st23{fill:#EAC198;}
	.st24{fill:#FFE7D2;}
	.st25{fill:#FFFFFF;}
	.st26{fill:#FFD46C;}
	.st27{fill:#E1B248;}
	.st28{fill:#FFE09D;}
	.st29{fill:none;stroke:#11426E;stroke-width:5.5963;stroke-linecap:round;stroke-miterlimit:10;}
	.st30{fill:#11426E;}
	.st31{fill:#78A567;}
	.st32{fill:#61844F;}
	.st33{fill:#C2E0B1;}
	.st34{fill:#8C9DA8;}
	.st35{fill:#AABEC9;}
	.st36{fill:#748791;}
	.st37{fill:#CEE0E8;}
	.st38{fill:#3C586A;}
	.st39{fill:#74A1D1;}
	.st40{fill:#527B9B;}
	.st41{fill:#93BDE5;}
	.st42{fill:#FBD8AE;}
	.st43{fill:#FBBA99;}
	.st44{fill:#FFEBD8;}
</style>
<g id="Background_3">
	<g id="XMLID_191_">
		<polygon class="st0" points="469.2,391.4 504.9,376.1 514.2,380.6 515.9,390.2 515.9,641.5 471.4,641.5 		"/>
	</g>
	<g id="XMLID_190_">
		<polygon class="st0" points="469.3,374.3 489.6,365.6 498.3,368.3 504.9,376.1 471.9,390.2 		"/>
	</g>
	<g id="XMLID_189_">
		<polygon class="st1" points="469.4,418.3 494.4,408.5 500.6,408.5 500.6,418.3 501.5,447 494.4,455.3 469.8,464.1 		"/>
	</g>
	<g id="XMLID_188_">
		<polygon class="st0" points="471.3,437.5 476,428.1 487.1,436.6 500.6,423.2 501.5,440.7 500.6,450.7 494.4,455.3 471.3,466.3 		
			"/>
	</g>
	<g id="XMLID_187_">
		<polygon class="st1" points="471.3,590.2 488.1,582.7 491.5,584.1 492.5,594.2 492.5,611.4 485,619.4 469.2,622.6 		"/>
	</g>
	<g id="XMLID_186_">
		<polygon class="st0" points="475.9,588.1 476.3,607.5 492.5,587.5 491.5,584.1 488.1,582.7 		"/>
	</g>
	<g id="XMLID_124_">
		<path id="XMLID_285_" class="st2" d="M469.3,482.8c-1,0-1.9-0.6-2.3-1.5c-0.6-1.3,0-2.7,1.3-3.3l27.3-12c1.3-0.6,2.7,0,3.3,1.3
			s0,2.7-1.3,3.3l-27.3,12C470,482.8,469.7,482.8,469.3,482.8z"/>
	</g>
	<g id="XMLID_123_">
		<path id="XMLID_284_" class="st2" d="M469.3,496.9c-1,0-1.9-0.6-2.3-1.5c-0.6-1.3,0-2.7,1.3-3.3l27.3-12c1.3-0.6,2.7,0,3.3,1.3
			s0,2.7-1.3,3.3l-27.3,12C470,496.9,469.7,496.9,469.3,496.9z"/>
	</g>
	<g id="XMLID_122_">
		<path id="XMLID_283_" class="st2" d="M469.3,512.1c-1,0-1.9-0.6-2.3-1.5c-0.6-1.3,0-2.7,1.3-3.3l27.3-12c1.3-0.6,2.7,0,3.3,1.3
			s0,2.7-1.3,3.3l-27.3,12C470,512,469.7,512.1,469.3,512.1z"/>
	</g>
	<g id="XMLID_121_">
		<path id="XMLID_282_" class="st2" d="M469.3,526.2c-1,0-1.9-0.6-2.3-1.5c-0.6-1.3,0-2.7,1.3-3.3l27.3-12c1.3-0.6,2.7,0,3.3,1.3
			s0,2.7-1.3,3.3l-27.3,12C470,526.1,469.7,526.2,469.3,526.2z"/>
	</g>
	<g id="XMLID_120_">
		<path id="XMLID_281_" class="st2" d="M469.3,578.9c-1,0-1.9-0.6-2.3-1.5c-0.6-1.3,0-2.7,1.3-3.3l27.3-12c1.3-0.6,2.7,0,3.3,1.3
			s0,2.7-1.3,3.3l-27.3,12C470,578.9,469.7,578.9,469.3,578.9z"/>
	</g>
	<g id="XMLID_119_">
		<path id="XMLID_280_" class="st2" d="M469.3,566.1c-1,0-1.9-0.6-2.3-1.5c-0.6-1.3,0-2.7,1.3-3.3l27.3-12c1.3-0.6,2.7,0,3.3,1.3
			s0,2.7-1.3,3.3l-27.3,12C470,566,469.7,566.1,469.3,566.1z"/>
	</g>
	<g id="XMLID_118_">
		<path id="XMLID_279_" class="st2" d="M500.6,448.6c-0.3,0-0.7-0.1-1-0.3l-23.1-17.8l-5.9,11.8c-0.4,0.8-1.3,1.1-2.1,0.7
			c-0.8-0.4-1.1-1.3-0.7-2.1l7.6-15.2l26.1,20.1c0.7,0.5,0.8,1.5,0.3,2.2C501.6,448.4,501.1,448.6,500.6,448.6z"/>
	</g>
	<g id="XMLID_117_">
		<path id="XMLID_277_" class="st2" d="M469.3,468.8c-0.9,0-1.8-0.5-2.3-1.5c-0.6-1.2,0-2.7,1.2-3.3l23.9-10.8
			c4-1.8,6.6-5.9,6.6-10.3v-29c0-1-0.5-1.9-1.4-2.5s-1.9-0.6-2.8-0.2l-24.2,11.6c-1.2,0.6-2.7,0.1-3.3-1.2c-0.6-1.2-0.1-2.7,1.2-3.3
			l24.2-11.6c2.5-1.2,5.3-1,7.6,0.4c2.3,1.5,3.7,3.9,3.7,6.7v29c0,6.3-3.7,12.1-9.5,14.8l-23.9,10.8
			C470,468.7,469.7,468.8,469.3,468.8z"/>
	</g>
	<g id="XMLID_116_">
		<path id="XMLID_275_" class="st2" d="M469.3,627.2c-0.9,0-1.8-0.5-2.3-1.5c-0.6-1.2,0-2.7,1.2-3.3l17.9-8.1
			c2.5-1.1,4.1-3.6,4.1-6.3v-20.8c0-1-0.7-1.6-1-1.7s-1.1-0.6-2-0.1l-16.9,8.1c-1.2,0.6-2.7,0.1-3.3-1.2c-0.6-1.2-0.1-2.7,1.2-3.3
			l16.9-8.1c2.2-1,4.7-0.9,6.8,0.4c2.1,1.3,3.3,3.5,3.3,5.9V608c0,4.7-2.7,8.9-7,10.8l-17.9,8.1C470,627.1,469.7,627.2,469.3,627.2z
			"/>
	</g>
	<g id="XMLID_115_">
		<path id="XMLID_270_" class="st2" d="M501.5,378.1c-1.4,0-2.5-1.1-2.5-2.5c0-2.7-1.3-5.1-3.5-6.5c-2.3-1.5-4.9-1.7-7.4-0.6
			l-17.7,8c-1.2,0.6-2.7,0-3.3-1.2s0-2.7,1.2-3.3l17.7-8c3.9-1.8,8.5-1.4,12.1,0.9c3.6,2.4,5.8,6.3,5.8,10.7
			C503.9,377,502.8,378.1,501.5,378.1z"/>
	</g>
	<g id="XMLID_114_">
		<path id="XMLID_259_" class="st2" d="M515.9,644c-1.4,0-2.5-1.1-2.5-2.5V386.2c0-2.7-1.3-5.1-3.5-6.5c-2.2-1.5-4.9-1.7-7.4-0.6
			l-32.3,14.5c-1.2,0.6-2.7,0-3.3-1.2s0-2.7,1.2-3.3l32.3-14.5c3.9-1.8,8.5-1.4,12.1,0.9c3.6,2.4,5.8,6.3,5.8,10.7v255.2
			C518.4,642.8,517.3,644,515.9,644z"/>
	</g>
	<g id="XMLID_20_">
		<path id="XMLID_257_" class="st2" d="M509.8,379.4c-0.5,0-0.9-0.1-1.4-0.4l-17.1-11.3c-1.1-0.8-1.4-2.3-0.7-3.4
			c0.8-1.1,2.3-1.4,3.4-0.7l17.1,11.3c1.1,0.8,1.4,2.3,0.7,3.4C511.4,379,510.6,379.4,509.8,379.4z"/>
	</g>
	<g id="XMLID_19_">
		<path id="XMLID_245_" class="st2" d="M488.1,438.9c-0.4,0-0.7-0.1-1-0.4c-0.6-0.6-0.7-1.6-0.1-2.2l12.5-14.2
			c0.6-0.6,1.6-0.7,2.2-0.1c0.6,0.6,0.7,1.6,0.1,2.2l-12.5,14.2C489,438.8,488.5,438.9,488.1,438.9z"/>
	</g>
	<g id="XMLID_18_">
		<path id="XMLID_218_" class="st2" d="M474.7,611.4v-23.5c0-0.9,0.7-1.6,1.6-1.6s1.6,0.7,1.6,1.6v14.8l13.7-16.5
			c0.6-0.7,1.5-0.8,2.2-0.2c0.7,0.6,0.8,1.5,0.2,2.2L474.7,611.4z"/>
	</g>
	<g id="XMLID_6_">
		<path id="XMLID_209_" class="st2" d="M507.7,632.4c-0.9,0-1.6-0.7-1.6-1.6V521.4c0-0.9,0.7-1.6,1.6-1.6s1.6,0.7,1.6,1.6v109.4
			C509.3,631.7,508.6,632.4,507.7,632.4z"/>
	</g>
</g>
<g id="Background_2">
	<g id="XMLID_194_">
		<polygon class="st3" points="127,572.7 192.3,589.6 193.7,640.8 125,638.4 		"/>
	</g>
	<g id="XMLID_193_">
		<polygon class="st1" points="128.6,571.2 141.5,560.5 192.2,573.2 192.3,589.6 		"/>
	</g>
	<g id="XMLID_192_">
		<path class="st0" d="M126.4,592c0,0,3.6,46.3,40.6,47.9l-40.6,0.1V592z"/>
	</g>
	<g id="XMLID_129_">
		<path id="XMLID_256_" class="st2" d="M186.6,603.8c-0.2,0-0.4,0-0.6-0.1l-49.2-11.4c-1.3-0.3-2.2-1.6-1.9-3c0.3-1.3,1.6-2.2,3-1.9
			l49.2,11.4c1.3,0.3,2.2,1.6,1.9,3C188.7,603.1,187.7,603.8,186.6,603.8z"/>
	</g>
	<g id="XMLID_128_">
		<path id="XMLID_255_" class="st2" d="M186.6,617.4c-0.2,0-0.4,0-0.6-0.1l-49.2-11.4c-1.3-0.3-2.2-1.6-1.9-3c0.3-1.3,1.6-2.2,3-1.9
			l49.2,11.4c1.3,0.3,2.2,1.6,1.9,3C188.7,616.6,187.7,617.4,186.6,617.4z"/>
	</g>
	<g id="XMLID_127_">
		<path id="XMLID_254_" class="st2" d="M186.6,632.9c-0.2,0-0.4,0-0.6-0.1l-49.2-11.4c-1.3-0.3-2.2-1.6-1.9-3c0.3-1.3,1.6-2.2,3-1.9
			l49.2,11.4c1.3,0.3,2.2,1.6,1.9,3C188.7,632.1,187.7,632.9,186.6,632.9z"/>
	</g>
	<g id="XMLID_126_">
		<path id="XMLID_253_" class="st2" d="M126.8,643.9c-1.3-0.1-2.2-1.3-2.2-2.6v-69.1c0-1.4,1.3-2.4,2.6-2.1l65.7,15.7
			c1.3,0.3,2.2,1.7,1.8,3s-1.7,2.2-3,1.8l-62.2-14.9v65.7C129.5,642.9,128.3,644.1,126.8,643.9z"/>
	</g>
	<g id="XMLID_125_">
		<path id="XMLID_252_" class="st2" d="M192.2,575.6c-0.2,0-0.4,0-0.6-0.1l-50.9-12.2l-12,11.1c-1,0.9-2.6,0.9-3.5-0.1
			c-0.9-1-0.9-2.6,0.1-3.5l14-12.9l53.4,12.8c1.3,0.3,2.2,1.7,1.8,3C194.3,574.9,193.3,575.6,192.2,575.6z"/>
	</g>
</g>
<g id="Background_1">
	<g id="XMLID_200_">
		<polygon class="st0" points="74.8,141.3 155.1,159.5 155.1,268.7 73.4,249.2 		"/>
	</g>
	<g id="XMLID_199_">
		<polygon class="st1" points="155.1,159.5 170.8,151.9 172.1,260.5 155.1,268.7 		"/>
	</g>
	<g id="XMLID_198_">
		<polygon class="st0" points="89.8,131.6 75.9,139.7 155.1,159.5 172.1,151.3 		"/>
	</g>
	<g id="XMLID_197_">
		<polygon class="st1" points="112.3,188 122.7,178.7 140.3,208.5 112.3,201.8 		"/>
	</g>
	<g id="XMLID_196_">
		<polygon class="st0" points="112.3,162.4 112.3,188 122.7,178.7 143.6,210.3 144.1,169.5 		"/>
	</g>
	<g id="XMLID_195_">
		<path class="st1" d="M73.4,182.6c0,0,0.3,71,64.4,82l-64.4-15.4V182.6z"/>
	</g>
	<g id="XMLID_52_">
		<path id="XMLID_297_" class="st2" d="M157.6,271.9l-86.6-20.7V137.8l86.6,19.7V271.9z M75.9,247.3l76.7,18.4V161.5L75.9,144V247.3
			z"/>
	</g>
	<g id="XMLID_17_">
		<path id="XMLID_296_" class="st2" d="M155.1,271.2c-0.9,0-1.8-0.5-2.2-1.4c-0.6-1.2-0.1-2.7,1.1-3.3l15.6-7.6V153.2l-78.9-17.9
			l-16.2,7.9c-1.2,0.6-2.7,0.1-3.3-1.1c-0.6-1.2-0.1-2.7,1.1-3.3l17.8-8.6l84.4,19.2V262l-18.4,8.9
			C155.8,271.1,155.4,271.2,155.1,271.2z"/>
	</g>
	<g id="XMLID_16_">
		<path id="XMLID_295_" class="st2" d="M155.1,162c-0.9,0-1.8-0.5-2.2-1.4c-0.6-1.2-0.1-2.7,1.1-3.3l17-8.3c1.2-0.6,2.7-0.1,3.3,1.1
			c0.6,1.2,0.1,2.7-1.1,3.3l-17,8.3C155.8,161.9,155.4,162,155.1,162z"/>
	</g>
	<g id="XMLID_15_">
		<path id="XMLID_291_" class="st2" d="M146,212.6l-36.7-10v-43.5l36.7,8.7V212.6z M114.3,198.8l26.8,7.3v-34.4l-26.8-6.4V198.8z"/>
	</g>
	<g id="XMLID_14_">
		<path id="XMLID_290_" class="st2" d="M144.1,256.1c-0.2,0-0.4,0-0.6-0.1l-61.4-15.7c-1.3-0.3-2.1-1.7-1.8-3c0.3-1.3,1.7-2.1,3-1.8
			l61.4,15.7c1.3,0.3,2.1,1.7,1.8,3C146.2,255.4,145.2,256.1,144.1,256.1z"/>
	</g>
	<g id="XMLID_13_">
		<path id="XMLID_289_" class="st2" d="M144.1,243c-0.2,0-0.4,0-0.6-0.1l-61.4-15.7c-1.3-0.3-2.1-1.7-1.8-3c0.3-1.3,1.7-2.1,3-1.8
			l61.4,15.7c1.3,0.3,2.1,1.7,1.8,3C146.2,242.2,145.2,243,144.1,243z"/>
	</g>
	<g id="XMLID_12_">
		<path id="XMLID_288_" class="st2" d="M144.1,231c-0.2,0-0.4,0-0.6-0.1l-61.4-15.7c-1.3-0.3-2.1-1.7-1.8-3c0.3-1.3,1.7-2.1,3-1.8
			l61.4,15.7c1.3,0.3,2.1,1.7,1.8,3C146.2,230.2,145.2,231,144.1,231z"/>
	</g>
	<g id="XMLID_11_">
		<path id="XMLID_287_" class="st2" d="M140.3,210.1c-0.6,0-1.1-0.3-1.4-0.8l-15.6-28.1l-10.5,9.1c-0.7,0.6-1.6,0.5-2.2-0.2
			c-0.6-0.7-0.5-1.6,0.2-2.2l13.4-11.6l17.5,31.4c0.4,0.8,0.1,1.7-0.6,2.1C140.9,210,140.6,210.1,140.3,210.1z"/>
	</g>
	<g id="XMLID_5_">
		<path id="XMLID_286_" class="st2" d="M82.7,195.2c-0.9,0-1.6-0.7-1.6-1.6v-38.2c0-0.9,0.7-1.6,1.6-1.6s1.6,0.7,1.6,1.6v38.2
			C84.3,194.5,83.6,195.2,82.7,195.2z"/>
	</g>
</g>
<g id="XMLID_63_">
	<g id="XMLID_185_">
		<polygon class="st4" points="450.6,641.5 450.6,182.6 445.9,174.5 439.6,167 209.9,167 197,174.5 192.3,187.6 192.3,641.5 		"/>
	</g>
	<g id="XMLID_184_">
		<path class="st5" d="M192.3,323c0,0,258.3-15.1,258.3,190.8V182.6l-11-15.7h-234l-8.7,7.5l-2.9,8.1L192.3,323z"/>
	</g>
	<g id="XMLID_183_">
		<path class="st6" d="M197,174.5c0,0,253.7,10.7,253.7,183.2V208.5v-25.9l-4.7-8.1l-6.3-7.5H209.9L197,174.5z"/>
	</g>
	<g id="XMLID_182_">
		<path class="st7" d="M257.5,640.8c0,0,192.1-38.3,192.1-146.4v147L257.5,640.8z"/>
	</g>
	<g id="XMLID_132_">
		<polygon class="st8" points="450.6,182.6 450.6,640.8 469.2,641.5 469.2,182.6 464.5,174.5 455.3,168.1 439.6,167 		"/>
	</g>
	<g id="XMLID_85_">
		<path id="XMLID_369_" class="st9" d="M450.6,644c-1.4,0-2.5-1.1-2.5-2.5V187.6c0-10-8.1-18.1-18.1-18.1H212.9
			c-10,0-18.1,8.1-18.1,18.1v453.9c0,1.4-1.1,2.5-2.5,2.5c-1.4,0-2.5-1.1-2.5-2.5V187.6c0-12.7,10.4-23.1,23.1-23.1H430
			c12.7,0,23.1,10.4,23.1,23.1v453.9C453.1,642.9,452,644,450.6,644z"/>
	</g>
	<g id="XMLID_84_">
		<path id="XMLID_368_" class="st9" d="M469.2,644c-1.4,0-2.5-1.1-2.5-2.5V187.6c0-10-8.1-18.1-18.1-18.1H430
			c-1.4,0-2.5-1.1-2.5-2.5c0-1.4,1.1-2.5,2.5-2.5h18.5c12.7,0,23.1,10.4,23.1,23.1v453.9C471.7,642.9,470.6,644,469.2,644z"/>
	</g>
	<g id="XMLID_10_">
		<path id="XMLID_367_" class="st9" d="M439.6,591.5c-0.9,0-1.6-0.7-1.6-1.6V444.6c0-0.9,0.7-1.6,1.6-1.6s1.6,0.7,1.6,1.6v145.3
			C441.2,590.8,440.5,591.5,439.6,591.5z"/>
	</g>
	<g id="XMLID_9_">
		<path id="XMLID_366_" class="st9" d="M439.6,612.9c-0.9,0-1.6-0.7-1.6-1.6v-12c0-0.9,0.7-1.6,1.6-1.6s1.6,0.7,1.6,1.6v12
			C441.2,612.2,440.5,612.9,439.6,612.9z"/>
	</g>
	<g id="XMLID_8_">
		<path id="XMLID_365_" class="st9" d="M460.9,358.1c-0.9,0-1.6-0.7-1.6-1.6V220.7c0-0.9,0.7-1.6,1.6-1.6s1.6,0.7,1.6,1.6v135.8
			C462.5,357.4,461.8,358.1,460.9,358.1z"/>
	</g>
	<g id="XMLID_7_">
		<path id="XMLID_201_" class="st9" d="M460.9,214.4c-0.9,0-1.6-0.7-1.6-1.6v-17.4c0-0.9,0.7-1.6,1.6-1.6s1.6,0.7,1.6,1.6v17.4
			C462.5,213.7,461.8,214.4,460.9,214.4z"/>
	</g>
</g>
<g id="Image_4">
	<g id="XMLID_160_">
		<polygon class="st10" points="325.6,226.7 325.6,268.5 331.6,279.4 335.9,282.5 343.1,282.5 422.7,282.5 427.1,276.1 430,268.5 
			430,226.7 423.6,215.2 413.2,212.4 337.9,212.4 327.7,219.8 		"/>
	</g>
	<g id="XMLID_159_">
		<polygon class="st11" points="325.6,268.5 354.6,238.9 377.8,262.2 394.1,246.8 422.7,280.3 416.8,282.5 335.9,282.5 328.7,279.7 
					"/>
	</g>
	<g id="XMLID_154_">
		<path class="st12" d="M368.9,251.9c0,0-3.4-39.5,44.3-39.5h-72.8l-8.2,4.1l-4.6,3.3l-2.1,48.7l29-29.6L368.9,251.9z"/>
	</g>
	<g id="XMLID_153_">
		<polygon class="st13" points="388.4,220.3 381.7,220 374.1,222.2 369.4,228.9 370.1,237.9 374.6,243 380.7,244.7 388.1,243.2 
			393,237.5 394.1,231.7 392.6,224.4 		"/>
	</g>
	<g id="XMLID_151_">
		<path class="st14" d="M369.4,228.9c0,0,14.9-8.7,21.1,11.5c0,0,6.2-1.4,0-18.1C390.5,222.3,373,214.7,369.4,228.9z"/>
	</g>
	<g id="XMLID_150_">
		<path class="st15" d="M406,260.7c0,0,19.7-1,23-23.2l1,23.2l-1,12.1l-6.3,7.5L406,260.7z"/>
	</g>
	<g id="XMLID_149_">
		<polygon class="st16" points="356,257.6 361.9,279.7 388.1,279.7 		"/>
	</g>
	<g id="XMLID_148_">
		<polygon class="st16" points="396.2,249.2 422.7,280.3 416.8,282.5 409.6,280.3 394.1,263.5 394.1,246.8 		"/>
	</g>
	<g id="XMLID_147_">
		<polygon class="st17" points="354.6,238.9 347.1,267.9 331.6,279.4 327.6,276 325.6,268.5 		"/>
	</g>
	<g id="XMLID_145_">
		<polygon class="st17" points="356,257.6 358.9,268.5 331.6,279.4 		"/>
	</g>
	<g id="XMLID_80_">
		<path id="XMLID_360_" class="st9" d="M414.9,285.2h-74.2c-9.9,0-17.9-8-17.9-17.9v-39.8c0-9.9,8-17.9,17.9-17.9h74.2
			c9.9,0,17.9,8,17.9,17.9v39.8C432.8,277.2,424.8,285.2,414.9,285.2z M340.7,215.2c-6.8,0-12.4,5.5-12.4,12.4v39.8
			c0,6.8,5.5,12.4,12.4,12.4h74.2c6.8,0,12.4-5.5,12.4-12.4v-39.8c0-6.8-5.5-12.4-12.4-12.4H340.7z"/>
	</g>
	<g id="XMLID_39_">
		<path id="XMLID_335_" class="st9" d="M381.5,246.6c-7.8,0-14.2-6.4-14.2-14.2s6.4-14.2,14.2-14.2s14.2,6.4,14.2,14.2
			S389.3,246.6,381.5,246.6z M381.5,221.4c-6.1,0-11.1,5-11.1,11.1s5,11.1,11.1,11.1c6.1,0,11.1-5,11.1-11.1
			S387.6,221.4,381.5,221.4z"/>
	</g>
	<g id="XMLID_146_">
		<polygon class="st17" points="369.4,267.9 394.1,263.5 394.1,246.8 		"/>
	</g>
	<g id="XMLID_40_">
		<path id="XMLID_332_" class="st9" d="M423.6,281.3c-0.4,0-0.8-0.2-1.2-0.5l-28.9-31.5l-15.8,14.2l-22.1-23.4l-28.9,28.3
			c-0.6,0.6-1.6,0.6-2.2,0c-0.6-0.6-0.6-1.6,0-2.2l31.2-30.6l22.2,23.5l15.8-14.3l31,33.7c0.6,0.6,0.5,1.6-0.1,2.2
			C424.3,281.2,423.9,281.3,423.6,281.3z"/>
	</g>
	<g id="XMLID_37_">
		<path id="XMLID_311_" class="st9" d="M331.6,281.3c-0.4,0-0.8-0.2-1.1-0.5c-0.6-0.6-0.6-1.6,0.1-2.2l25-23.4l14.8,12.1
			c0.7,0.5,0.8,1.5,0.2,2.2s-1.5,0.8-2.2,0.2l-12.7-10.4l-23,21.6C332.4,281.2,332,281.3,331.6,281.3z"/>
	</g>
	<g id="XMLID_36_">
		<path id="XMLID_306_" class="st9" d="M402.9,273.8c-0.4,0-0.8-0.2-1.1-0.5l-8.8-8.8c-0.6-0.6-0.6-1.6,0-2.2c0.6-0.6,1.6-0.6,2.2,0
			l8.8,8.8c0.6,0.6,0.6,1.6,0,2.2C403.7,273.7,403.3,273.8,402.9,273.8z"/>
	</g>
</g>
<g id="Image_3">
	<g id="XMLID_157_">
		<polygon class="st18" points="321.5,545.2 389,545.2 398.5,549.1 402.4,555.4 402.4,574.6 318.3,574.6 318.3,554.5 		"/>
	</g>
	<g id="XMLID_156_">
		<path class="st19" d="M318.3,574.6h84.1l1,19.6l-2.1,12.8l-12.8,9.3c0,0-12.4,2.4-16.9,0s-14.5-1-14.5-1l-31.4,1l-7.3-12.6v-16.1
			V574.6z"/>
	</g>
	<g id="XMLID_139_">
		<path class="st15" d="M367.2,575.4c0,0,32.9-11.1,21.7-30.1l9.5,3.9l3.9,6.3v19.2L367.2,575.4z"/>
	</g>
	<g id="XMLID_138_">
		<path class="st13" d="M354.6,574.6c0,0-1.7-15.9,16.6-13.9c0,0,8.3,4.2,8.7,15.5L354.6,574.6z"/>
	</g>
	<g id="XMLID_137_">
		<path class="st13" d="M350.5,582.1c0,0,17.7,12.1,42.1,0.6L350.5,582.1z"/>
	</g>
	<g id="XMLID_136_">
		<path class="st13" d="M371.5,588.1h16.6C388.1,588.1,378.3,596.9,371.5,588.1z"/>
	</g>
	<g id="XMLID_135_">
		<path class="st13" d="M402.4,574.6h-67.7C334.6,574.6,372,585.7,402.4,574.6z"/>
	</g>
	<g id="XMLID_64_">
		<path id="XMLID_303_" class="st9" d="M387.8,617.8h-58c-7.7,0-14-6.3-14-14v-49.3c0-6.5,5.3-11.8,11.8-11.8h61.2
			c9.2,0,16.6,7.5,16.6,16.6v40.9C405.4,609.9,397.5,617.8,387.8,617.8z M327.5,547.7c-3.7,0-6.8,3-6.8,6.8v49.3c0,5,4,9,9,9h58
			c6.9,0,12.6-5.6,12.6-12.6v-40.9c0-6.4-5.2-11.6-11.6-11.6H327.5z"/>
	</g>
	<g id="XMLID_38_">
		<path id="XMLID_302_" class="st9" d="M379.9,574.2c-0.9,0-1.6-0.7-1.6-1.6c0-6.1-5-11.1-11.1-11.1c-6.1,0-11.1,5-11.1,11.1
			c0,0.9-0.7,1.6-1.6,1.6s-1.6-0.7-1.6-1.6c0-7.8,6.4-14.2,14.2-14.2s14.2,6.4,14.2,14.2C381.4,573.5,380.7,574.2,379.9,574.2z"/>
	</g>
	<g id="XMLID_31_">
		<path id="XMLID_301_" class="st9" d="M402.9,576.1h-71.3c-0.9,0-1.6-0.7-1.6-1.6s0.7-1.6,1.6-1.6h71.3c0.9,0,1.6,0.7,1.6,1.6
			S403.7,576.1,402.9,576.1z"/>
	</g>
	<g id="XMLID_30_">
		<path id="XMLID_300_" class="st9" d="M394.1,583.7h-43.6c-0.9,0-1.6-0.7-1.6-1.6s0.7-1.6,1.6-1.6h43.6c0.9,0,1.6,0.7,1.6,1.6
			S395,583.7,394.1,583.7z"/>
	</g>
	<g id="XMLID_29_">
		<path id="XMLID_251_" class="st9" d="M388.1,589.4h-18.7c-0.9,0-1.6-0.7-1.6-1.6s0.7-1.6,1.6-1.6h18.7c0.9,0,1.6,0.7,1.6,1.6
			S389,589.4,388.1,589.4z"/>
	</g>
</g>
<g id="Image_2">
	<g id="XMLID_155_">
		<path class="st20" d="M218.4,182.6l-4.3,4.1l-1.2,9.3l1.5,9.7l3.9,3.6h66c0,0,6.6-0.9,5.7-3.3s1-5.3,1-5.3v-14.9l-8.2-2.4
			L218.4,182.6z"/>
	</g>
	<g id="XMLID_140_">
		<path class="st21" d="M253,209.9c0,0-17.6-22,19.9-27.2h-51.3l-7.5,4.1l0.8,14l-0.5,5l10.1,2.8L253,209.9z"/>
	</g>
	<g id="XMLID_79_">
		<path id="XMLID_345_" class="st9" d="M282.7,212.1h-61.3c-6.2,0-11.3-5.1-11.3-11.3v-9.7c0-6.2,5.1-11.3,11.3-11.3h61.3
			c6.2,0,11.3,5.1,11.3,11.3v9.7C294,207.1,288.9,212.1,282.7,212.1z M221.4,185.4c-3.2,0-5.8,2.6-5.8,5.8v9.7
			c0,3.2,2.6,5.8,5.8,5.8h61.3c3.2,0,5.8-2.6,5.8-5.8v-9.7c0-3.2-2.6-5.8-5.8-5.8H221.4z"/>
	</g>
	<g id="XMLID_35_">
		<path id="XMLID_342_" class="st9" d="M227.9,203.4c-4.4,0-8-3.6-8-8s3.6-8,8-8s8,3.6,8,8S232.3,203.4,227.9,203.4z M227.9,190.6
			c-2.7,0-4.8,2.2-4.8,4.8s2.2,4.8,4.8,4.8s4.8-2.2,4.8-4.8S230.6,190.6,227.9,190.6z"/>
	</g>
	<g id="XMLID_34_">
		<path id="XMLID_340_" class="st9" d="M241.9,203.4c-0.9,0-1.6-0.7-1.6-1.6v-12.8c0-0.9,0.7-1.6,1.6-1.6s1.6,0.7,1.6,1.6v12.8
			C243.4,202.7,242.7,203.4,241.9,203.4z"/>
	</g>
	<g id="XMLID_33_">
		<path id="XMLID_338_" class="st9" d="M252.1,203.4c-0.9,0-1.6-0.7-1.6-1.6v-12.8c0-0.9,0.7-1.6,1.6-1.6s1.6,0.7,1.6,1.6v12.8
			C253.6,202.7,252.9,203.4,252.1,203.4z"/>
	</g>
	<g id="XMLID_28_">
		<path id="XMLID_337_" class="st9" d="M284.4,197h-22.9c-0.9,0-1.6-0.7-1.6-1.6s0.7-1.6,1.6-1.6h22.9c0.9,0,1.6,0.7,1.6,1.6
			S285.2,197,284.4,197z"/>
	</g>
</g>
<g id="Image_1">
	<g id="XMLID_158_">
		<polygon class="st22" points="376.8,385.4 376.8,418.6 379.9,424.6 387.4,428.1 422.7,428.1 427.1,423.2 430,411.3 428.6,385.4 
			426.1,378.7 419.4,376 387.4,375.7 381.5,376.9 		"/>
	</g>
	<g id="XMLID_144_">
		<path class="st23" d="M376.8,408.5c0,0,6.5,13.4,26.6,13.4v6.2h-15.9l-10.6-4.9V408.5z"/>
	</g>
	<g id="XMLID_143_">
		<path class="st23" d="M430.1,408.5c0,0-6.5,13.4-26.6,13.4v6.2h15.9l10.6-4.9V408.5z"/>
	</g>
	<g id="XMLID_142_">
		<path class="st24" d="M376.8,393.8c0,0,7-9.5,26.6-9.5v-5.7h-18C385.4,378.7,372.3,381.2,376.8,393.8z"/>
	</g>
	<g id="XMLID_141_">
		<path class="st24" d="M430.1,393.8c0,0-7-9.5-26.6-9.5v-5.7h18C421.5,378.7,434.6,381.2,430.1,393.8z"/>
	</g>
	<g id="XMLID_32_">
		<path id="XMLID_308_" class="st9" d="M417.8,430.8H388c-7.7,0-13.9-6.3-13.9-13.9v-28.8c0-7.7,6.3-13.9,13.9-13.9h29.8
			c7.7,0,13.9,6.3,13.9,13.9v28.8C431.7,424.6,425.5,430.8,417.8,430.8z M388,379.7c-4.7,0-8.4,3.8-8.4,8.4v28.8
			c0,4.7,3.8,8.4,8.4,8.4h29.8c4.7,0,8.4-3.8,8.4-8.4v-28.8c0-4.7-3.8-8.4-8.4-8.4H388z"/>
	</g>
	<g id="XMLID_228_">
		<g id="XMLID_23_">
			<circle id="XMLID_4_" class="st9" cx="392.6" cy="393.8" r="3.6"/>
		</g>
		<g id="XMLID_22_">
			<circle id="XMLID_21_" class="st9" cx="413.2" cy="393.8" r="3.6"/>
		</g>
	</g>
	<g id="XMLID_2_">
		<path id="XMLID_307_" class="st9" d="M402.9,420.1c-8.8,0-16-7.2-16-16c0-0.9,0.7-1.6,1.6-1.6s1.6,0.7,1.6,1.6
			c0,7.1,5.8,12.9,12.9,12.9c7.1,0,12.9-5.8,12.9-12.9c0-0.9,0.7-1.6,1.6-1.6s1.6,0.7,1.6,1.6C418.9,412.9,411.7,420.1,402.9,420.1z
			"/>
	</g>
</g>
<g id="Text_3">
	<g id="XMLID_133_">
		<path class="st25" d="M289.8,299.7h-72.9c-6.2,0-11.2-5-11.2-11.2v-55.3c0-6.2,5-11.2,11.2-11.2h72.9c6.2,0,11.2,5,11.2,11.2v55.3
			C300.9,294.7,295.9,299.7,289.8,299.7z"/>
	</g>
	<g id="XMLID_47_">
		<path id="XMLID_331_" class="st9" d="M291,239.7h-20.7c-1.4,0-2.5-1.1-2.5-2.5s1.1-2.5,2.5-2.5H291c1.4,0,2.5,1.1,2.5,2.5
			S292.4,239.7,291,239.7z"/>
	</g>
	<g id="XMLID_46_">
		<path id="XMLID_330_" class="st9" d="M255.2,239.7H215c-1.4,0-2.5-1.1-2.5-2.5s1.1-2.5,2.5-2.5h40.2c1.4,0,2.5,1.1,2.5,2.5
			S256.5,239.7,255.2,239.7z"/>
	</g>
	<g id="XMLID_45_">
		<path id="XMLID_328_" class="st9" d="M291,254.9h-29.5c-1.4,0-2.5-1.1-2.5-2.5s1.1-2.5,2.5-2.5H291c1.4,0,2.5,1.1,2.5,2.5
			S292.4,254.9,291,254.9z"/>
	</g>
	<g id="XMLID_44_">
		<path id="XMLID_327_" class="st9" d="M234.3,254.9H215c-1.4,0-2.5-1.1-2.5-2.5s1.1-2.5,2.5-2.5h19.3c1.4,0,2.5,1.1,2.5,2.5
			S235.7,254.9,234.3,254.9z"/>
	</g>
	<g id="XMLID_43_">
		<path id="XMLID_326_" class="st9" d="M291,271.4h-76c-1.4,0-2.5-1.1-2.5-2.5s1.1-2.5,2.5-2.5h76c1.4,0,2.5,1.1,2.5,2.5
			S292.4,271.4,291,271.4z"/>
	</g>
	<g id="XMLID_42_">
		<path id="XMLID_325_" class="st9" d="M291,286.6h-49.1c-1.4,0-2.5-1.1-2.5-2.5s1.1-2.5,2.5-2.5H291c1.4,0,2.5,1.1,2.5,2.5
			S292.4,286.6,291,286.6z"/>
	</g>
	<g id="XMLID_41_">
		<path id="XMLID_324_" class="st9" d="M231.5,286.6H215c-1.4,0-2.5-1.1-2.5-2.5s1.1-2.5,2.5-2.5h16.5c1.4,0,2.5,1.1,2.5,2.5
			S232.8,286.6,231.5,286.6z"/>
	</g>
	<g id="XMLID_3_">
		<path id="XMLID_323_" class="st9" d="M250,254.9h-6.5c-1.4,0-2.5-1.1-2.5-2.5s1.1-2.5,2.5-2.5h6.5c1.4,0,2.5,1.1,2.5,2.5
			S251.4,254.9,250,254.9z"/>
	</g>
</g>
<g id="Text_2">
	<g id="XMLID_131_">
		<path class="st25" d="M312.7,301.9v89.3c0,6.2,5.1,11.3,11.3,11.3h33.6c6.2,0,11.3-5.1,11.3-11.3v-12c0-6.2,5.1-11.3,11.3-11.3
			h48.2c6.2,0,11.3-5.1,11.3-11.3v-54.6c0-6.2-5.1-11.3-11.3-11.3H324C317.8,290.6,312.7,295.7,312.7,301.9z"/>
	</g>
	<g id="XMLID_62_">
		<path id="XMLID_322_" class="st9" d="M430,308.4h-50.2c-1.4,0-2.5-1.1-2.5-2.5s1.1-2.5,2.5-2.5H430c1.4,0,2.5,1.1,2.5,2.5
			S431.4,308.4,430,308.4z"/>
	</g>
	<g id="XMLID_61_">
		<path id="XMLID_321_" class="st9" d="M367.1,308.4h-41.6c-1.4,0-2.5-1.1-2.5-2.5s1.1-2.5,2.5-2.5h41.6c1.4,0,2.5,1.1,2.5,2.5
			S368.5,308.4,367.1,308.4z"/>
	</g>
	<g id="XMLID_60_">
		<path id="XMLID_320_" class="st9" d="M430,325.5H325.6c-1.4,0-2.5-1.1-2.5-2.5s1.1-2.5,2.5-2.5H430c1.4,0,2.5,1.1,2.5,2.5
			S431.4,325.5,430,325.5z"/>
	</g>
	<g id="XMLID_59_">
		<path id="XMLID_319_" class="st9" d="M430,341.9h-43.3c-1.4,0-2.5-1.1-2.5-2.5s1.1-2.5,2.5-2.5H430c1.4,0,2.5,1.1,2.5,2.5
			S431.4,341.9,430,341.9z"/>
	</g>
	<g id="XMLID_58_">
		<path id="XMLID_318_" class="st9" d="M354.6,341.9h-29c-1.4,0-2.5-1.1-2.5-2.5s1.1-2.5,2.5-2.5h29c1.4,0,2.5,1.1,2.5,2.5
			S356,341.9,354.6,341.9z"/>
	</g>
	<g id="XMLID_55_">
		<path id="XMLID_317_" class="st9" d="M430,359h-16.8c-1.4,0-2.5-1.1-2.5-2.5s1.1-2.5,2.5-2.5H430c1.4,0,2.5,1.1,2.5,2.5
			S431.4,359,430,359z"/>
	</g>
	<g id="XMLID_53_">
		<path id="XMLID_316_" class="st9" d="M402.9,359h-77.3c-1.4,0-2.5-1.1-2.5-2.5s1.1-2.5,2.5-2.5h77.3c1.4,0,2.5,1.1,2.5,2.5
			S404.3,359,402.9,359z"/>
	</g>
	<g id="XMLID_27_">
		<path id="XMLID_315_" class="st9" d="M360.6,376.1h-35c-1.4,0-2.5-1.1-2.5-2.5s1.1-2.5,2.5-2.5h35c1.4,0,2.5,1.1,2.5,2.5
			S362,376.1,360.6,376.1z"/>
	</g>
	<g id="XMLID_26_">
		<path id="XMLID_314_" class="st9" d="M360.6,390.5h-13c-1.4,0-2.5-1.1-2.5-2.5s1.1-2.5,2.5-2.5h13c1.4,0,2.5,1.1,2.5,2.5
			S362,390.5,360.6,390.5z"/>
	</g>
	<g id="XMLID_25_">
		<path id="XMLID_313_" class="st9" d="M337.9,390.5h-12.4c-1.4,0-2.5-1.1-2.5-2.5s1.1-2.5,2.5-2.5h12.4c1.4,0,2.5,1.1,2.5,2.5
			S339.3,390.5,337.9,390.5z"/>
	</g>
	<g id="XMLID_24_">
		<path id="XMLID_312_" class="st9" d="M376.2,341.9h-11.4c-1.4,0-2.5-1.1-2.5-2.5s1.1-2.5,2.5-2.5h11.4c1.4,0,2.5,1.1,2.5,2.5
			S377.6,341.9,376.2,341.9z"/>
	</g>
</g>
<g id="Text_1">
	<g id="XMLID_130_">
		<path class="st25" d="M419.4,203.9h-84.3c-5.3,0-9.5-4.3-9.5-9.5v-8.1c0-5.3,4.3-9.5,9.5-9.5h84.3c5.3,0,9.5,4.3,9.5,9.5v8.1
			C429,199.6,424.7,203.9,419.4,203.9z"/>
	</g>
	<g id="XMLID_48_">
		<path id="XMLID_334_" class="st9" d="M389.6,192.5h-55c-1.4,0-2.5-1.1-2.5-2.5s1.1-2.5,2.5-2.5h55c1.4,0,2.5,1.1,2.5,2.5
			S391,192.5,389.6,192.5z"/>
	</g>
	<g id="XMLID_49_">
		<path id="XMLID_333_" class="st9" d="M421.6,192.5h-18.7c-1.4,0-2.5-1.1-2.5-2.5s1.1-2.5,2.5-2.5h18.7c1.4,0,2.5,1.1,2.5,2.5
			S423,192.5,421.6,192.5z"/>
	</g>
</g>
<g id="Hair_2_">
	<g id="XMLID_111_">
		<polygon id="XMLID_441_" class="st26" points="307.1,437.5 289.2,402.6 276.8,382.7 273.6,360.1 277.1,341.3 278.4,328.5 
			275,313.4 266.5,299.3 251.3,291.9 228.5,292.5 194,306.9 183.7,301.1 168.7,295.5 133.2,294.9 109.9,305.4 92.3,323.2 
			82.4,349.1 73.5,372.5 73.7,389 72.4,403.5 74.7,429.2 82.1,454.3 93,506.9 92.2,529.2 83.3,543.4 102.1,551.7 114.9,548.2 
			125.4,543.9 135.4,547.5 145.4,550.2 155.1,553.1 173.9,552.7 197.7,546.9 215.8,525.9 248.2,531.8 275.6,529.4 295.4,519.5 
			309.3,502.5 314.9,474.2 		"/>
	</g>
	<g id="XMLID_110_">
		<path id="XMLID_439_" class="st27" d="M139.3,551.2l23.5,3.6l34.9-8l8.3-8.7l9.7-12.2l17.7,4.2l14.7,1.7l24.4,0.4l22.9-12.7
			l9.9-16.3c-2.9-72.2-43.5-91.5-43.5-91.5l-10.5,7.7l-81.2,19.3l-27.8,5.3l-12.1-7.4c29.4,95.1-4.8,107.3-4.8,107.3L139.3,551.2z"
			/>
	</g>
	<g id="XMLID_109_">
		<path id="XMLID_437_" class="st27" d="M198.8,325.3c0,0-26,45.6-71.7,30.3c0,0-9,31.4-33.6,33.8l18.8,0.6l12.4-7.6l10.1-13.5
			l22.1-1.3l22.5-10.4l8.6-9l10.6-18.7L198.8,325.3z"/>
	</g>
	<g id="XMLID_108_">
		<path id="XMLID_435_" class="st27" d="M262.5,343c0,0-48.1-3.5-66.2-27.1C196.3,315.9,210.1,359.6,262.5,343z"/>
	</g>
	<g id="XMLID_107_">
		<path id="XMLID_433_" class="st28" d="M273.3,402.1c-18.4-23.4,1.8-58.7,1.8-58.7l0.1,23.6l1.6,15.7l10.8,17.2l13.9,18.2
			l10.9,37.2l-2.1,42.8C310.2,498.2,302.8,439.7,273.3,402.1z"/>
	</g>
	<g id="XMLID_106_">
		<path id="XMLID_431_" class="st28" d="M193.4,309.3c0,0-43.4-24.1-84.8,24.5s-4,139.4-4,139.4s27.9,90.9-21.3,70.3l9-17.5
			L86,473.4L72.8,399l9.6-49.9l10-25.9l23.9-21.8l22-6.5l21-0.3l24.4,6.4L193.4,309.3z"/>
	</g>
	<g id="XMLID_105_">
		<path id="XMLID_429_" class="st28" d="M275.1,345.4c0,0,5.4-53.8-81.7-36.1l8.2-6.4l26.9-10.3l16.5-1.6l10.8,2.4l10.6,5.9l5.8,9
			l3.7,9.3l2.5,11L275.1,345.4z"/>
	</g>
	<g id="XMLID_104_">
		<path id="XMLID_427_" class="st29" d="M288,440.3"/>
	</g>
	<g id="XMLID_103_">
		<path id="XMLID_357_" class="st30" d="M277.8,531.7c-24.6,7.2-52.6,0-60.7-2.4c-11.1,18.8-30.5,27.8-56.2,26.1
			c-16.3-1.1-30.2-6.2-35-8.1c-3.7,3.3-7.5,5.3-11.3,6.4c-16.7,4.9-32.9-7.8-33.1-8l-3.6-2.9l4.2-1.8c0.1-0.1,20.2-11.1-2.8-85.7
			c-12.7-41.5-9.2-75.5-4-96.7c5.6-23.1,14.3-36.2,14.6-36.8l0.1-0.1c21.7-29.7,49.3-32.7,68.6-30c17.4,2.4,31,9.7,35.4,12.2
			c33.1-17.3,51.5-19.8,69.9-9.7c18.7,10.3,15.8,46.6,15.5,49.1c-0.1,1.7-1.1,32.3,5.3,44.7c1.3,2.5,3.2,5.7,5.4,9.4
			c9.6,16.1,25.7,43,27.5,76.9l0,0.3c-1.2,23.1-9.2,39.9-23.9,49.9C288.8,527.6,283.4,530,277.8,531.7z M214.4,522.5l2.2,0.8
			c0.5,0.2,46.2,15.3,74-3.6c13.1-8.9,20.3-24.2,21.4-45.4c-1.8-32.5-17.4-58.6-26.7-74.2c-2.3-3.8-4.2-7-5.6-9.7
			c-7.1-14.1-5.9-46.2-5.9-47.6l0-0.1c0-0.3,3-35.1-12.7-43.7c-16.9-9.3-33.5-6.6-66,10.5l-1.4,0.8l-1.4-0.9
			c-0.1-0.1-15.2-9.5-34.7-12.2c-25.8-3.5-47,5.8-63.1,27.8c-1.1,1.8-33.2,52.9-9.9,128.7c10.2,33.3,13.5,58.7,9.8,75.6
			c-1.6,7.5-4.4,11.7-6.6,14.1c6.4,4.1,22.3,11.7,35.5-1.4l1.4-1.3l1.7,0.8c0.2,0.1,16.2,7.1,35,8.4c24.5,1.7,42-6.8,51.9-25.2
			L214.4,522.5z"/>
	</g>
	<g id="XMLID_102_">
		<path id="XMLID_356_" class="st30" d="M161.9,358.4c-0.9,0.3-1.9-0.2-2.3-1.2c-0.3-1,0.2-2,1.1-2.4c16.6-5.8,26.1-27.4,26.2-27.6
			c0.4-0.9,1.5-1.4,2.4-1c0.9,0.4,1.4,1.5,1,2.4C190,329.7,180.1,352,161.9,358.4C162,358.4,161.9,358.4,161.9,358.4z"/>
	</g>
	<g id="XMLID_101_">
		<path id="XMLID_355_" class="st30" d="M153.1,360.9c-2.4,0.7-8.5,2-15-0.8c-0.9-0.4-1.4-1.5-1-2.4c0.4-0.9,1.5-1.4,2.4-1
			c6.7,2.9,13.1,0.4,13.2,0.4c0.9-0.4,2,0.1,2.4,1.1c0.4,0.9-0.1,2-1,2.4C154,360.5,153.7,360.7,153.1,360.9z"/>
	</g>
	<g id="XMLID_100_">
		<path id="XMLID_354_" class="st30" d="M269,324.6c-0.8,0.2-1.7-0.1-2.1-0.9l0,0c-0.5-0.9-12.2-21.5-48.8-12.5
			c-1,0.2-2-0.4-2.2-1.4c-0.2-1,0.4-2,1.4-2.2c39.6-9.7,52.4,13.3,53,14.3c0.5,0.9,0.1,2-0.8,2.5C269.2,324.5,269.1,324.6,269,324.6
			z"/>
	</g>
	<g id="XMLID_99_">
		<path id="XMLID_353_" class="st30" d="M94.7,347.4c-0.3,0.1-0.7,0.1-1,0c-1-0.3-1.5-1.3-1.3-2.3c0.1-0.3,10.3-34.3,42.9-39
			c1-0.1,1.9,0.6,2.1,1.6c0.1,1-0.5,2-1.6,2.1c-30.2,4.4-39.7,36.1-39.8,36.4C95.8,346.8,95.3,347.2,94.7,347.4z"/>
	</g>
	<g id="XMLID_98_">
		<path id="XMLID_352_" class="st30" d="M87.1,367.7c-0.3,0.1-0.7,0.1-1.1,0c-1-0.3-1.5-1.3-1.2-2.3l3.7-11.9c0.3-1,1.3-1.5,2.3-1.2
			c1,0.3,1.5,1.3,1.2,2.3l-3.7,11.9C88.2,367.1,87.7,367.5,87.1,367.7z"/>
	</g>
	<g id="XMLID_341_">
		<path id="XMLID_351_" class="st30" d="M116.3,533.1c-0.6,0.2-1.3,0-1.8-0.5c-0.7-0.7-0.7-1.9,0-2.6c0.2-0.2,17.4-19.4-7.9-74.6
			c-0.4-0.9,0-2,0.9-2.4c0.9-0.4,2,0,2.5,0.9c26.7,57.9,8,77.9,7.2,78.8C116.8,532.8,116.6,533,116.3,533.1z"/>
	</g>
</g>
<g id="Right_Arm">
	<g id="XMLID_176_">
		<path class="st31" d="M245.2,447.6l12.3,23.7l5.2,21.7c0,0,19.7,26.7,40.9,19.1c0,0,35.1-37.6,36.8-70.4h-16.9
			c0,0-24,12.6-32.3,37.7C291.2,479.3,263.7,447.9,245.2,447.6z"/>
	</g>
	<g id="XMLID_175_">
		<polygon class="st22" points="317.3,441.5 325.6,425.3 343.4,422 355.6,426.7 367.2,432.6 368.9,442.7 		"/>
	</g>
	<g id="XMLID_171_">
		<path class="st32" d="M257.5,471.3c0,0,18.8,31.4,40,27.8c0,0,33.7-30.2,42.9-57.4c0,0-9.2,53.3-36.8,70.4c0,0-25.5,5.9-40.9-19.1
			l-2.4-10.5L257.5,471.3z"/>
	</g>
	<g id="XMLID_168_">
		<path class="st33" d="M255.5,465.5c0,0,15.8-0.3,33,14.1c0,0-9.1-24.6-39.9-31.2l3.5,9.3L255.5,465.5z"/>
	</g>
	<g id="XMLID_69_">
		<path id="XMLID_269_" class="st9" d="M291.2,483.5l-2.7-3.7c-17.4-24.3-43.5-29.6-43.8-29.7c-1.4-0.3-2.2-1.6-2-2.9s1.6-2.2,2.9-2
			c1.1,0.2,25.9,5.3,44.4,28.3c3.8-7.5,13.9-24.1,32.3-34.1c1.2-0.7,2.7-0.2,3.4,1c0.7,1.2,0.2,2.7-1,3.4
			c-22.2,12.1-31.8,35.3-31.8,35.5L291.2,483.5z"/>
	</g>
	<g id="XMLID_68_">
		<path id="XMLID_268_" class="st9" d="M295.2,515.2c-22.9,0-35.8-24.2-36-24.4c-0.6-1.2-0.2-2.7,1.1-3.4c1.2-0.6,2.7-0.2,3.4,1.1
			l0,0c0.6,1.1,14.9,27.6,39.7,20.6c3.3-3.3,25.8-27.2,34.7-68c0.3-1.4,1.6-2.2,3-1.9c1.4,0.3,2.2,1.6,1.9,3
			c-9.9,45.6-35.5,70-36.5,71l-0.4,0.4l-0.6,0.2C301.8,514.7,298.4,515.2,295.2,515.2z"/>
	</g>
	<g id="XMLID_67_">
		<path id="XMLID_263_" class="st9" d="M372.3,444.1h-55.1v-2.5c0-0.4,0.1-9.4,6.8-15.9c4.7-4.5,11.2-6.5,19.5-6.2
			c20.7,0.9,27.6,21.1,27.7,21.3L372.3,444.1z M322.5,439H365c-2.6-5-9.1-14-21.7-14.6c-6.8-0.3-12.1,1.3-15.8,4.7
			C324.3,432.4,323,436.4,322.5,439z"/>
	</g>
	<g id="XMLID_66_">
		<path id="XMLID_261_" class="st9" d="M344.3,444.1c-1.3,0-2.3-0.9-2.5-2.2c-0.4-3.8-1.9-6.7-4.4-8.6c-4.8-3.6-12-2.5-12-2.5
			c-1.4,0.2-2.7-0.7-2.9-2.1c-0.2-1.4,0.7-2.6,2.1-2.9c0.4-0.1,9.3-1.5,15.8,3.5c3.6,2.7,5.8,6.8,6.4,12c0.2,1.4-0.8,2.6-2.2,2.8
			C344.5,444,344.4,444.1,344.3,444.1z"/>
	</g>
</g>
<g id="Body">
	<g id="XMLID_181_">
		<path class="st11" d="M245.2,447.6c0,0-24.5-13.3-71.3,7.7l1.2,20.9v22.9l-1.2,18.5l-3.6,16.6l-0.7,23.3V569l5.5,27.7
			c0,0,44.8,5.9,77-18.1C252.1,578.6,277.4,502.1,245.2,447.6z"/>
	</g>
	<g id="XMLID_166_">
		<path class="st33" d="M224.5,499.1c0,0,9-28.4-3.7-54.5l-2.4,3.9l-2.7,4.4l8.9,24.2V499.1z"/>
	</g>
	<g id="XMLID_73_">
		<path id="XMLID_272_" class="st9" d="M178.5,601.8c-0.1,0-0.2,0-0.3,0l-1.2,0l-0.8-0.9c-0.7-0.8-16.1-20.9-5.7-75.1
			c0.1-0.5,8.6-42.5,0.9-69.7l-0.6-2l1.9-0.9c1.7-0.8,42.8-20.5,73.4-7.7l0.4,0.2l0.3,0.3c0.4,0.4,9.2,9,14.4,30
			c4.8,19,7.5,52.4-6.9,103.5l-0.2,0.7l-0.6,0.5C252.7,581.4,228.1,601.8,178.5,601.8z M176.8,456.7c7.1,28.4-1,68.3-1.3,70
			c-8.7,45.6,1.3,65.7,4,70.1c43-0.3,66.5-16.7,70.3-19.6c13.7-49.3,11.3-81.4,6.8-99.6c-4.3-17.6-11.4-26.1-12.9-27.8
			C218.8,439.7,185.1,453.1,176.8,456.7z"/>
	</g>
	<g id="XMLID_50_">
		<path id="XMLID_271_" class="st9" d="M224.5,500.7c-1.4,0-2.5-1.1-2.5-2.5c-0.1-26.9-9.6-42.4-9.7-42.6c-0.7-1.2-0.4-2.7,0.8-3.5
			c1.2-0.7,2.7-0.4,3.5,0.8c0.4,0.7,10.4,16.8,10.5,45.2C227,499.5,225.9,500.7,224.5,500.7C224.5,500.7,224.5,500.7,224.5,500.7z"
			/>
	</g>
	<g id="XMLID_51_">
		<circle class="st9" cx="209.9" cy="470.5" r="4.2"/>
	</g>
</g>
<g id="Neck">
	<g id="XMLID_173_">
		<path class="st22" d="M190.5,433.9l3.4,14.6c0,0,22.4,13.3,26.9-3.9l-1.9-16.6L190.5,433.9z"/>
	</g>
	<g id="XMLID_54_">
		<path id="XMLID_276_" class="st9" d="M210.1,457.7c-8.6,0-17.8-7.3-18.3-7.6l-0.7-0.6l-3-15.1c-0.3-1.4,0.6-2.7,2-3
			c1.4-0.3,2.7,0.6,3,2l2.7,13.3c3.5,2.6,11.7,7.5,17.1,5.6c2.6-0.9,4.5-3.5,5.5-7.8l-1.9-16.1c-0.2-1.4,0.8-2.6,2.2-2.8
			c1.4-0.2,2.6,0.8,2.8,2.2l2,17l-0.1,0.4c-1.4,6.3-4.4,10.3-8.9,11.8C213,457.5,211.6,457.7,210.1,457.7z"/>
	</g>
</g>
<g id="Left_Arm">
	<g id="XMLID_70_">
		<path id="XMLID_250_" class="st9" d="M242.8,528.7h-22.3c-1.4,0-2.5-1.1-2.5-2.5s1.1-2.5,2.5-2.5h22.3c1.4,0,2.5,1.1,2.5,2.5
			S244.1,528.7,242.8,528.7z"/>
	</g>
	<g id="XMLID_217_">
		<g id="XMLID_177_">
			<path id="XMLID_266_" class="st31" d="M174.1,455.3c0,0-35.8,14.7-27.6,79l17.3,8.6h14.5l17.1-1.9l25.7-13.9
				c0,0-8.5-10.2-1.3-17.5h-13.8h-17.5l-14.4,5.1C174,514.7,183.1,482.4,174.1,455.3z"/>
		</g>
		<g id="XMLID_174_">
			<path id="XMLID_264_" class="st22" d="M219.2,524.5l-0.5-6.9l1.1-8c0,0,29.1-19.1,41.8,14.6L219.2,524.5z"/>
		</g>
		<g id="XMLID_172_">
			<path id="XMLID_262_" class="st32" d="M174.1,455.3c0,0,1.3,43.1-15.2,68.4l15.1-9C174,514.7,177.6,476.3,174.1,455.3z"/>
		</g>
		<g id="XMLID_169_">
			<path id="XMLID_260_" class="st32" d="M160,541c0,0,41.5-5.3,58.6-23.4l2.4,6.1C221,523.7,211.2,551.5,160,541z"/>
		</g>
		<g id="XMLID_167_">
			<path id="XMLID_258_" class="st33" d="M145.7,530.5c0,0,4.3-45.3,29-64.2l-0.6-11C174.1,455.3,136.7,476.2,145.7,530.5z"/>
		</g>
		<g id="XMLID_72_">
			<path id="XMLID_247_" class="st9" d="M180.2,545.4c-3.3,0-6.4-0.3-9.3-0.6c-14.8-2-25.3-8.1-25.7-8.3l-0.9-0.6l-0.2-1.1
				c-7.1-31.8,1.1-52.3,9.2-63.9c8.9-12.7,19.4-17.7,19.8-17.9l2.8-1.3l0.7,3c0.2,1.1,5.7,25.8,1.9,55.2c20-7.8,39.7-3.1,40.8-2.8
				l2.9,0.7l-1.2,2.7c-4.2,9.6,1.2,13.4,1.5,13.5l2.6,1.7l-2.2,2.2C208.6,541.7,193,545.4,180.2,545.4z M148.7,532.6
				c2.8,1.5,11.7,5.7,23.1,7.2c17.5,2.4,32.8-2.2,45.5-13.6c-2.3-2.8-4.2-7.8-2.1-14.7c-6.4-1-22.8-2.6-38.5,4.7
				c-0.2,0.2-0.5,0.3-0.8,0.4c-5.3,2.6-10.5,6.2-15.2,11.3c-0.9,1-2.5,1.1-3.5,0.1c-1-0.9-1.1-2.5-0.1-3.5c5-5.4,10.4-9.3,16-12.1
				c3.6-23.6,0.7-45.1-0.7-53.1c-3.5,2.3-9.7,7-15.1,14.8C146.5,489.4,143.6,509.1,148.7,532.6z"/>
		</g>
		<g id="XMLID_71_">
			<path id="XMLID_246_" class="st9" d="M262.2,528.7c-1,0-2-0.7-2.4-1.7c-4-11.9-9.8-19-17.2-21.2c-11-3.3-22.4,5.6-22.5,5.7
				c-1.1,0.9-2.7,0.7-3.5-0.4c-0.9-1.1-0.7-2.7,0.4-3.5c0.5-0.4,13.5-10.5,27-6.6c9,2.6,16,10.8,20.6,24.4c0.4,1.3-0.3,2.7-1.6,3.2
				C262.8,528.7,262.5,528.7,262.2,528.7z"/>
		</g>
	</g>
</g>
<g id="Laptop">
	<g id="XMLID_170_">
		<polygon class="st34" points="317.3,441.5 291.2,526.2 377.8,526.2 402.9,441.5 		"/>
	</g>
	<g id="XMLID_162_">
		<path class="st35" d="M310.4,464.1c0,0,67.2-14.6,71.1,47.9l21.4-70.5h-85.5L310.4,464.1z"/>
	</g>
	<g id="XMLID_161_">
		<path class="st36" d="M306.6,476.2c0,0-3.4,49.7,49,49.7l-64.4,0.2L306.6,476.2z"/>
	</g>
	<g id="XMLID_134_">
		<path class="st37" d="M316.3,448.5h63.6c0,0,18.9,0.6,14.3,11.4l8.8-18.4h-85.5L316.3,448.5z"/>
	</g>
	<g id="XMLID_78_">
		<path id="XMLID_203_" class="st9" d="M291.2,528.7C291.2,528.7,291.2,528.7,291.2,528.7l-61.5,0c-1.4,0-2.5-1.1-2.5-2.5
			s1.1-2.5,2.5-2.5h59.6l26.1-84.6h90.7l-26.6,89.7L291.2,528.7C291.3,528.7,291.3,528.7,291.2,528.7z M294.6,523.7h81.3l23.6-79.6
			h-80.3L294.6,523.7z"/>
	</g>
	<g id="XMLID_77_">
		<ellipse transform="matrix(0.9288 0.3705 -0.3705 0.9288 204.0511 -94.5225)" class="st9" cx="348" cy="483.8" rx="7" ry="10.6"/>
	</g>
</g>
<g id="Right_Leg">
	<path id="XMLID_244_" class="st38" d="M315.1,641.5c0,0,1.4-44.8,44.7-32.9l14.6,9.5l11.2,8.5l10.3,14.9H315.1z"/>
	<g id="XMLID_219_">
		<g id="XMLID_242_">
			<path id="XMLID_243_" class="st39" d="M202.1,599.3c0,0,8.4,66.6,53.8,31.1l13.1-25.1l6.4-15.4l15.6,11.4l13.3,6.1l10.5-10.7
				l10-6.8l7.8-0.4l-14.8-26l-9.6-20.7l-11.5-10.4l-12.1-4.3C284.7,528.3,245.7,530.7,202.1,599.3z"/>
		</g>
		<g id="XMLID_240_">
			<path id="XMLID_241_" class="st40" d="M309.1,606.6l5.8-9.9l17.8-7.2l13.4,14.1c0,0-21.5,2.4-24.6,12.6L309.1,606.6z"/>
		</g>
		<g id="XMLID_238_">
			<path id="XMLID_239_" class="st41" d="M203.8,596.8c0,0,51.9-53.6,73-53.4s31.4,25.7,31.4,25.7s8.8,21.3,16.6,20.9l7.8-0.4
				l-11.6-19.5l-12.8-27.2l-11.5-10.4l-12.1-4.3C284.7,528.3,244.4,531.1,203.8,596.8z"/>
		</g>
		<g id="XMLID_236_">
			<path id="XMLID_237_" class="st40" d="M206,620.2c0,0,31.6,31.9,66.4-39l2.9,8.7c0,0-13.9,48.5-45.8,50l-15.4-5.9L206,620.2z"/>
		</g>
		<g id="XMLID_234_">
			<path id="XMLID_235_" class="st40" d="M269.1,569c0,0,27.7,29.4,45.8,27.7l-6.6,12.4C308.2,609.2,268.4,597.2,269.1,569z"/>
		</g>
		<g id="XMLID_223_">
			<g id="XMLID_232_">
				<path id="XMLID_233_" class="st9" d="M229.5,642.5c-5.5,0-10.3-1.6-14.5-4.7c-14.8-11-15.4-37.3-15.4-38.4l0-0.8l0.4-0.7
					c1.9-2.9,46.8-70.1,81.3-72.2c20-1.2,29,17,38.6,36.3c7.9,15.9,16,32.4,30.9,41c1.2,0.7,1.6,2.2,0.9,3.4
					c-0.7,1.2-2.2,1.6-3.4,0.9c-16.1-9.4-25-27.3-32.8-43.1c-9.2-18.6-17.1-34.6-33.8-33.6c-30.3,1.9-72.2,62.2-77,69.3
					c0.2,4.3,1.9,25.2,13.4,33.8c5.2,3.8,11.8,4.7,19.7,2.4c10.1-2.8,19-10.1,24.3-20c4.8-8.8,8.6-18.5,11.4-29
					c0.4-1.3,1.7-2.1,3.1-1.8c1.3,0.4,2.1,1.7,1.8,3.1c-2.9,10.8-6.9,20.9-11.9,30c-6,11.1-16,19.3-27.4,22.5
					C235.8,642,232.6,642.5,229.5,642.5z"/>
			</g>
			<g id="XMLID_230_">
				<path id="XMLID_231_" class="st9" d="M320.6,621.9c-1,0-2-0.6-2.4-1.6c-0.3-0.8-0.2-1.6,0.3-2.2c-1.2-1.2-5.5-4.5-20.5-10.5
					c-30-12-31.4-37.4-31.5-38.4c-0.1-1.4,1-2.6,2.4-2.6c1.4,0,2.5,1,2.6,2.4c0,1,1.4,23.3,28.3,34c21.2,8.4,24.1,12.4,24,15.4
					c0,1.7-1.2,3-2.4,3.4C321.2,621.9,320.9,621.9,320.6,621.9z"/>
			</g>
			<g id="XMLID_227_">
				<path id="XMLID_229_" class="st9" d="M395.8,644c-0.9,0-1.8-0.5-2.2-1.4c-11.5-23-33.5-31.2-34.6-31.6
					c-12.7-3.7-22.7-2.9-29.7,2.4c-11.7,8.9-11.6,27.8-11.6,28c0,1.4-1.1,2.5-2.5,2.5c0,0,0,0,0,0c-1.4,0-2.5-1.1-2.5-2.5
					c0-0.9-0.2-21.6,13.6-32c8.4-6.4,19.9-7.5,34.3-3.3l0.1,0c1,0.3,24.8,8.7,37.5,34.1c0.6,1.2,0.1,2.7-1.1,3.4
					C396.6,643.9,396.2,644,395.8,644z"/>
			</g>
		</g>
		<g id="XMLID_221_">
			<path id="XMLID_222_" class="st9" d="M308.2,611.7c-0.2,0-0.4,0-0.5-0.1c-1.4-0.3-2.2-1.6-1.9-3c0-0.2,4.8-20.9,26.8-21.6
				c1.4,0,2.5,1,2.6,2.4c0,1.4-1,2.5-2.4,2.6c-18.1,0.6-22,17.5-22,17.7C310.4,610.9,309.4,611.7,308.2,611.7z"/>
		</g>
	</g>
</g>
<g id="Left_Leg">
	<path id="XMLID_179_" class="st38" d="M291.2,641.5c0,0,1.4-44.8,44.7-32.9l14.6,9.5l11.2,8.5l10.3,14.9H291.2z"/>
	<g id="XMLID_56_">
		<g id="XMLID_180_">
			<path class="st39" d="M178.2,599.3c0,0,8.4,66.6,53.8,31.1l13.1-25.1l6.4-15.4l15.6,11.4l13.3,6.1l10.5-10.7l10-6.8l7.8-0.4
				l-14.8-26l-9.6-20.7l-11.5-10.4l-12.1-4.3C260.8,528.3,221.8,530.7,178.2,599.3z"/>
		</g>
		<g id="XMLID_178_">
			<path class="st40" d="M285.2,606.6l5.8-9.9l17.8-7.2l13.4,14.1c0,0-21.5,2.4-24.6,12.6L285.2,606.6z"/>
		</g>
		<g id="XMLID_165_">
			<path class="st41" d="M179.9,596.8c0,0,51.9-53.6,73-53.4s31.4,25.7,31.4,25.7s8.8,21.3,16.6,20.9l7.8-0.4l-11.6-19.5l-12.8-27.2
				l-11.5-10.4l-12.1-4.3C260.8,528.3,220.5,531.1,179.9,596.8z"/>
		</g>
		<g id="XMLID_164_">
			<path class="st40" d="M182.1,620.2c0,0,31.6,31.9,66.4-39l2.9,8.7c0,0-13.9,48.5-45.8,50l-15.4-5.9L182.1,620.2z"/>
		</g>
		<g id="XMLID_163_">
			<path class="st40" d="M245.2,569c0,0,27.7,29.4,45.8,27.7l-6.6,12.4C284.4,609.2,244.5,597.2,245.2,569z"/>
		</g>
		<g id="XMLID_278_">
			<g id="XMLID_76_">
				<path id="XMLID_208_" class="st9" d="M205.6,642.5c-5.5,0-10.3-1.6-14.5-4.7c-14.8-11-15.4-37.3-15.4-38.4l0-0.8l0.4-0.7
					c1.9-2.9,46.8-70.1,81.3-72.2c20-1.2,29,17,38.6,36.3c7.9,15.9,16,32.4,30.9,41c1.2,0.7,1.6,2.2,0.9,3.4
					c-0.7,1.2-2.2,1.6-3.4,0.9c-16.1-9.4-25-27.3-32.8-43.1c-9.2-18.6-17.1-34.6-33.8-33.6c-30.3,1.9-72.2,62.2-77,69.3
					c0.2,4.3,1.9,25.2,13.4,33.8c5.2,3.8,11.8,4.7,19.7,2.4c10.1-2.8,19-10.1,24.3-20c4.8-8.8,8.6-18.5,11.4-29
					c0.4-1.3,1.7-2.1,3.1-1.8c1.3,0.4,2.1,1.7,1.8,3.1c-2.9,10.8-6.9,20.9-11.9,30c-6,11.1-16,19.3-27.4,22.5
					C211.9,642,208.7,642.5,205.6,642.5z"/>
			</g>
			<g id="XMLID_75_">
				<path id="XMLID_207_" class="st9" d="M296.7,621.9c-1,0-2-0.6-2.4-1.6c-0.3-0.8-0.2-1.6,0.3-2.2c-1.2-1.2-5.5-4.5-20.5-10.5
					c-30-12-31.4-37.4-31.5-38.4c-0.1-1.4,1-2.6,2.4-2.6c1.4,0,2.5,1,2.6,2.4c0,1,1.4,23.3,28.3,34c21.2,8.4,24.1,12.4,24,15.4
					c0,1.7-1.2,3-2.4,3.4C297.3,621.9,297,621.9,296.7,621.9z"/>
			</g>
			<g id="XMLID_74_">
				<path id="XMLID_206_" class="st9" d="M372,644c-0.9,0-1.8-0.5-2.2-1.4c-11.5-23-33.5-31.2-34.6-31.6
					c-12.7-3.7-22.7-2.9-29.7,2.4c-11.7,8.9-11.6,27.8-11.6,28c0,1.4-1.1,2.5-2.5,2.5c0,0,0,0,0,0c-1.4,0-2.5-1.1-2.5-2.5
					c0-0.9-0.2-21.6,13.6-32c8.4-6.4,19.9-7.5,34.3-3.3l0.1,0c1,0.3,24.8,8.7,37.5,34.1c0.6,1.2,0.1,2.7-1.1,3.4
					C372.7,643.9,372.3,644,372,644z"/>
			</g>
		</g>
		<g id="XMLID_202_">
			<path id="XMLID_65_" class="st9" d="M284.4,611.7c-0.2,0-0.4,0-0.5-0.1c-1.4-0.3-2.2-1.6-1.9-3c0-0.2,4.8-20.9,26.8-21.6
				c1.4,0,2.5,1,2.6,2.4c0,1.4-1,2.5-2.4,2.6c-18.1,0.6-22,17.5-22,17.7C286.6,610.9,285.5,611.7,284.4,611.7z"/>
		</g>
	</g>
</g>
<g id="Head_3_">
	<g id="XMLID_329_">
		<polygon id="XMLID_387_" class="st42" points="126.9,419.8 117.2,420.2 108,412.2 107.3,404.9 110.8,395.4 119.6,390.3 		"/>
	</g>
	<g id="XMLID_339_">
		<polygon id="XMLID_385_" class="st42" points="253.5,348.8 265.4,399.6 263.5,411.8 251.4,419.9 210.2,429.5 156.5,442.2 
			141.8,444.1 139.9,443.1 132,436.7 119.6,390.3 129,379.7 136.7,369 158.8,367.7 183.8,357.4 202.3,329.7 218.4,341 244,344.5 		
			"/>
	</g>
	<g id="XMLID_97_">
		<path id="XMLID_383_" class="st43" d="M261.3,389.6c0,0,2.3,15.7-11.2,19.6c-13.5,3.9-97.9,22.8-97.9,22.8s-17.8,2-23.4-7.6
			l3.3,12.2l12.1,7.4l12.4-2l99.6-23.6l4.6-3.1l4.5-7.3l0.9-5.3L261.3,389.6z"/>
	</g>
	<g id="XMLID_96_">
		<path id="XMLID_381_" class="st43" d="M208,334.4c0,0-14.8,41.4-65.1,43.1c0,0-5.7,14-18.8,20.1l-4.4-10.7l17-17.9l20.2,0.9
			l21.5-10.3l15.2-17l6.8-13L208,334.4z"/>
	</g>
	<g id="XMLID_95_">
		<path id="XMLID_379_" class="st43" d="M254.7,354c0,0-32.6,2.9-58.2-14.5l5.8-9.8l13.5,10.3l20.6,6.2l13.5,0.9L254.7,354z"/>
	</g>
	<g id="XMLID_94_">
		<path id="XMLID_377_" class="st44" d="M224.5,383.3c0,0-1.7-9.2-9.1-16.4l2.8,24.2l4.1-2.6L224.5,383.3z"/>
	</g>
	<g id="XMLID_93_">
		
			<ellipse id="XMLID_375_" transform="matrix(-0.9958 9.156718e-002 -9.156718e-002 -0.9958 395.445 761.6525)" class="st44" cx="180.3" cy="389.9" rx="6.4" ry="3.4"/>
	</g>
	<g id="XMLID_91_">
		
			<ellipse id="XMLID_92_" transform="matrix(-0.9881 0.154 -0.154 -0.9881 544.812 715.191)" class="st44" cx="244.7" cy="378.7" rx="6.4" ry="3.4"/>
	</g>
	<g id="XMLID_89_">
		<path id="XMLID_90_" class="st43" d="M218.9,410.5c0,0-36.8,18.7-48.3-11.5l7.2,5.2l17.4,5.4l15.5,0.6L218.9,410.5z"/>
	</g>
	<g id="XMLID_83_">
		<path id="XMLID_349_" class="st30" d="M113.6,392.4c-5.4,1.6-11.7,2.1-18.9,0.6c-1.5-0.3-2.5-1.8-2.2-3.3c0.3-1.5,1.8-2.5,3.3-2.2
			c26.5,5.3,38.2-19.4,38.3-19.7l0.9-1.9l2,0.3c42.9,5.3,62.5-37.3,62.7-37.7l1.6-3.5l2.9,2.6c28.5,26.1,57.1,14.2,57.3,14.1
			c1.4-0.6,3.1,0,3.7,1.5c0.6,1.4,0,3.1-1.5,3.7c-1.3,0.5-30.4,12.7-60.6-12.7c-4.5,8.1-18.2,28.8-42.1,35.8
			c-6.8,2-14.4,2.9-22.8,2.1C135.6,376.5,127.7,388.2,113.6,392.4z"/>
	</g>
	<g id="XMLID_82_">
		<path id="XMLID_348_" class="st30" d="M126.2,422.8c-0.1,0-0.2,0-0.3,0.1c-4.7,0.9-9.5-0.1-13.5-2.7c-4-2.7-6.7-6.8-7.6-11.5
			c-0.9-4.7,0.1-9.5,2.7-13.5c2.7-4,6.8-6.7,11.5-7.6c1.5-0.3,3,0.7,3.3,2.2c0.3,1.5-0.7,3-2.2,3.3c-3.3,0.6-6.1,2.5-7.9,5.2
			c-1.9,2.7-2.5,6-1.9,9.3c0.6,3.2,2.5,6.1,5.2,7.9c2.7,1.9,6,2.5,9.3,1.9c1.5-0.3,3,0.7,3.3,2.2C128.4,421,127.5,422.4,126.2,422.8
			z"/>
	</g>
	<g id="XMLID_152_">
		<path id="XMLID_81_" class="st30" d="M114.2,407.6c-0.3,0.1-0.6,0.1-0.9,0c-1-0.2-1.6-1.2-1.4-2.2c1.6-6.9,9.3-8.7,9.7-8.8
			c1-0.2,2,0.4,2.2,1.4c0.2,1-0.4,2-1.4,2.2l0,0c-0.1,0-5.8,1.4-6.9,6C115.3,406.9,114.8,407.4,114.2,407.6z"/>
	</g>
	<g id="XMLID_214_">
		<path id="XMLID_86_" class="st30" d="M254.8,422c-0.3,0.1-0.7,0.2-1.1,0.3l-103.5,24.2c-10.4,2.4-20.9-4-23.3-14.5l-10.4-44.3
			c-0.4-1.5,0.6-3,2.1-3.4c1.5-0.4,3,0.6,3.4,2.1l10.4,44.3c1.7,7.4,9.2,12,16.6,10.3l103.5-24.2c7.4-1.7,12-9.2,10.3-16.6
			l-12.4-52.9c-0.4-1.5,0.6-3,2.1-3.4c1.5-0.4,3,0.6,3.4,2.1l12.4,52.9C270.5,409,264.5,419.1,254.8,422z"/>
	</g>
</g>
<g id="Face">
	<g id="XMLID_220_">
		<circle id="XMLID_362_" class="st30" cx="235.8" cy="362.5" r="6.1"/>
	</g>
	<g id="XMLID_224_">
		<circle id="XMLID_359_" class="st30" cx="185.9" cy="371.9" r="6.1"/>
	</g>
	<g id="XMLID_225_">
		<path id="XMLID_87_" class="st30" d="M219.6,394c-0.2,0-0.3,0.1-0.5,0.1c-4.8,1.1-9.7-2.2-10.9-7.5c-0.3-1.5,0.6-3,2.1-3.4
			c1.5-0.3,3,0.6,3.4,2.1c0.5,2.2,2.4,3.7,4.2,3.3c1.8-0.4,2.9-2.6,2.4-4.8c-0.3-1.5,0.6-3,2.1-3.4c1.5-0.3,3,0.6,3.4,2.1
			C226.9,387.7,224.2,392.7,219.6,394z"/>
	</g>
	<g id="XMLID_226_">
		<path id="XMLID_88_" class="st30" d="M217.9,411.1c-4.7,1.4-30.4,7.8-46.8-10.2c-1-1.1-1-2.9,0.2-4c1.1-1,2.9-1,4,0.2
			c15.3,16.8,41.4,8.5,41.7,8.4c1.4-0.5,3,0.3,3.5,1.8c0.5,1.5-0.3,3-1.8,3.5C218.5,411,218.3,411,217.9,411.1z"/>
	</g>
</g>
<g id="Ground">
	<g id="XMLID_113_">
		<path id="XMLID_216_" class="st9" d="M215.7,644h-114c-1.4,0-2.5-1.1-2.5-2.5s1.1-2.5,2.5-2.5h114c1.4,0,2.5,1.1,2.5,2.5
			S217,644,215.7,644z"/>
	</g>
	<g id="XMLID_112_">
		<path id="XMLID_215_" class="st9" d="M408,644H236.3c-1.4,0-2.5-1.1-2.5-2.5s1.1-2.5,2.5-2.5H408c1.4,0,2.5,1.1,2.5,2.5
			S409.4,644,408,644z"/>
	</g>
	<g id="XMLID_57_">
		<path id="XMLID_213_" class="st9" d="M439.6,644h-19.2c-1.4,0-2.5-1.1-2.5-2.5s1.1-2.5,2.5-2.5h19.2c1.4,0,2.5,1.1,2.5,2.5
			S441,644,439.6,644z"/>
	</g>
	<g id="XMLID_210_">
		<path id="XMLID_212_" class="st9" d="M542.7,644h-92.1c-1.4,0-2.5-1.1-2.5-2.5s1.1-2.5,2.5-2.5h92.1c1.4,0,2.5,1.1,2.5,2.5
			S544.1,644,542.7,644z"/>
	</g>
	<g id="XMLID_211_">
		<path id="XMLID_293_" class="st9" d="M87.9,644H45.3c-1.4,0-2.5-1.1-2.5-2.5s1.1-2.5,2.5-2.5h42.6c1.4,0,2.5,1.1,2.5,2.5
			S89.2,644,87.9,644z"/>
	</g>
	<g id="XMLID_370_">
		<path id="XMLID_371_" class="st9" d="M566.7,644h-16.5c-1.4,0-2.5-1.1-2.5-2.5s1.1-2.5,2.5-2.5h16.5c1.4,0,2.5,1.1,2.5,2.5
			S568.1,644,566.7,644z"/>
	</g>
</g>
</svg>
