<svg width="985" height="690" viewBox="0 0 985 690" fill="none" xmlns="http://www.w3.org/2000/svg">
<path d="M282.581 0L124.727 85.5022C127.427 90.1493 129.166 95.2908 129.842 100.622C130.517 105.954 130.116 111.367 128.661 116.54C127.207 121.714 124.729 126.543 121.374 130.741C118.019 134.939 113.855 138.421 109.13 140.981C104.404 143.54 99.2131 145.125 93.8639 145.642C88.5146 146.158 83.1161 145.596 77.9883 143.988C72.8604 142.38 68.1075 139.758 64.0112 136.28C59.9148 132.801 56.5585 128.536 54.1409 123.736L0.317444 152.89L139.737 410.284L422 257.394L282.581 0Z" fill="#F2F2F2"/>
<path d="M87.6036 138.255C105.601 138.255 120.191 123.665 120.191 105.668C120.191 87.6704 105.601 73.0805 87.6036 73.0805C69.6061 73.0805 55.0162 87.6704 55.0162 105.668C55.0162 123.665 69.6061 138.255 87.6036 138.255Z" fill="white"/>
<path d="M678.955 689.064L849.627 633.393C847.809 628.336 847.024 622.965 847.32 617.599C847.615 612.233 848.985 606.981 851.348 602.154C853.71 597.327 857.018 593.024 861.074 589.499C865.13 585.973 869.853 583.298 874.962 581.632C880.072 579.965 885.463 579.341 890.818 579.797C896.173 580.252 901.382 581.778 906.136 584.283C910.89 586.788 915.093 590.223 918.496 594.382C921.899 598.542 924.432 603.342 925.946 608.499L984.14 589.516L893.363 311.22L588.178 410.767L678.955 689.064Z" fill="#F2F2F2"/>
<path d="M889.776 652.831C907.773 652.831 922.363 638.241 922.363 620.244C922.363 602.246 907.773 587.657 889.776 587.657C871.778 587.657 857.188 602.246 857.188 620.244C857.188 638.241 871.778 652.831 889.776 652.831Z" fill="white"/>
<path d="M802.542 90.2853C810.691 90.2853 817.298 83.679 817.298 75.5297C817.298 67.3805 810.691 60.7742 802.542 60.7742C794.393 60.7742 787.786 67.3805 787.786 75.5297C787.786 83.679 794.393 90.2853 802.542 90.2853Z" stroke="#3F3D56" stroke-width="2" stroke-miterlimit="10"/>
</svg>
