<?xml version="1.0" encoding="utf-8"?>
<!-- Generator: Adobe Illustrator 19.0.0, SVG Export Plug-In . SVG Version: 6.00 Build 0)  -->
<svg version="1.1" id="Layer_1" xmlns="http://www.w3.org/2000/svg" xmlns:xlink="http://www.w3.org/1999/xlink" x="0px"
     y="0px"
     viewBox="0 0 612 792" style="enable-background:new 0 0 612 792;" xml:space="preserve">
<style type="text/css">
	.st0{fill:#ECF0F2;}
	.st1{fill:#F5F7F7;}
	.st2{fill:#C4E0EC;}
	.st3{fill:#E8EAE9;}
	.st4{fill:#FFD56C;}
	.st5{fill:#FFE19F;}
	.st6{fill:#EDBE58;}
	.st7{fill:#12426D;}
	.st8{fill:#EE775B;}
	.st9{fill:#F69586;}
	.st10{fill:#F79F8E;}
	.st11{fill:#D2614B;}
	.st12{fill:#A37267;}
	.st13{fill:#875D8A;}
	.st14{fill:#88574C;}
	.st15{fill:#F2E3C4;}
	.st16{fill:#FFF4DE;}
	.st17{fill:#DECEB2;}
	.st18{fill:#12426D;stroke:#12426D;stroke-width:1.1231;stroke-miterlimit:10;}
	.st19{fill:#D2C3A5;}
	.st20{fill:#BCAE97;}
	.st21{fill:#E2D3BD;}
	.st22{fill:#AD82AF;}
	.st23{fill:#51636E;}
	.st24{fill:#B68276;}
	.st25{fill:#3D4F56;}
	.st26{fill:#687E88;}
</style>
    <g id="Envelope_3">
	<polygon id="XMLID_145_" class="st0" points="143.4,559.4 152.1,536.6 188,550.3 195.5,632.2 121.1,632.2 	"/>
        <polygon id="XMLID_130_" class="st1" points="162.5,631.3 152.1,536.6 121.1,632.2 	"/>
        <g id="XMLID_74_">
		<path id="XMLID_207_" class="st2" d="M121.1,634.6c-0.2,0-0.5,0-0.7-0.1c-1.3-0.4-1.9-1.8-1.5-3l31.8-98l39.6,15.2l7.5,83.4
			c0.1,1.3-0.8,2.5-2.2,2.6c-1.3,0.1-2.5-0.8-2.6-2.2l-7.3-80.4l-32.2-12.3L123.4,633C123,634,122.1,634.6,121.1,634.6z"/>
	</g>
</g>
    <g id="Envelope_2">
	<polygon id="XMLID_144_" class="st3" points="119.1,550.3 163.4,570.1 141.2,631.3 78.8,631.3 118.3,559.4 	"/>
        <polygon id="XMLID_132_" class="st1" points="121.1,590.8 127,565 163.4,570.1 119.1,550.3 	"/>
        <path id="XMLID_131_" class="st1" d="M119.1,572.4c0,0-27.4,52.7,2,59.8H76.7l41.6-72.8L119.1,572.4z"/>
        <g id="XMLID_120_">
		<path id="XMLID_206_" class="st2" d="M78.8,633.7c-0.4,0-0.8-0.1-1.1-0.3c-1.2-0.6-1.6-2.1-0.9-3.2l40.3-73.4
			c0.6-1.2,2.1-1.6,3.2-0.9c1.2,0.6,1.6,2.1,0.9,3.2l-40.3,73.4C80.5,633.2,79.7,633.7,78.8,633.7z"/>
	</g>
        <g id="XMLID_119_">
		<path id="XMLID_205_" class="st2" d="M141.2,633.7c-0.3,0-0.5,0-0.8-0.1c-1.2-0.4-1.9-1.8-1.4-3l21.4-59.1L121.5,554v32.7
			l31.9-9.6c1.3-0.4,2.6,0.3,3,1.6c0.4,1.3-0.3,2.6-1.6,3l-38.1,11.5v-46.5l49.6,22.2l-22.9,63.3
			C143.1,633.1,142.2,633.7,141.2,633.7z"/>
	</g>
        <polygon id="XMLID_117_" class="st2" points="114.5,620.7 135,620.7 139.4,612.3 119.6,612.3 	"/>
</g>
    <g id="Letter_2">
	<polygon id="XMLID_146_" class="st0" points="472.7,498.8 426.2,519.3 461.2,612.3 472.7,627.9 479.2,632.2 492.4,628.8 
		526.7,607.3 532.3,600.2 530.9,589.6 527,582.3 509.3,590.8 501.8,574.4 480.3,519.7 	"/>
        <polygon id="XMLID_134_" class="st1" points="527,582.3 492.4,604 495.1,612.3 496.1,623.5 505.4,620.7 526.7,607.3 532.3,600.2
		530.9,589.6 	"/>
        <path id="XMLID_133_" class="st3" d="M455.5,506.4c0,0-3.9,49.4,40.5,117.2l-3.7,5.3l-9.5,2.4l-12.8-6l-11.3-19.4l-32.6-86.6
		L455.5,506.4z"/>
        <polygon id="XMLID_129_" class="st1" points="463.2,503 504.4,594.6 509.3,590.8 472.7,498.8 	"/>
        <g id="XMLID_277_">
		<g id="XMLID_126_">
			<path id="XMLID_214_" class="st2" d="M483.2,634.6c-2.2,0-4.3-0.5-6.4-1.4c-14.2-6.1-22.8-31.2-23.1-32.3L423.2,518l50.9-22.4
				l0.9,2.4c0.2,0.5,19.4,54.2,31.5,81.1l4.8,10.2l16-10.1l1.3,1.8c4.9,6.5,6.8,12.6,5.8,18.3c-1.2,6.7-6.2,10-6.4,10.2l-33.9,21.2
				c-1.2,1-2.5,1.8-4,2.5c0,0,0,0-0.1,0C487.7,634.1,485.4,634.6,483.2,634.6z M429.2,520.5l28.9,78.8c0.1,0.3,8.3,24.2,20.5,29.5
				c3.1,1.3,6.1,1.3,9.3-0.1l3.4-2.1c1.3-1.2,2.2-2.6,2.6-4.2c1.9-7-4.6-16.3-4.6-16.3l-1.5-2l19.4-12.2l-5.1-10.8
				c-10.7-23.8-26.9-68.2-30.8-79L429.2,520.5z M494.5,605.5c2,3.3,5.2,10.1,4.4,16.5l26.6-16.6c0.1-0.1,3.5-2.4,4.3-7.1
				c0.6-3.8-0.6-8-3.7-12.7L494.5,605.5z"/>
		</g>
            <g id="XMLID_125_">
			<path id="XMLID_213_" class="st2" d="M444.6,543.6c-0.6,0-1.1-0.3-1.4-0.9c-0.4-0.8,0-1.7,0.7-2l29.7-13.9c0.8-0.4,1.7,0,2,0.7
				s0,1.7-0.7,2l-29.7,13.9C445.1,543.5,444.8,543.6,444.6,543.6z"/>
		</g>
            <g id="XMLID_124_">
			<path id="XMLID_212_" class="st2" d="M450.6,558.7c-0.6,0-1.1-0.3-1.4-0.9c-0.4-0.8,0-1.7,0.7-2l29.7-13.9c0.8-0.4,1.7,0,2,0.7
				s0,1.7-0.7,2l-29.7,13.9C451,558.7,450.8,558.7,450.6,558.7z"/>
		</g>
            <g id="XMLID_123_">
			<path id="XMLID_211_" class="st2" d="M457,573.9c-0.6,0-1.1-0.3-1.4-0.9c-0.4-0.8,0-1.7,0.7-2l29.7-13.9c0.8-0.4,1.7,0,2,0.7
				c0.4,0.8,0,1.7-0.7,2l-29.7,13.9C457.4,573.9,457.2,573.9,457,573.9z"/>
		</g>
            <g id="XMLID_122_">
			<path id="XMLID_210_" class="st2" d="M463.4,589.8c-0.6,0-1.1-0.3-1.4-0.9c-0.4-0.8,0-1.7,0.7-2l29.7-13.9c0.8-0.4,1.7,0,2,0.7
				s0,1.7-0.7,2L464,589.7C463.8,589.8,463.6,589.8,463.4,589.8z"/>
		</g>
            <g id="XMLID_121_">
			<path id="XMLID_209_" class="st2" d="M486.8,592.3c-0.6,0-1.1-0.3-1.4-0.9c-0.3-0.8,0-1.6,0.7-2l11.2-5.2c0.8-0.3,1.6,0,2,0.7
				c0.3,0.8,0,1.6-0.7,2l-11.2,5.2C487.2,592.3,487,592.3,486.8,592.3z"/>
		</g>
	</g>
        <g id="XMLID_112_">
		<path id="XMLID_208_" class="st2" d="M434.4,529.7c-0.6,0-1.1-0.3-1.4-0.9c-0.4-0.8,0-1.7,0.7-2l29.7-13.9c0.8-0.4,1.7,0,2,0.7
			c0.4,0.8,0,1.7-0.7,2l-29.7,13.9C434.9,529.6,434.7,529.7,434.4,529.7z"/>
	</g>
</g>
    <g id="Star_2">
	<g id="Star_1_">
		<polygon id="XMLID_143_" class="st3" points="123,363.7 122.4,374 126.9,385.9 119.6,385.7 115.4,385.9 108.2,389.5 115.4,399.5 
			120.9,401.7 126.9,401.7 128.1,412.9 134.7,419.1 140.1,419.1 146.5,407.1 146.6,399.3 153,401.4 160.7,402.2 170.6,398.3 
			168.7,389.8 162.3,384.1 156.1,381.9 159.5,373.4 156.8,363.7 152.6,359.1 146.6,366.7 144.1,372.7 131.7,366.7 		"/>
        <path id="XMLID_139_" class="st1"
              d="M132.4,389.8c0,0-5-12.1-0.7-23.1l-6.4-3.1l-2.2,0.1l-1.5,7.9l2.8,9.7L132.4,389.8z"/>
        <path id="XMLID_138_" class="st1"
              d="M144.5,381.3c0,0,8.4-14.4,13.9-14.5l-6.9-6.5l-4.9,6.5l-2.5,5.9L144.5,381.3z"/>
        <path id="XMLID_137_" class="st1"
              d="M154.7,382.7c0,0,8.5,12.1,7.7,18.8l6.4-1.7l1.4-3.3l-3.7-8.7l-4.1-3.7L154.7,382.7z"/>
        <path id="XMLID_136_" class="st1"
              d="M115.4,399.5c0,0,1.9-11,17-9.7l-8.5-5.7l-13.8,3.7l-2,1.7l2.5,5.4L115.4,399.5z"/>
        <path id="XMLID_135_" class="st1"
              d="M129.2,399.5c0,0,6.1,12.2,14.2,13.4l-5.3,7.6l-8.9-6.6l-1.5-7.9L129.2,399.5z"/>
        <g id="XMLID_286_">
			<g id="XMLID_128_">
				<path id="XMLID_218_" class="st2" d="M138.4,423.1l-1-0.3c-9.9-3.1-12.3-12.2-12.2-18.5c-0.4,0-0.8,0-1.2,0
					c-11.4,0-16.8-8.9-18.2-14.2l-0.5-1.9l1.8-0.8c6.9-3.3,12-4.2,15.4-4.3c-1.9-4.3-4-11.3-1.8-19.9l0.3-1.4l1.4-0.3
					c0.4-0.1,8.6-1.9,18.8,8.9c1.3-3.2,4-7.6,9.7-12.9l1.4-1.3l1.6,1.1c4.6,3.3,11.3,12.1,6.2,23.2c5.9,2.2,13.6,7.7,12.9,18
					l-0.1,1.1l-0.8,0.7c-3.9,3.1-13.4,7.1-23,2.1c0.9,14.2-9.3,20.1-9.8,20.4L138.4,423.1z M130.8,398.6l-0.6,3.3
					c-0.1,0.5-1.9,12.1,7.6,15.9c2.2-1.7,7.9-7,6.3-17.5c-0.2-1.4,0.4-2.7,1.6-3.5c1.2-0.7,2.7-0.7,3.8,0.1c8.3,5.6,16.2,1.6,18.7,0
					c-0.1-10.2-11.6-12.7-12.1-12.8l-3.3-0.7l1.8-2.9c5.5-9.1,0.7-15.6-2-18.3c-7.6,7.7-7.9,12.8-7.9,12.9l0.2,7.2l-4.5-5.7
					c-7.1-9-13-10.5-15.6-10.7c-1.9,10.6,3.8,18.4,3.8,18.5l5.2,7l-8.1-3.4c0,0-4.8-1.7-14.8,2.7c1.5,3.4,5.9,10.3,16.3,8.5
					L130.8,398.6z"/>
			</g>
		</g>
	</g>
        <g id="XMLID_118_">
		<polygon id="XMLID_141_" class="st0"
                 points="184.5,176.9 184.5,169.6 177.9,168.4 175,173.2 178.6,176.9 		"/>
            <g id="XMLID_284_">
			<g id="XMLID_127_">
				<path id="XMLID_221_" class="st2" d="M180.5,181.1c-4.3,0-7.8-3.5-7.8-7.8c0-4.3,3.5-7.8,7.8-7.8s7.8,3.5,7.8,7.8
					C188.3,177.6,184.8,181.1,180.5,181.1z M180.5,170.2c-1.7,0-3.1,1.4-3.1,3.1c0,1.7,1.4,3.1,3.1,3.1s3.1-1.4,3.1-3.1
					C183.5,171.5,182.2,170.2,180.5,170.2z"/>
			</g>
		</g>
	</g>
</g>
    <g id="Balloon_2">
	<polygon id="XMLID_142_" class="st0" points="488.4,138.8 476,148.7 470,162.7 468.1,178.7 478.3,191.8 475.6,197.1 470,201.9 
		476.8,206.4 483.7,206.1 481.5,194.7 487.2,193.8 500.3,186 509,170.4 509,148.7 501.4,139.5 493.2,137.6 	"/>
        <path id="XMLID_140_" class="st1"
              d="M493.2,137.6c0,0-23.5,25.2-6,56.2l-9-2l-8.6-8.3l-0.5-13.1l3-15.1l9-12.2L493.2,137.6z"/>
        <g id="XMLID_267_">
		<g id="XMLID_116_">
			<path id="XMLID_231_" class="st2" d="M484.5,196.4c-1.9,0-3.8-0.3-5.6-1c-5.8-2.1-10.1-7.2-12-14.4c-1.9-6.9-1.4-15,1.4-22.8v0
				c5.8-16.3,20-26.3,31.7-22.1c5.8,2.1,10.1,7.2,12,14.4c1.9,6.9,1.4,15-1.4,22.8c-2.8,7.8-7.5,14.3-13.3,18.5
				C493.1,194.9,488.7,196.4,484.5,196.4z M472.7,159.9c-2.4,6.9-2.9,13.9-1.3,19.9c1.5,5.7,4.7,9.6,9,11.1c4.3,1.5,9.3,0.5,14-3
				c5-3.6,9.1-9.4,11.6-16.3c2.4-6.9,2.9-13.9,1.3-19.9c-1.5-5.7-4.7-9.6-9-11.1C489.2,137.4,477.7,146,472.7,159.9L472.7,159.9z"/>
		</g>
            <g id="XMLID_115_">
			<path id="XMLID_228_" class="st2" d="M480.4,209.4c-3.5,0-7.8-1.7-12.1-5.9l-2.2-2.2l2.7-1.6c0,0,4.2-2.5,8.4-8.2
				c0.8-1.1,2.3-1.3,3.3-0.5c0.1,0.1,0.2,0.2,0.3,0.2c0.9-0.1,1.8,0.4,2.3,1.2c2,3.6,6.3,12.2,2.1,15.5
				C484,208.9,482.3,209.4,480.4,209.4z M473.8,202c3.9,2.9,7.2,3,8.3,2.3c0.4-1-0.8-4.7-2.5-8.1C477.5,198.9,475.4,200.8,473.8,202
				z"/>
		</g>
            <g id="XMLID_114_">
			<path id="XMLID_227_" class="st2" d="M450.3,247.1c-1.1,0-2.1-0.8-2.3-1.9c-1.4-6.5-0.8-20.4,11.5-26.7
				c12.8-6.5,15.7-12.4,15.7-12.4c0.5-1.2,2-1.7,3.1-1.2c1.2,0.5,1.7,1.9,1.2,3.1c-0.3,0.7-3.7,7.4-17.9,14.7
				c-12,6.2-9.1,20.8-9,21.5c0.3,1.3-0.5,2.5-1.8,2.8C450.6,247.1,450.5,247.1,450.3,247.1z"/>
		</g>
            <g id="XMLID_113_">
			<path id="XMLID_226_" class="st2" d="M499.2,169.8c-0.1,0-0.3,0-0.4-0.1c-0.8-0.2-1.2-1.1-1-1.9c4.5-14.3,0.5-17.9,0.5-17.9
				c-0.7-0.5-0.8-1.4-0.3-2.1c0.5-0.7,1.5-0.8,2.1-0.3c0.6,0.4,5.7,4.8,0.5,21.2C500.4,169.4,499.8,169.8,499.2,169.8z"/>
		</g>
	</g>
</g>
    <g id="Star">
	<polygon id="XMLID_103_" class="st4" points="441.6,295 436.9,302.7 437.9,314.3 439.3,318.5 433.1,322.4 428.1,330 428.1,337.2 
		434.9,339 443,337.5 451.7,333.8 452.6,341.4 457.9,350.4 463.3,354.3 466.9,352 471.7,343.4 471.5,335.1 476.5,333.9 485.8,328.1 
		488.4,319.5 482.8,318.1 473.2,318.1 472.4,312.9 473.7,303.5 471.4,296 462.1,300.2 453.8,310.9 451.2,304.4 	"/>
        <path id="XMLID_67_" class="st5" d="M443.2,319.1c0,0-10.7,9.3-8.3,19.9l-6.8-1.8V327l7.5-6.2L443.2,319.1z"/>
        <path id="XMLID_66_" class="st5" d="M436.9,302.7c0,0,7-2.9,15.7,14.6l1.5-10.6l-7.2-9.2l-5.3-2.5L436.9,302.7z"/>
        <path id="XMLID_65_" class="st5" d="M467.7,321.1c0,0,2.3-15-1.5-22.7l5.5-1.3l2,6.5l-1.3,9.4L467.7,321.1z"/>
        <path id="XMLID_64_" class="st5"
              d="M468.5,331.2c0,0,11.9-4.7,11.9-12.1l8.8,2l-3.3,7.1l-7,5.1l-5.1,1.3L468.5,331.2z"/>
        <path id="XMLID_63_" class="st5" d="M457.9,350.4c0,0,9.4-6.3,11.7-17.2l2.1,10.2l-3.2,5.8l-5.1,5L457.9,350.4z"/>
        <circle id="XMLID_62_" class="st6" cx="456.7" cy="324.4" r="5.1"/>
        <g id="XMLID_31_">
		<path id="XMLID_183_" class="st7" d="M463.4,356.9l-1-0.4c-4.6-2-12.6-8.5-12.7-19.3c-12.1,7.4-22.1,1.2-22.6,1l-0.9-0.6l-0.2-1
			c-1.9-10.2,5-16.6,10.6-19.5c-6.4-10.5-0.8-20,3.4-23.8l1.4-1.3l1.6,1.1c6.2,4.5,9.4,8.6,11.1,11.5c2.8-3.7,8.1-8.8,16.7-11
			l1.4-0.3l1,1.1c0.3,0.3,5.8,6.7,1.1,20.8c3.4-0.3,8.6,0,15.9,2.5l1.8,0.6l-0.2,1.9c-0.7,5.6-5.3,15.6-17.6,16.4
			c0.9,6.2-0.4,15.6-9.8,19.9L463.4,356.9z M451.1,331.2c0.6,0,1.2,0.2,1.7,0.5c1.2,0.7,1.9,2,1.7,3.4c-1.1,10,6.1,15,8.8,16.5
			c8.9-4.9,5.7-16.2,5.6-16.7l-1-3.2l3.4,0.2c10.6,0.6,14.1-6.7,15.2-10.4c-10.5-3.1-15-0.9-15.1-0.8l-6.3,3.6l3-6.6
			c4.6-10.5,3.2-16.4,2.1-18.8c-10.3,3.4-14.4,12-14.5,12.1l-3.7,8.1l-0.8-8.9c0,0-0.8-5-9.3-11.8c-2.3,3-6.3,10,0.2,18.4l2.1,2.7
			l-3.2,1.1c-0.5,0.2-11.6,4-10.5,14.2c2.5,1.2,9.9,3.6,18.4-2.7C449.6,331.4,450.3,331.2,451.1,331.2z"/>
	</g>
</g>
    <g id="Balloon">
	<polygon id="XMLID_102_" class="st8" points="120.9,165 115.8,165.9 106.4,170.4 101.1,181.1 97.7,196.8 99.4,211.3 102.9,219.9 
		111.2,228.3 119.3,232.2 113.6,238.2 111.2,243 113.2,246.3 117.8,247.7 126.9,245.9 121.8,232.2 131.8,228.3 139.7,218.4 
		144.1,203.2 140.6,180.9 133.5,170.4 128.1,166.7 	"/>
        <path id="XMLID_84_" class="st9" d="M128.1,166.7c0,0-15.7,29.2-4.4,64.8l-10.1-0.9l-10.6-10.6l-4.6-13.5l-0.6-14.6l5.5-14.9
		l6.7-7.8l9.7-4L128.1,166.7z"/>
        <polygon id="XMLID_83_" class="st10" points="119.6,234.3 117.8,247.7 111.2,244.7 111.8,241 119.3,232.2 	"/>
        <g id="XMLID_14_">
		<path id="XMLID_193_" class="st7" d="M120.9,234.6c-14.1,0-25.6-16.1-25.6-36c0-19.8,11.5-36,25.6-36s25.6,16.1,25.6,36
			C146.5,218.5,135,234.6,120.9,234.6z M120.9,167.4c-11.5,0-20.8,14-20.8,31.2s9.3,31.2,20.8,31.2s20.8-14,20.8-31.2
			S132.4,167.4,120.9,167.4z"/>
	</g>
        <g id="XMLID_13_">
		<path id="XMLID_189_" class="st7" d="M118.8,250c-4.4,0-7.7-1.6-9.3-4.1c-3.2-5,4.7-12.5,8.2-15.6c0.8-0.7,1.8-0.7,2.7-0.3
			c0.2-0.1,0.3-0.2,0.5-0.2c1.3-0.4,2.6,0.3,3,1.6c2.4,7.9,6,12.3,6,12.3l2,2.4l-2.8,1.3C125.3,249.3,121.8,250,118.8,250z
			 M119.9,234.8c-4,3.6-6.7,7.6-6.4,8.6c0.8,1.3,4.6,2.9,10.9,0.8C123.1,242.3,121.4,239.1,119.9,234.8z"/>
	</g>
        <g id="XMLID_12_">
		<path id="XMLID_188_" class="st7" d="M173.6,341.4c-1,0-2-0.7-2.3-1.7c-0.1-0.2-6.8-22.9-30.8-48.2
			c-25.3-26.6-23.3-43.4-23.2-44.1c0.2-1.3,1.4-2.2,2.7-2c1.3,0.2,2.2,1.4,2,2.7c0,0.3-1.4,15.6,22,40.2
			c24.9,26.2,31.7,49.2,31.9,50.2c0.4,1.3-0.4,2.6-1.6,2.9C174,341.3,173.8,341.4,173.6,341.4z"/>
	</g>
        <g id="XMLID_11_">
		<path id="XMLID_187_" class="st7" d="M108.1,195.3C108.1,195.3,108.1,195.3,108.1,195.3c-0.9,0-1.5-0.7-1.5-1.6
			c0.7-13.9,13-21.5,13.5-21.8c0.7-0.4,1.6-0.2,2.1,0.5c0.4,0.7,0.2,1.6-0.5,2.1c-0.1,0.1-11.5,7.1-12,19.3
			C109.6,194.7,108.9,195.3,108.1,195.3z"/>
	</g>
        <g id="XMLID_10_">
		<path id="XMLID_186_" class="st7" d="M109.9,209.2c-0.5,0-1-0.2-1.3-0.7c-2.5-3.9-2-9.7-2-10c0.1-0.8,0.8-1.4,1.6-1.4
			c0.8,0.1,1.4,0.8,1.4,1.6c0,0.1-0.4,5.1,1.5,8.1c0.5,0.7,0.2,1.6-0.5,2.1C110.4,209.1,110.2,209.2,109.9,209.2z"/>
	</g>
</g>
    <g id="Stars">
	<polygon id="XMLID_101_" class="st4" points="454.8,366.7 447.8,368.5 445.5,372.7 447.2,378.8 452.6,380 458.1,378.8 459.9,372.7 
			"/>
        <polygon id="XMLID_100_" class="st8"
                 points="464.2,420.5 459.9,423.6 460.7,430.1 465.5,431.4 469.6,428.1 469.6,423.6 	"/>
        <polygon id="XMLID_99_" class="st8" points="149.8,443.4 141,447.1 139.4,452.1 144.1,459.8 149.8,461.5 156.8,457.2 156.6,450.2
		"/>
        <path id="XMLID_61_" class="st5" d="M445.9,371.3c0,0,9.4,1,10.9,7.5l3.1-6.1l-3.1-5.9h-7.4L445.9,371.3z"/>
        <path id="XMLID_60_" class="st11" d="M144.1,444.4c0,0-0.1,11.1,8.9,14.6l-8.9,0.8l-4-4.3V450L144.1,444.4z"/>
        <g id="XMLID_17_">
		<path id="XMLID_202_" class="st7" d="M148.1,463.2c-6.1,0-11.1-5-11.1-11.1s5-11.1,11.1-11.1s11.1,5,11.1,11.1
			S154.2,463.2,148.1,463.2z M148.1,445.8c-3.5,0-6.3,2.8-6.3,6.3s2.8,6.3,6.3,6.3s6.3-2.8,6.3-6.3S151.6,445.8,148.1,445.8z"/>
	</g>
        <g id="XMLID_16_">
		<path id="XMLID_199_" class="st7" d="M464.2,433.8c-4.3,0-7.8-3.5-7.8-7.8c0-4.3,3.5-7.8,7.8-7.8c4.3,0,7.8,3.5,7.8,7.8
			C472,430.3,468.5,433.8,464.2,433.8z M464.2,422.9c-1.7,0-3.1,1.4-3.1,3.1s1.4,3.1,3.1,3.1s3.1-1.4,3.1-3.1
			S465.9,422.9,464.2,422.9z"/>
	</g>
        <g id="XMLID_15_">
		<path id="XMLID_196_" class="st7" d="M452.6,383.6c-5.3,0-9.6-4.3-9.6-9.6c0-5.3,4.3-9.6,9.6-9.6c5.3,0,9.6,4.3,9.6,9.6
			C462.2,379.3,457.9,383.6,452.6,383.6z M452.6,369.1c-2.7,0-4.9,2.2-4.9,4.9c0,2.7,2.2,4.9,4.9,4.9s4.9-2.2,4.9-4.9
			C457.5,371.3,455.3,369.1,452.6,369.1z"/>
	</g>
</g>
    <g id="Neck">
	<path id="XMLID_107_" class="st12" d="M280.7,356.3v34.1c0,0,26.1,13.8,46.6,0v-34.1H280.7z"/>
        <path id="XMLID_106_" class="st13" d="M259.9,381.9l13.9-7.9l5.9-1.3l1,17.8l11.4,4.5l20.8,1.6l14.4-6.1l1.7-16.9l3.6,0.5
		c0,0,8.9,3.4,9.5,3.8s6.8,5.7,6.8,5.7l-6.4,7.6l-2.8,8.2l-1.8,3.8h-68l-2.7-11.1l-6.8-7.4L259.9,381.9z"/>
        <path id="XMLID_96_" class="st14" d="M280.7,366.7c0,0,21.5,20.1,46.6,0v-10.4h-46.6V366.7z"/>
        <g id="XMLID_28_">
		<path id="XMLID_90_" class="st7" d="M304.9,399.1c-14.1,0-24.7-6.2-25.4-6.6l-1.2-0.7v-34.5c0-1.3,1.1-2.4,2.4-2.4
			s2.4,1.1,2.4,2.4V389c4.8,2.4,23.4,10.5,41.9,0.1v-31.8c0-1.3,1.1-2.4,2.4-2.4s2.4,1.1,2.4,2.4v34.5l-1.1,0.7
			C320.4,397.4,312.2,399.1,304.9,399.1z"/>
	</g>
        <g id="XMLID_25_">
		<path id="XMLID_92_" class="st7" d="M259.9,386.5c-0.4,0-0.7-0.1-1.1-0.3c-1.2-0.6-1.6-2-1-3.2c0.2-0.5,6-11.6,22.9-12
			c1.3,0,2.4,1,2.4,2.3s-1,2.4-2.3,2.4c-13.9,0.3-18.6,9-18.7,9.4C261.6,386,260.8,386.5,259.9,386.5z"/>
	</g>
        <g id="XMLID_20_">
		<path id="XMLID_91_" class="st7" d="M348.2,386.5c-0.9,0-1.7-0.5-2.1-1.3c-0.2-0.4-4.9-9-18.7-9.4c-1.3,0-2.4-1.1-2.3-2.4
			c0-1.3,1.1-2.4,2.4-2.3c16.8,0.4,22.6,11.5,22.9,12c0.6,1.2,0.1,2.6-1,3.2C348.9,386.4,348.6,386.5,348.2,386.5z"/>
	</g>
</g>
    <g id="Letter_1_">
	<polygon id="XMLID_105_" class="st15" points="182.2,404.2 182.2,584.4 431.5,584.4 431.5,403 	"/>
        <path id="XMLID_79_" class="st16"
              d="M270.3,404.2c0,0-33,87.3,81.9,122.3l-43.8,24.8l-48.4,33.1h-79.5V403L270.3,404.2z"/>
        <path id="XMLID_76_" class="st17" d="M235.2,414.8c0,0,183,2.7,197,46l-0.7-57.7l-196.2,1.3L235.2,414.8z"/>
        <g id="XMLID_30_">
		<path id="XMLID_36_" class="st7" d="M433.9,586.8H178.1V400.7h255.8V586.8z M182.9,582h246.3V405.4H182.9V582z"/>
	</g>
        <g id="XMLID_48_">
		<path id="XMLID_50_" class="st7" d="M382,494.6H231c-1.3,0-2.4-1.1-2.4-2.4s1.1-2.4,2.4-2.4h151c1.3,0,2.4,1.1,2.4,2.4
			S383.3,494.6,382,494.6z"/>
	</g>
        <g id="XMLID_47_">
		<path id="XMLID_49_" class="st7" d="M382,512.9H231c-1.3,0-2.4-1.1-2.4-2.4s1.1-2.4,2.4-2.4h151c1.3,0,2.4,1.1,2.4,2.4
			S383.3,512.9,382,512.9z"/>
	</g>
        <g id="XMLID_35_">
		<path id="XMLID_46_" class="st7" d="M382,529.8H231c-1.3,0-2.4-1.1-2.4-2.4s1.1-2.4,2.4-2.4h151c1.3,0,2.4,1.1,2.4,2.4
			S383.3,529.8,382,529.8z"/>
	</g>
        <g id="XMLID_33_">
		<path id="XMLID_42_" class="st7" d="M382,548.1H231c-1.3,0-2.4-1.1-2.4-2.4s1.1-2.4,2.4-2.4h151c1.3,0,2.4,1.1,2.4,2.4
			S383.3,548.1,382,548.1z"/>
	</g>
        <g id="XMLID_192_">
		<path id="XMLID_43_" class="st18" d="M308.2,455.3h-0.2c-1.5,4.9-4.4,7.3-8.8,7.3c-2.8,0-5.1-1-6.8-3.1c-1.7-2.1-2.6-4.8-2.6-8.3
			c0-4.2,1-7.7,2.9-10.6c1.6-2.4,4-4.2,6.8-5c2.8-0.8,5.2-0.6,7.1,0.6c1.2,0.8,1.9,1.7,2.2,2.9h0.1c0-0.4,0.1-1.1,0.2-2
			c0.1-0.8,0.8-1.5,1.6-1.5h0.4c1,0,1.9,0.9,1.8,1.9c-0.9,10-1.3,15.1-1.3,15.3c0,4.2,1.2,6.4,3.7,6.4c2.2,0,4-1.2,5.5-3.6
			c1.5-2.4,2.2-5.5,2.2-9.3c0-5.6-1.8-10.2-5.3-13.8c-3.6-3.6-8.5-5.3-14.8-5.3c-6.1,0-11.1,2.1-15.1,6.4c-4,4.3-6,9.6-6,16
			c0,6.3,1.9,11.4,5.7,15.2c3.8,3.9,8.9,5.8,15.3,5.8c4.2,0,7.9-0.6,11.1-1.7c0.9-0.3,1.9,0.4,1.9,1.4v0c0,1-0.6,1.9-1.6,2.3
			c-3.3,1.1-7.2,1.7-11.7,1.7c-7.4,0-13.4-2.2-18-6.7c-4.6-4.5-6.8-10.4-6.8-17.6c0-7.5,2.4-13.7,7.2-18.6
			c4.8-4.9,10.9-7.4,18.3-7.4c7,0,12.7,2.1,17.3,6.2c4.6,4.1,6.8,9.5,6.8,16.2c0,4.9-1.2,8.9-3.6,12c-2.4,3.1-5.3,4.7-8.8,4.7
			C310.5,462.6,308.3,460.2,308.2,455.3z M302.7,438.6c-2.5,0-4.6,1.2-6.2,3.6s-2.3,5.4-2.3,9c0,2.4,0.5,4.3,1.6,5.7
			c1.1,1.4,2.5,2.1,4.2,2.1c2.5,0,4.5-1.3,6-3.8c1.5-2.5,2.2-5.9,2.2-10.1C308.3,440.8,306.4,438.6,302.7,438.6z"/>
	</g>
        <g id="XMLID_41_">
		<path id="XMLID_40_" class="st7" d="M382,463.9h-33c-1.3,0-2.4-1.1-2.4-2.4s1.1-2.4,2.4-2.4h33c1.3,0,2.4,1.1,2.4,2.4
			S383.3,463.9,382,463.9z"/>
	</g>
</g>
    <g id="Envelope">
	<polyline id="XMLID_104_" class="st19" points="304.4,550.3 171.9,479.3 166.7,484.7 166.7,608.4 166.7,616.5 170.7,623.7 
		180.5,632.2 424.2,632.2 434.4,628.6 442.4,622.2 445.1,614.8 445.1,483.8 439.6,480 	"/>
        <polygon id="XMLID_73_" class="st20" points="188,612.3 282.7,537.8 304.4,550.3 	"/>
        <polygon id="XMLID_72_" class="st20" points="423.2,612.3 328.5,537.8 306.8,550.3 	"/>
        <path id="XMLID_71_" class="st21" d="M178.6,480.7v131.6c0,0-2.5,19.9,22.5,19.9h-13.8h-6.8l-9.8-8.5l-4-7.3v-99.1v-32.7l5.3-5.3
		L178.6,480.7z"/>
        <polygon id="XMLID_70_" class="st21" points="345.7,551.3 445.1,483.8 434.4,480.7 328.5,537.8 	"/>
        <path id="XMLID_69_" class="st21" d="M424.9,497.5c0,0,9.5-1.8,9.5,13s0.8,69.4,8.3,101.8l3.2-5.2V495.2l-0.8-11.4h-10.6
		L424.9,497.5z"/>
        <path id="XMLID_68_" class="st20" d="M210.9,632.2c0,0,215.7-3.3,234.1-17.4l-2.7,7.4l-10.8,10h-16.1H210.9z"/>
        <g id="XMLID_55_">
		<path id="XMLID_3_" class="st7" d="M424.7,634.6H187.3c-12.7,0-23-10.3-23-23V483.7l7.2-7.3L307,547.9l132.9-70.8l7.8,6.4v128
			C447.7,624.3,437.4,634.6,424.7,634.6z M169,485.6v125.9c0,10.1,8.2,18.3,18.3,18.3h237.4c10.1,0,18.3-8.2,18.3-18.3V485.8l-3.6-3
			l-127.2,67.8l120,63.3c1.2,0.6,1.6,2.1,1,3.2c-0.6,1.2-2.1,1.6-3.2,1L307,553.3l-119,63.4c-1.2,0.6-2.6,0.2-3.2-1
			c-0.6-1.2-0.2-2.6,1-3.2l116.2-61.9l-129.5-68.4L169,485.6z"/>
	</g>
        <g id="XMLID_54_">
		<path id="XMLID_29_" class="st7" d="M337.7,622.2H215.5c-0.8,0-1.5-0.7-1.5-1.5s0.7-1.5,1.5-1.5h122.2c0.8,0,1.5,0.7,1.5,1.5
			S338.5,622.2,337.7,622.2z"/>
	</g>
        <g id="XMLID_53_">
		<path id="XMLID_8_" class="st7" d="M354.9,622.2H343c-0.8,0-1.5-0.7-1.5-1.5s0.7-1.5,1.5-1.5h11.9c0.8,0,1.5,0.7,1.5,1.5
			S355.7,622.2,354.9,622.2z"/>
	</g>
        <g id="XMLID_52_">
		<path id="XMLID_7_" class="st7" d="M178.6,510c-0.8,0-1.5-0.7-1.5-1.5v-11c0-0.8,0.7-1.5,1.5-1.5s1.5,0.7,1.5,1.5v11
			C180.1,509.3,179.4,510,178.6,510z"/>
	</g>
        <g id="XMLID_51_">
		<path id="XMLID_6_" class="st7" d="M178.6,557.3c-0.8,0-1.5-0.7-1.5-1.5v-38.4c0-0.8,0.7-1.5,1.5-1.5s1.5,0.7,1.5,1.5v38.4
			C180.1,556.6,179.4,557.3,178.6,557.3z"/>
	</g>
</g>
    <g id="Left_Hand">
	<path id="XMLID_78_" class="st12" d="M256,403c0,0-8.1-12.5-18.8-13.2c0,0-7.8-5.5-22.3-5.7c0,0-13.8,0.1-18.5,14
		s9.2,23.6,9.2,23.6l5.3,4.3l8,1.7l6.8,2.4l9.3-5l0.3-20.8L256,403z"/>
        <path id="XMLID_77_" class="st22" d="M208.9,382.6l8.3-5.6l11.9-4.3l11.4,2.1l19.4,7.1l3.5,5.9l4.9,12.8l-13.2,0l-4.7-5.7
		l-16.8-5.1c0,0-5.4-6.8-27.7-3.3L208.9,382.6z"/>
        <g id="XMLID_27_">
		<path id="XMLID_56_" class="st7" d="M222.7,430.4c-7.3,0-12.8-3.6-14.3-4.7c-15.5-5.5-14.4-26.8-14.3-27.7l0-0.5l0.2-0.4
			c9.5-19.9,29-14.7,29.2-14.6c1.3,0.4,2,1.7,1.6,2.9c-0.4,1.3-1.7,2-2.9,1.7c-0.6-0.2-15.6-4.1-23.4,11.7
			c-0.1,2.9,0.2,18.9,11.5,22.6l0.4,0.1l0.3,0.3c0.4,0.3,10.5,8.3,21.8,0.6v-21.7H252c-2.6-3.9-8.1-9.8-18-8.5
			c-1.3,0.2-2.5-0.7-2.7-2c-0.2-1.3,0.7-2.5,2-2.7c14.4-2,22.6,8.7,24.8,14.7l1.2,3.2h-21.9v19.3l-0.9,0.7
			C231.7,429.2,226.9,430.4,222.7,430.4z"/>
	</g>
        <g id="XMLID_26_">
		<path id="XMLID_22_" class="st7" d="M268.7,405.4c-0.1,0-0.2,0-0.3,0c-1.3-0.1-2.3-1.3-2.1-2.6c0.1-0.7,1.5-17.9-24.3-25.2
			c-25.9-7.3-34.1,10.5-34.1,10.7c-0.5,1.2-1.9,1.8-3.1,1.2c-1.2-0.5-1.8-1.9-1.2-3.1c0.1-0.2,9.9-21.7,39.8-13.4
			c29.8,8.4,27.8,30.1,27.8,30.3C270.9,404.5,269.9,405.4,268.7,405.4z"/>
	</g>
        <g id="XMLID_24_">
		<path id="XMLID_21_" class="st7" d="M226.2,430.1c-1.1,0-2.1-0.8-2.3-2l-2.1-12.1c-0.2-1.3,0.7-2.5,1.9-2.7
			c1.3-0.2,2.5,0.7,2.7,1.9l2.1,12.1c0.2,1.3-0.7,2.5-1.9,2.7C226.4,430.1,226.3,430.1,226.2,430.1z"/>
	</g>
        <g id="XMLID_23_">
		<path id="XMLID_19_" class="st7" d="M214.9,427.5c-1,0-1.9-0.6-2.3-1.6l-3.9-12.2c-0.4-1.3,0.3-2.6,1.5-3c1.2-0.4,2.6,0.3,3,1.5
			l3.9,12.2c0.4,1.3-0.3,2.6-1.5,3C215.3,427.5,215.1,427.5,214.9,427.5z"/>
	</g>
</g>
    <g id="Right_Hand_1_">
	<path id="XMLID_93_" class="st12" d="M351.9,403c0,0,8.1-12.5,18.8-13.2c0,0,7.8-5.5,22.3-5.7c0,0,13.8,0.1,18.5,14
		s-9.2,23.6-9.2,23.6L397,426l-8,1.7l-6.8,2.4l-9.3-5l-0.3-20.8L351.9,403z"/>
        <path id="XMLID_89_" class="st22" d="M399.1,382.6l-8.3-5.6l-11.9-4.3l-11.4,2.1l-19.4,7.1l-3.5,5.9l-4.9,12.8l13.2,0l4.7-5.7
		l16.8-5.1c0,0,5.4-6.8,27.7-3.3L399.1,382.6z"/>
        <g id="XMLID_87_">
		<path id="XMLID_88_" class="st7" d="M385.2,430.4c7.3,0,12.8-3.6,14.3-4.7c15.5-5.5,14.4-26.8,14.3-27.7l0-0.5l-0.2-0.4
			c-9.5-19.9-29-14.7-29.2-14.6c-1.3,0.4-2,1.7-1.6,2.9c0.4,1.3,1.7,2,2.9,1.7c0.6-0.2,15.6-4.1,23.4,11.7
			c0.1,2.9-0.2,18.9-11.5,22.6l-0.4,0.1l-0.3,0.3c-0.4,0.3-10.5,8.3-21.8,0.6v-21.7h-19.2c2.6-3.9,8.1-9.8,18-8.5
			c1.3,0.2,2.5-0.7,2.7-2c0.2-1.3-0.7-2.5-2-2.7c-14.4-2-22.6,8.7-24.8,14.7l-1.2,3.2h21.9v19.3l0.9,0.7
			C376.2,429.2,381,430.4,385.2,430.4z"/>
	</g>
        <g id="XMLID_85_">
		<path id="XMLID_86_" class="st7" d="M339.2,405.4c0.1,0,0.2,0,0.3,0c1.3-0.1,2.3-1.3,2.1-2.6c-0.1-0.7-1.5-17.9,24.3-25.2
			c25.9-7.3,34.1,10.5,34.1,10.7c0.5,1.2,1.9,1.8,3.1,1.2c1.2-0.5,1.8-1.9,1.2-3.1c-0.1-0.2-9.9-21.7-39.8-13.4
			c-29.8,8.4-27.8,30.1-27.8,30.3C337,404.5,338,405.4,339.2,405.4z"/>
	</g>
        <g id="XMLID_81_">
		<path id="XMLID_82_" class="st7" d="M381.7,430.1c1.1,0,2.1-0.8,2.3-2l2.1-12.1c0.2-1.3-0.7-2.5-1.9-2.7c-1.3-0.2-2.5,0.7-2.7,1.9
			l-2.1,12.1c-0.2,1.3,0.7,2.5,1.9,2.7C381.5,430.1,381.6,430.1,381.7,430.1z"/>
	</g>
        <g id="XMLID_75_">
		<path id="XMLID_80_" class="st7" d="M393,427.5c1,0,1.9-0.6,2.3-1.6l3.9-12.2c0.4-1.3-0.3-2.6-1.5-3c-1.2-0.4-2.6,0.3-3,1.5
			l-3.9,12.2c-0.4,1.3,0.3,2.6,1.5,3C392.6,427.5,392.8,427.5,393,427.5z"/>
	</g>
</g>
    <g id="Head">
	<polygon id="XMLID_178_" class="st12" points="198.2,265.6 198.2,272.2 189.8,274.5 181.2,281.3 181.4,289.1 184.7,303.3 
		198.2,306 198.2,322.7 206.8,342.3 220.9,355.1 235.1,359.8 255.8,359.8 360.8,359.8 377.8,357.7 394.5,342.3 399,332.2 
		403.1,309.7 410.6,306 418.4,296.1 418.3,284.8 411.5,275.9 403.1,272.2 377.8,266.8 339.2,249.9 294.7,225.6 272.4,212 267,221.7 
		259.4,228.6 246.7,232.2 230.2,227.5 224.3,244.4 219.1,253.7 206.8,264.6 	"/>
        <path id="XMLID_177_" class="st23" d="M197.5,266.3l12.6-4.5l15.4-20.8l4.7-13.6l18.6,5.9l8.9-1.4l9.3-10.3l5.4-9.7l43.6,25.2
		l65.3,31.1l11.3,1.7l15.2,1.8l12.3-7.3l7.4-17.9l-0.5-29.7l-9.5-25.1c0,0-4.4-7.4-6.5-7.7c-2.1-0.3-14.3-8.3-14.3-8.3l-9.2,0.8
		l-6.6,3.8l-6.1,7.9l-4.5,3.7l-8.7-0.5l-7.7-2.9c0,0-6.7-8.1-7.8-8.7c-1-0.6-14.4-3.4-14.4-3.4l-11.3,8.1l-23.7-10.9L267,169
		l-20.3-1.1l-26.3,4.7l-22.3,11.2l-12.2,20l-4.6,18.3l0.4,17.7l8,18.1L197.5,266.3z"/>
        <path id="XMLID_176_" class="st14" d="M198.2,323.9c0,0,13.2,24.2,42.5,24.2s62.7,0,62.7,0v11.7h-69l-13.9-3.6l-11.2-7.9l-6.8-9.2
		L198.2,323.9z"/>
        <path id="XMLID_175_" class="st14" d="M401.6,323.9c0,0-13.2,24.2-42.5,24.2c-29.3,0-62.7,0-62.7,0v11.7h69l13.9-3.6l11.2-7.9
		l6.8-9.2L401.6,323.9z"/>
        <path id="XMLID_174_" class="st24" d="M299.9,315.9v-44.1c0,0,12,15.3,12.8,32.2l-4,9.4l-6.9,3.2"/>
        <path id="XMLID_173_" class="st14"
              d="M197.5,278.7c0,0,35.2-6.7,32.1-49.5l-5.3,15.2l-9.1,14.2l-8.3,6l-8.7,1L197.5,278.7z"/>
        <path id="XMLID_172_" class="st14" d="M229.8,238.7c0,0,30.4,10.9,43.5-23.2h-2.8l-8.7,13.7l-13,4.2l-19.2-4.2l-2.6,7.4
		L229.8,238.7z"/>
        <path id="XMLID_170_" class="st14"
              d="M265.4,223.5c0,0,66,50.8,134.9,49.4l-37.6-10.2l-38.4-21l-35-18.3L272.4,212L265.4,223.5z"
        />
        <ellipse id="XMLID_169_" class="st24" cx="352.5" cy="300.4" rx="11.9" ry="6.2"/>
        <ellipse id="XMLID_168_" class="st24" cx="246" cy="300.4" rx="11.9" ry="6.2"/>
        <path id="XMLID_167_" class="st25" d="M188,254c0,0,22.2-0.2,40.1-26l-7,22.3l-11,11.6l-11.8,3.8L188,254z"/>
        <path id="XMLID_166_" class="st25"
              d="M228.1,226.3c0,0,25.7,6.8,41.7-14.2l-2.8,9.7l-9.3,10.3l-14.9,1.8l-13.2-4.5L228.1,226.3z"
        />
        <path id="XMLID_164_" class="st25" d="M324.3,241.8c0,0,76.8,36.8,101.9,7.8l-6.3,14.9l-6.8,7.3l-19.2-0.5l-21.5-4.9l-26.5-12
		L324.3,241.8z"/>
        <path id="XMLID_163_" class="st26" d="M181.7,237c0,0-3.6-57,73.2-58.8c0,0,43.7,10.7,55.5,1.4c0,0-55.7-24.4-96.7-4
		C213.6,175.7,173.2,192.3,181.7,237z"/>
        <path id="XMLID_162_" class="st26"
              d="M299.8,217.6c0,0,75.5,38.1,102.6,33.9C402.4,251.5,390,274.5,299.8,217.6z"/>
        <g id="XMLID_37_">
		<g id="XMLID_157_">
			<path id="XMLID_171_" class="st7" d="M402,275.5c-33,0-113.3-49.1-129.1-59c-2.2,4.6-7.3,13.3-16.8,17.2
				c-7.4,3-15.7,2.4-24.9-1.8c-2.8,10-13.2,40.2-34.1,37l-0.8-0.1l-0.6-0.6c-0.3-0.3-8.5-8.2-13.7-21.2c-4.8-12-7.7-30.9,5.4-52.2
				c8.8-14.2,23.4-23.4,43.6-27.2c32.8-6.3,72,3.5,88.1,13.9c2.1-2.5,6.4-6.3,12.7-7c7.8-0.9,16.2,3.3,24.9,12.3
				c0.5,0.5,5.4,4.6,10.2,3.8c2.5-0.4,4.8-2.2,6.6-5.4c3.9-6.8,10.5-11,18.1-11.4c9.6-0.5,19.4,4.9,26.7,14.9
				c10,13.6,17,51.3,6.8,72c-4.7,9.5-12.5,14.5-22.7,14.7C402.3,275.5,402.1,275.5,402,275.5z M270.2,208.8l2.8,1.8
				c0.9,0.6,94.5,59.8,128.9,59.8c0.2,0,0.3,0,0.4,0c8.2-0.1,14.3-4.1,18.1-11.8c9.3-18.8,2.8-54.4-6.3-66.7
				c-6.3-8.6-14.4-13.3-22.3-12.8c-5.9,0.3-10.8,3.5-13.9,8.9c-2.7,4.6-6.1,7.3-10.3,7.9c-7.5,1.2-14.2-4.9-14.5-5.2l-0.1-0.1
				c-7.5-7.9-14.5-11.5-20.6-10.9c-6.8,0.7-10.5,6.6-10.6,6.7l-1.5,2.4l-2.3-1.7c-13.5-10-53.7-20.6-86.2-14.4
				c-18.7,3.6-32.2,11.9-40.2,24.9l-2.2-1.4l2.2,1.4c-21.2,34.4,2.8,62.1,6.9,66.4c19.3,1.9,28.2-35.9,28.3-36.3l0.8-3.2l3,1.6
				c8.9,4.7,16.8,5.7,23.4,3c10.8-4.3,15.1-16.9,15.1-17L270.2,208.8z"/>
		</g>
            <g id="XMLID_156_">
			<path id="XMLID_165_" class="st7" d="M197.5,309.2c-10.7,0-19.4-8.7-19.4-19.4s8.7-19.4,19.4-19.4c1.4,0,2.6,1.2,2.6,2.6
				s-1.2,2.6-2.6,2.6c-7.9,0-14.2,6.4-14.2,14.3s6.4,14.3,14.2,14.3c1.4,0,2.6,1.2,2.6,2.6S198.9,309.2,197.5,309.2z"/>
		</g>
            <g id="XMLID_155_">
			<path id="XMLID_160_" class="st7" d="M189.6,291.4c-0.1,0-0.1,0-0.2,0c-0.9-0.1-1.5-0.9-1.5-1.8c0.7-6.9,6.3-9.6,9.2-10
				c0.9-0.1,1.7,0.5,1.9,1.3c0.1,0.9-0.5,1.7-1.3,1.9c-0.2,0-5.9,1.1-6.5,7.1C191.2,290.8,190.5,291.4,189.6,291.4z"/>
		</g>
	</g>
        <g id="XMLID_34_">
		<g id="XMLID_154_">
			<path id="XMLID_182_" class="st7" d="M402.4,309.2c-1.4,0-2.6-1.2-2.6-2.6s1.2-2.6,2.6-2.6c7.9,0,14.2-6.4,14.2-14.3
				s-6.4-14.3-14.2-14.3c-1.4,0-2.6-1.2-2.6-2.6s1.2-2.6,2.6-2.6c10.7,0,19.4,8.7,19.4,19.4S413.1,309.2,402.4,309.2z"/>
		</g>
            <g id="XMLID_153_">
			<path id="XMLID_181_" class="st7" d="M410.2,291.4c-0.8,0-1.5-0.6-1.6-1.5c-0.6-6.1-6.2-7.1-6.5-7.1c-0.9-0.1-1.5-1-1.3-1.9
				c0.1-0.9,1-1.5,1.9-1.3c2.9,0.5,8.5,3.1,9.2,10c0.1,0.9-0.6,1.7-1.5,1.8C410.3,291.4,410.3,291.4,410.2,291.4z"/>
		</g>
	</g>
        <g id="XMLID_151_">
		<path id="XMLID_111_" class="st7" d="M358.9,363.1H241c-25.4,0-46.1-20.7-46.1-46.1v-50.7c0-1.4,1.2-2.6,2.6-2.6s2.6,1.2,2.6,2.6
			V317c0,22.6,18.4,40.9,40.9,40.9h117.9c22.6,0,40.9-18.4,40.9-40.9v-44.1c0-1.4,1.2-2.6,2.6-2.6s2.6,1.2,2.6,2.6V317
			C405,342.4,384.3,363.1,358.9,363.1z"/>
	</g>
        <g id="XMLID_150_">
		<path id="XMLID_110_" class="st7" d="M197.5,202.1c-0.4,0-0.8-0.1-1.1-0.4c-0.7-0.6-0.7-1.6-0.1-2.3c0.3-0.3,26.1-27.8,62.7-21.9
			c0.9,0.1,1.5,1,1.3,1.9s-1,1.5-1.9,1.3c-34.8-5.7-59.5,20.6-59.8,20.8C198.3,201.9,197.9,202.1,197.5,202.1z"/>
	</g>
        <g id="XMLID_149_">
		<path id="XMLID_109_" class="st7" d="M280.5,186.1c-0.1,0-0.3,0-0.4-0.1l-12.1-3.2c-0.9-0.2-1.4-1.1-1.2-2c0.2-0.9,1.1-1.4,2-1.2
			l12.1,3.2c0.9,0.2,1.4,1.1,1.2,2C281.9,185.6,281.2,186.1,280.5,186.1z"/>
	</g>
        <g id="XMLID_148_">
		<path id="XMLID_108_" class="st7" d="M417.1,243.4c0,0-0.1,0-0.1,0c-0.9-0.1-1.6-0.8-1.5-1.7c2.4-34.9-13.8-46.7-14-46.8
			c-0.7-0.5-0.9-1.5-0.4-2.3c0.5-0.7,1.5-0.9,2.3-0.4c0.7,0.5,17.9,12.8,15.4,49.7C418.6,242.7,417.9,243.4,417.1,243.4z"/>
	</g>
        <g id="XMLID_147_">
		<path id="XMLID_98_" class="st7" d="M377.1,256c-0.1,0-0.3,0-0.4-0.1c-30.8-8-77.1-36.6-77.6-36.9c-0.8-0.5-1-1.5-0.5-2.2
			c0.5-0.8,1.5-1,2.2-0.5c0.5,0.3,46.3,28.7,76.7,36.5c0.9,0.2,1.4,1.1,1.2,2C378.4,255.5,377.8,256,377.1,256z"/>
	</g>
</g>
    <g id="Face">
	<g id="XMLID_161_">
		<circle class="st7" cx="340" cy="282" r="9.1"/>
	</g>
        <g id="XMLID_2_">
		<circle class="st7" cx="261.1" cy="282" r="9.1"/>
	</g>
        <g id="XMLID_159_">
		<path id="XMLID_97_" class="st7" d="M299.9,319.4c-8.5,0-15.4-6.9-15.4-15.4c0-1.4,1.2-2.6,2.6-2.6s2.6,1.2,2.6,2.6
			c0,5.6,4.6,10.2,10.2,10.2s10.2-4.6,10.2-10.2c0-1.4,1.2-2.6,2.6-2.6s2.6,1.2,2.6,2.6C315.3,312.5,308.4,319.4,299.9,319.4z"/>
	</g>
        <g id="XMLID_158_">
		<path id="XMLID_95_" class="st7" d="M299.9,335.9c-24.6,0-43.8-9.9-43.8-22.6c0-1.4,1.2-2.6,2.6-2.6s2.6,1.2,2.6,2.6
			c0,9.5,17.7,17.4,38.7,17.4c21,0,38.7-8,38.7-17.4c0-1.4,1.2-2.6,2.6-2.6s2.6,1.2,2.6,2.6C343.7,326,324.5,335.9,299.9,335.9z"/>
	</g>
        <g id="XMLID_32_">
		<g id="XMLID_152_">
			<path id="XMLID_94_" class="st7" d="M236,261.2c-0.1,0-0.2,0-0.4,0c-1.4-0.2-2.4-1.5-2.2-2.9c0-0.2,3.1-20.4,32.8-20.4
				c1.4,0,2.6,1.2,2.6,2.6s-1.2,2.6-2.6,2.6c-25.1,0-27.7,15.3-27.8,15.9C238.3,260.3,237.2,261.2,236,261.2z"/>
		</g>
	</g>
</g>
    <g id="Ground">
	<g id="XMLID_59_">
		<path id="XMLID_236_" class="st7" d="M553.1,634.6h-44.4c-1.3,0-2.4-1.1-2.4-2.4s1.1-2.4,2.4-2.4h44.4c1.3,0,2.4,1.1,2.4,2.4
			S554.5,634.6,553.1,634.6z"/>
	</g>
        <g id="XMLID_58_">
		<path id="XMLID_235_" class="st7" d="M501.5,634.6H136c-1.3,0-2.4-1.1-2.4-2.4s1.1-2.4,2.4-2.4h365.5c1.3,0,2.4,1.1,2.4,2.4
			S502.8,634.6,501.5,634.6z"/>
	</g>
        <g id="XMLID_57_">
		<path id="XMLID_234_" class="st7" d="M111.2,634.6H58.9c-1.3,0-2.4-1.1-2.4-2.4s1.1-2.4,2.4-2.4h52.3c1.3,0,2.4,1.1,2.4,2.4
			S112.5,634.6,111.2,634.6z"/>
	</g>
        <g id="XMLID_9_">
		<path id="XMLID_225_" class="st7" d="M128.9,634.6h-9.5c-1.3,0-2.4-1.1-2.4-2.4s1.1-2.4,2.4-2.4h9.5c1.3,0,2.4,1.1,2.4,2.4
			S130.2,634.6,128.9,634.6z"/>
	</g>
</g>
</svg>
