<svg width="304" height="591" viewBox="0 0 304 591" fill="none" xmlns="http://www.w3.org/2000/svg">
<path d="M152 590.178C235.947 590.178 304 577.642 304 562.178C304 546.714 235.947 534.178 152 534.178C68.0527 534.178 0 546.714 0 562.178C0 577.642 68.0527 590.178 152 590.178Z" fill="#F2F2F2"/>
<path d="M256.389 313.658L229.272 327.339L231.027 330.834L258.143 317.153L256.389 313.658Z" fill="white"/>
<path d="M251.98 288.211L250.762 295.521C250.762 295.521 252.589 346.077 239.189 330.24C225.788 314.403 234.925 293.084 234.925 293.084L238.58 286.993L251.98 288.211Z" fill="#FBBEBE"/>
<path d="M174.013 54.3104C174.013 54.3104 171.577 79.8933 170.359 81.1115C169.14 82.3298 188.632 105.476 188.632 105.476L205.687 89.6392C205.687 89.6392 204.469 66.4928 208.124 61.6198C211.778 56.7469 174.013 54.3104 174.013 54.3104Z" fill="#FBBEBE"/>
<path opacity="0.1" d="M174.013 54.3104C174.013 54.3104 171.577 79.8933 170.359 81.1115C169.14 82.3298 188.632 105.476 188.632 105.476L205.687 89.6392C205.687 89.6392 204.469 66.4928 208.124 61.6198C211.778 56.7469 174.013 54.3104 174.013 54.3104Z" fill="black"/>
<path d="M128.939 520.894V542.822L120.411 544.041L108.229 540.386L111.883 517.239L128.939 520.894Z" fill="#3F3D56"/>
<path d="M117.974 531.858C117.974 531.858 114.32 522.112 108.229 523.33C102.137 524.549 100.919 531.858 100.919 531.858C100.919 531.858 96.0462 550.132 88.7368 556.223C81.4274 562.314 74.118 578.151 88.7368 580.588C103.356 583.024 115.538 576.933 115.538 575.715C115.538 574.496 119.193 567.187 125.284 565.969C131.375 564.75 136.248 563.532 136.248 558.659C136.248 553.786 132.593 548.913 132.593 548.913C132.593 548.913 131.375 525.805 128.939 528.832C127.254 531.223 126.015 533.899 125.284 536.731L117.974 531.858Z" fill="#2F2E41"/>
<path d="M181.323 509.93L176.45 528.203L188.632 530.64L194.723 524.549L195.941 508.712L181.323 509.93Z" fill="#3F3D56"/>
<path d="M180.104 525.767C180.104 525.767 184.977 522.112 187.414 522.112H191.068C191.068 522.112 191.068 513.585 197.16 513.585C203.251 513.585 202.033 519.676 202.033 519.676C202.033 519.676 215.433 540.386 219.088 544.041C222.743 547.695 242.234 558.659 226.397 563.532C210.56 568.405 199.596 568.405 192.287 559.878C192.287 559.878 184.977 556.223 180.104 556.223C175.231 556.223 169.14 553.786 169.14 550.132C169.14 546.477 172.795 539.168 172.795 539.168C172.795 539.168 175.231 517.239 176.45 519.676C177.668 522.112 180.104 525.767 180.104 525.767Z" fill="#2F2E41"/>
<path d="M127.72 229.736V269.938C127.72 269.938 114.32 347.905 114.32 373.488C114.32 399.071 93.6097 520.894 103.356 523.331C113.101 525.767 136.248 529.422 137.466 525.767C138.684 522.112 147.212 406.38 148.43 405.162C149.649 403.944 175.231 307.703 175.231 307.703L180.104 308.921L182.541 418.562C182.541 418.562 170.358 517.239 176.45 517.239C182.541 517.239 208.124 516.021 208.124 508.712C208.124 501.402 221.524 366.178 221.524 366.178C221.524 366.178 237.361 258.974 231.27 248.01C225.179 237.046 225.179 230.954 225.179 230.954L127.72 229.736Z" fill="#2F2E41"/>
<path d="M194.114 73.193C207.57 73.193 218.479 62.2845 218.479 48.8283C218.479 35.3721 207.57 24.4636 194.114 24.4636C180.658 24.4636 169.749 35.3721 169.749 48.8283C169.749 62.2845 180.658 73.193 194.114 73.193Z" fill="#FBBEBE"/>
<path d="M188.632 90.8574C188.632 90.8574 173.404 78.0659 172.186 73.193C172.186 73.193 164.267 81.1115 164.267 82.3297C164.267 83.548 130.157 87.2027 121.629 96.9485C113.102 106.694 105.792 127.404 105.792 127.404L126.502 166.388C126.502 166.388 127.72 188.316 127.72 190.753C127.72 193.189 121.629 232.173 124.066 233.391C126.502 234.609 150.867 246.791 171.577 244.355C192.287 241.918 212.997 238.264 219.088 238.264C225.179 238.264 230.052 240.7 230.052 238.264C230.052 235.827 226.397 230.954 226.397 228.518C226.397 226.081 225.179 219.99 225.179 216.336C225.179 212.681 222.743 206.59 222.743 201.717C222.743 196.844 249.544 131.059 249.544 131.059C249.544 131.059 248.326 110.349 228.834 100.603C209.342 90.8574 206.906 87.2027 206.906 87.2027C206.906 87.2027 206.526 79.8933 205.497 79.8933C204.469 79.8933 200.814 90.8574 191.069 92.0756L188.632 90.8574Z" fill="#D0CDE1"/>
<path d="M122.847 252.883L131.375 266.283L153.303 261.41L137.466 243.137L122.847 252.883Z" fill="#FBBEBE"/>
<path d="M242.234 121.313L249.544 131.059C249.544 131.059 264.163 201.717 261.726 227.3C259.29 252.883 256.853 272.374 256.853 272.374C256.853 272.374 261.726 290.648 258.071 290.648C254.417 290.648 232.488 291.866 232.488 288.211C232.488 284.557 234.925 261.41 234.925 261.41L228.834 207.808L215.433 189.534L242.234 121.313Z" fill="#D0CDE1"/>
<path d="M177.565 36.9996C179.059 36.3666 180.785 36.8801 182.385 36.6101C184.263 36.293 185.944 34.9015 187.84 35.0771C188.739 35.2437 189.612 35.5273 190.438 35.9204C190.852 36.115 191.301 36.2237 191.758 36.2401C192.216 36.2565 192.671 36.1801 193.098 36.0157C193.302 35.9212 193.482 35.7826 193.625 35.6099C193.768 35.4373 193.872 35.2349 193.927 35.0175C193.982 34.8001 193.989 34.573 193.945 34.3528C193.902 34.1327 193.811 33.9249 193.677 33.7445C195.282 33.6031 196.799 32.9502 198.004 31.8818C198.245 31.6323 198.524 31.4231 198.83 31.2622C199.188 31.1689 199.561 31.1501 199.926 31.207C200.291 31.2638 200.64 31.3952 200.953 31.5928L203.74 32.8778C204.368 33.0996 204.921 33.4947 205.333 34.0173C205.665 34.5343 205.73 35.2295 206.199 35.6254C206.799 36.1305 207.694 35.8833 208.477 35.9328C209.187 36.0019 209.847 36.3293 210.331 36.8527C210.816 37.3762 211.092 38.0594 211.106 38.7726C211.095 39.5907 210.798 40.5943 211.445 41.095C211.82 41.3854 212.353 41.3389 212.792 41.5174C213.932 41.98 213.936 43.5662 213.768 44.7844C213.6 46.0026 213.683 47.6097 214.854 47.9847C215.679 48.2488 216.522 47.6858 217.378 47.5603C218.671 47.3708 219.867 48.1793 221.017 48.7978C222.168 49.4164 223.697 49.8336 224.694 48.9899C225.622 48.2048 225.562 46.7684 225.307 45.5799C224.941 43.8759 224.339 42.2312 223.52 40.693C223.216 40.2403 223.038 39.7158 223.001 39.1721C223.071 38.7894 223.221 38.4258 223.441 38.1052C223.661 37.7846 223.947 37.5142 224.279 37.312C225.689 36.1975 227.311 35.0755 227.767 33.3373C228.102 32.0615 227.725 30.7161 227.755 29.3975C227.79 27.793 228.428 26.1953 228.129 24.6185C227.586 21.7604 224.405 20.3848 222.352 18.324C219.531 15.4922 218.615 10.963 215.285 8.75119C212.621 6.98178 209.136 7.19301 206.103 6.18064C202.77 5.06853 200.088 2.51353 196.801 1.27404C195.007 0.612355 193.088 0.355874 191.183 0.522968C189.278 0.690062 187.434 1.2766 185.782 2.24053C184.801 2.96776 183.706 3.52706 182.542 3.89565C181.562 4.00921 180.571 3.99773 179.594 3.86145C177.651 3.76124 175.715 4.1607 173.97 5.02172C173.303 5.28858 172.747 5.77623 172.395 6.40337C171.807 7.71046 172.662 9.75384 171.371 10.3788C170.77 10.6702 170.06 10.3911 169.392 10.4057C168.092 10.4343 167.093 11.5649 166.475 12.708C165.992 13.9166 165.3 15.0303 164.43 15.9978C162.842 17.3888 159.957 17.6187 159.542 19.6887C159.534 20.5651 159.584 21.4411 159.691 22.3111C159.571 24.1456 157.607 25.5397 157.71 27.3753C157.828 29.4926 160.518 30.527 161.237 32.5219C161.785 34.0409 161.064 35.6833 160.568 37.2199C160.073 38.7565 159.923 40.7261 161.203 41.7098C161.706 42.0955 162.351 42.2537 162.863 42.626C164.188 43.5897 164.171 45.5344 164.024 47.166C163.939 47.5047 163.939 47.8591 164.023 48.198C164.107 48.5369 164.272 48.85 164.505 49.11C164.724 49.2425 164.969 49.3268 165.223 49.3572C165.477 49.3877 165.734 49.3637 165.978 49.2868C166.773 49.0939 167.521 48.7405 168.175 48.2483C168.829 47.7561 169.376 47.1355 169.782 46.4245C170.208 45.719 170.294 45.0972 171.069 44.7229C171.595 44.4689 172.234 44.6956 172.769 44.366C175.316 42.798 174.439 38.3245 177.565 36.9996Z" fill="#2F2E41"/>
<path d="M109.447 123.75L105.792 127.404C105.792 127.404 83.8639 193.189 91.1733 207.808C98.4826 222.427 113.101 258.974 117.974 257.755C122.847 256.537 139.903 245.573 139.903 244.355C139.903 243.137 119.193 209.026 119.193 209.026C119.193 209.026 116.756 201.717 117.974 200.498C119.193 199.28 119.193 200.498 117.974 198.062C116.756 195.626 116.756 198.062 119.193 195.626C121.629 193.189 121.629 193.189 121.629 191.971C121.629 190.753 128.939 160.297 128.939 160.297L109.447 123.75Z" fill="#D0CDE1"/>
<path d="M128.329 266.892L155.131 258.365L158.785 266.892L129.548 272.983L128.329 266.892Z" fill="#2F2E41"/>
<path opacity="0.1" d="M128.329 266.892L155.131 258.365L158.785 266.892L129.548 272.983L128.329 266.892Z" fill="black"/>
<path opacity="0.1" d="M164.876 82.939L185.586 99.994L188.023 96.339L164.876 82.939Z" fill="black"/>
<path opacity="0.1" d="M206.296 87.812L191.678 96.339L192.896 99.994L206.296 87.812Z" fill="black"/>
</svg>
