<?xml version="1.0" encoding="utf-8"?>
<!-- Generator: Adobe Illustrator 19.0.0, SVG Export Plug-In . SVG Version: 6.00 Build 0)  -->
<svg version="1.1" id="Layer_1" xmlns="http://www.w3.org/2000/svg" xmlns:xlink="http://www.w3.org/1999/xlink" x="0px" y="0px"
	 viewBox="0 0 612 792" style="enable-background:new 0 0 612 792;" xml:space="preserve">
<style type="text/css">
	.st0{fill:#F5F7F7;}
	.st1{fill:#ECF0F2;}
	.st2{fill:#C4E0EC;}
	.st3{fill:#E2E2E2;}
	.st4{fill:#FFDC97;}
	.st5{fill:#F7C964;}
	.st6{fill:#12426D;}
	.st7{fill:#FFD56C;}
	.st8{fill:#EAB85E;}
	.st9{fill:#CE984E;}
	.st10{fill:#FFD085;}
	.st11{fill:#A37267;}
	.st12{fill:#836080;}
	.st13{fill:#694D68;}
	.st14{fill:#9B789B;}
	.st15{fill:#51636E;}
	.st16{fill:#FFFFFF;}
	.st17{fill:#21AFD6;}
	.st18{fill:#D45F4F;}
	.st19{fill:#F4C3BD;}
	.st20{fill:#F47D6E;}
	.st21{fill:#FDE3E0;}
	.st22{fill:#208899;}
	.st23{fill:#269CB7;}
	.st24{fill:#AD82AF;}
	.st25{fill:#A37162;}
	.st26{fill:#88574C;}
	.st27{fill:#CA9CC7;}
	.st28{fill:#B68276;}
	.st29{fill:#3D4F56;}
	.st30{fill:#687E88;}
</style>
<g id="Background_2">
	<polygon id="XMLID_189_" class="st0" points="446,497.6 446,537.5 449.1,541.7 455.9,545.4 475.9,545.9 486.8,556.8 501,567.5 
		506.3,569.2 509.1,567.8 503,552.7 502.4,545.6 511.1,545.4 518.3,539 520.9,528.1 520.9,509.3 519.8,497.4 513.6,491.4 
		504.9,490.6 456.1,490.6 	"/>
	<path id="XMLID_178_" class="st1" d="M446,511.1c0,0,4.6-11.9,26.1-11.9c21.5,0,48.8,0,48.8,0l-4.8-6.3l-11.3-2.3h-48.8l-7.7,4.7
		l-2.4,5.6V511.1z"/>
	<path id="XMLID_177_" class="st1" d="M490.5,559.5c0,0,13.1,6.8,12-14l6.7,22.2l-2.8,1.5l-11.7-6.6L490.5,559.5z"/>
	<g id="XMLID_170_">
		<path id="XMLID_320_" class="st2" d="M479.8,528.5l-9.6-11.6c-0.9-1-0.7-2.6,0.3-3.4c1-0.9,2.6-0.7,3.4,0.3l5.6,6.8l12.5-16.9
			c0.8-1.1,2.3-1.3,3.4-0.5c1.1,0.8,1.3,2.3,0.5,3.4L479.8,528.5z"/>
	</g>
	<g id="XMLID_166_">
		<path id="XMLID_317_" class="st2" d="M506.8,571.7c-2.3,0-4.8-1.1-6.8-2.1c-10.4-5.1-21.7-18.1-24.7-21.6h-17.4
			c-7.8,0-14.2-6.4-14.2-14.2v-31.4c0-7.8,6.4-14.2,14.2-14.2h51.3c7.8,0,14.2,6.4,14.2,14.2v31.4c0,7.8-6.4,14.2-14.2,14.2h-3.3
			l5.1,14.9c0.4,1,1.9,5.1-0.6,7.5C509.3,571.4,508.1,571.7,506.8,571.7z M457.8,493c-5.2,0-9.3,4.2-9.3,9.3v31.4
			c0,5.2,4.2,9.4,9.3,9.4h19.7l0.7,0.9c0.1,0.2,12.9,15.9,23.8,21.2c2.9,1.4,4.2,1.6,4.7,1.6c0-0.5-0.2-1.4-0.5-2.1l-0.1-0.2
			l-7.3-21.5h10.1c5.2,0,9.4-4.2,9.4-9.4v-31.4c0-5.2-4.2-9.3-9.4-9.3H457.8z"/>
	</g>
	<g id="XMLID_157_">
		<path id="XMLID_316_" class="st2" d="M513.6,514.5c-0.9,0-1.7-0.7-1.7-1.7v-10c0-0.9,0.7-1.7,1.7-1.7s1.7,0.7,1.7,1.7v10
			C515.2,513.8,514.5,514.5,513.6,514.5z"/>
	</g>
	<g id="XMLID_156_">
		<path id="XMLID_315_" class="st2" d="M513.6,526.2c-0.9,0-1.7-0.7-1.7-1.7V518c0-0.9,0.7-1.7,1.7-1.7s1.7,0.7,1.7,1.7v6.6
			C515.2,525.4,514.5,526.2,513.6,526.2z"/>
	</g>
</g>
<g id="Background_1">
	<polygon id="XMLID_188_" class="st1" points="465.1,528.7 398.5,528.7 389.8,534.3 386.4,543.9 386.4,589.5 393.2,597.1 
		407.3,599.7 409.2,602.9 401.7,628.4 404.5,630.2 415.9,625.8 434.5,610.2 443.9,599.7 463,599.7 477.7,596.1 482.6,588.3 
		483.1,560.3 482.5,539.5 477.3,531.9 469,528.7 	"/>
	<polygon id="XMLID_187_" class="st3" points="434.7,542.9 428.6,549.6 427.2,556.6 415.9,549.7 412.3,551 415.5,563.4 421.1,568.2 
		417.9,575.8 418.3,586.3 427.2,582.6 435.4,579.5 448.3,586.3 452,586.3 450.2,574.7 448.3,568.3 452,565.8 456.1,558.8 
		456.1,550.9 448.3,553.1 441.9,556.9 439.3,547.4 	"/>
	<path id="XMLID_186_" class="st3" d="M401.7,625.5c0,0,23-10.2,42.3-28.3l-9.5,13.1l-18.6,17.3l-11.3,2.7L401.7,625.5z"/>
	<path id="XMLID_185_" class="st3" d="M450.2,597.1c0,0,31.9,2.1,32.4-54.2l0.9,28.3v19.6l-10.1,7.7l-10.4,1L450.2,597.1z"/>
	<path id="XMLID_184_" class="st0" d="M386.4,558.8c0,0,10.3-27.5,51.6-30.2h-39.6l-8.6,5.6l-3.4,9.6V558.8z"/>
	<path id="XMLID_183_" class="st0" d="M427.9,560.1c0,0,5.2-12.3,11.7-11.7c6.4,0.6-0.3-0.9-0.3-0.9l-4.6-4.5l-4.5,4.5l-2.3,11.4
		V560.1z"/>
	<path id="XMLID_182_" class="st1" d="M442.4,560.3c0,0,7.3-5.3,13.7-3.7l1.1-5.8h-4.7l-10.6,6.2L442.4,560.3z"/>
	<path id="XMLID_181_" class="st1" d="M427.2,560.3c0,0-7.3-5.3-13.7-3.7l-1.1-5.8h4.7l10.6,6.2L427.2,560.3z"/>
	<path id="XMLID_180_" class="st0" d="M416.8,579.5c0,0,9,1.7,17.4-1.7l-5.2,5.6l-8,2.7l-2.7,0.2L416.8,579.5z"/>
	<path id="XMLID_179_" class="st0" d="M452.6,579.5c0,0-9,1.7-17.4-1.7l5.2,5.6l8,2.7l2.7,0.2L452.6,579.5z"/>
	<g id="XMLID_387_">
		<g id="XMLID_169_">
			<path id="XMLID_310_" class="st2" d="M415.2,588.8l-0.2-2.3c-0.6-8.4,1.5-13.9,3.2-16.9c-8.5-4.9-8.4-18-8.4-18.6l0-2l2-0.3
				c4.9-0.8,9.7,1.6,12.7,3.7c2.1-6.4,8.3-11.1,8.6-11.4c1.1-0.8,2.6-0.6,3.4,0.5c0.8,1.1,0.6,2.6-0.5,3.4l0,0
				c-2.1,1.6-7.6,6.9-7.4,11.9l0.2,6.1l-4.3-4.3c-0.1,0-4.8-4.6-9.8-5.2c0.4,3.8,1.9,11.2,7.8,12.8l4.2,1.1l-3.1,3
				c-0.2,0.2-3.9,4-3.9,13.3c3.4-0.5,9.7-1.9,12.9-6.4c0.8-1.1,2.3-1.4,3.4-0.6c1.1,0.8,1.4,2.3,0.6,3.4c-5.9,8.3-18.6,8.7-19.2,8.7
				L415.2,588.8z"/>
		</g>
		<g id="XMLID_168_">
			<path id="XMLID_309_" class="st2" d="M454.3,588.8l-2.3,0c-0.5,0-13.3-0.3-19.2-8.7c-0.8-1.1-0.5-2.6,0.6-3.4
				c1.1-0.8,2.6-0.5,3.4,0.6c3.2,4.5,9.5,5.9,12.9,6.4c0-9.3-3.7-13.2-3.9-13.3l-3-3l4.1-1.1c5.9-1.6,7.4-9,7.8-12.8
				c-5,0.6-9.7,5.1-9.8,5.2l-4.3,4.3l0.2-6.1c0.2-5.1-5.3-10.3-7.4-11.9c-1.1-0.8-1.3-2.3-0.5-3.4c0.8-1.1,2.3-1.3,3.4-0.5
				c0.3,0.2,6.5,5,8.6,11.4c3.1-2.1,7.8-4.5,12.7-3.7l2,0.3l0,2c0,0.6,0.1,13.7-8.4,18.6c1.7,3,3.8,8.4,3.2,16.9L454.3,588.8z"/>
		</g>
	</g>
	<g id="XMLID_167_">
		<path id="XMLID_312_" class="st2" d="M404.7,632.7c-1.5,0-2.9-0.4-4-1.4c-2.9-2.8-1.1-7.7-0.6-8.9l6.9-20.2h-5.3
			c-9.7,0-17.6-7.9-17.6-17.6v-40.6c0-9.7,7.9-17.6,17.6-17.6h66.3c9.7,0,17.6,7.9,17.6,17.6v40.6c0,9.7-7.9,17.6-17.6,17.6h-22.8
			c-3.5,4.2-18.3,21.4-31.9,28C410.7,631.3,407.5,632.7,404.7,632.7z M404.1,627.7c0,0,1.5,0.7,7-2c14.2-6.9,30.8-27.4,31-27.6
			l0.7-0.9h25.1c7,0,12.8-5.7,12.8-12.8v-40.6c0-7-5.7-12.8-12.8-12.8h-66.3c-7,0-12.8,5.7-12.8,12.8v40.6c0,7,5.7,12.8,12.8,12.8
			h12.1l-9.1,26.9C404,625.6,403.8,627.3,404.1,627.7L404.1,627.7z"/>
	</g>
	<g id="XMLID_158_">
		<path id="XMLID_311_" class="st2" d="M438.8,538.3h-37.9c-0.9,0-1.7-0.7-1.7-1.7s0.7-1.7,1.7-1.7h37.9c0.9,0,1.7,0.7,1.7,1.7
			S439.7,538.3,438.8,538.3z"/>
	</g>
</g>
<g id="Background_Phone">
	<g id="XMLID_196_">
		<polygon class="st1" points="250.4,445.2 189.5,445.2 167,446.8 157.6,449.6 148.4,461.2 146.5,471 146.5,656.4 151.9,667.5 
			159.7,674.4 169.2,677.9 254.7,677.9 267.2,667.5 272.6,654.1 272.6,483.4 272.6,463.4 262.8,450.6 		"/>
	</g>
	<g id="XMLID_195_">
		<path class="st0" d="M243.1,461.2h-65.4l-9.7,2.2l-7,8.8v34.9v114.6l5.3,6.2l6.3,3.7h74.1c0,0,6.5-5.9,7.6-5.9s3.7-8.3,3.7-8.3
			V476.6l-4.2-10.7L243.1,461.2z"/>
	</g>
	<g id="XMLID_194_">
		<polygon class="st3" points="215.5,647 206.2,645.3 199.6,650 199.1,660.1 207.3,667.3 217,665.9 220.6,660.1 220.4,654.1 		"/>
	</g>
	<g id="XMLID_193_">
		<polygon class="st1" points="207.4,499.4 193.9,503.3 183.8,511 177.5,520.3 174.8,534.7 179.4,552.3 191.1,564.5 211.2,569.8 
			227.5,563.4 239.9,552.3 245.7,539.5 244.6,522.4 235.1,510.2 225.1,501.2 		"/>
	</g>
	<g id="XMLID_192_">
		<path class="st3" d="M146.5,585.7c0,0-4.3,96.9,60.4,92.2h-40.6l-10.3-6.1l-7.8-11.8l-1.8-12.2L146.5,585.7z"/>
	</g>
	<g id="XMLID_191_">
		<path class="st0" d="M193.5,537.3c0,0,1.4,13.5,13.4,21.5c0,0,15.9-13.4,16.1-35.6l-16.6,24.2L193.5,537.3z"/>
	</g>
	<g id="XMLID_190_">
		<path class="st0" d="M146.5,531.9c0,0-2.2-67.9,19.9-76.3s58.7-10.4,58.7-10.4l-52.3-0.3h-10l-8.6,7.7l-7.6,7.6V471L146.5,531.9z"
			/>
	</g>
	<g id="XMLID_391_">
		<g id="XMLID_176_">
			<path id="XMLID_306_" class="st2" d="M241.2,634.9h-63.3c-10.6,0-19.3-8.6-19.3-19.3V477.1c0-10.6,8.6-19.3,19.3-19.3h63.3
				c10.6,0,19.3,8.6,19.3,19.3v138.5C260.5,626.2,251.8,634.9,241.2,634.9z M177.9,462.6c-7.9,0-14.4,6.5-14.4,14.4v138.5
				c0,7.9,6.5,14.4,14.4,14.4h63.3c7.9,0,14.4-6.5,14.4-14.4V477.1c0-7.9-6.5-14.4-14.4-14.4H177.9z"/>
		</g>
		<g id="XMLID_396_">
			<g id="XMLID_175_">
				<path id="XMLID_302_" class="st2" d="M246.4,680.2h-73.8c-15.8,0-28.6-12.8-28.6-28.6V471c0-15.8,12.8-28.6,28.6-28.6h73.8
					c15.8,0,28.6,12.8,28.6,28.6v180.6C275,667.4,262.2,680.2,246.4,680.2z M172.7,447.3c-13.1,0-23.7,10.6-23.7,23.7v180.6
					c0,13.1,10.6,23.7,23.7,23.7h73.8c13.1,0,23.7-10.6,23.7-23.7V471c0-13.1-10.6-23.7-23.7-23.7H172.7z"/>
			</g>
			<g id="XMLID_174_">
				<circle id="XMLID_5_" class="st2" cx="177.8" cy="452.6" r="3"/>
			</g>
		</g>
		<g id="XMLID_393_">
			<g id="XMLID_173_">
				<path id="XMLID_301_" class="st2" d="M204.8,553.6l-11.6-14.1c-0.9-1-0.7-2.6,0.3-3.4c1-0.9,2.6-0.7,3.4,0.3l7.7,9.3l16.4-22.2
					c0.8-1.1,2.3-1.3,3.4-0.5c1.1,0.8,1.3,2.3,0.5,3.4L204.8,553.6z"/>
			</g>
			<g id="XMLID_172_">
				<path id="XMLID_297_" class="st2" d="M209.5,572.2c-20.7,0-37.5-16.8-37.5-37.5c0-20.7,16.8-37.5,37.5-37.5s37.5,16.8,37.5,37.5
					C247.1,555.4,230.2,572.2,209.5,572.2z M209.5,502c-18,0-32.6,14.6-32.6,32.6c0,18,14.6,32.6,32.6,32.6
					c18,0,32.6-14.6,32.6-32.6C242.2,516.7,227.5,502,209.5,502z"/>
			</g>
		</g>
		<g id="XMLID_171_">
			<path id="XMLID_293_" class="st2" d="M209.5,669.6c-7.3,0-13.2-5.9-13.2-13.2s5.9-13.2,13.2-13.2s13.2,5.9,13.2,13.2
				S216.8,669.6,209.5,669.6z M209.5,647.4c-5,0-9,4-9,9s4,9,9,9s9-4,9-9S214.5,647.4,209.5,647.4z"/>
		</g>
	</g>
	<g id="XMLID_165_">
		<path id="XMLID_292_" class="st2" d="M244.6,584.1h-66.9c-0.9,0-1.7-0.7-1.7-1.7s0.7-1.7,1.7-1.7h66.9c0.9,0,1.7,0.7,1.7,1.7
			S245.5,584.1,244.6,584.1z"/>
	</g>
	<g id="XMLID_164_">
		<path id="XMLID_291_" class="st2" d="M244.6,598.8h-66.9c-0.9,0-1.7-0.7-1.7-1.7s0.7-1.7,1.7-1.7h66.9c0.9,0,1.7,0.7,1.7,1.7
			S245.5,598.8,244.6,598.8z"/>
	</g>
	<g id="XMLID_163_">
		<path id="XMLID_290_" class="st2" d="M244.6,612.9h-66.9c-0.9,0-1.7-0.7-1.7-1.7s0.7-1.7,1.7-1.7h66.9c0.9,0,1.7,0.7,1.7,1.7
			S245.5,612.9,244.6,612.9z"/>
	</g>
	<g id="XMLID_162_">
		<path id="XMLID_288_" class="st2" d="M154,554c-0.9,0-1.7-0.7-1.7-1.7v-64.3c0-0.9,0.7-1.7,1.7-1.7s1.7,0.7,1.7,1.7v64.3
			C155.7,553.2,154.9,554,154,554z"/>
	</g>
	<g id="XMLID_161_">
		<path id="XMLID_287_" class="st2" d="M154,574.4c-0.9,0-1.7-0.7-1.7-1.7v-13.9c0-0.9,0.7-1.7,1.7-1.7s1.7,0.7,1.7,1.7v13.9
			C155.7,573.6,154.9,574.4,154,574.4z"/>
	</g>
	<g id="XMLID_160_">
		<path id="XMLID_286_" class="st2" d="M154,587.4c-0.9,0-1.7-0.7-1.7-1.7v-6.3c0-0.9,0.7-1.7,1.7-1.7s1.7,0.7,1.7,1.7v6.3
			C155.7,586.7,154.9,587.4,154,587.4z"/>
	</g>
	<g id="XMLID_159_">
		<path id="XMLID_285_" class="st2" d="M241.7,454.3h-37.3c-0.9,0-1.7-0.7-1.7-1.7s0.7-1.7,1.7-1.7h37.3c0.9,0,1.7,0.7,1.7,1.7
			S242.6,454.3,241.7,454.3z"/>
	</g>
</g>
<g id="Star_5">
	<path id="XMLID_151_" class="st4" d="M520.6,220l-1.1,14.3l-5,8.8l12.3,2.6l8.2,6.2l-14.5,10.1l-13.9-2.5l-2.7,9.2l-8.1,10.8
		l-3.2,2.9c0,0-5-6.7-5.9-8.4s-3.7-17.5-3.7-17.5l-10.9,0.1L457.3,246l8.9-7.9l13-3.9l-0.5-9.8l9.6-19l6.7,7.3l1.2,12.3l7.3-5H520.6
		z"/>
	<g id="XMLID_282_">
		<path id="XMLID_73_" class="st5" d="M500.4,274c0,0-13.4-4.5-15.6-17.5l-1.9,8.7l6.2,14.8l3.6,2.2L500.4,274z"/>
		<path id="XMLID_72_" class="st5" d="M482.9,254.8c0,0-16.1-6-16.5-16.7l-8.9,7.9l8.9,6.5l7.9,4L482.9,254.8z"/>
		<path id="XMLID_71_" class="st5" d="M523.4,260c0,0,0.2-12.1-11.4-16.1h9.7l10,5.2l3.5,2.6L523.4,260z"/>
		<path id="XMLID_70_" class="st5" d="M496.3,227.6c0,0-5.6-14.8-14.4-13.3l6.5-8.9l6.7,7.3L496.3,227.6z"/>
		<path id="XMLID_69_" class="st5" d="M520.2,227.2c0,0-12-6.1-23.9,0.4l11.9-6.6l6.6-1.4h4.5L520.2,227.2z"/>
		<circle id="XMLID_68_" class="st5" cx="493.5" cy="245.2" r="4.3"/>
	</g>
	<g id="XMLID_210_">
		<g id="XMLID_12_">
			<path id="XMLID_283_" class="st6" d="M492.8,285.9l-1.7-1.8c-0.5-0.6-12.9-13.9-10.2-28.2c0.3-1.4,1.6-2.3,3-2.1
				c1.4,0.3,2.3,1.6,2.1,3c-1.6,8.8,4.3,17.8,7.3,21.7c11-10.1,11.1-19.1,11.1-19.2l0-4.5l3.9,2.3c8.8,5.2,19.3-2.2,23.4-5.7
				c-5.8-5.7-16.8-6-16.9-6l-6.5-0.1l4.8-4.4c6.9-6.3,5.3-20.6,5.3-20.8c-0.2-1.4,0.8-2.7,2.3-2.9c1.4-0.2,2.7,0.8,2.9,2.3
				c0.1,0.6,1.5,12.7-3.7,21.2c5.2,0.9,13.2,3.2,17.6,9.4l1.3,1.8l-1.5,1.5c-0.6,0.6-14.5,14.4-28.2,9.6
				c-1.1,4.6-4.4,12.7-14.4,21.1L492.8,285.9z"/>
		</g>
		<g id="XMLID_11_">
			<path id="XMLID_281_" class="st6" d="M480.3,259.2c-12.9,0-23.9-10.8-24.4-11.3l-1.8-1.7l1.6-1.8c8.7-9.7,16.9-12.8,21.5-13.8
				c-4.3-13.8,9.8-27.3,10.5-27.9l1.6-1.5l1.8,1.3c6.1,4.6,8.2,12.6,8.9,17.9c8.7-4.9,20.8-3.1,21.3-3.1c1.4,0.2,2.4,1.5,2.2,3
				c-0.2,1.4-1.5,2.4-3,2.2l0,0c-0.1,0-14.4-2.1-20.9,4.7l-4.6,4.7l0.1-6.5c0-0.1,0-11.1-5.5-17.1c-3.6,4-11.3,14.3-6.4,23.2
				l2.3,4.1l-4.6-0.2c-0.1,0-9-0.1-19.5,10.6c3.8,3.1,12.6,9.3,21.5,7.9c1.4-0.2,2.8,0.8,3,2.2c0.2,1.4-0.8,2.8-2.2,3
				C482.6,259.1,481.5,259.2,480.3,259.2z"/>
		</g>
	</g>
	<g id="XMLID_2_">
		<path id="XMLID_284_" class="st6" d="M493.3,270.3c-0.4,0-0.8-0.1-1.1-0.5c-0.7-0.6-0.7-1.7-0.1-2.3c0.1-0.1,5.7-6.2,5.7-12.6
			c0-0.9,0.7-1.7,1.7-1.7s1.7,0.7,1.7,1.7c0,7.8-6.3,14.6-6.6,14.9C494.1,270.1,493.7,270.3,493.3,270.3z"/>
	</g>
</g>
<g id="Star_4">
	<path id="XMLID_152_" class="st7" d="M440.3,147l3.6,12.9l-2.3,16l9-1.5l14.6,2.2l1,5.8l-13,14.1l-8.3,1.6l-6.5-0.4l1.7,12
		l-9.7,19.6l-7.8-5.7L410,202.9l-15.6,2.5l-17.9-5.3l14-19.2l8.8-4.3l-5.4-7.7l-0.7-13.8l5.1-14.5l9,6.4l6.9,15l11.5-10.1
		C425.6,151.8,442.7,147.2,440.3,147z"/>
	<g id="XMLID_296_">
		<path id="XMLID_85_" class="st8" d="M439.3,178.1c0,0-1-23.2-11.9-27.2l12.9-3.9l3.4,14.3L442,173L439.3,178.1z"/>
		<path id="XMLID_84_" class="st8" d="M414.1,161.9c0,0-10.8-14.9-19.8-10.2l3.9-11.1l9,6.4l6.9,10.9V161.9z"/>
		<path id="XMLID_83_" class="st8" d="M459.8,190.2c0,0,1.3-11.4-22.2-12.1l13-3.7l9.2,0.5l8.7,3.7L459.8,190.2z"/>
		<path id="XMLID_82_" class="st8" d="M437.5,220c0,0-18.8-1.7-27.5-17.1l5.2,12.7l15.2,13.8L437.5,220z"/>
		<path id="XMLID_81_" class="st8" d="M408.3,202.9c0,0-19.2-5.3-26.9-11.8l-5,9.1l9.3,2.7l8.7,2.5L408.3,202.9z"/>
		<circle id="XMLID_80_" class="st8" cx="421.4" cy="183.9" r="6.7"/>
	</g>
	<g id="XMLID_213_">
		<g id="XMLID_14_">
			<path id="XMLID_279_" class="st6" d="M431.8,232.9l-2.1-1.2c-0.8-0.5-19.7-11.3-21.8-28.5c-0.2-1.4,0.8-2.7,2.3-2.9
				c1.4-0.2,2.7,0.8,2.9,2.3c1.4,11.5,12.3,20,17,23.2c9.6-16.4,6.3-27.1,6.3-27.2l-1.4-4.4l4.5,1.1c12.8,3,22.7-10.5,26-15.8
				c-9.1-5-22.6-1.1-22.7-1.1l-6.3,1.8l3.3-5.7c5.9-10.1-1.3-26.3-1.4-26.5c-0.6-1.3,0-2.9,1.3-3.4c1.3-0.6,2.9,0,3.4,1.3
				c0.3,0.7,6.5,14.6,3.2,26.4c6.2-1,16.7-1.5,24.2,4.3l1.7,1.3l-1,1.9c-0.5,0.9-11.2,21.1-28,21.1c-0.4,0-0.8,0-1.2,0
				c0.5,5.4-0.1,16.2-8.9,29.9L431.8,232.9z"/>
		</g>
		<g id="XMLID_13_">
			<path id="XMLID_209_" class="st6" d="M398.1,208c-11.5,0-21.8-5.2-22.4-5.6l-2.2-1.1l1-2.3c6.7-14.9,15.4-21.3,20.2-23.8
				c-10.4-14.1,1.1-35,1.7-36l1.1-1.9l2.1,0.7c8.9,3.1,14.3,12.3,16.8,18c8.1-9.2,23.1-11.6,23.9-11.7c1.4-0.2,2.8,0.8,3,2.2
				c0.2,1.4-0.8,2.8-2.2,3l0,0c-0.2,0-17.7,2.9-23,13.3l-2.9,5.8l-1.9-6.3c0-0.1-4.2-13.6-13.3-18.4c-2.6,5.7-8.6,21.4,1,30.4
				l3.4,3.2l-4.5,1.2c-0.1,0-10.9,3.3-19.3,20.1c5.2,2.2,18.4,6.7,28.8,1.6c1.3-0.6,2.9-0.1,3.5,1.2c0.6,1.3,0.1,2.9-1.2,3.5
				C407.2,207.2,402.6,208,398.1,208z"/>
		</g>
	</g>
	<g id="XMLID_6_">
		<path id="XMLID_280_" class="st6" d="M387.1,198.2c-0.3,0-0.7-0.1-0.9-0.3c-0.8-0.5-0.9-1.5-0.4-2.3c0.3-0.4,6.9-9.9,15.2-13.3
			c0.8-0.3,1.8,0.1,2.2,0.9c0.3,0.8-0.1,1.8-0.9,2.2c-7.4,3-13.7,12-13.8,12.1C388.2,197.9,387.7,198.2,387.1,198.2z"/>
	</g>
</g>
<g id="Star_3">
	<path id="XMLID_153_" class="st4" d="M90.7,220l1.1,14.3l5,8.8l-12.3,2.6l-8.2,6.2l14.5,10.1l13.9-2.5l2.7,9.2l8.1,10.8l3.2,2.9
		c0,0,5-6.7,5.9-8.4s3.7-17.5,3.7-17.5l10.9,0.1L154,246l-8.9-7.9l-13-3.9l0.5-9.8l-9.6-19l-6.7,7.3l-1.2,12.3l-7.3-5H90.7z"/>
	<g id="XMLID_289_">
		<path id="XMLID_79_" class="st5" d="M111.1,274c0,0,13.4-4.5,15.6-17.5l1.9,8.7l-6.2,14.8l-3.6,2.2L111.1,274z"/>
		<path id="XMLID_78_" class="st5" d="M128.6,254.8c0,0,16.1-6,16.5-16.7l8.9,7.9l-8.9,6.5l-7.9,4L128.6,254.8z"/>
		<path id="XMLID_77_" class="st5" d="M88.1,260c0,0-0.2-12.1,11.4-16.1h-9.7l-10,5.2l-3.5,2.6L88.1,260z"/>
		<path id="XMLID_76_" class="st5" d="M115.2,227.6c0,0,5.6-14.8,14.4-13.3l-6.5-8.9l-6.7,7.3L115.2,227.6z"/>
		<path id="XMLID_75_" class="st5" d="M91.3,227.2c0,0,12-6.1,23.9,0.4l-11.9-6.6l-6.6-1.4h-4.5L91.3,227.2z"/>
		<circle id="XMLID_74_" class="st5" cx="118" cy="245.2" r="4.3"/>
	</g>
	<g id="XMLID_217_">
		<g id="XMLID_16_">
			<path id="XMLID_277_" class="st6" d="M119,285.9l-1.9-1.6c-10-8.4-13.3-16.5-14.4-21.1c-2,0.7-4,1-6,1
				c-11.5,0-21.7-10.1-22.2-10.6l-1.5-1.5l1.3-1.8c4.4-6.2,12.4-8.5,17.6-9.4c-5.2-8.6-3.8-20.7-3.7-21.2c0.2-1.4,1.5-2.4,2.9-2.3
				c1.4,0.2,2.4,1.5,2.3,2.9l0,0c0,0.1-1.6,14.5,5.3,20.8l4.8,4.4l-6.5,0.1c-0.1,0-11.1,0.3-16.9,6c4.1,3.4,14.7,10.9,23.4,5.7
				l4-2.4l-0.1,4.6c0,0.1,0.2,9,11.1,19.1c3-3.9,8.9-12.9,7.3-21.7c-0.3-1.4,0.7-2.8,2.1-3c1.4-0.3,2.8,0.7,3,2.1
				c2.7,14.2-9.7,27.6-10.2,28.2L119,285.9z"/>
		</g>
		<g id="XMLID_15_">
			<path id="XMLID_276_" class="st6" d="M131.4,259.2c-1.1,0-2.3-0.1-3.4-0.3c-1.4-0.2-2.4-1.6-2.2-3c0.2-1.4,1.6-2.4,3-2.2
				c8.9,1.4,17.7-4.8,21.5-7.9c-10.5-10.6-19.4-10.6-19.5-10.6l-4.5,0.1l2.2-4c4.9-8.9-2.8-19.2-6.4-23.2c-5.5,6-5.5,17-5.5,17.1
				l0.1,6.5l-4.5-4.7c-6.5-6.7-20.8-4.7-20.9-4.7c-1.4,0.2-2.7-0.8-3-2.2c-0.2-1.4,0.8-2.7,2.2-3c0.6-0.1,12.6-1.8,21.3,3.1
				c0.7-5.2,2.8-13.3,8.9-17.9l1.8-1.3l1.6,1.5c0.7,0.6,14.8,14.1,10.5,27.9c4.6,1,12.8,4.1,21.5,13.8l1.6,1.8l-1.8,1.7
				C155.3,248.4,144.3,259.2,131.4,259.2z"/>
		</g>
	</g>
	<g id="XMLID_3_">
		<path id="XMLID_278_" class="st6" d="M107.9,241c-0.3,0-0.5-0.1-0.8-0.2c-7.1-3.9-9.1-11-9.1-11.3c-0.2-0.9,0.3-1.8,1.2-2
			c0.9-0.2,1.8,0.3,2,1.2l0,0c0,0.1,1.7,6.1,7.5,9.2c0.8,0.4,1.1,1.4,0.7,2.2C109,240.7,108.5,241,107.9,241z"/>
	</g>
</g>
<g id="Star_2">
	<path id="XMLID_154_" class="st7" d="M171,147l-3.6,12.9l2.3,16l-9-1.5l-14.6,2.2l-1,5.8l13,14.1l8.3,1.6l6.5-0.4l-1.7,12l9.7,19.6
		l7.8-5.7l12.6-20.8l15.6,2.5l17.9-5.3l-14-19.2l-8.8-4.3l5.4-7.7l0.7-13.8l-5.1-14.5l-9,6.4l-6.9,15l-11.5-10.1
		C185.7,151.8,168.6,147.2,171,147z"/>
	<g id="XMLID_303_">
		<path id="XMLID_91_" class="st8" d="M172.1,178.1c0,0,1-23.2,11.9-27.2L171,147l-3.4,14.3l1.7,11.7L172.1,178.1z"/>
		<path id="XMLID_90_" class="st8" d="M197.3,161.9c0,0,10.8-14.9,19.8-10.2l-3.9-11.1l-9,6.4l-6.9,10.9V161.9z"/>
		<path id="XMLID_89_" class="st8" d="M151.6,190.2c0,0-1.3-11.4,22.2-12.1l-13-3.7l-9.2,0.5l-8.7,3.7L151.6,190.2z"/>
		<path id="XMLID_88_" class="st8" d="M173.8,220c0,0,18.8-1.7,27.5-17.1l-5.2,12.7l-15.2,13.8L173.8,220z"/>
		<path id="XMLID_87_" class="st8" d="M203,202.9c0,0,19.2-5.3,26.9-11.8l5,9.1l-9.3,2.7l-8.7,2.5L203,202.9z"/>
		<circle id="XMLID_86_" class="st8" cx="190" cy="183.9" r="6.7"/>
	</g>
	<g id="XMLID_220_">
		<g id="XMLID_18_">
			<path id="XMLID_216_" class="st6" d="M180,232.9l-1.3-2.1c-8.8-13.7-9.4-24.5-8.9-29.9c-17.5,1-28.7-20.1-29.2-21.1l-1-1.9
				l1.7-1.3c7.5-5.8,18.1-5.2,24.2-4.3c-3.3-11.8,2.9-25.7,3.2-26.4c0.6-1.3,2.1-1.9,3.4-1.3c1.3,0.6,1.9,2.1,1.3,3.4
				c-0.1,0.3-7.3,16.4-1.4,26.5l3.3,5.7l-6.3-1.8c-0.1,0-13.7-3.9-22.7,1.1c3.3,5.3,13.2,18.8,26,15.8l4.5-1.1l-1.4,4.4
				c0,0.1-3.2,10.9,6.3,27.2c4.7-3.2,15.7-11.8,17-23.2c0.2-1.4,1.5-2.4,2.9-2.3c1.4,0.2,2.4,1.5,2.3,2.9c-2.1,17.2-21,28-21.8,28.5
				L180,232.9z"/>
		</g>
		<g id="XMLID_17_">
			<path id="XMLID_208_" class="st6" d="M213.6,208c-4.4,0-9-0.8-13.3-2.9c-1.3-0.6-1.8-2.2-1.2-3.5c0.6-1.3,2.2-1.8,3.5-1.2
				c10.3,5.1,23.5,0.6,28.8-1.6c-8.4-16.9-19.2-20.1-19.3-20.1l-4.4-1.2l3.3-3.1c9.5-9.1,3.6-24.8,1-30.4
				c-9.1,4.8-13.3,18.3-13.3,18.4l-1.9,6.2l-2.9-5.8c-5.2-10.4-22.8-13.3-23-13.3c-1.4-0.2-2.4-1.6-2.2-3c0.2-1.4,1.5-2.4,3-2.2
				c0.7,0.1,15.8,2.5,23.9,11.7c2.6-5.7,7.9-14.8,16.8-18l2.1-0.7l1.1,1.9c0.5,0.9,12.1,21.9,1.7,36c4.8,2.6,13.5,9,20.2,23.8l1,2.3
				l-2.2,1.1C235.5,202.8,225.1,208,213.6,208z"/>
		</g>
	</g>
	<g id="XMLID_4_">
		<path id="XMLID_275_" class="st6" d="M222.7,198.2c-0.6,0-1.2-0.3-1.5-0.9c-5.1-10.5-18.6-14.7-18.7-14.7
			c-0.9-0.3-1.4-1.2-1.1-2.1c0.3-0.9,1.2-1.4,2.1-1.1c0.6,0.2,15,4.7,20.7,16.4c0.4,0.8,0.1,1.8-0.8,2.2
			C223.2,198.1,222.9,198.2,222.7,198.2z"/>
	</g>
</g>
<g id="Star_1">
	<polygon id="XMLID_155_" class="st8" points="306,106 295.5,118.3 287.5,129.3 285.7,139.3 269.5,128.3 255.5,125.6 252.1,125.3 
		254.8,144 261.6,158 272.3,166.3 268.5,179 264.8,194.4 264.6,209.8 273.4,209.8 288.4,204.5 306.1,194.4 319.3,202.8 338.1,209.8 
		347.2,209.8 347.2,196.8 344.2,181.4 337.2,168.2 347.2,161.2 355.4,148.4 359.7,125.3 349.9,125.7 335.9,132.1 326,140.5 
		323.9,123.8 	"/>
	<path id="XMLID_99_" class="st9" d="M264.6,196.5c0,0,12.3,5.8,42.6-6.3l-7.8,11l-26,8.6h-8.9L264.6,196.5z"/>
	<path id="XMLID_98_" class="st9" d="M349.1,196.5c0,0-12.3,5.8-42.6-6.3l7.8,11l26,8.6h8.9L349.1,196.5z"/>
	<path id="XMLID_97_" class="st9" d="M263.1,126c0,0-1.2,26,14,40.5l-8.3-2l-10.2-11.3l-5.2-15.3l-1.2-12.5L263.1,126z"/>
	<path id="XMLID_96_" class="st9" d="M348.5,126c0,0,1.2,26-14,40.5l8.3-2l10.2-11.3l5.2-15.3l1.2-12.5L348.5,126z"/>
	<path id="XMLID_95_" class="st9" d="M297,114.4c0,0,16-2.6,29,26.2l-1.8-14.8L312.6,112L306,106L297,114.4z"/>
	<path id="XMLID_94_" class="st10" d="M287.5,169.2c0,0,18,16.7,36.4,0l-4.6,9.4l-6.7,3.8h-13.2l-8.7-5.8L287.5,169.2z"/>
	<path id="XMLID_93_" class="st10" d="M323.9,144.8c0,0,11.1-8.7,23.1-6c0,0,2.2-7.5,1.5-12.8C348.5,126,328.8,134.2,323.9,144.8z"
		/>
	<path id="XMLID_92_" class="st10" d="M287.5,144.8c0,0-11.1-8.7-23.1-6c0,0-2.2-7.5-1.5-12.8C262.9,126,282.7,134.2,287.5,144.8z"
		/>
	<g id="XMLID_223_">
		<g id="XMLID_20_">
			<path id="XMLID_270_" class="st6" d="M262.1,212.5L262,210c-1.6-22.8,5.2-35.9,9.1-41.5c-21.8-9.2-21.6-41.8-21.5-43.3l0-2.2
				l2.2-0.3c13-2.1,25.6,6.2,31.9,11.2c2.9-16.4,19.9-29.5,20.7-30.1c1.1-0.9,2.8-0.6,3.6,0.5c0.9,1.1,0.6,2.8-0.5,3.6
				c-0.2,0.1-19.5,15-19,31.2l0.2,6.5l-4.6-4.6c-0.1-0.1-14.5-14.2-29.1-13.5c0.4,7.7,3,32.2,21.3,37.1l4.5,1.2l-3.4,3.2
				c-0.1,0.1-11.4,11.4-10.2,37.9c7-0.6,27.1-3.5,36.6-17c0.8-1.2,2.5-1.5,3.6-0.6c1.2,0.8,1.5,2.5,0.6,3.6
				c-13.2,18.6-42.1,19.4-43.3,19.4L262.1,212.5z"/>
		</g>
		<g id="XMLID_19_">
			<path id="XMLID_121_" class="st6" d="M349.6,212.5l-2.5,0c-1.2,0-30.1-0.8-43.3-19.4c-0.8-1.2-0.6-2.8,0.6-3.6
				c1.2-0.8,2.8-0.6,3.6,0.6c9.6,13.5,29.6,16.4,36.6,17c1.2-26.5-10.1-37.8-10.2-37.9l-3.3-3.2l4.4-1.2c18.3-4.9,21-29.4,21.3-37.1
				c-14.7-0.7-29,13.3-29.1,13.5l-4.6,4.6l0.2-6.5c0.5-16.2-18.8-31.1-19-31.2c-1.1-0.9-1.4-2.5-0.5-3.6c0.9-1.1,2.5-1.4,3.6-0.5
				c0.8,0.6,17.8,13.7,20.7,30.1c6.2-5,18.8-13.3,31.9-11.2l2.2,0.3l0,2.2c0,1.5,0.3,34-21.5,43.3c3.9,5.5,10.7,18.6,9.1,41.5
				L349.6,212.5z"/>
		</g>
	</g>
	<g id="XMLID_10_">
		<path id="XMLID_274_" class="st6" d="M306.1,185c-11.4,0-20.4-6.2-20.4-14.2c0-1.4,1.2-2.6,2.6-2.6s2.6,1.2,2.6,2.6
			c0,4.9,6.9,9,15.2,9s15.2-4.1,15.2-9c0-1.4,1.2-2.6,2.6-2.6s2.6,1.2,2.6,2.6C326.5,178.8,317.6,185,306.1,185z"/>
	</g>
	<g id="XMLID_9_">
		<path id="XMLID_273_" class="st6" d="M299.5,160.5c-1.4,0-2.6-1.2-2.6-2.6c0-4.1-2.1-6.9-4.1-6.9s-4.1,2.8-4.1,6.9
			c0,1.4-1.2,2.6-2.6,2.6s-2.6-1.2-2.6-2.6c0-6.8,4.1-12.1,9.3-12.1s9.3,5.3,9.3,12.1C302.1,159.3,300.9,160.5,299.5,160.5z"/>
	</g>
	<g id="XMLID_8_">
		<path id="XMLID_272_" class="st6" d="M326,160.5c-1.4,0-2.6-1.2-2.6-2.6c0-4.1-2.1-6.9-4.1-6.9s-4.1,2.8-4.1,6.9
			c0,1.4-1.2,2.6-2.6,2.6s-2.6-1.2-2.6-2.6c0-6.8,4.1-12.1,9.3-12.1s9.3,5.3,9.3,12.1C328.6,159.3,327.4,160.5,326,160.5z"/>
	</g>
	<g id="XMLID_7_">
		<path id="XMLID_271_" class="st6" d="M295.5,134.8c-0.1,0-0.3,0-0.4,0c-0.9-0.2-1.4-1.1-1.2-2c0.1-0.4,2.6-10.5,11-15.9
			c0.8-0.5,1.8-0.3,2.3,0.5c0.5,0.8,0.3,1.8-0.5,2.3c-7.3,4.7-9.5,13.8-9.6,13.8C296.9,134.3,296.3,134.8,295.5,134.8z"/>
	</g>
</g>
<g id="XMLID_106_">
	<g id="XMLID_105_">
		<path id="XMLID_125_" class="st11" d="M444.2,418.7l-6.2,4l-6.5,6.6l-4.4,11.3l0.5,9.3l10.4,15.1l13,1l15.1-7.4l13.3-17.8h-30
			C449.5,440.7,453.4,426,444.2,418.7"/>
		<g id="XMLID_24_">
			<path id="XMLID_103_" class="st6" d="M428.8,456.3c-1,0-2-0.6-2.4-1.6c-0.1-0.2-9.7-22.9,14.2-37c1.2-0.7,2.9-0.3,3.6,0.9
				c0.7,1.2,0.3,2.8-0.9,3.6c-19.8,11.7-12.4,29.6-12.1,30.4c0.6,1.3,0,2.9-1.4,3.4C429.5,456.2,429.1,456.3,428.8,456.3z"/>
		</g>
		<g id="XMLID_23_">
			<path id="XMLID_102_" class="st6" d="M445.5,468.5c-4.9,0-8.2-1-8.3-1.1c-1.4-0.5-2.1-1.9-1.7-3.3c0.5-1.4,1.9-2.1,3.3-1.7
				c1,0.3,23.9,7.3,38.3-22.8c0.6-1.3,2.2-1.9,3.5-1.2c1.3,0.6,1.9,2.2,1.2,3.5C471,464.6,455.1,468.5,445.5,468.5z"/>
		</g>
		<g id="XMLID_22_">
			<path id="XMLID_101_" class="st6" d="M442.5,447.5c-0.3,0-0.7-0.1-1-0.2c-1.3-0.6-1.9-2.1-1.4-3.4c2.4-5.5,0.5-7.9,0.4-8l2-1.7
				l1.9-1.8c0.4,0.5,4.3,5,0.5,13.6C444.5,446.9,443.5,447.5,442.5,447.5z"/>
		</g>
	</g>
	<g id="XMLID_54_">
		<polygon id="XMLID_138_" class="st12" points="351.9,460.2 351.9,490.6 366.1,497.3 388.7,499.4 414.4,492.6 438,464.9 
			427.2,454.6 417.9,460.2 389.3,465.9 366.1,464.2 		"/>
		<path id="XMLID_110_" class="st13" d="M351.9,490.6c53,34.2,86.1-25.7,86.1-25.7l-3.6-5.2c-34,50-83.1,16.9-83.1,16.9"/>
		<path id="XMLID_108_" class="st14" d="M351.7,465.9c0,0,46.1,19.5,78.6-10.3l-3.2-1l-28.8,10l-19.2,1.4l-27.3-5.7L351.7,465.9z"/>
		<g id="XMLID_27_">
			<path id="XMLID_104_" class="st6" d="M384.5,502.2c-10.8,0-22.1-3.1-33.8-9.3c-1.3-0.7-1.8-2.3-1.1-3.5c0.7-1.3,2.3-1.8,3.5-1.1
				c16.3,8.7,31.9,10.9,46.1,6.4c20.4-6.3,32.4-24.3,35.6-29.6l-6.7-8.1c-39.6,21.6-75.8,6.2-77.3,5.6c-1.3-0.6-1.9-2.1-1.3-3.4
				c0.6-1.3,2.1-1.9,3.4-1.3c0.4,0.2,36.6,15.4,74.5-6.4l1.9-1.1l11.7,14.3l-0.8,1.5c-0.5,1-13.6,25.6-39.5,33.6
				C395.5,501.4,390,502.2,384.5,502.2z"/>
		</g>
	</g>
</g>
<g id="Phone">
	<polygon id="XMLID_135_" class="st15" points="441.5,370.6 441.5,418.7 443.5,432.7 449.1,439.4 479.1,439.4 486.6,432.7 
		486.6,370.6 482.7,362.4 468.5,360 448.5,360.6 442.8,366 	"/>
	<path id="XMLID_134_" class="st16" d="M473.5,418.7h-18.9c-3.7,0-6.8-3-6.8-6.8v-32.7c0-3.7,3-6.8,6.8-6.8h18.9
		c3.7,0,6.8,3,6.8,6.8v32.7C480.3,415.6,477.2,418.7,473.5,418.7z"/>
	<g id="XMLID_26_">
		<path id="XMLID_60_" class="st6" d="M476,442.5h-23.9c-7.3,0-13.2-5.9-13.2-13.2v-58.7c0-7.3,5.9-13.2,13.2-13.2H476
			c7.3,0,13.2,5.9,13.2,13.2v58.7C489.2,436.5,483.3,442.5,476,442.5z M452.1,362.6c-4.4,0-8,3.6-8,8v58.7c0,4.4,3.6,8,8,8H476
			c4.4,0,8-3.6,8-8v-58.7c0-4.4-3.6-8-8-8H452.1z"/>
	</g>
	<circle id="XMLID_25_" class="st6" cx="464.1" cy="427" r="5.7"/>
	<g id="XMLID_21_">
		<path id="XMLID_59_" class="st6" d="M462.3,409.3l-7.8-9.5c-0.9-1.1-0.8-2.8,0.4-3.7c1.1-0.9,2.8-0.8,3.7,0.4l3.6,4.3l8.8-11.9
			c0.9-1.2,2.5-1.4,3.7-0.5c1.2,0.9,1.4,2.5,0.5,3.7L462.3,409.3z"/>
	</g>
</g>
<g id="Left_Leg">
	<path id="XMLID_31_" class="st17" d="M290.7,569.8l-5.4,27l-6,48.5l-1.9,20.6l-8.2-14.3l-13-6.3l-6-2.9l-0.3-23.2l2.8-26.7
		l5.1-32.2l4.2-17.3l2.4-6.3c0,0,9.6-16.6,17.2-6.6C289.3,540,290.7,569.8,290.7,569.8z"/>
	<polygon id="XMLID_145_" class="st18" points="229.4,675.9 229.4,664.3 233.2,650.4 242.4,642.4 253.3,643.9 267.4,647.1 
		274,660.1 280,677.8 	"/>
	<polyline id="XMLID_144_" class="st19" points="275.9,665.9 228,665.9 229.6,677.8 280,677.8 276.5,667.5 	"/>
	<path id="XMLID_124_" class="st20" d="M244.4,665.9c0,0-5.9-15.8,5.8-23.5h-7.8l-6.7,4.6l-4.2,9.5l-2.2,9.5H244.4z"/>
	<polygon id="XMLID_122_" class="st21" points="244.4,665.9 247,676.1 229.6,677.8 229.4,665.9 	"/>
	<polygon id="XMLID_120_" class="st22" points="279.5,642.4 267.2,632.4 257.8,630.2 250.2,631.6 251.4,642.4 262.9,646.6 
		274,658.1 275.2,663.8 277.9,660.1 	"/>
	<polygon id="XMLID_118_" class="st22" points="254.7,572.7 263.9,569.8 269.7,563.4 264.9,538.2 258.6,558.8 	"/>
	<path id="XMLID_30_" class="st23" d="M272.6,528.7c0,0,6-6.6,11.7,6c0,0,5,17.9,6.4,35.1l-3.6,16.5l-7.6,56l-6.8-5.1l-5.5-4.9
		c8.5-50.4-2.7-95.8-2.7-95.8S268.4,530.4,272.6,528.7z"/>
	<g id="XMLID_243_">
		<g id="XMLID_41_">
			<path id="XMLID_117_" class="st6" d="M277.4,667.5h-48.1c-0.9,0-1.7-0.7-1.7-1.7s0.7-1.7,1.7-1.7h48.1c0.9,0,1.7,0.7,1.7,1.7
				S278.3,667.5,277.4,667.5z"/>
		</g>
		<g id="XMLID_244_">
			<g id="XMLID_40_">
				<path id="XMLID_115_" class="st6" d="M229.6,680.4c-1.3,0-2.4-1-2.6-2.3c-0.1-0.9-3-22.4,6.7-32.9c3.7-4,8.7-5.9,14.9-5.5
					c27,1.6,32.8,26.9,34,37.7c0.2,1.4-0.9,2.7-2.3,2.9c-1.4,0.2-2.7-0.9-2.9-2.3c-1.3-11.8-6.9-31.7-29.1-33.1
					c-4.6-0.3-8.1,1-10.7,3.8c-8,8.6-5.4,28.4-5.4,28.6c0.2,1.4-0.8,2.8-2.2,2.9C229.8,680.4,229.7,680.4,229.6,680.4z"/>
			</g>
			<g id="XMLID_39_">
				<path id="XMLID_114_" class="st6" d="M250.2,645c-1.3,0-2.4-1-2.6-2.3c-4-35.5,12-101,12.7-103.8c0.3-1.4,1.8-2.3,3.2-1.9
					c1.4,0.3,2.3,1.8,1.9,3.2c-0.2,0.7-16.5,67.4-12.6,102c0.2,1.4-0.9,2.7-2.3,2.9C250.4,645,250.3,645,250.2,645z"/>
			</g>
			<g id="XMLID_38_">
				<path id="XMLID_35_" class="st6" d="M278.7,673.3c-1.4,0-2.5-1.1-2.6-2.4c-2.1-31.5,10.3-95.9,10.8-98.6
					c0.3-1.4,1.7-2.3,3.1-2.1c1.4,0.3,2.3,1.6,2.1,3.1c-0.1,0.7-12.8,66.5-10.7,97.3c0.1,1.4-1,2.7-2.4,2.8
					C278.9,673.3,278.8,673.3,278.7,673.3z"/>
			</g>
			<g id="XMLID_37_">
				<path id="XMLID_34_" class="st6" d="M279.3,647c-0.6,0-1.1-0.3-1.4-0.8c-9.3-16.7-27-12.4-27.8-12.2c-0.9,0.2-1.8-0.3-2-1.2
					c-0.2-0.9,0.3-1.8,1.2-2c0.2-0.1,20.9-5.2,31.5,13.8c0.4,0.8,0.2,1.8-0.6,2.2C279.8,646.9,279.5,647,279.3,647z"/>
			</g>
			<g id="XMLID_36_">
				<path id="XMLID_33_" class="st6" d="M255.9,574.4c-0.8,0-1.6-0.6-1.6-1.5c-0.1-0.9,0.6-1.7,1.5-1.8l0,0
					c0.5,0,11.3-1.1,11.8-10.9c0-0.9,0.8-1.6,1.7-1.6c0.9,0,1.6,0.8,1.6,1.7c-0.5,10.1-9.9,13.6-14.8,14
					C256,574.4,256,574.4,255.9,574.4z"/>
			</g>
		</g>
	</g>
</g>
<g id="Right_Leg">
	<path id="XMLID_269_" class="st17" d="M320.6,569.8l5.4,27l6,48.5l1.9,20.6l8.2-14.3l13-6.3l6-2.9l0.3-23.2l-2.8-26.7l-5.1-32.2
		l-4.2-17.3l-2.4-6.3c0,0-9.6-16.6-17.2-6.6C322,540,320.6,569.8,320.6,569.8z"/>
	<polygon id="XMLID_268_" class="st18" points="381.9,675.9 381.9,664.3 378.1,650.4 368.8,642.4 358,643.9 343.9,647.1 
		337.3,660.1 331.3,677.8 	"/>
	<polyline id="XMLID_267_" class="st19" points="335.4,665.9 383.2,665.9 381.7,677.8 331.3,677.8 334.8,667.5 	"/>
	<path id="XMLID_266_" class="st20" d="M366.9,665.9c0,0,5.9-15.8-5.8-23.5h7.8l6.7,4.6l4.2,9.5l2.2,9.5H366.9z"/>
	<polygon id="XMLID_265_" class="st21" points="366.9,665.9 364.3,676.1 381.7,677.8 381.9,665.9 	"/>
	<polygon id="XMLID_264_" class="st22" points="331.8,642.4 344.1,632.4 353.5,630.2 361.1,631.6 359.9,642.4 348.4,646.6 
		337.3,658.1 336.1,663.8 333.4,660.1 	"/>
	<polygon id="XMLID_263_" class="st22" points="356.6,572.7 347.4,569.8 341.6,563.4 346.4,538.2 352.7,558.8 	"/>
	<path id="XMLID_262_" class="st23" d="M338.7,528.7c0,0-6-6.6-11.7,6c0,0-5,17.9-6.4,35.1l3.6,16.5l7.6,56l6.8-5.1l5.5-4.9
		c-8.5-50.4,2.7-95.8,2.7-95.8S342.8,530.4,338.7,528.7z"/>
	<g id="XMLID_123_">
		<g id="XMLID_260_">
			<path id="XMLID_261_" class="st6" d="M333.9,667.5H382c0.9,0,1.7-0.7,1.7-1.7s-0.7-1.7-1.7-1.7h-48.1c-0.9,0-1.7,0.7-1.7,1.7
				S333,667.5,333.9,667.5z"/>
		</g>
		<g id="XMLID_126_">
			<g id="XMLID_257_">
				<path id="XMLID_259_" class="st6" d="M381.7,680.4c1.3,0,2.4-1,2.6-2.3c0.1-0.9,3-22.4-6.7-32.9c-3.7-4-8.7-5.9-14.9-5.5
					c-27,1.6-32.8,26.9-34,37.7c-0.2,1.4,0.9,2.7,2.3,2.9c1.4,0.2,2.7-0.9,2.9-2.3c1.3-11.8,6.9-31.7,29.1-33.1
					c4.6-0.3,8.1,1,10.7,3.8c8,8.6,5.4,28.4,5.4,28.6c-0.2,1.4,0.8,2.8,2.2,2.9C381.5,680.4,381.6,680.4,381.7,680.4z"/>
			</g>
			<g id="XMLID_235_">
				<path id="XMLID_236_" class="st6" d="M361.1,645c1.3,0,2.4-1,2.6-2.3c4-35.5-12-101-12.7-103.8c-0.3-1.4-1.8-2.3-3.2-1.9
					c-1.4,0.3-2.3,1.8-1.9,3.2c0.2,0.7,16.5,67.4,12.6,102c-0.2,1.4,0.9,2.7,2.3,2.9C360.9,645,361,645,361.1,645z"/>
			</g>
			<g id="XMLID_150_">
				<path id="XMLID_204_" class="st6" d="M332.5,673.3c1.4,0,2.5-1.1,2.6-2.4c2.1-31.5-10.3-95.9-10.8-98.6
					c-0.3-1.4-1.7-2.3-3.1-2.1c-1.4,0.3-2.3,1.6-2.1,3.1c0.1,0.7,12.8,66.5,10.7,97.3c-0.1,1.4,1,2.7,2.4,2.8
					C332.4,673.3,332.5,673.3,332.5,673.3z"/>
			</g>
			<g id="XMLID_146_">
				<path id="XMLID_147_" class="st6" d="M332,647c0.6,0,1.1-0.3,1.4-0.8c9.3-16.7,27-12.4,27.8-12.2c0.9,0.2,1.8-0.3,2-1.2
					c0.2-0.9-0.3-1.8-1.2-2c-0.2-0.1-20.9-5.2-31.5,13.8c-0.4,0.8-0.2,1.8,0.6,2.2C331.5,646.9,331.8,647,332,647z"/>
			</g>
			<g id="XMLID_142_">
				<path id="XMLID_143_" class="st6" d="M355.4,574.4c0.8,0,1.6-0.6,1.6-1.5c0.1-0.9-0.6-1.7-1.5-1.8l0,0
					c-0.5,0-11.3-1.1-11.8-10.9c0-0.9-0.8-1.6-1.7-1.6c-0.9,0-1.6,0.8-1.6,1.7c0.5,10.1,9.9,13.6,14.8,14
					C355.3,574.4,355.3,574.4,355.4,574.4z"/>
			</g>
		</g>
	</g>
</g>
<g id="Body">
	<polygon id="XMLID_148_" class="st17" points="262,536.6 265.9,552.3 278.5,571.3 293.1,572.7 325.3,572.7 335.1,569.5 
		343.5,558.3 348,537.3 340.8,539.5 323,545 305.8,545 284,543.8 269.2,539.5 	"/>
	<polyline id="XMLID_141_" class="st24" points="288.9,444.9 276.6,447.9 260,460.2 260,528.7 272.3,539.5 291.5,544.6 314.6,545 
		334,542 349.5,534.7 351.9,460.2 337.7,448.8 323.5,446.8 323.5,453.3 319.2,459 307,464.9 296.6,462.4 289.5,454.8 288.5,446.8 	
		"/>
	<polygon id="XMLID_139_" class="st25" points="289.5,424.8 289.5,453.7 294.8,460.2 305,464.9 313.1,463.3 323.5,455.6 
		323.5,425.1 	"/>
	<path id="XMLID_127_" class="st26" d="M289.5,436.8v-13.5h34v13.5C323.5,436.8,306.7,453.1,289.5,436.8z"/>
	<polygon id="XMLID_116_" class="st22" points="298.4,545 299.5,571.3 312,572.7 313.1,544.9 	"/>
	<polygon id="XMLID_113_" class="st27" points="286.2,444.1 280,447 282.1,457 286.2,471.1 303,488.9 306.1,490.6 318,482.5 
		328.5,467.4 332.3,446.8 323.9,444.9 323.5,455.6 317.3,460.2 309.5,464.6 298.4,462.8 291.1,457 289.5,453.7 289.5,449.6 	"/>
	<path id="XMLID_112_" class="st12" d="M269.7,451c0,0,8.6,37.3,36,46.3l0.4-6.6c0,0-26.9-15.1-26.2-43.6L269.7,451z"/>
	<path id="XMLID_111_" class="st12" d="M342.1,451c0,0-8.6,37.3-36,46.3l-0.4-6.6c0,0,26.9-15.1,26.2-43.6L342.1,451z"/>
	<g id="XMLID_67_">
		<path id="XMLID_149_" class="st6" d="M306.3,467.5c-6.5,0-12.9-3.7-18.9-11.1l-0.6-0.7v-30.9c0-1.4,1.2-2.6,2.6-2.6
			s2.6,1.2,2.6,2.6v29c4.9,5.9,9.9,8.7,14.8,8.5c6.7-0.3,11.8-6.4,13.2-8.3v-29.1c0-1.4,1.2-2.6,2.6-2.6s2.6,1.2,2.6,2.6v30.7
			l-0.4,0.7c-0.3,0.4-7.1,10.8-17.8,11.3C306.9,467.5,306.6,467.5,306.3,467.5z"/>
	</g>
	<g id="XMLID_66_">
		<path id="XMLID_136_" class="st6" d="M316.7,547.6h-21.6c-22.7,0-34.6-13.4-35.1-13.9l-0.6-0.7l-2.1-73.4l0.3-0.6
			c7.8-14.1,30-16.6,31-16.7c1.4-0.2,2.7,0.9,2.9,2.3c0.2,1.4-0.9,2.7-2.3,2.9c-0.3,0-19.8,2.3-26.6,13.4l2,70
			c2.6,2.5,13.1,11.5,30.6,11.5h21.6c17.5,0,28-9,30.6-11.5l2-70c-6.8-11.2-26.4-13.4-26.6-13.4c-1.4-0.2-2.5-1.4-2.3-2.9
			c0.2-1.4,1.4-2.5,2.9-2.3c0.9,0.1,23.2,2.6,31,16.7l0.3,0.6l-2.1,73.4l-0.6,0.7C351.4,534.2,339.4,547.6,316.7,547.6z"/>
	</g>
	<g id="XMLID_65_">
		<path id="XMLID_133_" class="st6" d="M305.9,546.6c-0.9,0-1.7-0.7-1.7-1.7v-80.1c0-0.9,0.7-1.7,1.7-1.7s1.7,0.7,1.7,1.7V545
			C307.6,545.9,306.9,546.6,305.9,546.6z"/>
	</g>
	<g id="XMLID_64_">
		<path id="XMLID_132_" class="st6" d="M306.1,492.3c-0.2,0-0.5-0.1-0.7-0.2c-24.4-11.7-27-43.9-27.1-45.3c-0.1-0.9,0.6-1.7,1.5-1.8
			c0.9-0.1,1.7,0.6,1.8,1.5c0,0.3,2.6,31.7,25.2,42.5c0.8,0.4,1.2,1.4,0.8,2.2C307.4,491.9,306.8,492.3,306.1,492.3z"/>
	</g>
	<g id="XMLID_63_">
		<path id="XMLID_131_" class="st6" d="M306.1,492.3c-0.6,0-1.2-0.3-1.5-0.9c-0.4-0.8,0-1.8,0.8-2.2c22.6-10.9,25.2-42.2,25.2-42.5
			c0.1-0.9,0.9-1.6,1.8-1.5c0.9,0.1,1.6,0.9,1.5,1.8c-0.1,1.4-2.8,33.6-27.1,45.3C306.6,492.2,306.4,492.3,306.1,492.3z"/>
	</g>
	<g id="XMLID_47_">
		<path id="XMLID_130_" class="st6" d="M325.3,575.3l-38.8,0c-24.5,0-27-41.5-27.1-43.2c-0.1-1.4,1-2.7,2.5-2.8
			c1.4-0.1,2.7,1,2.8,2.5c0,0.4,2.3,38.3,21.8,38.3l38.8,0c19.6,0,21.8-37.9,21.8-38.3c0.1-1.4,1.3-2.6,2.8-2.5
			c1.4,0.1,2.6,1.3,2.5,2.8C352.3,533.9,349.8,575.3,325.3,575.3z"/>
	</g>
	<g id="XMLID_46_">
		<path id="XMLID_129_" class="st6" d="M299.5,574.3c-0.9,0-1.6-0.7-1.6-1.6l-1.1-27.7c0-0.9,0.7-1.7,1.6-1.7c1,0,1.7,0.7,1.7,1.6
			l1.1,27.7C301.2,573.5,300.5,574.3,299.5,574.3C299.5,574.3,299.5,574.3,299.5,574.3z"/>
	</g>
	<g id="XMLID_45_">
		<path id="XMLID_128_" class="st6" d="M312,574.3C312,574.3,311.9,574.3,312,574.3c-1,0-1.7-0.8-1.7-1.7l1.1-27.7
			c0-0.9,0.8-1.6,1.7-1.6c0.9,0,1.6,0.8,1.6,1.7l-1.1,27.7C313.6,573.6,312.9,574.3,312,574.3z"/>
	</g>
</g>
<g id="Left_Arm">
	<polygon id="XMLID_140_" class="st11" points="319.2,511.9 329.3,504.9 335.1,503.3 338.1,505.4 336.7,514.7 351.5,516.8 
		366.1,520 362.8,526.5 349.5,534.7 332.3,537.3 314.7,529.8 314.7,516.7 	"/>
	<polygon id="XMLID_137_" class="st12" points="260,460.2 262.9,504.9 284,506.7 306.5,513.2 314.7,516.7 314.7,526.5 305,531.9 
		276.6,534.3 256.2,528.9 233.2,516.8 235.1,494.9 243,474.5 254.7,462.7 	"/>
	<path id="XMLID_109_" class="st13" d="M233.4,514.9c0,0,49.1,15.6,81.3,5.1v9.9l-26.8,4.4l-25.9-2.3l-17.6-7.4L233.4,514.9z"/>
	<path id="XMLID_107_" class="st14" d="M233.4,514.9c0,0,9.2-36.6,26.6-42.7l-2.2-10.9l-7.9,4.7C249.9,465.9,231,480.5,233.4,514.9z
		"/>
	<g id="XMLID_29_">
		<path id="XMLID_55_" class="st6" d="M285.2,536.9c-12.4,0-22.8-2.7-30.6-5.8c-14.6-5.7-22.9-13.6-23.3-13.9l-0.8-0.8v-1.1
			c0-49.6,27.6-57.3,28.7-57.6l3.3-0.8v46.4c23-3.3,51.9,10.5,53.3,11.2l1.5,0.7v15.8l-1.7,0.6C304.6,535.4,294.4,536.9,285.2,536.9
			z M235.8,514.1c5.2,4.4,34.6,27,76.3,13.1v-8.8c-6.4-2.9-32.3-13.6-51.2-9.6c-0.2,0.1-0.4,0.1-0.6,0.1c-1.6,0.4-3.2,0.9-4.7,1.5
			c-1.3,0.6-2.9-0.1-3.4-1.4c-0.6-1.3,0.1-2.9,1.4-3.4c1.2-0.5,2.5-0.9,3.8-1.3v-40.2C250.7,467.6,236.2,479.3,235.8,514.1z"/>
	</g>
	<g id="XMLID_28_">
		<path id="XMLID_58_" class="st6" d="M334.8,539.2c-8.3,0-16.8-2-22-7.6c-1-1.1-0.9-2.7,0.1-3.7c1.1-1,2.7-0.9,3.7,0.1
			c6,6.4,18.1,6.8,27.5,5.1c9.7-1.8,17.6-6.1,19.2-10.4c0.3-0.8,0.1-1.1,0-1.2c-1.1-1.5-7.6-3.5-25-1.7c-1.8,0.2-3.4-0.7-4.2-2.3
			c-0.8-1.5-0.5-3.4,0.6-4.6c1.8-2,2.2-4,1-6.4c-0.2-0.4-0.4-0.5-0.7-0.6c-3.6-0.6-13.2,6.7-18.5,11.9c-1,1-2.7,1-3.7-0.1
			c-1-1-1-2.7,0.1-3.7c2.5-2.4,15.5-14.6,23-13.3c2,0.3,3.6,1.5,4.5,3.4c1.8,3.5,1.6,7.1-0.3,10.3c22.8-2,26.2,2.4,27.4,3.9
			c0.9,1.2,1.8,3.3,0.7,6.3c-2.8,7.3-14.2,11.9-23.1,13.6C341.8,538.9,338.3,539.2,334.8,539.2z"/>
	</g>
</g>
<g id="XMLID_48_">
	<g id="XMLID_258_">
		<g id="Head">
			<polygon id="XMLID_256_" class="st11" points="199.1,330 199.1,336.6 190.7,338.9 182.2,345.7 182.3,353.5 185.7,367.7 
				199.1,370.4 199.1,387.1 207.7,406.7 221.9,419.5 236.1,424.2 256.8,424.2 361.8,424.2 378.7,422.1 395.5,406.7 399.9,396.6 
				404.1,374.1 411.5,370.4 419.3,360.5 419.2,349.2 412.5,340.3 404.1,336.6 378.7,331.2 340.2,314.3 295.6,290 273.3,276.4 
				267.9,286.1 260.4,293.1 247.7,296.7 231.1,291.9 225.2,308.8 220.1,318.1 207.8,329.1 			"/>
			<path id="XMLID_255_" class="st15" d="M198.4,330.8l12.6-4.5l15.4-20.8l4.7-13.6l18.6,5.9l8.9-1.4l9.3-10.3l5.4-9.7l43.6,25.2
				l65.3,31.1l11.3,1.7l15.2,1.8l12.3-7.3l7.4-17.9l-0.5-29.7l-9.5-25.1c0,0-4.4-7.4-6.5-7.7c-2.1-0.3-14.3-8.3-14.3-8.3l-9.2,0.8
				l-6.6,3.8l-6.1,7.9l-4.5,3.7l-8.7-0.5l-7.7-2.9c0,0-6.7-8.1-7.8-8.7c-1-0.6-14.4-3.4-14.4-3.4l-11.3,8.1l-23.7-10.9l-29.6-4.8
				l-20.3-1.1l-26.3,4.7l-22.3,11.2l-12.2,20l-4.6,18.3l0.4,17.7l8,18.1L198.4,330.8z"/>
			<path id="XMLID_254_" class="st26" d="M199.1,388.3c0,0,13.2,24.2,42.5,24.2s62.7,0,62.7,0v11.7h-69l-13.9-3.6l-11.2-7.9
				l-6.8-9.2L199.1,388.3z"/>
			<path id="XMLID_253_" class="st26" d="M402.6,388.3c0,0-13.2,24.2-42.5,24.2s-62.7,0-62.7,0v11.7h69l13.9-3.6l11.2-7.9l6.8-9.2
				L402.6,388.3z"/>
			<path id="XMLID_252_" class="st28" d="M300.9,380.3v-44.1c0,0,12,15.3,12.8,32.2l-4,9.4l-6.9,3.2"/>
			<path id="XMLID_251_" class="st26" d="M198.4,343.1c0,0,35.2-6.7,32.1-49.5l-5.3,15.2l-9.1,14.2l-8.3,6l-8.7,1L198.4,343.1z"/>
			<path id="XMLID_250_" class="st26" d="M230.7,303.1c0,0,30.4,10.9,43.5-23.2h-2.8l-8.7,13.7l-13,4.2l-19.2-4.2L228,301
				L230.7,303.1z"/>
			<path id="XMLID_249_" class="st26" d="M266.3,287.9c0,0,66,50.8,134.9,49.4l-37.6-10.2l-38.4-21l-35-18.3l-16.9-11.5L266.3,287.9
				z"/>
			<ellipse id="XMLID_248_" class="st28" cx="353.5" cy="364.9" rx="11.9" ry="6.2"/>
			<ellipse id="XMLID_247_" class="st28" cx="247" cy="364.9" rx="11.9" ry="6.2"/>
			<path id="XMLID_246_" class="st29" d="M189,318.4c0,0,22.2-0.2,40.1-26l-7,22.3l-11,11.6l-11.8,3.8L189,318.4z"/>
			<path id="XMLID_245_" class="st29" d="M229,290.7c0,0,25.7,6.8,41.7-14.2l-2.8,9.7l-9.3,10.3l-14.9,1.8l-13.2-4.5L229,290.7z"/>
			<path id="XMLID_242_" class="st29" d="M325.2,306.2c0,0,76.8,36.8,101.9,7.8l-6.3,14.9l-6.8,7.3l-19.2-0.5l-21.5-4.9l-26.5-12
				L325.2,306.2z"/>
			<path id="XMLID_241_" class="st30" d="M182.6,301.5c0,0-3.6-57,73.2-58.8c0,0,43.7,10.7,55.5,1.4c0,0-55.7-24.4-96.7-4
				C214.6,240.1,174.2,256.7,182.6,301.5z"/>
			<path id="XMLID_240_" class="st30" d="M300.8,282.1c0,0,75.5,38.1,102.6,33.9C403.4,315.9,390.9,338.9,300.8,282.1z"/>
			<g id="XMLID_229_">
				<g id="XMLID_234_">
					<path id="XMLID_237_" class="st6" d="M402.9,339.9c-33,0-113.3-49.1-129.1-59c-2.2,4.6-7.3,13.3-16.8,17.2
						c-7.4,3-15.7,2.4-24.9-1.8c-2.8,10-13.2,40.2-34.1,37l-0.8-0.1l-0.6-0.6c-0.3-0.3-8.5-8.2-13.7-21.2c-4.8-12-7.7-30.9,5.4-52.2
						c8.8-14.2,23.4-23.4,43.6-27.2c32.8-6.3,72,3.5,88.1,13.9c2.1-2.5,6.4-6.3,12.7-7c7.8-0.9,16.2,3.3,24.9,12.3
						c0.5,0.5,5.4,4.6,10.2,3.8c2.5-0.4,4.8-2.2,6.6-5.4c3.9-6.8,10.5-11,18.1-11.4c9.6-0.5,19.4,4.9,26.7,14.9
						c10,13.6,17,51.3,6.8,72c-4.7,9.5-12.5,14.5-22.7,14.7C403.2,339.9,403.1,339.9,402.9,339.9z M271.2,273.2l2.8,1.8
						c0.9,0.6,94.5,59.8,128.9,59.8c0.2,0,0.3,0,0.4,0c8.2-0.1,14.3-4.1,18.1-11.8c9.3-18.8,2.8-54.4-6.3-66.7
						c-6.3-8.6-14.4-13.3-22.3-12.8c-5.9,0.3-10.8,3.5-13.9,8.9c-2.7,4.6-6.1,7.3-10.3,7.9c-7.5,1.2-14.2-4.9-14.5-5.2l-0.1-0.1
						c-7.5-7.9-14.5-11.5-20.6-10.9c-6.8,0.7-10.5,6.6-10.6,6.7l-1.5,2.4l-2.3-1.7c-13.5-10-53.7-20.6-86.2-14.4
						c-18.7,3.6-32.2,11.9-40.2,24.9l-2.2-1.4l2.2,1.4c-21.2,34.4,2.8,62.1,6.9,66.4c19.3,1.9,28.2-35.9,28.3-36.3l0.8-3.2l3,1.6
						c8.9,4.7,16.8,5.7,23.4,3c10.8-4.3,15.1-16.9,15.1-17L271.2,273.2z"/>
				</g>
				<g id="XMLID_232_">
					<path id="XMLID_233_" class="st6" d="M198.4,373.7c-10.7,0-19.4-8.7-19.4-19.4s8.7-19.4,19.4-19.4c1.4,0,2.6,1.2,2.6,2.6
						s-1.2,2.6-2.6,2.6c-7.9,0-14.2,6.4-14.2,14.3s6.4,14.3,14.2,14.3c1.4,0,2.6,1.2,2.6,2.6S199.8,373.7,198.4,373.7z"/>
				</g>
				<g id="XMLID_230_">
					<path id="XMLID_231_" class="st6" d="M190.6,355.8c-0.1,0-0.1,0-0.2,0c-0.9-0.1-1.5-0.9-1.5-1.8c0.7-6.9,6.3-9.6,9.2-10
						c0.9-0.1,1.7,0.5,1.9,1.3c0.1,0.9-0.5,1.7-1.3,1.9c-0.2,0-5.9,1.1-6.5,7.1C192.1,355.2,191.4,355.8,190.6,355.8z"/>
				</g>
			</g>
			<g id="XMLID_224_">
				<g id="XMLID_227_">
					<path id="XMLID_228_" class="st6" d="M403.4,373.7c-1.4,0-2.6-1.2-2.6-2.6s1.2-2.6,2.6-2.6c7.9,0,14.2-6.4,14.2-14.3
						s-6.4-14.3-14.2-14.3c-1.4,0-2.6-1.2-2.6-2.6s1.2-2.6,2.6-2.6c10.7,0,19.4,8.7,19.4,19.4S414,373.7,403.4,373.7z"/>
				</g>
				<g id="XMLID_225_">
					<path id="XMLID_226_" class="st6" d="M411.2,355.8c-0.8,0-1.5-0.6-1.6-1.5c-0.6-6.1-6.2-7.1-6.5-7.1c-0.9-0.1-1.5-1-1.3-1.9
						c0.1-0.9,1-1.5,1.9-1.3c2.9,0.5,8.5,3.1,9.2,10c0.1,0.9-0.6,1.7-1.5,1.8C411.3,355.8,411.2,355.8,411.2,355.8z"/>
				</g>
			</g>
			<g id="XMLID_221_">
				<path id="XMLID_222_" class="st6" d="M359.8,427.5H241.9c-25.4,0-46.1-20.7-46.1-46.1v-50.7c0-1.4,1.2-2.6,2.6-2.6
					s2.6,1.2,2.6,2.6v50.7c0,22.6,18.4,40.9,40.9,40.9h117.9c22.6,0,40.9-18.4,40.9-40.9v-44.1c0-1.4,1.2-2.6,2.6-2.6
					s2.6,1.2,2.6,2.6v44.1C405.9,406.8,385.3,427.5,359.8,427.5z"/>
			</g>
			<g id="XMLID_218_">
				<path id="XMLID_219_" class="st6" d="M198.4,266.5c-0.4,0-0.8-0.1-1.1-0.4c-0.7-0.6-0.7-1.6-0.1-2.3
					c0.3-0.3,26.1-27.8,62.7-21.9c0.9,0.1,1.5,1,1.3,1.9s-1,1.5-1.9,1.3c-34.8-5.7-59.5,20.6-59.8,20.8
					C199.3,266.3,198.8,266.5,198.4,266.5z"/>
			</g>
			<g id="XMLID_214_">
				<path id="XMLID_215_" class="st6" d="M281.4,250.5c-0.1,0-0.3,0-0.4-0.1l-12.1-3.2c-0.9-0.2-1.4-1.1-1.2-2
					c0.2-0.9,1.1-1.4,2-1.2l12.1,3.2c0.9,0.2,1.4,1.1,1.2,2C282.8,250,282.2,250.5,281.4,250.5z"/>
			</g>
			<g id="XMLID_211_">
				<path id="XMLID_212_" class="st6" d="M418,307.8c0,0-0.1,0-0.1,0c-0.9-0.1-1.6-0.8-1.5-1.7c2.4-34.9-13.8-46.7-14-46.8
					c-0.7-0.5-0.9-1.5-0.4-2.3c0.5-0.7,1.5-0.9,2.3-0.4c0.7,0.5,17.9,12.8,15.4,49.7C419.6,307.2,418.9,307.8,418,307.8z"/>
			</g>
			<g id="XMLID_206_">
				<path id="XMLID_207_" class="st6" d="M378,320.4c-0.1,0-0.3,0-0.4-0.1c-30.8-8-77.1-36.6-77.6-36.9c-0.8-0.5-1-1.5-0.5-2.2
					c0.5-0.8,1.5-1,2.2-0.5c0.5,0.3,46.3,28.7,76.7,36.5c0.9,0.2,1.4,1.1,1.2,2C379.4,319.9,378.7,320.4,378,320.4z"/>
			</g>
		</g>
		<g id="Face">
			<g id="XMLID_205_">
				<circle id="XMLID_300_" class="st6" cx="340.9" cy="346.4" r="9.1"/>
			</g>
			<g id="XMLID_202_">
				<path id="XMLID_203_" class="st6" d="M300.9,383.8c-8.5,0-15.4-6.9-15.4-15.4c0-1.4,1.2-2.6,2.6-2.6s2.6,1.2,2.6,2.6
					c0,5.6,4.6,10.2,10.2,10.2s10.2-4.6,10.2-10.2c0-1.4,1.2-2.6,2.6-2.6s2.6,1.2,2.6,2.6C316.3,376.9,309.4,383.8,300.9,383.8z"/>
			</g>
			<g id="XMLID_200_">
				<path id="XMLID_201_" class="st6" d="M300.9,400.4c-24.6,0-43.8-9.9-43.8-22.6c0-1.4,1.2-2.6,2.6-2.6s2.6,1.2,2.6,2.6
					c0,9.5,17.7,17.4,38.7,17.4c21,0,38.7-8,38.7-17.4c0-1.4,1.2-2.6,2.6-2.6s2.6,1.2,2.6,2.6C344.7,390.4,325.4,400.4,300.9,400.4z
					"/>
			</g>
			<g id="XMLID_197_">
				<g id="XMLID_198_">
					<path id="XMLID_199_" class="st6" d="M236.9,325.6c-0.1,0-0.2,0-0.4,0c-1.4-0.2-2.4-1.5-2.2-2.9c0-0.2,3.1-20.4,32.8-20.4
						c1.4,0,2.6,1.2,2.6,2.6s-1.2,2.6-2.6,2.6c-25.1,0-27.7,15.3-27.7,15.9C239.3,324.7,238.2,325.6,236.9,325.6z"/>
				</g>
			</g>
		</g>
	</g>
	<g id="XMLID_61_">
		<path id="XMLID_119_" class="st6" d="M248.1,355.3c-0.7,0-1.4-0.3-1.9-0.8c-1-1-1-2.7,0.1-3.7c7.6-7.3,18.6-8.2,25.6-7.9
			c-9.7-9.8-24.1-12.9-24.3-12.9c-1.4-0.3-2.3-1.7-2-3.1s1.7-2.3,3.1-2c0.9,0.2,21.3,4.5,31.5,19.9l3.6,5.3l-6.3-1.3
			c-0.2,0-17.8-3.6-27.5,5.7C249.4,355.1,248.8,355.3,248.1,355.3z"/>
	</g>
</g>
<g id="Ground">
	<g id="XMLID_44_">
		<path id="XMLID_53_" class="st6" d="M504.9,680.4h-83.8c-1.4,0-2.6-1.2-2.6-2.6s1.2-2.6,2.6-2.6h83.8c1.4,0,2.6,1.2,2.6,2.6
			S506.3,680.4,504.9,680.4z"/>
	</g>
	<g id="XMLID_43_">
		<path id="XMLID_52_" class="st6" d="M412.3,680.4H301.6c-1.4,0-2.6-1.2-2.6-2.6s1.2-2.6,2.6-2.6h110.7c1.4,0,2.6,1.2,2.6,2.6
			S413.8,680.4,412.3,680.4z"/>
	</g>
	<g id="XMLID_42_">
		<path id="XMLID_51_" class="st6" d="M293.1,680.4H119.1c-1.4,0-2.6-1.2-2.6-2.6s1.2-2.6,2.6-2.6h173.9c1.4,0,2.6,1.2,2.6,2.6
			S294.5,680.4,293.1,680.4z"/>
	</g>
	<g id="XMLID_32_">
		<path id="XMLID_50_" class="st6" d="M530.6,680.4h-14.5c-1.4,0-2.6-1.2-2.6-2.6s1.2-2.6,2.6-2.6h14.5c1.4,0,2.6,1.2,2.6,2.6
			S532,680.4,530.6,680.4z"/>
	</g>
	<g id="XMLID_49_">
		<path id="XMLID_321_" class="st6" d="M111.1,680.5h-13c-1.4,0-2.6-1.2-2.6-2.6s1.2-2.6,2.6-2.6h13c1.4,0,2.6,1.2,2.6,2.6
			S112.6,680.5,111.1,680.5z"/>
	</g>
</g>
</svg>
