<svg id="Capa_1" enable-background="new 0 0 511.991 511.991" height="512" viewBox="0 0 511.991 511.991" width="512" xmlns="http://www.w3.org/2000/svg"><g><path d="m8.19 54.567-.54 109.742c0 7.077 5.737 12.813 12.813 12.813h209.839c7.077 0 12.813-5.737 12.813-12.813l.54-109.742c0-25.994-21.073-47.067-47.067-47.067-7.999 0-15.756 2.751-21.967 7.791l-2.582 2.095c-.784.636-1.893.677-2.722.101l-5.385-3.745c-5.842-4.064-12.789-6.242-19.906-6.242h-88.769c-25.995 0-47.067 21.072-47.067 47.067z" fill="#365e7d"/><path d="m196.588 7.5c-3.976 0-7.892.681-11.588 1.983 19.398 5.814 33.538 23.793 33.538 45.084l-.54 109.742c0 7.077-5.737 12.813-12.813 12.813h25.117c7.077 0 12.813-5.737 12.813-12.813l.54-109.742c.001-25.995-21.072-47.067-47.067-47.067z" fill="#2b4d66"/><path d="m326.919 504.492h-141.54c-5.606 0-10.15-4.544-10.15-10.15v-59.922c0-20.525 16.639-37.164 37.164-37.164h87.512c20.525 0 37.164 16.639 37.164 37.164v59.922c0 5.605-4.544 10.15-10.15 10.15z" fill="#bc95e2"/><path d="m299.905 397.256h-27.205c20.525 0 37.164 16.639 37.164 37.164v59.922c0 5.606-4.544 10.15-10.15 10.15h27.205c5.606 0 10.15-4.544 10.15-10.15v-59.922c0-20.526-16.639-37.164-37.164-37.164z" fill="#ac80dd"/><path d="m485.185 346.15h-197.12c-10.58 0-19.157-8.577-19.157-19.157v-206.581c0-58.516 47.437-105.953 105.953-105.953h23.528c58.516 0 105.953 47.437 105.953 105.953v206.581c0 10.581-8.577 19.157-19.157 19.157z" fill="#365e7d"/><path d="m398.39 14.46h-22.223c58.516 0 105.953 47.437 105.953 105.953v206.581c0 10.58-8.577 19.157-19.157 19.157h22.223c10.58 0 19.157-8.577 19.157-19.157v-206.582c-.001-58.516-47.437-105.952-105.953-105.952z" fill="#2b4d66"/><path d="m158.971 254.57h-13.797-39.583-13.797c-27.455 0-49.712 22.257-49.712 49.712v66.005c0 3.497 2.835 6.331 6.331 6.331h153.94c3.497 0 6.331-2.835 6.331-6.331v-66.005c-.001-27.455-22.258-49.712-49.713-49.712z" fill="#78d0b1"/><path d="m158.971 254.57h-24.223c27.455 0 49.712 22.257 49.712 49.712v66.005c0 3.497-2.835 6.331-6.331 6.331h24.223c3.497 0 6.331-2.835 6.331-6.331v-66.005c0-27.455-22.257-49.712-49.712-49.712z" fill="#66b49d"/><path d="m139.238 217.914-26.581-1.564c-6.786 0-7.085 31.796-7.085 31.796v19.465c0 10.931 8.861 19.792 19.792 19.792 10.931 0 19.792-8.861 19.792-19.792v-19.465s.868-30.232-5.918-30.232z" fill="#eaac9d"/><path d="m125.382 254.57c-52.747 0-95.507-42.76-95.507-95.507v-57.766c0-1.387 1.128-2.506 2.515-2.509 44.203-.081 83.27-6.413 118.117-28.931 1.041-.673 2.433-.458 3.179.532 15.736 20.891 37.199 26.672 64.7 28.264 1.402.081 2.503 1.233 2.503 2.638v57.771c0 52.748-42.76 95.508-95.507 95.508z" fill="#ffcbbe"/><path d="m218.386 98.654c-8.092-.468-15.657-1.305-22.712-2.776v63.186c0 48.472-36.112 88.507-82.899 94.677 4.126.544 8.333.829 12.607.829 52.747 0 95.507-42.76 95.507-95.507v-57.771c0-1.405-1.101-2.557-2.503-2.638z" fill="#eaac9d"/><path d="m420.21 262.123h-13.795-39.578-13.795c-27.452 0-49.706 22.254-49.706 49.706v60.975c0 3.496 2.834 6.33 6.33 6.33h153.918c3.496 0 6.33-2.834 6.33-6.33v-60.975c.001-27.452-22.253-49.706-49.704-49.706z" fill="#ffe07d"/><path d="m420.21 262.123h-24.22c27.452 0 49.706 22.254 49.706 49.705v60.975c0 3.496-2.834 6.33-6.33 6.33h24.219c3.496 0 6.33-2.834 6.33-6.33v-60.975c0-27.451-22.254-49.705-49.705-49.705z" fill="#ffd064"/><path d="m400.479 225.471-26.577-1.563c-6.785 0-7.084 31.792-7.084 31.792v19.462c0 10.929 8.86 19.789 19.789 19.789 10.929 0 19.789-8.86 19.789-19.789v-19.462s.868-30.229-5.917-30.229z" fill="#eaac9d"/><path d="m386.626 262.123c-52.74 0-95.493-42.754-95.494-95.493v-57.758c0-1.387 1.128-2.506 2.515-2.509 44.197-.081 83.258-6.412 118.1-28.927 1.041-.673 2.432-.458 3.178.532 15.734 20.889 37.194 26.669 64.691 28.26 1.402.081 2.503 1.233 2.503 2.638v57.763c0 52.74-42.754 95.494-95.493 95.494z" fill="#ffcbbe"/><path d="m479.616 106.228c-8.091-.468-15.655-1.304-22.708-2.776v63.177c0 48.466-36.107 88.494-82.888 94.664 4.125.544 8.332.829 12.606.829 52.739 0 95.493-42.754 95.493-95.493v-57.763c0-1.404-1.101-2.556-2.503-2.638z" fill="#eaac9d"/><circle cx="256.149" cy="330.534" fill="#ffcbbe" r="78.44"/><path d="m256.149 252.094c-4.05 0-8.029.308-11.914.9 37.667 5.74 66.526 38.269 66.526 77.54s-28.859 71.8-66.526 77.54c3.885.592 7.863.9 11.914.9 43.321 0 78.44-35.119 78.44-78.44s-35.119-78.44-78.44-78.44z" fill="#eaac9d"/><g><path d="m504.342 243.526c4.143 0 7.5-3.357 7.5-7.5v-115.614c0-62.558-50.895-113.452-113.452-113.452h-23.528c-62.559 0-113.453 50.895-113.453 113.452v124.348c-1.74-.105-3.492-.166-5.259-.166-6.693 0-13.209.77-19.465 2.224-.334-1.543-.384-3.445.433-5.465 4.578-11.324 1.063-22.866.648-24.146-1.275-3.922-5.472-6.057-9.4-4.805-3.931 1.251-6.105 5.463-4.879 9.4.023.075 2.302 7.554-.275 13.929-2.333 5.772-2.053 11.301-.804 15.768-7.968 3.415-15.318 8.002-21.835 13.541-7.038-7.445-15.925-12.841-25.674-15.678 24.626-13.558 43.144-36.893 50.28-64.742h5.124c11.201 0 20.313-9.112 20.313-20.312 0-10.664.127-31.15.262-52.84.137-22.04.278-44.83.278-56.902 0-30.087-24.479-54.566-54.568-54.566-9.486 0-18.771 3.223-26.215 9.085l-2.158-1.501c-7.134-4.962-15.498-7.584-24.189-7.584h-88.769c-30.05 0-54.505 24.416-54.567 54.45l-.537 17.889c-.124 4.14 3.132 7.597 7.272 7.722 4.109.083 7.598-3.133 7.722-7.272l.54-17.997c.002-.074.003-.149.003-.225 0-21.818 17.75-39.567 39.567-39.567h88.769c5.614 0 11.018 1.694 15.625 4.898l5.379 3.741c3.549 2.472 8.373 2.296 11.735-.43l2.582-2.096c4.859-3.941 10.982-6.113 17.241-6.113 21.817 0 39.567 17.749 39.567 39.566 0 12.025-.142 34.792-.278 56.81-.135 21.713-.262 42.222-.262 52.933 0 2.93-2.384 5.312-5.313 5.312h-2.451c.355-3.472.538-6.994.538-10.558v-57.771c0-5.367-4.204-9.815-9.569-10.125-25.164-1.457-44.851-6.314-59.144-25.29-3.091-4.102-8.906-5.12-13.239-2.317-29.538 19.086-64.716 27.638-114.057 27.729-5.517.008-10.005 4.498-10.005 10.009v57.766c0 3.564.182 7.086.538 10.558h-2.45c-2.93 0-5.313-2.383-5.313-5.312v-61.758c0-4.143-3.357-7.5-7.5-7.5s-7.5 3.357-7.5 7.5v61.758c0 11.2 9.112 20.312 20.313 20.312h5.123c7.134 27.84 25.642 51.169 50.256 64.729-23.806 6.925-41.261 28.922-41.261 54.932v66.005c0 7.627 6.204 13.832 13.831 13.832h140.601c2.393 2.991 4.978 5.823 7.742 8.469-16.936 6.353-29.025 22.704-29.025 41.831v59.923c0 9.731 7.918 17.649 17.649 17.649h72.328c4.143 0 7.5-3.357 7.5-7.5s-3.357-7.5-7.5-7.5h-72.328c-1.461 0-2.649-1.188-2.649-2.649v-59.923c0-16.356 13.308-29.663 29.664-29.663.149 0 .295-.014.442-.022 12.726 7.458 27.528 11.74 43.314 11.74 15.785 0 30.587-4.283 43.313-11.74.147.009.293.022.442.022 16.356 0 29.663 13.307 29.663 29.663v59.923c0 1.461-1.188 2.649-2.649 2.649h-39.226c-4.143 0-7.5 3.357-7.5 7.5s3.357 7.5 7.5 7.5h39.226c9.731 0 17.649-7.918 17.649-17.649v-59.923c0-19.127-12.089-35.479-29.025-41.831 1.978-1.894 3.866-3.881 5.657-5.955h142.383c7.626 0 13.831-6.204 13.831-13.83v-19.154h7.771c14.698 0 26.656-11.958 26.656-26.657v-60.979c0-4.143-3.357-7.5-7.5-7.5s-7.5 3.357-7.5 7.5v60.979c0 6.428-5.229 11.657-11.656 11.657h-7.771v-26.822c0-26.007-17.451-48-41.253-54.925 31.837-17.54 53.458-51.428 53.458-90.274v-57.763c0-5.367-4.203-9.814-9.569-10.125-25.159-1.456-44.844-6.312-59.132-25.282-3.088-4.104-8.906-5.126-13.241-2.321-29.535 19.084-64.707 27.635-114.046 27.726-5.514.012-9.999 4.502-9.999 10.009v57.757c0 38.858 21.633 72.756 53.487 90.291-7.878 2.293-15.238 6.246-21.492 11.641-10.776-10.346-24.237-17.914-39.218-21.548v-126.602c0-54.287 44.166-98.452 98.453-98.452h23.528c54.287 0 98.452 44.165 98.452 98.452v115.614c0 4.143 3.357 7.5 7.5 7.5zm-391.269 17.806c4.038.483 8.144.738 12.31.738 4.153 0 8.248-.254 12.274-.734v6.275c0 6.777-5.514 12.291-12.292 12.291s-12.292-5.514-12.292-12.291zm-75.698-102.269v-52.812c47.745-.637 83.078-9.25 113.29-27.64 17.358 20.374 40.128 25.513 62.724 27.227v53.225c0 48.527-39.479 88.007-88.007 88.007s-88.007-39.479-88.007-88.007zm12.206 210.056v-64.837c0-23.275 18.937-42.212 42.213-42.212h6.278v5.541c0 15.048 12.243 27.291 27.292 27.291s27.292-12.243 27.292-27.291v-5.541h6.314c11.843 0 23.109 5.02 31.055 13.632-12.369 14.89-19.817 34.007-19.817 54.832 0 13.867 3.306 26.976 9.164 38.585zm412.834-57.291v59.805h-130.808c6.68-12.216 10.482-26.221 10.482-41.099 0-18.944-6.166-36.472-16.59-50.694 7.646-6.619 17.274-10.218 27.542-10.218h6.277v5.539c0 15.047 12.242 27.289 27.289 27.289s27.289-12.242 27.289-27.289v-5.539h6.312c23.274.001 42.207 18.935 42.207 42.206zm-88.096-42.943c4.037.483 8.142.738 12.307.738 4.152 0 8.246-.254 12.271-.734v6.273c0 6.776-5.513 12.289-12.289 12.289s-12.289-5.513-12.289-12.289zm-75.687-102.256v-52.803c47.738-.636 83.064-9.248 113.273-27.636 17.356 20.372 40.122 25.51 62.714 27.223v53.216c0 48.521-39.474 87.994-87.994 87.994-48.519 0-87.993-39.474-87.993-87.994zm28.457 163.905c0 39.116-31.823 70.939-70.939 70.939s-70.94-31.823-70.94-70.939 31.824-70.939 70.94-70.939 70.939 31.823 70.939 70.939z"/><path d="m90.359 153.364c0-4.143-3.357-7.5-7.5-7.5s-7.5 3.357-7.5 7.5v5.561c0 4.143 3.357 7.5 7.5 7.5s7.5-3.357 7.5-7.5z"/><path d="m167.906 166.425c4.143 0 7.5-3.357 7.5-7.5v-5.561c0-4.143-3.357-7.5-7.5-7.5s-7.5 3.357-7.5 7.5v5.561c0 4.142 3.358 7.5 7.5 7.5z"/><path d="m157.219 205.047c3.622-2.01 4.928-6.575 2.918-10.197-2.01-3.621-6.575-4.927-10.197-2.918-16.523 9.171-32.591 9.17-49.114 0-3.623-2.009-8.188-.703-10.197 2.918-2.01 3.622-.704 8.188 2.918 10.197 10.562 5.862 21.199 8.793 31.837 8.793 10.636 0 21.272-2.931 31.835-8.793z"/><path d="m427.202 205.412c1.62-3.812-.157-8.216-3.97-9.835-3.809-1.621-8.215.157-9.835 3.97-4.573 10.762-15.082 17.716-26.772 17.716s-22.199-6.954-26.772-17.716c-1.619-3.812-6.023-5.591-9.835-3.97-3.812 1.619-5.59 6.023-3.97 9.835 6.931 16.312 22.858 26.851 40.577 26.851s33.647-10.539 40.577-26.851z"/><path d="m351.602 157.088v-5.561c0-4.143-3.357-7.5-7.5-7.5s-7.5 3.357-7.5 7.5v5.561c0 4.143 3.357 7.5 7.5 7.5s7.5-3.358 7.5-7.5z"/><path d="m429.15 164.588c4.143 0 7.5-3.357 7.5-7.5v-5.561c0-4.143-3.357-7.5-7.5-7.5s-7.5 3.357-7.5 7.5v5.561c0 4.142 3.357 7.5 7.5 7.5z"/><path d="m227.473 323.575c4.143 0 7.5-3.357 7.5-7.5v-5.764c0-4.143-3.357-7.5-7.5-7.5s-7.5 3.357-7.5 7.5v5.764c0 4.143 3.357 7.5 7.5 7.5z"/><path d="m284.825 323.575c4.143 0 7.5-3.357 7.5-7.5v-5.764c0-4.143-3.357-7.5-7.5-7.5s-7.5 3.357-7.5 7.5v5.764c0 4.143 3.358 7.5 7.5 7.5z"/><path d="m282.9 347.367c-18 9.988-35.5 9.988-53.5 0-3.623-2.009-8.188-.703-10.197 2.918-2.01 3.622-.703 8.188 2.918 10.197 11.29 6.266 22.66 9.398 34.029 9.398s22.739-3.133 34.029-9.398c3.621-2.01 4.928-6.575 2.918-10.197-2.01-3.621-6.574-4.927-10.197-2.918z"/></g></g></svg>