<svg id="Capa_1" enable-background="new 0 0 512.002 512.002" height="512" viewBox="0 0 512.002 512.002" width="512" xmlns="http://www.w3.org/2000/svg"><g><path d="m396.724 279.496h-281.446c-10.885 0-19.709-8.824-19.709-19.709v-112.12c0-66.365 53.8-120.165 120.165-120.165h80.534c66.365 0 120.165 53.8 120.165 120.165v112.12c0 10.885-8.824 19.709-19.709 19.709z" fill="#e49542"/><path d="m296.268 27.502h-34.664c66.365 0 120.165 53.8 120.165 120.165v112.12c0 10.885-8.824 19.709-19.709 19.709h34.664c10.885 0 19.709-8.824 19.709-19.709v-112.12c0-66.365-53.8-120.165-120.165-120.165z" fill="#e27d47"/><path d="m301.771 365.033h-18.801-53.939-18.801c-37.413 0-67.742 30.329-67.742 67.742v63.1c0 4.765 3.863 8.627 8.627 8.627h209.77c4.765 0 8.628-3.863 8.628-8.627v-63.1c0-37.413-30.329-67.742-67.742-67.742z" fill="#bc95e2"/><path d="m301.771 365.033h-33.008c37.413 0 67.742 30.329 67.742 67.742v63.1c0 4.765-3.863 8.628-8.628 8.628h33.008c4.765 0 8.627-3.863 8.627-8.628v-63.1c.001-37.413-30.328-67.742-67.741-67.742z" fill="#ac80dd"/><g><path d="m274.881 315.082-36.221-2.131c-9.248 0-9.654 43.328-9.654 43.328v26.524c0 14.895 12.075 26.97 26.97 26.97 14.895 0 26.97-12.075 26.97-26.97v-26.524s1.183-41.197-8.065-41.197z" fill="#eaac9d"/></g><path d="m256.001 365.033c-71.877 0-130.145-58.268-130.145-130.144v-68.716c0-1.89 1.537-3.415 3.427-3.419 60.234-.111 113.469-8.738 160.955-39.423 1.419-.917 3.315-.624 4.331.725 21.444 28.468 50.691 36.346 88.165 38.514 1.911.111 3.411 1.68 3.411 3.595v68.724c0 71.876-58.267 130.144-130.144 130.144z" fill="#ffcbbe"/><path d="m382.734 162.57c-11.027-.638-21.336-1.778-30.949-3.783v76.102c0 66.052-49.209 120.606-112.965 129.014 5.622.741 11.355 1.13 17.18 1.13 71.877 0 130.144-58.268 130.144-130.144v-68.724c.001-1.914-1.499-3.484-3.41-3.595z" fill="#eaac9d"/><g><path d="m296.268 20.002h-66.6l5.522-8.369c2.281-3.457 1.328-8.109-2.129-10.391-3.459-2.284-8.111-1.328-10.391 2.129l-8.221 12.458-14.189-13.719c-2.979-2.881-7.728-2.801-10.604.179-2.88 2.978-2.8 7.726.179 10.604l8.563 8.279c-32.711 4.417-62.356 21.257-83.133 47.718-2.558 3.258-1.99 7.973 1.268 10.531 3.259 2.556 7.973 1.99 10.531-1.268 21.531-27.424 53.85-43.152 88.67-43.152h80.534c62.124 0 112.665 50.541 112.665 112.665v112.12c0 6.732-5.477 12.209-12.209 12.209h-8.166c3.31-11.81 5.086-24.255 5.086-37.107v-5.293c0-4.143-3.357-7.5-7.5-7.5s-7.5 3.357-7.5 7.5v5.293c0 67.626-55.019 122.645-122.645 122.645s-122.645-55.019-122.645-122.645v-64.656c66.975-.58 115.948-12.538 157.68-38.526 23.845 29.284 55.954 35.971 87.609 38.122v29.78c0 4.143 3.357 7.5 7.5 7.5s7.5-3.357 7.5-7.5v-33.443c0-5.875-4.603-10.743-10.478-11.082-35.043-2.027-62.501-8.847-82.607-35.539-3.356-4.455-9.679-5.56-14.393-2.512-40.716 26.31-89.105 38.098-156.899 38.222-6.017.013-10.912 4.911-10.912 10.919v68.716c0 12.853 1.776 25.297 5.086 37.107h-8.165c-6.732 0-12.209-5.477-12.209-12.209v-112.12c0-15.784 3.206-31.06 9.529-45.401 1.671-3.79-.047-8.217-3.837-9.888-3.79-1.673-8.217.046-9.888 3.837-7.17 16.26-10.805 33.571-10.805 51.452v112.12c0 15.003 12.206 27.209 27.209 27.209h13.331c12.915 31.458 37.148 57.115 67.613 71.865-34.814 6.585-61.234 37.213-61.234 73.913v63.101c0 8.893 7.234 16.127 16.127 16.127h139.646c4.143 0 7.5-3.357 7.5-7.5s-3.357-7.5-7.5-7.5h-139.641c-.621 0-1.127-.506-1.127-1.127v-63.101c0-33.217 27.024-60.241 60.242-60.241h11.275v10.271c0 19.007 15.463 34.47 34.47 34.47s34.47-15.463 34.47-34.47v-10.271h11.325c33.218 0 60.242 27.024 60.242 60.241v63.101c0 .621-.506 1.127-1.128 1.127h-40.137c-4.143 0-7.5 3.357-7.5 7.5s3.357 7.5 7.5 7.5h40.137c8.893 0 16.128-7.234 16.128-16.127v-63.101c0-36.7-26.419-67.328-61.234-73.913 30.465-14.75 54.698-40.407 67.612-71.865h13.332c15.003 0 27.209-12.206 27.209-27.209v-112.12c.001-70.395-57.269-127.665-127.664-127.665zm-40.292 382.271c-10.735 0-19.47-8.734-19.47-19.47v-11.657c6.371.907 12.877 1.387 19.495 1.387 6.6 0 13.09-.477 19.444-1.38v11.65c.001 10.736-8.734 19.47-19.469 19.47z"/><path d="m198.097 214.812c-4.143 0-7.5 3.357-7.5 7.5s3.357 7.5 7.5 7.5h5.289c4.143 0 7.5-3.357 7.5-7.5s-3.357-7.5-7.5-7.5z"/><path d="m313.905 214.812h-5.289c-4.143 0-7.5 3.357-7.5 7.5s3.357 7.5 7.5 7.5h5.289c4.143 0 7.5-3.357 7.5-7.5s-3.358-7.5-7.5-7.5z"/><path d="m218.723 198.265c2.347-3.412 1.483-8.082-1.93-10.43-10.498-7.222-21.603-7.223-32.104 0-3.413 2.348-4.276 7.018-1.93 10.43 2.348 3.413 7.018 4.275 10.43 1.93 5.296-3.643 9.811-3.642 15.104 0 1.298.893 2.778 1.321 4.243 1.321 2.386 0 4.732-1.137 6.187-3.251z"/><path d="m330.465 198.265c2.347-3.412 1.483-8.082-1.93-10.43-10.499-7.222-21.604-7.223-32.104 0-3.413 2.348-4.276 7.018-1.93 10.43 2.348 3.413 7.018 4.275 10.43 1.93 5.296-3.643 9.811-3.642 15.104 0 1.298.893 2.778 1.321 4.243 1.321 2.387 0 4.732-1.137 6.187-3.251z"/><path d="m241.119 273.343c-3.402 2.362-4.246 7.035-1.883 10.438 2.371 3.415 7.048 4.239 10.438 1.883 10.18-7.068 18.325-9.368 26.41-7.455 4.03.95 8.071-1.542 9.025-5.572.953-4.03-1.541-8.071-5.572-9.025-16.317-3.862-29.74 3.703-38.418 9.731z"/></g></g></svg>