<svg id="Capa_1" enable-background="new 0 0 512 512" height="512" viewBox="0 0 512 512" width="512" xmlns="http://www.w3.org/2000/svg"><g><path d="m95.568 71.637v160.396c0 9.643 7.817 17.46 17.46 17.46h285.943c9.643 0 17.46-7.817 17.46-17.46v-160.396c0-35.422-28.715-64.137-64.137-64.137-10.901 0-21.47 3.749-29.934 10.617l-3.518 2.855c-1.068.866-2.58.922-3.709.137l-7.338-5.103c-7.962-5.538-17.428-8.506-27.126-8.506h-120.964c-35.421 0-64.137 28.715-64.137 64.137z" fill="#365e7d"/><g><path d="m352.295 7.5c-5.418 0-10.754.928-15.79 2.703 26.433 7.922 45.701 32.423 45.701 61.434v160.396c0 9.643-7.817 17.46-17.46 17.46h34.227c9.643 0 17.46-7.817 17.46-17.46v-160.396c-.001-35.422-28.716-64.137-64.138-64.137z" fill="#2b4d66"/></g><path d="m301.771 345.031h-18.801-53.94-18.8c-37.413 0-67.742 30.329-67.742 67.742v83.1c0 4.765 3.863 8.628 8.628 8.628h209.77c4.765 0 8.628-3.863 8.628-8.628v-83.1c-.002-37.413-30.331-67.742-67.743-67.742z" fill="#dd636e"/><path d="m301.771 345.031h-33.008c37.413 0 67.742 30.329 67.742 67.742v83.1c0 4.765-3.863 8.628-8.628 8.628h33.008c4.765 0 8.627-3.863 8.627-8.628v-83.1c0-37.413-30.329-67.742-67.741-67.742z" fill="#da4a54"/><g><path d="m274.881 295.08-36.221-2.131c-9.248 0-9.654 43.328-9.654 43.328v26.524c0 14.895 12.075 26.97 26.97 26.97 14.895 0 26.97-12.075 26.97-26.97v-26.524c-.001 0 1.182-41.197-8.065-41.197z" fill="#eaac9d"/></g><path d="m256 345.031c-71.877 0-130.145-58.268-130.145-130.144v-78.716c0-1.89 1.537-3.415 3.427-3.419 60.234-.111 113.469-8.738 160.955-39.423 1.419-.917 3.315-.624 4.332.725 21.444 28.468 50.691 36.346 88.165 38.514 1.911.111 3.411 1.68 3.411 3.595v78.724c0 71.876-58.268 130.144-130.145 130.144z" fill="#ffcbbe"/><path d="m382.734 132.568c-11.027-.638-21.336-1.778-30.949-3.783v86.102c0 66.052-49.209 120.606-112.965 129.014 5.622.742 11.355 1.13 17.18 1.13 71.877 0 130.144-58.268 130.144-130.144v-78.724c.001-1.914-1.499-3.484-3.41-3.595z" fill="#eaac9d"/><ellipse cx="200.741" cy="202.31" fill="#f6f9f9" rx="21.604" ry="23.604"/><ellipse cx="311.26" cy="202.31" fill="#f6f9f9" rx="21.604" ry="23.604"/><path d="m295.294 278.225c0 11.409-4.398 21.739-11.509 29.216s-16.934-1.303-27.785-1.303c-12.412 0-23.48 7.353-30.681-2.096-5.39-7.072-8.613-16.049-8.613-25.816 0-22.819 17.592-41.317 39.294-41.317 21.701-.001 39.294 18.497 39.294 41.316z" fill="#da4a54"/><path d="m272.342 281.125c-6.472 0-11.037 2.638-13.668 4.768-1.566 1.268-3.782 1.268-5.348 0-2.631-2.129-7.196-4.768-13.668-4.768-9.674 0-16.342 7.614-16.342 16.481 0 1.428.183 2.893.549 4.385 7.112 10.613 18.849 17.552 32.134 17.552s25.022-6.94 32.134-17.552c.366-1.491.55-2.957.55-4.385 0-8.868-6.667-16.481-16.341-16.481z" fill="#dd636e"/><g><path d="m416.432 85.305c4.143 0 7.5-3.358 7.5-7.5v-6.168c0-39.501-32.136-71.637-71.637-71.637-12.581 0-24.89 4.366-34.66 12.293l-.942.764-4.614-3.209c-9.265-6.442-20.126-9.848-31.41-9.848h-120.963c-39.501 0-71.638 32.136-71.638 71.637v160.396c0 13.763 11.197 24.96 24.961 24.96h11.922c11.595 36.002 37.636 65.581 71.271 81.865-34.814 6.585-61.234 37.214-61.234 73.914v83.1c0 8.893 7.234 16.128 16.127 16.128h139.645c4.143 0 7.5-3.357 7.5-7.5s-3.357-7.5-7.5-7.5h-139.645c-.621 0-1.127-.506-1.127-1.128v-83.1c0-33.218 27.024-60.242 60.242-60.242h11.275v10.271c0 19.007 15.463 34.47 34.47 34.47s34.47-15.463 34.47-34.47v-10.271h11.325c33.218 0 60.242 27.024 60.242 60.242v83.1c0 .622-.506 1.128-1.128 1.128h-40.137c-4.143 0-7.5 3.357-7.5 7.5s3.357 7.5 7.5 7.5h40.137c8.893 0 16.128-7.235 16.128-16.128v-83.1c0-36.7-26.419-67.329-61.234-73.914 33.634-16.284 59.674-45.863 71.27-81.865h11.923c13.764 0 24.961-11.197 24.961-24.96v-124.241c0-4.142-3.357-7.5-7.5-7.5s-7.5 3.358-7.5 7.5v124.241c0 5.492-4.469 9.96-9.961 9.96h-8.014c1.758-8.767 2.687-17.831 2.687-27.107v-78.724c0-5.875-4.603-10.742-10.477-11.082-35.044-2.028-62.503-8.848-82.608-35.54-3.355-4.456-9.679-5.559-14.393-2.512-40.715 26.31-89.104 38.098-156.897 38.223-6.018.011-10.914 4.909-10.914 10.919v41.63c0 4.142 3.357 7.5 7.5 7.5s7.5-3.358 7.5-7.5v-37.57c66.976-.581 115.949-12.539 157.68-38.526 23.844 29.284 55.953 35.971 87.609 38.122v75.06c0 67.626-55.019 122.645-122.645 122.645s-122.645-55.019-122.645-122.645v-7.098c0-4.142-3.357-7.5-7.5-7.5s-7.5 3.358-7.5 7.5v7.098c0 9.277.928 18.34 2.687 27.107h-8.013c-5.492 0-9.961-4.468-9.961-9.96v-160.396c0-31.23 25.407-56.637 56.638-56.637h120.963c8.207 0 16.106 2.477 22.845 7.163l7.338 5.104c3.849 2.677 9.079 2.482 12.716-.471l3.519-2.854c7.106-5.767 16.058-8.942 25.209-8.942 31.23 0 56.638 25.407 56.638 56.637v6.168c-.001 4.142 3.357 7.5 7.499 7.5zm-160.431 267.226c6.6 0 13.09-.477 19.444-1.38v11.65c0 10.735-8.734 19.47-19.47 19.47s-19.47-8.734-19.47-19.47v-11.657c6.371.907 12.878 1.387 19.496 1.387z"/><path d="m193.241 199.666v5.289c0 4.142 3.357 7.5 7.5 7.5s7.5-3.358 7.5-7.5v-5.289c0-4.142-3.357-7.5-7.5-7.5s-7.5 3.358-7.5 7.5z"/><path d="m303.76 199.666v5.289c0 4.142 3.357 7.5 7.5 7.5s7.5-3.358 7.5-7.5v-5.289c0-4.142-3.357-7.5-7.5-7.5s-7.5 3.358-7.5 7.5z"/><path d="m216.793 157.833c-10.499-7.222-21.604-7.224-32.104 0-3.413 2.347-4.276 7.017-1.93 10.43 2.348 3.412 7.017 4.275 10.43 1.929 5.296-3.641 9.811-3.639 15.104 0 1.298.893 2.778 1.322 4.243 1.321 2.386 0 4.731-1.136 6.187-3.25 2.346-3.413 1.483-8.083-1.93-10.43z"/><path d="m324.278 171.513c2.386 0 4.731-1.136 6.187-3.25 2.347-3.413 1.483-8.083-1.93-10.43-10.498-7.222-21.603-7.224-32.104 0-3.413 2.347-4.276 7.017-1.93 10.43 2.349 3.412 7.018 4.275 10.43 1.929 5.296-3.641 9.811-3.639 15.104 0 1.298.892 2.778 1.321 4.243 1.321z"/><path d="m256 229.408c-25.802 0-46.793 21.899-46.793 48.817 0 27.031 21.142 48.817 46.793 48.817 25.677 0 46.794-21.821 46.794-48.817 0-26.918-20.992-48.817-46.794-48.817zm0 15c17.531 0 31.794 15.171 31.794 33.817 0 .324-.014.644-.023.966-4.131-3.486-9.493-5.566-15.429-5.566-7.171 0-12.622 2.422-16.341 4.927-3.72-2.505-9.17-4.927-16.342-4.927-5.936 0-11.298 2.08-15.429 5.566-.009-.322-.023-.642-.023-.966 0-18.646 14.262-33.817 31.793-33.817zm0 67.634c-10.184 0-19.259-5.126-25.081-13.073-.064-.466-.101-.923-.101-1.364 0-4.463 3.037-8.98 8.842-8.98 4.233 0 7.203 1.685 8.947 3.096 4.285 3.471 10.504 3.47 14.787.001 1.745-1.412 4.715-3.097 8.948-3.097 5.805 0 8.842 4.518 8.842 8.98 0 .442-.037.899-.101 1.364-5.824 7.947-14.898 13.073-25.083 13.073z"/></g></g></svg>