<svg id="Capa_1" enable-background="new 0 0 512 512" height="512" viewBox="0 0 512 512" width="512" xmlns="http://www.w3.org/2000/svg"><g><g><path d="m390.324 459.549h-268.647c-14.419 0-26.108-11.689-26.108-26.108v-281.542c0-79.749 64.649-144.399 144.398-144.399h32.066c79.749 0 144.399 64.65 144.399 144.399v281.542c0 14.419-11.689 26.108-26.108 26.108z" fill="#e49542"/><path d="m272.033 7.5h-30.287c79.749 0 144.399 64.65 144.399 144.399v281.542c0 14.419-11.689 26.108-26.108 26.108h30.287c14.419 0 26.108-11.689 26.108-26.108v-281.542c0-79.749-64.649-144.399-144.399-144.399z" fill="#e27d47"/></g><path d="m301.771 345.031h-18.801-53.939-18.801c-37.413 0-67.742 30.329-67.742 67.742v83.1c0 4.765 3.863 8.627 8.628 8.627h209.77c4.765 0 8.628-3.863 8.628-8.627v-83.1c-.001-37.413-30.33-67.742-67.743-67.742z" fill="#365e7d"/><path d="m301.771 345.031h-33.008c37.413 0 67.742 30.329 67.742 67.742v83.1c0 4.765-3.863 8.628-8.628 8.628h33.008c4.765 0 8.627-3.863 8.627-8.628v-83.1c.001-37.413-30.328-67.742-67.741-67.742z" fill="#2b4d66"/><g><path d="m274.881 295.08-36.221-2.131c-9.248 0-9.654 43.328-9.654 43.328v26.524c0 14.895 12.075 26.97 26.97 26.97 14.895 0 26.97-12.075 26.97-26.97v-26.524c-.001 0 1.183-41.197-8.065-41.197z" fill="#eaac9d"/></g><path d="m256.001 345.031c-71.877 0-130.145-58.268-130.145-130.144v-78.716c0-1.89 1.537-3.415 3.427-3.419 60.234-.111 113.469-8.738 160.955-39.423 1.419-.917 3.315-.624 4.332.725 21.444 28.468 50.691 36.346 88.165 38.514 1.911.111 3.411 1.68 3.411 3.595v78.724c-.001 71.876-58.269 130.144-130.145 130.144z" fill="#ffcbbe"/><path d="m382.734 132.568c-11.027-.638-21.336-1.778-30.949-3.783v86.102c0 66.052-49.209 120.606-112.965 129.014 5.622.742 11.355 1.13 17.18 1.13 71.877 0 130.144-58.268 130.144-130.144v-78.724c.001-1.914-1.499-3.484-3.41-3.595z" fill="#eaac9d"/><g><path d="m400.354 70.591c-2.22-3.498-6.855-4.53-10.352-2.312-3.497 2.221-4.532 6.854-2.312 10.352 13.896 21.889 21.242 47.225 21.242 73.269v281.543c0 10.26-8.348 18.607-18.607 18.607h-13.312v-39.276c0-36.7-26.419-67.329-61.234-73.914 46.039-22.29 77.865-69.483 77.865-123.972v-78.723c0-5.875-4.603-10.743-10.477-11.082-35.044-2.028-62.503-8.849-82.609-35.542-3.355-4.451-9.676-5.556-14.392-2.51-40.715 26.31-89.104 38.099-156.896 38.223-6.02.01-10.916 4.907-10.916 10.919v41.63c0 4.143 3.357 7.5 7.5 7.5s7.5-3.357 7.5-7.5v-37.57c66.976-.58 115.951-12.54 157.68-38.527 23.844 29.284 55.952 35.971 87.609 38.123v75.06c0 67.626-55.019 122.645-122.645 122.645s-122.645-55.019-122.645-122.645v-7.098c0-4.143-3.357-7.5-7.5-7.5s-7.5 3.357-7.5 7.5v7.098c0 54.489 31.827 101.683 77.866 123.972-34.814 6.585-61.234 37.214-61.234 73.914v39.276h-13.312c-10.261 0-18.608-8.348-18.608-18.607v-281.546c.003-75.486 61.416-136.898 136.903-136.898h32.065c37.136 0 71.896 14.631 97.875 41.197 2.896 2.959 7.644 3.016 10.606.118 2.961-2.896 3.014-7.645.118-10.606-28.824-29.476-67.393-45.709-108.599-45.709h-32.065c-83.758 0-151.9 68.142-151.9 151.898v281.543c0 18.531 15.077 33.607 33.608 33.607h13.312v28.823c0 8.893 7.234 16.128 16.127 16.128h139.646c4.143 0 7.5-3.357 7.5-7.5s-3.357-7.5-7.5-7.5h-139.646c-.621 0-1.127-.506-1.127-1.128v-83.1c0-33.218 27.024-60.242 60.242-60.242h11.275v10.271c0 19.007 15.463 34.47 34.47 34.47s34.47-15.463 34.47-34.47v-10.27h11.325c33.218 0 60.242 27.024 60.242 60.242v83.1c0 .622-.506 1.128-1.128 1.128h-40.137c-4.143 0-7.5 3.357-7.5 7.5s3.357 7.5 7.5 7.5h40.137c8.893 0 16.128-7.235 16.128-16.128v-28.823h13.312c18.531 0 33.607-15.076 33.607-33.607v-281.544c.001-28.895-8.153-57.011-23.577-81.307zm-144.378 311.68c-10.735 0-19.47-8.734-19.47-19.47v-11.657c6.371.907 12.878 1.387 19.495 1.387 6.6 0 13.09-.477 19.444-1.38v11.65c0 10.735-8.734 19.47-19.469 19.47z"/><path d="m216.886 203.311c0-4.143-3.357-7.5-7.5-7.5h-17.289c-4.143 0-7.5 3.357-7.5 7.5s3.357 7.5 7.5 7.5h17.289c4.142 0 7.5-3.358 7.5-7.5z"/><path d="m302.615 195.811c-4.143 0-7.5 3.357-7.5 7.5s3.357 7.5 7.5 7.5h17.289c4.143 0 7.5-3.357 7.5-7.5s-3.357-7.5-7.5-7.5z"/><path d="m217.896 158.094c-3.531-2.165-8.135-1.085-10.301 2.443-.34.534-8.473 13.025-23.468 9.523-4.022-.942-8.068 1.561-9.011 5.595-.943 4.033 1.562 8.067 5.595 9.011 3.008.703 5.881 1.018 8.613 1.018 15.914 0 26.981-10.667 31.023-17.25 2.168-3.53 1.078-8.173-2.451-10.34z"/><path d="m336.884 175.655c-.943-4.033-4.977-6.544-9.011-5.595-14.933 3.49-23.066-8.896-23.464-9.517-2.179-3.498-6.774-4.581-10.289-2.426-3.53 2.168-4.635 6.786-2.468 10.316 4.042 6.583 15.107 17.249 31.023 17.249 2.731 0 5.607-.314 8.613-1.018 4.034-.941 6.539-4.976 5.596-9.009z"/><path d="m195.862 288.227c0 4.143 3.357 7.5 7.5 7.5s7.5-3.357 7.5-7.5c0-24.889 20.249-45.138 45.138-45.138s45.138 20.249 45.138 45.138c0 4.143 3.357 7.5 7.5 7.5s7.5-3.357 7.5-7.5c0-33.16-26.978-60.138-60.138-60.138s-60.138 26.977-60.138 60.138z"/></g></g></svg>