<svg id="Capa_1" enable-background="new 0 0 512 512" height="512" viewBox="0 0 512 512" width="512" xmlns="http://www.w3.org/2000/svg"><g><g><path d="m390.324 459.549h-268.648c-14.419 0-26.108-11.689-26.108-26.108v-281.542c0-79.749 64.65-144.399 144.399-144.399h32.066c79.749 0 144.399 64.65 144.399 144.399v281.542c0 14.419-11.689 26.108-26.108 26.108z" fill="#365e7d"/><path d="m272.033 7.5h-30.287c79.749 0 144.399 64.65 144.399 144.399v281.542c0 14.419-11.689 26.108-26.108 26.108h30.287c14.419 0 26.108-11.689 26.108-26.108v-281.542c0-79.749-64.65-144.399-144.399-144.399z" fill="#2b4d66"/></g><path d="m301.771 345.031h-18.801-53.94-18.8c-37.413 0-67.742 30.329-67.742 67.742v83.1c0 4.765 3.863 8.628 8.628 8.628h209.77c4.765 0 8.628-3.863 8.628-8.628v-83.1c-.002-37.413-30.331-67.742-67.743-67.742z" fill="#ffe07d"/><path d="m301.771 345.031h-33.008c37.413 0 67.742 30.329 67.742 67.742v83.1c0 4.765-3.863 8.628-8.628 8.628h33.008c4.765 0 8.627-3.863 8.627-8.628v-83.1c0-37.413-30.329-67.742-67.741-67.742z" fill="#ffd064"/><path d="m256 345.031c-71.877 0-130.145-58.268-130.145-130.144v-78.716c0-1.89 1.537-3.415 3.427-3.419 60.234-.111 113.469-8.738 160.955-39.423 1.419-.917 3.315-.624 4.332.725 21.444 28.468 50.691 36.346 88.165 38.514 1.911.111 3.411 1.68 3.411 3.595v78.724c0 71.876-58.268 130.144-130.145 130.144z" fill="#ffcbbe"/><path d="m382.734 132.568c-11.027-.638-21.336-1.778-30.949-3.783v86.102c0 66.052-49.209 120.606-112.965 129.014 5.622.742 11.355 1.13 17.18 1.13 71.877 0 130.144-58.268 130.144-130.144v-78.724c.001-1.914-1.499-3.484-3.41-3.595z" fill="#eaac9d"/><ellipse cx="256" cy="263.269" fill="#da4a54" rx="45.314" ry="34.841"/><path d="m292.448 409.1h-72.896v-112.383c0-20.13 16.318-36.448 36.448-36.448 20.13 0 36.448 16.318 36.448 36.448z" fill="#78d0b1"/><path d="m256 260.269c-3.672 0-7.215.549-10.557 1.559 14.98 4.527 25.891 18.432 25.891 34.889v112.383h21.115v-112.383c-.001-20.13-16.319-36.448-36.449-36.448z" fill="#66b49d"/><g><path d="m400.353 70.591c-2.22-3.498-6.855-4.529-10.352-2.312-3.497 2.221-4.532 6.854-2.312 10.352 13.896 21.889 21.242 47.225 21.242 73.269v281.543c0 10.26-8.348 18.607-18.607 18.607h-13.312v-39.276c0-36.692-26.407-67.315-61.21-73.91 19.55-9.485 36.881-23.612 50.055-41.034 18.179-24.042 27.787-52.723 27.787-82.942v-78.723c0-5.875-4.603-10.743-10.477-11.082-35.044-2.028-62.503-8.849-82.609-35.542-3.355-4.45-9.675-5.556-14.392-2.51-40.715 26.31-89.104 38.099-156.896 38.223-6.019.01-10.915 4.907-10.915 10.919v41.63c0 4.143 3.358 7.5 7.5 7.5s7.5-3.357 7.5-7.5v-37.57c66.976-.58 115.951-12.54 157.679-38.527 23.844 29.284 55.952 35.971 87.609 38.123v75.06c0 26.927-8.559 52.479-24.752 73.896-13.802 18.254-32.719 32.441-53.944 40.625v-32.69c0-3.034-.31-5.998-.898-8.861 6.323-7.129 9.764-15.711 9.764-24.587 0-23.347-23.692-42.341-52.814-42.341s-52.814 18.994-52.814 42.341c0 8.876 3.441 17.458 9.764 24.587-.589 2.863-.898 5.827-.898 8.861v32.682c-21.324-8.223-40.328-22.508-54.143-40.88-16.063-21.363-24.554-46.824-24.554-73.633v-7.098c0-4.143-3.358-7.5-7.5-7.5s-7.5 3.357-7.5 7.5v7.098c0 30.086 9.532 58.665 27.564 82.647 13.199 17.554 30.627 31.787 50.291 41.327-34.81 6.589-61.223 37.216-61.223 73.912v39.276h-13.312c-10.26 0-18.608-8.348-18.608-18.607v-281.546c.003-75.486 61.415-136.898 136.901-136.898h32.066c37.136 0 71.896 14.631 97.875 41.197 2.896 2.96 7.644 3.016 10.606.118 2.961-2.896 3.014-7.645.118-10.606-28.825-29.476-67.393-45.709-108.599-45.709h-32.066c-83.757 0-151.898 68.142-151.898 151.898v281.543c0 18.531 15.077 33.607 33.608 33.607h13.312v28.823c0 8.893 7.235 16.128 16.127 16.128h139.644c4.143 0 7.5-3.357 7.5-7.5s-3.357-7.5-7.5-7.5h-139.645c-.622 0-1.127-.506-1.127-1.128v-83.1c0-33.218 27.024-60.242 60.242-60.242h1.822v56.57c0 4.143 3.358 7.5 7.5 7.5h72.896c4.143 0 7.5-3.357 7.5-7.5v-56.57h1.822c33.218 0 60.242 27.024 60.242 60.242v83.1c0 .622-.506 1.128-1.128 1.128h-40.137c-4.143 0-7.5 3.357-7.5 7.5s3.357 7.5 7.5 7.5h40.137c8.893 0 16.128-7.235 16.128-16.128v-28.823h13.312c18.531 0 33.607-15.076 33.607-33.607v-281.543c0-28.895-8.153-57.011-23.578-81.307zm-182.167 192.678c0-15.076 16.963-27.341 37.814-27.341s37.814 12.265 37.814 27.341c0 3.101-.717 5.867-1.808 8.294-7.954-11.352-21.123-18.794-36.006-18.794-14.882 0-28.051 7.443-36.006 18.794-1.09-2.428-1.808-5.194-1.808-8.294zm66.762 138.332h-57.896v-104.884c0-15.962 12.986-28.948 28.948-28.948 15.961 0 28.948 12.986 28.948 28.948z"/><path d="m179.375 207.775c2.689 3.167 7.423 3.537 10.571.864l17.867-15.167c1.679-1.425 2.646-3.516 2.646-5.718s-.968-4.293-2.646-5.718l-17.867-15.167c-3.156-2.68-7.89-2.294-10.571.864-2.681 3.157-2.293 7.891.864 10.571l11.131 9.449-11.131 9.449c-3.157 2.683-3.544 7.416-.864 10.573z"/><path d="m332.625 167.734c-2.68-3.158-7.412-3.545-10.571-.864l-17.867 15.167c-1.679 1.425-2.646 3.516-2.646 5.718s.968 4.293 2.646 5.718l17.867 15.167c3.143 2.669 7.88 2.307 10.571-.864 2.681-3.157 2.294-7.891-.864-10.571l-11.132-9.449 11.132-9.449c3.158-2.682 3.544-7.415.864-10.573z"/><path d="m246.443 291.61c-4.142 0-7.5 3.357-7.5 7.5v17.376c0 4.143 3.358 7.5 7.5 7.5s7.5-3.357 7.5-7.5v-17.376c0-4.142-3.358-7.5-7.5-7.5z"/><path d="m268.945 352.305c-4.143 0-7.5 3.357-7.5 7.5v17.376c0 4.143 3.357 7.5 7.5 7.5s7.5-3.357 7.5-7.5v-17.376c0-4.143-3.357-7.5-7.5-7.5z"/></g></g></svg>