<svg id="Capa_1" enable-background="new 0 0 512.011 512.011" height="512" viewBox="0 0 512.011 512.011" width="512" xmlns="http://www.w3.org/2000/svg"><g><path d="m366.516 467.133h-221.011c-6.446 0-11.671-5.225-11.671-11.671v-195.012c0-46.633 37.803-84.436 84.436-84.436h75.482c46.633 0 84.436 37.803 84.436 84.436v195.012c-.001 6.445-5.226 11.671-11.672 11.671z" fill="#e49542"/><path d="m293.751 176.014h-25.557c46.633 0 84.436 37.803 84.436 84.436v195.012c0 6.446-5.225 11.671-11.671 11.671h25.558c6.446 0 11.671-5.225 11.671-11.671v-195.012c0-46.633-37.804-84.436-84.437-84.436z" fill="#e27d47"/><path d="m290.867 433.061h-14.318-41.078-14.318c-28.492 0-51.589 23.097-51.589 51.589v13.285c0 3.629 2.942 6.57 6.57 6.57h159.75c3.629 0 6.57-2.942 6.57-6.57v-13.285c.002-28.492-23.095-51.589-51.587-51.589z" fill="#365e7d"/><path d="m290.867 433.061h-25.137c28.492 0 51.589 23.097 51.589 51.589v13.285c0 3.629-2.942 6.57-6.57 6.57h25.137c3.629 0 6.57-2.942 6.57-6.57v-13.285c0-28.492-23.097-51.589-51.589-51.589z" fill="#2b4d66"/><g><path d="m270.389 395.021-27.584-1.623c-7.043 0-7.352 32.996-7.352 32.996v20.2c0 11.343 9.196 20.539 20.539 20.539 11.343 0 20.539-9.196 20.539-20.539v-20.2c-.001.001.9-31.373-6.142-31.373z" fill="#eaac9d"/></g><path d="m256.01 433.061c-54.738 0-99.112-44.374-99.112-99.112v-59.946c0-1.44 1.17-2.601 2.61-2.604 45.871-.084 86.413-6.655 122.575-30.023 1.08-.698 2.525-.475 3.299.552 16.33 21.68 38.603 27.679 67.142 29.331 1.455.084 2.598 1.28 2.598 2.737v59.952c0 54.739-44.374 99.113-99.112 99.113z" fill="#ffcbbe"/><path d="m352.525 271.26c-8.398-.486-16.248-1.354-23.569-2.881v65.571c0 50.302-37.475 91.847-86.029 98.251 4.281.565 8.648.861 13.083.861 54.738 0 99.112-44.374 99.112-99.112v-59.952c0-1.459-1.142-2.654-2.597-2.738z" fill="#eaac9d"/><path d="m310.76 62.254c0-30.947-25.676-55.897-56.888-54.708-28.11 1.07-51.125 23.783-52.539 51.878-1.342 26.66 16.399 49.402 40.762 55.786 1.635.429 3.025 1.505 3.87 2.969l7.62 13.199c1.078 1.867 3.773 1.867 4.851 0l7.62-13.198c.842-1.459 2.224-2.539 3.854-2.965 23.505-6.152 40.85-27.528 40.85-52.961z" fill="#ffe07d"/><path d="m260.834 7.733c15.997 9.557 26.718 27.032 26.718 47.021 0 25.433-17.345 46.809-40.849 52.96-1.63.427-3.012 1.506-3.854 2.965l-2.353 4.075c.531.156 1.061.315 1.598.456 1.635.428 3.025 1.505 3.87 2.969l7.62 13.199c1.078 1.867 3.773 1.867 4.851 0l7.62-13.198c.843-1.459 2.224-2.538 3.854-2.965 23.504-6.152 40.849-27.527 40.849-52.96.002-28.611-21.949-52.078-49.924-54.522z" fill="#ffd064"/><path d="m439.761 115.827c17.503-25.522 10.439-60.62-15.973-77.292-23.787-15.015-55.614-9.301-72.67 13.069-16.185 21.227-14.416 50.016 2.065 69.061 1.106 1.278 1.644 2.952 1.513 4.637l-1.18 15.195c-.167 2.15 2.056 3.674 4.001 2.744l13.749-6.575c1.52-.727 3.27-.835 4.856-.265 22.861 8.219 49.255.4 63.639-20.574z" fill="#80b4fb"/><path d="m429.423 42.626c7.788 16.93 6.746 37.405-4.56 53.89-14.384 20.975-40.778 28.793-63.641 20.573-1.585-.57-3.336-.461-4.855.266l-4.245 2.03c.349.429.697.86 1.06 1.28 1.106 1.278 1.644 2.952 1.513 4.637l-1.18 15.195c-.167 2.15 2.056 3.674 4.001 2.744l13.749-6.575c1.52-.727 3.27-.835 4.856-.266 22.863 8.22 49.257.402 63.641-20.573 16.18-23.595 11.35-55.363-10.339-73.201z" fill="#61a2f9"/><path d="m487.672 250.726c22.327-21.429 22.549-57.23.08-78.925-20.236-19.54-52.56-20.417-73.809-1.984-20.164 17.492-24.287 46.039-12.024 68.037.823 1.477 1.009 3.224.538 4.848l-4.246 14.637c-.601 2.071 1.266 4.015 3.359 3.5l14.798-3.641c1.636-.403 3.372-.153 4.808.728 20.714 12.698 48.146 10.411 66.496-7.2z" fill="#78d0b1"/><path d="m492.437 176.953c4.182 18.16-1.003 37.995-15.424 51.836-18.35 17.611-45.782 19.898-66.495 7.2-1.436-.881-3.172-1.13-4.808-.727l-4.569 1.124c.255.491.507.984.778 1.469.823 1.477 1.009 3.224.538 4.848l-4.246 14.637c-.601 2.071 1.266 4.015 3.359 3.5l14.798-3.641c1.636-.402 3.372-.153 4.808.728 20.714 12.698 48.146 10.411 66.495-7.199 20.642-19.813 22.374-51.899 4.766-73.775z" fill="#66b49d"/><path d="m72.25 115.827c-17.503-25.522-10.438-60.62 15.973-77.292 23.787-15.015 55.614-9.301 72.67 13.069 16.185 21.227 14.416 50.016-2.065 69.061-1.106 1.278-1.644 2.952-1.513 4.637l1.18 15.195c.167 2.15-2.056 3.674-4.001 2.744l-13.749-6.575c-1.52-.727-3.27-.835-4.856-.265-22.861 8.219-49.255.4-63.639-20.574z" fill="#dd636e"/><g><path d="m160.893 51.603c-13.361-17.523-35.784-24.822-56.308-19.947 11.964 2.812 23.028 9.591 30.924 19.947 16.185 21.227 14.416 50.016-2.065 69.061-1.106 1.278-1.644 2.952-1.513 4.637l.938 12.074c1.012-.299 2.021-.616 3.021-.976 1.585-.57 3.335-.461 4.855.266l13.749 6.575c1.945.93 4.168-.594 4.001-2.744l-1.18-15.195c-.131-1.685.406-3.359 1.512-4.637 16.482-19.044 18.251-47.833 2.066-69.061z" fill="#da4a54"/></g><path d="m24.339 250.726c-22.327-21.429-22.549-57.23-.08-78.925 20.236-19.54 52.56-20.417 73.809-1.984 20.164 17.492 24.287 46.039 12.024 68.037-.823 1.477-1.009 3.224-.538 4.848l4.246 14.637c.601 2.071-1.266 4.015-3.359 3.5l-14.798-3.641c-1.636-.403-3.372-.153-4.808.728-20.714 12.698-48.146 10.411-66.496-7.2z" fill="#bc95e2"/><path d="m109.554 242.702c-.471-1.624-.285-3.371.538-4.848 12.263-21.998 8.14-50.545-12.024-68.037-20.419-17.713-51.058-17.584-71.378-.21 15.788-2.785 32.625 1.297 45.438 12.412 20.164 17.492 24.287 46.039 12.024 68.037-.823 1.476-1.009 3.224-.538 4.848l1.729 5.959c1.873-.871 3.708-1.845 5.491-2.938 1.436-.88 3.172-1.13 4.808-.728l14.799 3.641c2.094.515 3.96-1.429 3.359-3.5z" fill="#ac80dd"/><g><path d="m293.751 168.514h-75.481c-50.694 0-91.937 41.242-91.937 91.936v195.012c0 10.571 8.6 19.172 19.171 19.172h17.427c-.559 3.258-.866 6.601-.866 10.017v13.285c0 7.759 6.312 14.07 14.07 14.07h50.819c4.143 0 7.5-3.357 7.5-7.5s-3.357-7.5-7.5-7.5h-49.89v-12.356c0-24.311 19.778-44.089 44.09-44.089h6.799v6.033c0 15.461 12.578 28.039 28.038 28.039 15.461 0 28.039-12.578 28.039-28.039v-6.033h6.837c24.311 0 44.089 19.778 44.089 44.089v12.355h-78.015c-4.143 0-7.5 3.357-7.5 7.5s3.357 7.5 7.5 7.5h78.944c7.759 0 14.07-6.312 14.07-14.07v-13.285c0-3.415-.308-6.758-.866-10.017h17.426c10.571 0 19.172-8.601 19.172-19.172v-96.141c0-4.143-3.357-7.5-7.5-7.5s-7.5 3.357-7.5 7.5v96.141c0 2.301-1.871 4.172-4.172 4.172h-22.133c-7.251-15.449-20.994-27.257-37.697-31.905 33.286-18.059 55.937-53.323 55.937-93.779v-59.952c0-5.418-4.243-9.909-9.665-10.226-26.189-1.515-46.686-6.576-61.585-26.357-3.119-4.135-8.986-5.164-13.358-2.337-30.703 19.839-67.256 28.729-118.516 28.822-5.569.008-10.1 4.54-10.1 10.104v59.946c0 40.456 22.652 75.72 55.938 93.779-16.703 4.648-30.447 16.456-37.698 31.905h-22.135c-2.3 0-4.171-1.871-4.171-4.172v-195.011c0-42.423 34.514-76.936 76.937-76.936h75.481c42.423 0 76.937 34.513 76.937 76.936v68.884c0 4.143 3.357 7.5 7.5 7.5s7.5-3.357 7.5-7.5v-68.884c.001-50.694-41.242-91.936-91.936-91.936zm-24.721 278.08c0 7.189-5.85 13.039-13.039 13.039s-13.038-5.85-13.038-13.039v-6.033h26.077zm-104.631-112.644v-55.085c49.74-.631 86.497-9.594 117.909-28.772 18.038 21.301 41.779 26.604 65.314 28.36v55.497c0 50.515-41.097 91.611-91.611 91.611h-.001c-50.515 0-91.611-41.097-91.611-91.611z"/><path d="m219.381 328.035c0-4.143-3.357-7.5-7.5-7.5s-7.5 3.357-7.5 7.5v5.771c0 4.143 3.357 7.5 7.5 7.5s7.5-3.357 7.5-7.5z"/><path d="m300.14 341.305c4.143 0 7.5-3.357 7.5-7.5v-5.771c0-4.143-3.357-7.5-7.5-7.5s-7.5 3.357-7.5 7.5v5.771c0 4.143 3.357 7.5 7.5 7.5z"/><path d="m288.911 381.421c3.621-2.01 4.928-6.575 2.918-10.197-2.011-3.622-6.574-4.927-10.197-2.918-17.239 9.567-34.002 9.569-51.243 0-3.623-2.009-8.187-.704-10.197 2.918s-.703 8.188 2.918 10.197c10.916 6.058 21.908 9.087 32.9 9.087 10.993 0 21.985-3.029 32.901-9.087z"/><path d="m239.704 122.335 7.386 12.792c1.834 3.177 5.253 5.15 8.921 5.15s7.087-1.974 8.921-5.15l7.385-12.793c27.077-7.33 45.943-31.96 45.943-60.08 0-17.076-6.777-33.005-19.082-44.851-12.3-11.841-28.492-18-45.591-17.352-31.897 1.214-58.141 27.128-59.744 58.995-1.469 29.155 17.792 55.688 45.861 63.289zm-30.881-62.534c1.217-24.178 21.13-43.839 45.334-44.761.624-.023 1.245-.035 1.865-.035 12.296 0 23.865 4.649 32.752 13.205 9.341 8.992 14.485 21.082 14.485 34.044 0 21.479-14.495 40.272-35.249 45.704-3.529.924-6.608 3.282-8.45 6.471l-3.55 6.149-3.552-6.151c-1.84-3.185-4.924-5.544-8.463-6.472-21.501-5.634-36.293-25.886-35.172-48.154z"/><path d="m346.037 139.915c-.284 3.657 1.419 7.219 4.444 9.293 3.03 2.077 6.963 2.379 10.27.798l13.326-6.373c26.479 9.271 55.966-.375 71.869-23.564 9.657-14.083 13.077-31.052 9.629-47.78-3.446-16.722-13.314-30.962-27.784-40.096-26.993-17.04-63.292-10.51-82.638 14.863-17.699 23.213-16.82 55.989 2.028 78.132zm11.044-83.763c9.165-12.021 23.343-18.466 37.688-18.466 8.63 0 17.322 2.334 25.015 7.19 10.991 6.938 18.485 17.749 21.102 30.44 2.617 12.699.021 25.579-7.31 36.268-12.147 17.714-34.732 25.012-54.917 17.759-3.435-1.236-7.311-1.031-10.63.556l-6.405 3.063.55-7.081c.284-3.666-.925-7.355-3.319-10.125-14.546-16.807-15.292-41.875-1.774-59.604z"/><path d="m492.961 166.405c-22.964-22.171-59.832-23.162-83.933-2.253-22.051 19.127-27.856 51.396-13.905 76.909l-4.116 14.188c-1.021 3.522-.079 7.354 2.46 10.002 2.54 2.646 6.331 3.744 9.895 2.871l14.344-3.53c9.923 5.969 21.001 8.887 32.02 8.887 15.674 0 31.227-5.908 43.141-17.342 12.32-11.824 19.119-27.743 19.146-44.823.023-17.073-6.742-33.023-19.052-44.909zm-10.482 78.91c-15.497 14.872-39.094 17.429-57.382 6.217-2.164-1.327-4.679-2.016-7.213-2.016-1.108 0-2.22.132-3.308.398l-6.896 1.697 1.978-6.817c1.026-3.532.594-7.392-1.188-10.593-10.823-19.414-6.455-44.109 10.388-58.72 18.285-15.863 46.261-15.111 63.684 1.714 9.351 9.028 14.489 21.137 14.47 34.095-.021 12.966-5.182 25.05-14.533 34.025z"/><path d="m102.983 164.152c-24.104-20.91-60.971-19.92-83.935 2.253-12.309 11.886-19.073 27.836-19.048 44.909.026 17.08 6.825 32.999 19.146 44.823 11.915 11.435 27.465 17.342 43.141 17.342 11.017 0 22.098-2.919 32.019-8.887l14.346 3.53c3.564.878 7.353-.226 9.893-2.871 2.539-2.647 3.481-6.479 2.46-10.002l-4.115-14.187c13.947-25.515 8.142-57.784-13.907-76.91zm.558 70.05c-1.781 3.195-2.216 7.055-1.19 10.59l1.979 6.82-6.896-1.697c-3.578-.881-7.411-.29-10.52 1.616-18.29 11.213-41.886 8.656-57.382-6.216-9.351-8.975-14.512-21.059-14.532-34.025-.02-12.958 5.119-25.066 14.469-34.095 17.424-16.824 45.397-17.576 63.686-1.714 16.841 14.611 21.209 39.306 10.386 58.721z"/><path d="m66.064 120.069c15.905 23.189 45.396 32.832 71.869 23.564l13.326 6.372c3.302 1.58 7.236 1.284 10.271-.797 3.025-2.074 4.729-5.636 4.444-9.293l-1.145-14.728c18.847-22.146 19.727-54.921 2.027-78.131-19.346-25.375-55.644-31.905-82.638-14.864-9.625 6.076-17.392 14.643-22.46 24.771-1.854 3.704-.354 8.21 3.351 10.063 3.706 1.854 8.21.354 10.063-3.351 3.845-7.684 9.742-14.185 17.053-18.801 20.482-12.928 48.023-7.979 62.703 11.275 13.519 17.729 12.773 42.797-1.771 59.604-2.395 2.766-3.604 6.457-3.319 10.126l.55 7.08-6.402-3.062c-3.321-1.59-7.198-1.794-10.632-.559-20.188 7.255-42.771-.044-54.919-17.758-4.546-6.628-7.341-14.333-8.082-22.281-.385-4.125-4.059-7.147-8.164-6.771-4.124.385-7.156 4.04-6.771 8.164.977 10.489 4.658 20.646 10.646 29.377z"/></g></g></svg>