<svg id="Capa_1" enable-background="new 0 0 512 512" height="512" viewBox="0 0 512 512" width="512" xmlns="http://www.w3.org/2000/svg"><g><path d="m95.569 71.638v160.396c0 9.643 7.817 17.46 17.46 17.46h285.943c9.643 0 17.46-7.817 17.46-17.46v-160.396c0-35.422-28.715-64.137-64.137-64.137-10.901 0-21.47 3.749-29.934 10.617l-3.518 2.855c-1.068.866-2.58.922-3.709.137l-7.338-5.103c-7.962-5.538-17.428-8.506-27.126-8.506h-120.964c-35.422-.001-64.137 28.715-64.137 64.137z" fill="#365e7d"/><g><path d="m352.295 7.5c-5.418 0-10.754.928-15.79 2.703 26.433 7.922 45.701 32.423 45.701 61.434v160.396c0 9.643-7.817 17.46-17.46 17.46h34.227c9.643 0 17.46-7.817 17.46-17.46v-160.395c-.001-35.422-28.716-64.138-64.138-64.138z" fill="#2b4d66"/></g><path d="m301.771 345.031h-18.801-53.939-18.801c-37.413 0-67.742 30.329-67.742 67.742v83.1c0 4.765 3.863 8.628 8.627 8.628h209.77c4.765 0 8.628-3.863 8.628-8.628v-83.1c0-37.413-30.329-67.742-67.742-67.742z" fill="#365e7d"/><path d="m301.771 345.031h-33.008c37.413 0 67.742 30.329 67.742 67.742v83.1c0 4.765-3.863 8.628-8.628 8.628h33.008c4.765 0 8.627-3.863 8.627-8.628v-83.1c.001-37.413-30.328-67.742-67.741-67.742z" fill="#2b4d66"/><g><path d="m274.881 295.08-36.221-2.131c-9.248 0-9.654 43.328-9.654 43.328v26.524c0 14.895 12.075 26.97 26.97 26.97 14.895 0 26.97-12.075 26.97-26.97v-26.524c-.001 0 1.183-41.197-8.065-41.197z" fill="#eaac9d"/></g><path d="m256.001 345.031c-71.877 0-130.145-58.268-130.145-130.144v-78.716c0-1.89 1.537-3.415 3.427-3.419 60.234-.111 113.469-8.738 160.955-39.423 1.419-.917 3.315-.624 4.331.725 21.444 28.468 50.691 36.346 88.165 38.514 1.911.111 3.411 1.68 3.411 3.595v78.724c0 71.876-58.268 130.144-130.144 130.144z" fill="#ffcbbe"/><path d="m382.734 132.568c-11.027-.638-21.336-1.778-30.949-3.783v86.102c0 66.052-49.209 120.606-112.965 129.014 5.622.741 11.355 1.13 17.18 1.13 71.877 0 130.144-58.268 130.144-130.144v-78.724c.001-1.914-1.499-3.484-3.41-3.595z" fill="#eaac9d"/><path d="m184.598 194.761v128.94c9.55 6.279 19.975 11.334 31.054 14.944v-143.885c-10.352-2.931-20.703-2.931-31.054.001z" fill="#80b4fb"/><path d="m296.349 194.76v143.885c11.079-3.61 21.504-8.665 31.054-14.944v-128.94c-10.351-2.932-20.703-2.932-31.054-.001z" fill="#80b4fb"/><path d="m253.792 307.043c-8.268 0-14.971-6.703-14.971-14.971v-11.497c0-8.268 6.703-14.971 14.971-14.971 8.268 0 14.971 6.703 14.971 14.971v11.497c0 8.268-6.703 14.971-14.971 14.971z" fill="#da4a54"/><g><path d="m416.432 205.306c4.143 0 7.5-3.357 7.5-7.5v-126.168c0-39.501-32.136-71.638-71.637-71.638-12.581 0-24.89 4.366-34.661 12.294l-.941.764-4.614-3.209c-9.266-6.444-20.127-9.849-31.41-9.849h-120.963c-39.501 0-71.638 32.137-71.638 71.638v160.396c0 13.763 11.197 24.96 24.961 24.96h11.922c11.2 34.776 36.552 65.115 71.224 81.874-34.791 6.604-61.187 37.221-61.187 73.905v83.101c0 8.893 7.234 16.127 16.127 16.127h139.646c4.143 0 7.5-3.357 7.5-7.5s-3.357-7.5-7.5-7.5h-139.646c-.621 0-1.127-.506-1.127-1.127v-83.101c0-33.217 27.024-60.241 60.242-60.241h11.275v10.271c0 19.007 15.463 34.47 34.47 34.47s34.47-15.463 34.47-34.47v-10.271h11.325c33.218 0 60.242 27.024 60.242 60.241v83.101c0 .621-.506 1.127-1.128 1.127h-40.137c-4.143 0-7.5 3.357-7.5 7.5s3.357 7.5 7.5 7.5h40.137c8.893 0 16.128-7.234 16.128-16.127v-83.101c0-36.684-26.395-67.301-61.187-73.905 33.587-16.235 59.672-46.01 71.223-81.874h11.923c13.763 0 24.96-11.197 24.96-24.96v-4.241c0-4.143-3.357-7.5-7.5-7.5s-7.5 3.357-7.5 7.5v4.241c0 5.492-4.468 9.96-9.96 9.96h-8.014c1.758-8.767 2.687-17.831 2.687-27.107v-78.724c0-5.875-4.603-10.743-10.477-11.082-35.044-2.027-62.502-8.847-82.608-35.539-3.355-4.455-9.679-5.56-14.393-2.512-40.716 26.31-89.104 38.098-156.899 38.222-6.017.013-10.912 4.911-10.912 10.919v41.631c0 4.143 3.357 7.5 7.5 7.5s7.5-3.357 7.5-7.5v-37.572c66.975-.58 115.948-12.538 157.68-38.526 23.845 29.284 55.953 35.971 87.609 38.122v75.061c0 37.6-17.014 71.297-43.741 93.812v-103.456c3.356.456 6.54-1.371 7.875-4.415 1.663-3.794-.064-8.217-3.858-9.88-17.294-7.58-35.655-8.079-54.088 0-3.794 1.663-5.521 6.086-3.858 9.88 1.376 3.138 4.641 4.858 7.875 4.418v127.812c-10.459 2.911-21.474 4.474-32.849 4.474-11.374 0-22.389-1.562-32.848-4.474v-127.815c3.356.456 6.54-1.371 7.875-4.415 1.663-3.794-.064-8.217-3.858-9.88-17.866-7.83-36.263-7.813-54.089 0-3.794 1.663-5.521 6.086-3.858 9.88 1.376 3.139 4.641 4.858 7.876 4.417v103.455c-26.728-22.516-43.742-56.212-43.742-93.813v-7.098c0-4.143-3.357-7.5-7.5-7.5s-7.5 3.357-7.5 7.5v7.098c0 9.277.928 18.34 2.687 27.107h-8.013c-5.492 0-9.961-4.468-9.961-9.96v-160.396c0-31.23 25.407-56.638 56.638-56.638h120.963c8.207 0 16.106 2.477 22.844 7.163l7.338 5.104c3.849 2.678 9.077 2.484 12.718-.471l3.518-2.854c7.104-5.766 16.057-8.942 25.207-8.942 31.229 0 56.637 25.407 56.637 56.638v126.168c0 4.142 3.357 7.5 7.5 7.5zm-112.583-4.569c5.321-.91 10.681-.919 16.055 0v118.791c-5.118 3.137-10.48 5.911-16.055 8.282zm-47.848 151.794c6.6 0 13.09-.478 19.444-1.38v11.65c0 10.735-8.734 19.47-19.47 19.47s-19.47-8.734-19.47-19.47v-11.657c6.372.908 12.878 1.387 19.496 1.387zm-63.903-151.794c5.467-.934 10.844-.89 16.055 0v127.073c-5.574-2.371-10.937-5.145-16.055-8.282z"/><path d="m253.792 314.543c12.391 0 22.471-10.08 22.471-22.471v-11.497c0-12.391-10.08-22.472-22.471-22.472s-22.472 10.081-22.472 22.472v11.497c0 12.391 10.081 22.471 22.472 22.471zm-7.472-33.968c0-4.12 3.352-7.472 7.472-7.472 4.119 0 7.471 3.352 7.471 7.472v11.497c0 4.119-3.352 7.471-7.471 7.471-4.12 0-7.472-3.352-7.472-7.471z"/></g></g></svg>