<svg id="Capa_1" enable-background="new 0 0 512.001 512.001" height="512" viewBox="0 0 512.001 512.001" width="512" xmlns="http://www.w3.org/2000/svg"><g><path d="m396.723 279.495h-281.445c-10.885 0-19.709-8.824-19.709-19.709v-112.12c0-66.365 53.8-120.165 120.165-120.165h80.534c66.365 0 120.165 53.8 120.165 120.165v112.12c-.001 10.885-8.825 19.709-19.71 19.709z" fill="#e49542"/><path d="m296.268 27.501h-34.664c66.365 0 120.165 53.8 120.165 120.165v112.12c0 10.885-8.824 19.709-19.709 19.709h34.664c10.885 0 19.709-8.824 19.709-19.709v-112.12c-.001-66.365-53.8-120.165-120.165-120.165z" fill="#e27d47"/><path d="m301.771 365.032h-18.801-53.939-18.801c-37.413 0-67.742 30.329-67.742 67.742v63.1c0 4.765 3.863 8.627 8.628 8.627h209.77c4.765 0 8.628-3.863 8.628-8.627v-63.1c-.001-37.413-30.33-67.742-67.743-67.742z" fill="#365e7d"/><path d="m301.771 365.032h-33.008c37.413 0 67.742 30.329 67.742 67.742v63.1c0 4.765-3.863 8.628-8.628 8.628h33.008c4.765 0 8.627-3.863 8.627-8.628v-63.1c.001-37.413-30.328-67.742-67.741-67.742z" fill="#2b4d66"/><g><path d="m274.881 315.081-36.221-2.131c-9.248 0-9.654 43.328-9.654 43.328v26.524c0 14.895 12.075 26.97 26.97 26.97 14.895 0 26.97-12.075 26.97-26.97v-26.524s1.183-41.197-8.065-41.197z" fill="#eaac9d"/></g><path d="m256.001 365.032c-71.877 0-130.145-58.268-130.145-130.144v-68.716c0-1.89 1.537-3.415 3.427-3.419 60.234-.111 113.469-8.738 160.955-39.423 1.419-.917 3.315-.624 4.331.725 21.444 28.468 50.691 36.346 88.165 38.514 1.911.111 3.411 1.68 3.411 3.595v68.724c0 71.876-58.268 130.144-130.144 130.144z" fill="#ffcbbe"/><path d="m382.734 162.569c-11.027-.638-21.336-1.778-30.949-3.783v76.102c0 66.052-49.209 120.606-112.965 129.014 5.622.741 11.355 1.13 17.18 1.13 71.877 0 130.144-58.268 130.144-130.144v-68.724c.001-1.914-1.499-3.484-3.41-3.595z" fill="#eaac9d"/><g><path d="m296.268 20.001h-66.6l5.522-8.369c2.281-3.457 1.328-8.109-2.129-10.391-3.459-2.283-8.111-1.327-10.391 2.129l-8.221 12.458-14.189-13.718c-2.979-2.881-7.728-2.801-10.604.179-2.88 2.978-2.8 7.726.179 10.604l8.563 8.279c-32.711 4.416-62.357 21.257-83.133 47.718-2.558 3.259-1.99 7.973 1.268 10.531 3.258 2.556 7.973 1.989 10.531-1.268 21.53-27.424 53.85-43.152 88.67-43.152h80.534c62.124 0 112.665 50.541 112.665 112.664v112.12c0 6.732-5.477 12.209-12.209 12.209h-8.166c3.31-11.81 5.086-24.255 5.086-37.107v-5.293c0-4.143-3.357-7.5-7.5-7.5s-7.5 3.357-7.5 7.5v5.293c0 67.626-55.019 122.645-122.645 122.645s-122.645-55.019-122.645-122.645v-64.655c66.977-.582 115.95-12.54 157.68-38.527 23.845 29.284 55.957 35.972 87.609 38.122v29.781c0 4.143 3.357 7.5 7.5 7.5s7.5-3.357 7.5-7.5v-33.444c0-5.872-4.602-10.74-10.478-11.082-35.043-2.027-62.501-8.847-82.607-35.539-3.355-4.455-9.679-5.56-14.393-2.512-40.714 26.309-89.103 38.098-156.895 38.223-6.02.01-10.916 4.907-10.916 10.918v68.716c0 12.853 1.776 25.297 5.086 37.107h-8.165c-6.732 0-12.209-5.477-12.209-12.209v-112.12c0-15.783 3.206-31.059 9.529-45.4 1.671-3.79-.047-8.217-3.837-9.888-3.79-1.672-8.216.046-9.888 3.837-7.17 16.26-10.805 33.57-10.805 51.451v112.12c0 15.003 12.206 27.209 27.209 27.209h13.331c12.915 31.458 37.148 57.115 67.613 71.865-34.814 6.585-61.234 37.214-61.234 73.914v63.1c0 8.893 7.234 16.128 16.127 16.128h139.645c4.143 0 7.5-3.357 7.5-7.5s-3.357-7.5-7.5-7.5h-139.641c-.621 0-1.127-.506-1.127-1.128v-63.1c0-33.218 27.024-60.242 60.242-60.242h11.275v10.271c0 19.007 15.463 34.47 34.47 34.47s34.47-15.463 34.47-34.47v-10.271h11.325c33.218 0 60.242 27.024 60.242 60.242v63.1c0 .622-.506 1.128-1.128 1.128h-40.137c-4.143 0-7.5 3.357-7.5 7.5s3.357 7.5 7.5 7.5h40.137c8.893 0 16.128-7.235 16.128-16.128v-63.1c0-36.7-26.419-67.329-61.234-73.914 30.465-14.75 54.698-40.407 67.612-71.865h13.332c15.003 0 27.209-12.206 27.209-27.209v-112.12c.002-70.395-57.269-127.665-127.663-127.665zm-40.292 382.271c-10.735 0-19.47-8.734-19.47-19.47v-11.657c6.371.907 12.878 1.387 19.495 1.387 6.6 0 13.09-.477 19.444-1.38v11.65c0 10.735-8.734 19.47-19.469 19.47z"/><path d="m193.241 219.666v5.289c0 4.143 3.357 7.5 7.5 7.5s7.5-3.357 7.5-7.5v-5.289c0-4.143-3.357-7.5-7.5-7.5s-7.5 3.358-7.5 7.5z"/><path d="m311.26 212.166c-4.143 0-7.5 3.357-7.5 7.5v5.289c0 4.143 3.357 7.5 7.5 7.5s7.5-3.357 7.5-7.5v-5.289c0-4.142-3.358-7.5-7.5-7.5z"/><path d="m217.378 180.661c-2.35-3.412-7.018-4.274-10.431-1.927-9.991 6.878-19.14 2.551-19.656 2.295-3.647-1.884-8.143-.483-10.068 3.152-1.939 3.66-.545 8.199 3.115 10.139.413.219 6.365 3.287 14.808 3.287 5.899 0 13.016-1.499 20.306-6.516 3.411-2.348 4.274-7.017 1.926-10.43z"/><path d="m334.778 184.182c-1.939-3.659-6.478-5.054-10.139-3.115-.091.048-9.435 4.655-19.586-2.332-3.413-2.348-8.082-1.485-10.431 1.927-2.348 3.412-1.485 8.082 1.927 10.431 7.291 5.018 14.406 6.516 20.306 6.516 8.44 0 14.395-3.068 14.808-3.287 3.66-1.941 5.055-6.48 3.115-10.14z"/><path d="m173.785 279.821c0 4.143 3.357 7.5 7.5 7.5 8.833 0 10.472 8 24.903 8 14.176 0 16.271-8 24.903-8 8.833 0 10.472 8 24.903 8 14.176 0 16.272-8 24.904-8 8.835 0 10.474 8 24.908 8 14.178 0 16.274-8 24.907-8 4.143 0 7.5-3.357 7.5-7.5s-3.357-7.5-7.5-7.5c-14.176 0-16.275 8-24.907 8-8.835 0-10.474-8-24.908-8-14.176 0-16.272 8-24.904 8-8.834 0-10.471-8-24.903-8-14.175 0-16.272 8-24.903 8-8.834 0-10.471-8-24.903-8-4.142 0-7.5 3.357-7.5 7.5z"/></g></g></svg>