<svg id="Capa_1" enable-background="new 0 0 512 512" height="512" viewBox="0 0 512 512" width="512" xmlns="http://www.w3.org/2000/svg"><g><path d="m95.568 71.638v160.396c0 9.643 7.817 17.46 17.46 17.46h285.943c9.643 0 17.46-7.817 17.46-17.46v-160.396c0-35.422-28.715-64.137-64.137-64.137-10.901 0-21.47 3.749-29.934 10.617l-3.518 2.855c-1.068.866-2.58.922-3.709.137l-7.338-5.103c-7.962-5.538-17.428-8.506-27.126-8.506h-120.964c-35.422-.001-64.137 28.715-64.137 64.137z" fill="#365e7d"/><g><path d="m352.294 7.5c-5.418 0-10.754.928-15.79 2.703 26.433 7.922 45.701 32.423 45.701 61.434v160.396c0 9.643-7.817 17.46-17.46 17.46h34.227c9.643 0 17.46-7.817 17.46-17.46v-160.395c0-35.422-28.716-64.138-64.138-64.138z" fill="#2b4d66"/></g><path d="m301.77 345.031h-18.8-53.94-18.8c-37.413 0-67.742 30.329-67.742 67.742v83.1c0 4.765 3.863 8.628 8.628 8.628h209.77c4.765 0 8.628-3.863 8.628-8.628v-83.1c-.002-37.413-30.331-67.742-67.744-67.742z" fill="#80b4fb"/><path d="m301.77 345.031h-33.008c37.413 0 67.742 30.329 67.742 67.742v83.1c0 4.765-3.863 8.628-8.628 8.628h33.008c4.765 0 8.627-3.863 8.627-8.628v-83.1c.001-37.413-30.328-67.742-67.741-67.742z" fill="#61a2f9"/><g><path d="m274.88 295.08-36.221-2.131c-9.248 0-9.654 43.328-9.654 43.328v26.524c0 14.895 12.075 26.97 26.97 26.97 14.895 0 26.97-12.075 26.97-26.97v-26.524s1.183-41.197-8.065-41.197z" fill="#eaac9d"/></g><path d="m256 345.031c-71.877 0-130.145-58.268-130.145-130.144v-78.716c0-1.89 1.537-3.415 3.427-3.419 60.234-.111 113.469-8.738 160.955-39.423 1.419-.917 3.315-.624 4.332.725 21.444 28.468 50.691 36.346 88.165 38.514 1.911.111 3.411 1.68 3.411 3.595v78.724c-.001 71.876-58.268 130.144-130.145 130.144z" fill="#ffcbbe"/><path d="m382.733 132.568c-11.027-.638-21.336-1.778-30.949-3.783v86.102c0 66.052-49.209 120.606-112.965 129.014 5.622.742 11.355 1.13 17.18 1.13 71.877 0 130.144-58.268 130.144-130.144v-78.724c.001-1.914-1.499-3.484-3.41-3.595z" fill="#eaac9d"/><ellipse cx="200.74" cy="195.311" fill="#f6f9f9" rx="21.604" ry="23.604"/><ellipse cx="311.259" cy="195.311" fill="#f6f9f9" rx="21.604" ry="23.604"/><g><path d="m201.443 264.165c0 31.458 26.625 56.697 58.569 54.413 26.602-1.902 48.158-23.222 50.353-49.802.436-5.277.115-10.411-.86-15.31-.356-1.786-1.946-3.06-3.767-3.06h-99.474c-1.827 0-3.416 1.282-3.773 3.074-.686 3.456-1.048 7.028-1.048 10.685z" fill="#da4a54"/><path d="m271.602 280.807c-10.359 0-15.602 8.434-15.602 8.434s-5.242-8.434-15.602-8.434c-9.236 0-15.602 8.658-15.602 18.741 0 3.513.793 7.221 2.507 11.014 8.338 5.168 18.166 8.159 28.697 8.159s20.359-2.991 28.696-8.159c1.714-3.793 2.507-7.501 2.507-11.014 0-10.083-6.365-18.741-15.601-18.741z" fill="#dd636e"/></g><g><path d="m416.432 85.306c4.143 0 7.5-3.357 7.5-7.5v-6.168c0-39.501-32.137-71.638-71.638-71.638-12.581 0-24.89 4.366-34.661 12.294l-.941.764-4.614-3.209c-9.265-6.444-20.126-9.849-31.41-9.849h-120.962c-39.501 0-71.638 32.137-71.638 71.638v160.396c0 13.763 11.197 24.96 24.961 24.96h11.922c11.595 36.002 37.636 65.581 71.271 81.865-34.814 6.585-61.234 37.213-61.234 73.913v83.101c0 8.893 7.234 16.127 16.127 16.127h139.645c4.143 0 7.5-3.357 7.5-7.5s-3.357-7.5-7.5-7.5h-139.645c-.621 0-1.127-.506-1.127-1.127v-83.101c0-33.217 27.024-60.241 60.242-60.241h11.275v10.271c0 19.007 15.463 34.47 34.47 34.47s34.47-15.463 34.47-34.47v-10.271h11.325c33.218 0 60.242 27.024 60.242 60.241v83.101c0 .621-.506 1.127-1.128 1.127h-40.137c-4.143 0-7.5 3.357-7.5 7.5s3.357 7.5 7.5 7.5h40.137c8.893 0 16.128-7.234 16.128-16.127v-83.101c0-36.7-26.419-67.328-61.234-73.913 33.634-16.284 59.674-45.863 71.27-81.865h11.923c13.764 0 24.961-11.197 24.961-24.96v-124.241c0-4.143-3.357-7.5-7.5-7.5s-7.5 3.357-7.5 7.5v124.241c0 5.492-4.469 9.96-9.961 9.96h-8.014c1.758-8.767 2.687-17.831 2.687-27.107v-78.724c0-5.875-4.603-10.743-10.477-11.082-35.044-2.027-62.502-8.847-82.608-35.539-3.355-4.455-9.679-5.56-14.393-2.512-40.716 26.31-89.104 38.098-156.899 38.222-6.017.013-10.912 4.911-10.912 10.919v41.631c0 4.143 3.357 7.5 7.5 7.5s7.5-3.357 7.5-7.5v-37.572c66.975-.58 115.948-12.538 157.68-38.526 23.845 29.284 55.953 35.971 87.609 38.122v75.061c0 67.626-55.019 122.645-122.645 122.645s-122.645-55.019-122.645-122.645v-7.098c0-4.143-3.357-7.5-7.5-7.5s-7.5 3.357-7.5 7.5v7.098c0 9.277.928 18.34 2.687 27.107h-8.013c-5.492 0-9.961-4.468-9.961-9.96v-160.396c0-31.23 25.407-56.638 56.638-56.638h120.963c8.207 0 16.106 2.477 22.845 7.163l7.338 5.104c3.848 2.677 9.077 2.483 12.717-.471l3.518-2.854c7.106-5.766 16.058-8.942 25.208-8.942 31.23 0 56.638 25.407 56.638 56.638v6.168c0 4.142 3.358 7.5 7.5 7.5zm-160.432 267.225c6.6 0 13.09-.477 19.444-1.38v11.65c0 10.735-8.734 19.47-19.47 19.47s-19.47-8.734-19.47-19.47v-11.657c6.372.908 12.879 1.387 19.496 1.387z"/><path d="m200.741 185.166c-4.143 0-7.5 3.357-7.5 7.5v5.289c0 4.143 3.357 7.5 7.5 7.5s7.5-3.357 7.5-7.5v-5.289c0-4.143-3.358-7.5-7.5-7.5z"/><path d="m311.259 205.455c4.143 0 7.5-3.357 7.5-7.5v-5.289c0-4.143-3.357-7.5-7.5-7.5s-7.5 3.357-7.5 7.5v5.289c0 4.143 3.358 7.5 7.5 7.5z"/><path d="m195.136 252.018c-.792 3.979-1.193 8.065-1.193 12.147 0 17.167 7.209 33.725 19.778 45.427 12.762 11.881 29.416 17.721 46.826 16.467 29.969-2.142 54.79-26.357 57.293-56.665.483-5.852.153-11.703-.979-17.391-1.049-5.271-5.727-9.096-11.122-9.096h-99.475c-5.398 0-10.078 3.832-11.128 9.111zm64.341 59.08c-9.299.669-18.281-1.327-26.154-5.68-.682-1.998-1.026-3.964-1.026-5.869 0-5.525 3.03-11.24 8.102-11.24 5.675 0 8.887 4.399 9.256 4.935 1.348 2.283 3.692 3.686 6.346 3.686s4.998-1.402 6.345-3.686c.37-.534 3.582-4.935 9.258-4.935 5.071 0 8.102 5.715 8.102 11.24 0 1.88-.339 3.821-1.004 5.794-5.797 3.222-12.317 5.261-19.225 5.755zm-50.12-53.191h93.286c.448 3.374.532 6.811.248 10.252-.735 8.895-4.021 17.117-9.1 23.948-2.76-10.978-11.52-18.8-22.189-18.8-6.457 0-11.732 2.386-15.603 5.265-3.87-2.879-9.145-5.265-15.602-5.265-10.694 0-19.469 7.859-22.208 18.879-6.001-8.041-9.247-17.732-9.247-28.021.001-2.095.14-4.189.415-6.258z"/></g></g></svg>