<?xml version="1.0" encoding="UTF-8"?>
<svg xmlns="http://www.w3.org/2000/svg" xmlns:xlink="http://www.w3.org/1999/xlink" width="37.5pt" height="37.499999pt" viewBox="0 0 37.5 37.499999" version="1.2">
<defs>
<clipPath id="clip1">
  <path d="M 0.125 0.125 L 12 0.125 L 12 12 L 0.125 12 Z M 0.125 0.125 "/>
</clipPath>
<clipPath id="clip2">
  <path d="M 0.125 26 L 12 26 L 12 37.007812 L 0.125 37.007812 Z M 0.125 26 "/>
</clipPath>
<clipPath id="clip3">
  <path d="M 26 0.125 L 37.007812 0.125 L 37.007812 12 L 26 12 Z M 26 0.125 "/>
</clipPath>
<clipPath id="clip4">
  <path d="M 26 14 L 37.007812 14 L 37.007812 27 L 26 27 Z M 26 14 "/>
</clipPath>
<clipPath id="clip5">
  <path d="M 26 29 L 37.007812 29 L 37.007812 37.007812 L 26 37.007812 Z M 26 29 "/>
</clipPath>
<clipPath id="clip6">
  <path d="M 14 0.125 L 24 0.125 L 24 12 L 14 12 Z M 14 0.125 "/>
</clipPath>
<clipPath id="clip7">
  <path d="M 14 14 L 30 14 L 30 37.007812 L 14 37.007812 Z M 14 14 "/>
</clipPath>
<clipPath id="clip8">
  <path d="M 14 32 L 18 32 L 18 37.007812 L 14 37.007812 Z M 14 32 "/>
</clipPath>
<clipPath id="clip9">
  <path d="M 0.125 6 L 18 6 L 18 24 L 0.125 24 Z M 0.125 6 "/>
</clipPath>
</defs>
<g id="surface1">
<g clip-path="url(#clip1)" clip-rule="nonzero">
<path style=" stroke:none;fill-rule:nonzero;fill:rgb(32.939148%,32.939148%,32.939148%);fill-opacity:1;" d="M 0.125 0.125 L 0.125 11.0625 L 11.0625 11.0625 L 11.0625 0.125 Z M 7.9375 7.9375 L 3.25 7.9375 L 3.25 3.25 L 7.9375 3.25 Z M 7.9375 7.9375 "/>
</g>
<g clip-path="url(#clip2)" clip-rule="nonzero">
<path style=" stroke:none;fill-rule:nonzero;fill:rgb(32.939148%,32.939148%,32.939148%);fill-opacity:1;" d="M 0.125 26.6875 L 0.125 37.625 L 11.0625 37.625 L 11.0625 26.6875 Z M 7.9375 34.5 L 3.25 34.5 L 3.25 29.8125 L 7.9375 29.8125 Z M 7.9375 34.5 "/>
</g>
<g clip-path="url(#clip3)" clip-rule="nonzero">
<path style=" stroke:none;fill-rule:nonzero;fill:rgb(32.939148%,32.939148%,32.939148%);fill-opacity:1;" d="M 26.6875 0.125 L 26.6875 11.0625 L 37.625 11.0625 L 37.625 0.125 Z M 34.5 7.9375 L 29.8125 7.9375 L 29.8125 3.25 L 34.5 3.25 Z M 34.5 7.9375 "/>
</g>
<g clip-path="url(#clip4)" clip-rule="nonzero">
<path style=" stroke:none;fill-rule:nonzero;fill:rgb(32.939148%,32.939148%,32.939148%);fill-opacity:1;" d="M 34.5 14.1875 L 34.5 23.5625 L 26.6875 23.5625 L 26.6875 26.6875 L 37.625 26.6875 L 37.625 14.1875 Z M 34.5 14.1875 "/>
</g>
<g clip-path="url(#clip5)" clip-rule="nonzero">
<path style=" stroke:none;fill-rule:nonzero;fill:rgb(32.939148%,32.939148%,32.939148%);fill-opacity:1;" d="M 26.6875 29.8125 L 26.6875 37.625 L 29.8125 37.625 L 29.8125 32.9375 L 34.5 32.9375 L 34.5 37.625 L 37.625 37.625 L 37.625 29.8125 Z M 26.6875 29.8125 "/>
</g>
<g clip-path="url(#clip6)" clip-rule="nonzero">
<path style=" stroke:none;fill-rule:nonzero;fill:rgb(32.939148%,32.939148%,32.939148%);fill-opacity:1;" d="M 14.1875 0.125 L 14.1875 3.25 L 20.4375 3.25 L 20.4375 11.0625 L 23.5625 11.0625 L 23.5625 0.125 Z M 14.1875 0.125 "/>
</g>
<g clip-path="url(#clip7)" clip-rule="nonzero">
<path style=" stroke:none;fill-rule:nonzero;fill:rgb(32.939148%,32.939148%,32.939148%);fill-opacity:1;" d="M 20.4375 14.1875 L 20.4375 20.4375 L 14.1875 20.4375 L 14.1875 29.8125 L 20.4375 29.8125 L 20.4375 37.625 L 23.5625 37.625 L 23.5625 26.6875 L 17.3125 26.6875 L 17.3125 23.5625 L 23.5625 23.5625 L 23.5625 17.3125 L 26.6875 17.3125 L 26.6875 20.4375 L 29.8125 20.4375 L 29.8125 14.1875 Z M 20.4375 14.1875 "/>
</g>
<g clip-path="url(#clip8)" clip-rule="nonzero">
<path style=" stroke:none;fill-rule:nonzero;fill:rgb(32.939148%,32.939148%,32.939148%);fill-opacity:1;" d="M 14.1875 32.9375 L 17.3125 32.9375 L 17.3125 37.625 L 14.1875 37.625 Z M 14.1875 32.9375 "/>
</g>
<path style=" stroke:none;fill-rule:nonzero;fill:rgb(32.939148%,32.939148%,32.939148%);fill-opacity:1;" d="M 6.375 20.4375 L 11.0625 20.4375 L 11.0625 23.5625 L 6.375 23.5625 Z M 6.375 20.4375 "/>
<g clip-path="url(#clip9)" clip-rule="nonzero">
<path style=" stroke:none;fill-rule:nonzero;fill:rgb(32.939148%,32.939148%,32.939148%);fill-opacity:1;" d="M 14.1875 6.375 L 14.1875 14.1875 L 0.125 14.1875 L 0.125 23.5625 L 3.25 23.5625 L 3.25 17.3125 L 17.3125 17.3125 L 17.3125 6.375 Z M 14.1875 6.375 "/>
</g>
</g>
</svg>
